<?xml version="1.0" standalone="no"?>
<!DOCTYPE svg PUBLIC "-//W3C//DTD SVG 20010904//EN"
 "http://www.w3.org/TR/2001/REC-SVG-20010904/DTD/svg10.dtd">
<svg version="1.0" xmlns="http://www.w3.org/2000/svg"
 width="236.000000pt" height="306.000000pt" viewBox="0 0 236.000000 306.000000"
 preserveAspectRatio="xMidYMid meet">

<g transform="translate(0.000000,306.000000) scale(0.100000,-0.100000)"
fill="#000000" stroke="none">
<path d="M1523 2745 c-154 -24 -262 -108 -344 -270 -36 -72 -40 -88 -41 -155
-1 -41 2 -85 6 -97 7 -23 7 -23 -126 -25 l-133 -2 135 -6 135 -6 -157 -2 c-87
-1 -161 -2 -165 -2 -10 0 -10 4 -12 77 -1 76 -10 63 -13 -20 -1 -37 -6 -67
-11 -67 -5 0 -4 -7 3 -15 10 -13 9 -15 -9 -15 -11 0 -21 6 -21 13 -2 59 -13
183 -16 186 -2 2 -4 -31 -4 -74 0 -121 -17 -78 -25 64 -5 90 -4 122 4 117 6
-4 11 -21 11 -37 l0 -31 28 33 27 33 6 -39 c6 -39 6 -38 8 13 0 30 -5 65 -14
82 -18 36 -74 57 -105 40 -17 -9 -26 -8 -43 3 -24 15 -322 117 -341 116 -6 0
65 -27 158 -59 93 -33 171 -62 174 -64 8 -8 -19 -36 -35 -36 -8 0 -11 4 -8 10
3 6 -1 7 -10 4 -8 -4 -27 2 -43 12 -15 10 -33 17 -39 16 -7 -2 -13 1 -13 6 0
6 -7 13 -16 16 -8 3 -12 2 -9 -4 9 -14 0 -13 -43 6 -20 9 -47 18 -59 20 -41 5
-66 16 -87 38 -25 25 -71 32 -79 12 -7 -17 -1 -19 181 -76 73 -23 154 -50 179
-61 l45 -19 -63 -46 c-35 -26 -68 -51 -74 -57 -12 -13 38 17 80 48 17 12 39
25 49 28 16 6 17 5 6 -8 -15 -18 1 -20 18 -3 9 9 12 8 12 -6 0 -9 -4 -15 -9
-12 -5 4 -21 -8 -35 -25 -28 -33 -120 -103 -176 -135 -19 -10 -37 -22 -40 -25
-3 -3 -25 -6 -49 -6 l-44 0 24 21 c14 12 41 34 60 49 32 26 31 26 -11 -2 -90
-61 -87 -56 -52 -110 10 -14 8 -14 271 166 l76 53 6 -44 c7 -44 22 -424 20
-483 -1 -18 3 -33 8 -33 5 0 10 -63 10 -146 1 -80 4 -150 7 -156 3 -5 -3 -12
-15 -15 -27 -7 -28 -45 -2 -81 15 -22 19 -53 24 -167 5 -133 5 -142 -14 -153
-11 -7 -23 -11 -28 -8 -4 3 -8 -37 -8 -87 -1 -65 1 -79 6 -47 6 45 6 45 20 20
8 -14 19 -28 24 -32 6 -4 10 -43 9 -96 -2 -60 1 -93 9 -98 8 -5 10 3 7 25 -3
18 -1 34 3 36 3 3 5 25 4 51 -3 37 -1 45 12 40 8 -3 17 -6 19 -6 9 0 4 -39 -6
-45 -6 -3 -10 -37 -10 -75 0 -67 -14 -103 -23 -58 -4 20 -4 19 -6 -4 -1 -19 4
-28 14 -28 11 0 14 -7 10 -23 -8 -29 45 -104 83 -118 25 -10 259 -13 327 -5
17 2 60 7 96 10 37 4 89 10 118 15 28 4 51 4 51 0 0 -5 -1 -9 -3 -9 -2 0 -28
-4 -58 -10 -104 -19 -135 -21 -284 -25 -189 -5 -291 11 -364 55 -33 21 -33 21
-15 42 19 21 19 21 -3 9 l-23 -12 0 87 c0 48 -2 85 -5 83 -8 -8 -14 -421 -6
-464 14 -86 139 -125 411 -126 244 -1 343 17 414 76 l30 24 -3 318 c-1 175 -5
320 -7 322 -2 2 -4 -72 -5 -165 -1 -155 -2 -166 -15 -139 l-14 30 5 -31 c5
-24 2 -33 -11 -38 -34 -13 -282 -37 -446 -43 l-166 -6 3 39 c2 30 1 33 -4 10
-8 -38 -24 -43 -51 -14 -43 45 -47 59 -42 166 3 92 6 102 23 102 10 0 18 5 17
12 -4 15 59 27 184 35 77 4 103 2 129 -11 18 -9 39 -16 47 -16 26 0 4 -13 -35
-20 l-38 -8 35 0 c49 -1 175 25 135 28 -28 2 -27 3 15 16 25 8 56 12 70 9 24
-5 25 -5 5 11 -11 8 -19 19 -18 24 2 5 -28 -8 -65 -28 l-68 -36 -55 24 c-39
17 -69 23 -109 21 -53 -2 -54 -2 -32 14 18 13 26 14 38 4 8 -6 17 -10 20 -7 2
3 -6 12 -18 20 -13 9 -33 25 -46 36 -41 36 -31 44 196 180 29 18 55 32 58 32
3 0 28 -17 57 -38 59 -43 98 -66 52 -30 -16 13 -43 35 -60 50 l-30 26 22 29
c11 15 25 27 30 27 86 -13 89 -13 38 3 -27 8 -51 17 -53 18 -2 2 6 21 17 43
13 25 29 42 43 45 l23 4 -22 2 c-17 1 -23 7 -23 23 0 14 -25 46 -67 88 -102
99 -103 101 -87 138 28 66 76 90 59 29 -5 -16 -1 -13 14 10 11 17 29 37 40 42
25 14 34 14 26 1 -3 -5 -2 -10 3 -10 6 0 12 7 16 15 6 17 40 13 87 -11 27 -14
64 -67 75 -108 9 -37 -12 -97 -56 -156 -33 -44 -34 -47 -8 -18 68 76 78 94 78
143 0 51 -40 121 -86 152 -43 28 -177 16 -223 -21 -8 -6 -23 -30 -33 -54 -16
-36 -22 -41 -38 -32 -36 19 -33 10 6 -19 21 -16 72 -61 112 -99 81 -77 86 -95
51 -163 -40 -80 -88 -137 -134 -158 -25 -12 -52 -21 -60 -21 -9 0 -14 -4 -11
-9 3 -5 -15 -22 -41 -37 -27 -15 -63 -38 -80 -52 -38 -28 -38 -27 -18 21 11
26 24 39 48 47 30 9 29 10 -14 5 -37 -3 -50 0 -64 15 -10 11 -15 26 -12 35 4
8 2 14 -4 12 -6 -1 -21 18 -35 43 -19 34 -24 55 -20 85 l4 40 -10 -32 c-10
-30 -2 -68 30 -134 1 -3 -14 -11 -35 -17 -47 -14 -55 -7 -78 72 -9 32 -18 56
-21 53 -3 -3 -1 -22 5 -44 6 -21 11 -51 11 -68 0 -21 3 -26 9 -16 6 10 10 10
16 1 10 -15 3 -20 -36 -26 l-34 -6 -3 59 c-4 69 5 126 19 118 13 -9 12 -3 -11
50 -34 78 -31 83 83 169 87 66 106 77 131 72 48 -10 78 -46 37 -46 -10 0 -30
-15 -43 -32 -38 -52 -44 -66 -10 -28 17 19 31 38 32 43 0 4 15 7 34 7 26 0 43
9 69 35 19 19 31 35 26 35 -6 0 -21 -11 -35 -25 l-24 -24 -36 24 c-40 27 -58
29 -116 16 l-38 -9 -2 42 c-1 22 -2 85 -3 138 l-1 97 31 4 30 4 -32 1 c-36 2
-34 -7 -38 120 l-2 73 28 -6 c40 -9 37 2 -3 14 l-33 9 35 2 c35 2 35 2 6 9
-16 3 -31 12 -34 20 -3 10 0 12 12 8 9 -4 16 -3 16 2 0 4 69 8 154 9 l154 2
17 -42 c21 -54 54 -100 66 -93 5 4 6 0 3 -8 -8 -23 118 -121 189 -148 l62 -22
-50 -23 c-57 -26 -150 -43 -245 -45 -91 -2 -291 12 -317 22 -12 5 -25 4 -28 0
-9 -16 166 -35 303 -34 133 2 258 21 314 49 35 18 36 18 41 -8 4 -20 4 -19 6
5 1 27 1 27 76 27 64 0 85 5 138 30 77 39 213 139 238 177 80 121 79 331 -3
486 -37 69 -129 142 -228 180 -87 34 -120 37 -217 22z m179 -22 c9 -8 21 -12
27 -9 5 4 13 0 18 -8 4 -7 29 -28 55 -45 25 -17 69 -56 97 -87 54 -59 70 -62
22 -4 -16 20 -56 55 -90 80 -33 24 -59 46 -56 48 2 2 37 -21 77 -51 71 -54
115 -107 104 -126 -8 -12 4 -42 14 -36 11 7 27 -35 41 -106 9 -48 10 -64 1
-67 -7 -2 -12 -8 -12 -13 0 -6 5 -7 10 -4 12 8 13 0 1 -23 -5 -9 -16 -44 -24
-77 -8 -33 -18 -69 -22 -79 -7 -15 -5 -18 6 -12 8 4 6 1 -4 -7 -10 -8 -16 -19
-15 -23 2 -5 -1 -10 -6 -10 -4 -1 -27 -21 -51 -44 -23 -22 -80 -61 -126 -85
-46 -25 -80 -45 -76 -45 5 0 17 5 28 10 10 6 19 7 19 3 0 -8 -77 -43 -93 -43
-12 0 -8 18 6 23 6 2 1 2 -13 0 -14 -3 -27 -9 -28 -14 -2 -5 -7 -7 -11 -5 -4
3 -29 6 -57 7 -27 2 -58 8 -69 14 -75 40 -185 108 -185 113 0 4 -11 19 -24 33
-14 15 -38 52 -55 84 -17 32 -36 64 -41 70 -5 7 -7 15 -3 18 3 4 1 13 -6 20
-17 21 1 140 35 221 6 15 4 17 -7 11 -8 -4 -11 -5 -7 -1 3 4 9 7 13 6 4 0 16
18 28 41 11 23 44 66 72 95 29 29 48 55 42 57 -6 2 -3 6 7 10 10 4 15 3 11 -3
-10 -16 6 -11 54 17 90 53 256 79 293 46z m-278 -28 c-25 -19 -40 -19 -24 0 7
8 20 15 28 15 13 0 12 -3 -4 -15z m-649 -187 c7 -11 11 -27 8 -36 -5 -10 -2
-13 6 -8 9 6 9 3 -1 -13 -7 -12 -16 -21 -21 -21 -4 0 -5 5 -2 10 3 6 1 10 -6
10 -7 0 -5 8 7 21 19 22 19 22 -4 10 -22 -12 -23 -11 -12 11 10 19 10 21 -1
11 -19 -18 -29 -16 -22 5 6 15 5 15 -10 3 -15 -11 -17 -11 -17 1 0 8 2 17 5
20 11 11 56 -5 70 -24z m-82 -42 c1 -14 5 -26 8 -26 3 0 6 -6 6 -12 12 -198
12 -268 3 -268 -13 0 -18 13 -24 65 -3 22 -9 68 -14 103 -6 48 -5 65 5 73 16
14 18 43 2 33 -7 -4 -6 2 2 17 10 20 10 22 -2 13 -19 -16 -41 6 -28 27 15 23
10 34 -6 13 -8 -10 -15 -14 -15 -8 0 5 5 15 12 22 17 17 49 -16 51 -52z m1324
-228 c-3 -7 -5 -2 -5 12 0 14 2 19 5 13 2 -7 2 -19 0 -25z m-6 -45 c-8 -15
-10 -15 -11 -2 0 17 10 32 18 25 2 -3 -1 -13 -7 -23z m-1226 -63 c27 -7 27 -8
5 -8 -14 0 -36 4 -50 8 -20 6 -21 8 -5 8 11 0 34 -4 50 -8z m-67 -41 c-3 -8
-7 -3 -11 10 -4 17 -3 21 5 13 5 -5 8 -16 6 -23z m90 -8 c1 -16 -3 -33 -9 -37
-7 -4 -8 -9 -1 -13 11 -7 15 -38 12 -91 -1 -19 -4 -29 -7 -22 -2 6 -8 10 -13
7 -5 -3 -7 6 -5 20 1 14 -1 25 -5 25 -3 0 -6 19 -5 43 1 23 -2 48 -8 55 -6 8
-5 17 3 27 20 24 36 18 38 -14z m-61 -33 c-3 -7 -5 -2 -5 12 0 14 2 19 5 13 2
-7 2 -19 0 -25z m-26 8 c-8 -10 -9 -16 -1 -21 6 -4 10 -12 9 -18 -1 -7 -1 -23
0 -37 1 -20 3 -22 11 -10 5 8 10 13 11 10 0 -3 2 -15 5 -27 4 -24 -11 -32 -19
-10 -3 6 -6 2 -6 -10 -1 -13 -5 -23 -9 -23 -5 0 -8 15 -7 34 2 28 0 33 -14 28
-13 -5 -14 -3 -3 10 10 13 10 17 0 21 -8 3 -6 6 5 6 14 1 16 5 9 19 -11 20 -5
42 10 42 7 0 6 -5 -1 -14z m33 -41 c3 -8 1 -15 -4 -15 -6 0 -10 7 -10 15 0 8
2 15 4 15 2 0 6 -7 10 -15z m642 -102 c-4 -4 -76 37 -76 44 0 2 18 -6 40 -18
22 -12 38 -24 36 -26z m-576 -70 c0 -7 -4 -13 -9 -13 -5 0 -8 12 -8 26 0 18 2
22 8 13 5 -8 9 -20 9 -26z m-88 -25 c3 -7 6 -47 7 -88 3 -107 11 -100 11 10 0
155 17 94 20 -75 2 -96 1 -106 -10 -80 -7 17 -9 17 -9 3 -1 -10 -10 -22 -21
-28 -22 -12 -20 -30 -24 182 -1 36 2 64 6 62 4 -3 5 2 2 10 -3 9 -2 16 4 16 5
0 12 -6 14 -12z m89 -80 c0 -40 2 -85 4 -99 2 -16 -3 -29 -15 -37 -15 -9 -18
-7 -18 11 0 12 -3 61 -6 110 -5 82 -4 87 14 87 18 0 20 -7 21 -72z m454 -18
c-3 -5 -11 -10 -16 -10 -6 0 -7 5 -4 10 3 6 11 10 16 10 6 0 7 -4 4 -10z
m-396 -104 c-39 -34 -164 -114 -172 -109 -5 3 -8 2 -5 -3 3 -5 2 -18 -2 -29
-7 -18 -8 -19 -15 -2 -10 25 1 46 36 65 17 9 54 31 82 48 29 18 58 32 66 33 8
1 12 -1 10 -3z m46 -461 c31 -30 34 -37 25 -61 -6 -15 -8 -35 -4 -43 3 -9 8
-32 9 -51 2 -19 1 -29 -2 -22 -3 8 -18 1 -44 -23 -70 -63 -119 -41 -179 78
-35 69 -36 80 -14 98 16 13 136 56 162 58 7 1 28 -15 47 -34z m-235 -103 c0
-13 -4 -20 -10 -17 -5 3 -10 21 -10 38 0 24 3 28 10 17 5 -8 10 -25 10 -38z
m40 -52 c7 -16 16 -30 20 -30 4 0 11 -8 14 -17 4 -10 -8 -2 -27 17 -18 19 -34
42 -34 52 -2 26 12 14 27 -22z m675 -440 c-4 -7 3 -7 19 0 30 11 32 8 10 -25
-10 -15 -23 -22 -35 -20 -16 3 -17 1 -9 -16 13 -23 22 -25 13 -3 -5 14 -3 15
15 5 28 -15 28 -29 0 -41 -13 -5 -18 -9 -12 -9 7 -1 14 -8 18 -16 5 -13 2 -14
-15 -4 -15 8 -19 8 -15 0 4 -6 1 -11 -6 -11 -10 0 -9 -3 2 -9 8 -6 19 -7 25
-3 5 3 4 -2 -4 -12 -8 -9 -20 -15 -28 -12 -7 3 -13 1 -13 -4 0 -6 -7 -10 -15
-10 -8 0 -15 -6 -16 -12 0 -9 -2 -9 -6 1 -4 10 -7 10 -13 2 -17 -29 -368 -41
-378 -12 -2 7 -9 8 -23 1 -15 -9 -17 -8 -12 6 5 14 3 15 -15 5 -15 -8 -23 -8
-27 0 -4 6 -13 8 -21 5 -19 -7 -28 12 -13 30 6 8 9 17 6 21 -4 3 -9 -2 -13
-11 -4 -11 -13 -15 -25 -11 -12 4 -19 2 -19 -6 0 -7 -3 -9 -7 -6 -3 4 2 16 11
26 10 11 15 25 10 32 -4 7 -3 10 3 6 6 -4 16 0 23 8 11 13 10 14 -5 9 -13 -5
-16 -4 -11 4 5 8 0 12 -14 12 -12 0 -18 5 -15 10 3 6 17 8 29 6 13 -2 29 0 37
5 12 8 12 10 -1 8 -33 -3 -42 1 -36 17 5 14 4 15 -9 4 -16 -14 -20 -3 -6 19 5
7 13 11 18 8 10 -6 133 -16 263 -21 79 -3 249 10 293 23 43 12 49 13 42 1z
m-11 -229 c5 0 3 -7 -3 -14 -6 -8 -8 -17 -4 -20 3 -4 -1 -7 -10 -7 -10 0 -14
-6 -11 -14 6 -16 -22 -24 -107 -31 -62 -6 -265 -7 -291 -2 -25 5 -35 17 -13
17 10 0 16 3 12 6 -3 4 -20 1 -37 -4 -17 -6 -28 -7 -25 -2 3 5 -5 12 -17 16
l-23 7 25 10 c14 5 35 9 47 8 13 -1 28 1 35 5 17 11 68 12 74 2 3 -5 9 -6 14
-3 5 3 42 8 82 10 40 3 98 9 128 14 47 7 81 8 124 2z m16 -46 c-7 -8 -17 -15
-23 -15 -6 0 -2 7 9 15 25 19 30 19 14 0z"/>
<path d="M1575 2420 c-4 -6 -3 -24 0 -42 5 -22 9 -27 16 -17 12 18 11 56 0 64
-5 3 -13 1 -16 -5z"/>
<path d="M1490 2382 c0 -5 17 -22 37 -38 l37 -28 -20 34 c-19 33 -54 53 -54
32z"/>
<path d="M1635 2364 c-9 -14 -15 -28 -12 -30 6 -6 57 36 57 47 0 19 -28 8 -45
-17z"/>
<path d="M1467 2313 c-15 -14 -6 -23 22 -23 37 0 49 16 18 24 -28 7 -32 7 -40
-1z"/>
<path d="M1645 2301 c-18 -7 -16 -9 12 -15 33 -8 53 -2 53 15 0 11 -37 11 -65
0z"/>
<path d="M1513 2253 c-13 -8 -23 -22 -23 -29 0 -24 25 -15 43 16 20 33 14 37
-20 13z"/>
<path d="M1620 2250 c0 -6 9 -19 20 -30 22 -22 43 -19 34 4 -6 17 -54 39 -54
26z"/>
<path d="M1578 2244 c-11 -11 -10 -74 1 -74 15 0 18 12 12 48 -3 19 -9 30 -13
26z"/>
<path d="M1188 2193 c6 -2 18 -2 25 0 6 3 1 5 -13 5 -14 0 -19 -2 -12 -5z"/>
<path d="M1385 2186 c6 -3 36 -10 68 -16 78 -16 66 -24 -14 -11 -79 13 -249
19 -242 9 2 -5 30 -8 62 -8 86 0 181 -12 181 -22 0 -5 -4 -6 -10 -3 -5 3 -18
1 -27 -4 -14 -8 -9 -11 27 -11 37 -1 41 -3 23 -10 -13 -5 -23 -12 -23 -15 0
-4 5 -3 10 0 6 4 23 4 39 0 l28 -6 -1 -90 c-1 -50 2 -95 5 -101 6 -10 19 126
19 209 0 49 -1 52 -32 62 -33 10 -132 25 -113 17z"/>
<path d="M667 2493 c-4 -3 -7 -11 -7 -17 0 -6 5 -5 12 2 6 6 9 14 7 17 -3 3
-9 2 -12 -2z"/>
<path d="M837 456 c-3 -8 0 -17 7 -19 10 -4 12 1 9 14 -6 23 -9 24 -16 5z"/>
<path d="M1010 259 c0 -5 9 -9 20 -9 11 0 20 2 20 4 0 2 -9 6 -20 9 -11 3 -20
1 -20 -4z"/>
<path d="M235 2675 c17 -8 37 -14 45 -14 8 0 -1 7 -20 14 -46 18 -64 17 -25 0z"/>
<path d="M900 2114 c36 -8 100 -9 100 -2 0 5 -26 7 -57 7 -32 -1 -51 -3 -43
-5z"/>
<path d="M1010 2108 c0 -4 24 -7 53 -7 54 1 49 5 -15 11 -21 2 -38 0 -38 -4z"/>
<path d="M1073 2073 c9 -2 25 -2 35 0 9 3 1 5 -18 5 -19 0 -27 -2 -17 -5z"/>
<path d="M1143 2073 c9 -2 23 -2 30 0 6 3 -1 5 -18 5 -16 0 -22 -2 -12 -5z"/>
<path d="M958 1903 c7 -3 16 -2 19 1 4 3 -2 6 -13 5 -11 0 -14 -3 -6 -6z"/>
<path d="M843 1874 c0 -10 7 -12 21 -8 19 6 20 5 6 -12 -14 -18 -14 -18 3 -5
15 12 19 12 30 -4 12 -15 13 -14 13 14 0 17 -3 31 -8 31 -4 0 -8 -4 -8 -9 0
-6 -12 -6 -28 -1 -22 6 -29 4 -29 -6z"/>
<path d="M1064 1878 c-2 -4 20 -6 51 -6 30 1 52 4 49 7 -8 9 -95 8 -100 -1z"/>
<path d="M1193 1873 c9 -2 23 -2 30 0 6 3 -1 5 -18 5 -16 0 -22 -2 -12 -5z"/>
<path d="M944 1846 c-9 -20 -9 -23 2 -19 8 3 14 14 14 24 0 25 -3 24 -16 -5z"/>
<path d="M972 1850 c0 -14 2 -19 5 -12 2 6 2 18 0 25 -3 6 -5 1 -5 -13z"/>
<path d="M1310 1860 c20 -13 33 -13 25 0 -3 6 -14 10 -23 10 -15 0 -15 -2 -2
-10z"/>
<path d="M1360 1829 c0 -5 5 -7 10 -4 6 3 10 8 10 11 0 2 -4 4 -10 4 -5 0 -10
-5 -10 -11z"/>
<path d="M662 1735 c0 -16 2 -22 5 -12 2 9 2 23 0 30 -3 6 -5 -1 -5 -18z"/>
<path d="M1050 1571 c0 -6 5 -13 10 -16 6 -3 10 1 10 9 0 9 -4 16 -10 16 -5 0
-10 -4 -10 -9z"/>
<path d="M1180 1506 c0 -2 7 -7 16 -10 8 -3 12 -2 9 4 -6 10 -25 14 -25 6z"/>
<path d="M1511 1494 c0 -11 3 -14 6 -6 3 7 2 16 -1 19 -3 4 -6 -2 -5 -13z"/>
<path d="M1243 1465 c9 -12 17 -28 17 -36 0 -8 5 -21 10 -29 8 -12 10 -11 10
7 0 13 -12 35 -27 51 -16 15 -20 18 -10 7z"/>
<path d="M881 1433 c0 -12 -4 -30 -7 -40 -5 -17 -5 -17 6 0 6 10 9 28 7 40 -4
22 -4 22 -6 0z"/>
<path d="M1512 1420 c0 -14 2 -19 5 -12 2 6 2 18 0 25 -3 6 -5 1 -5 -13z"/>
<path d="M1514 1245 c0 -82 2 -115 3 -72 2 43 2 110 0 150 -1 40 -3 5 -3 -78z"/>
<path d="M1270 1369 c0 -5 5 -7 10 -4 6 3 10 8 10 11 0 2 -4 4 -10 4 -5 0 -10
-5 -10 -11z"/>
<path d="M1441 1243 c7 -12 15 -20 18 -17 3 2 -3 12 -13 22 -17 16 -18 16 -5
-5z"/>
<path d="M1461 1170 c-1 -19 -4 -45 -7 -58 -6 -19 -9 -20 -22 -10 -13 11 -13
9 1 -12 25 -36 22 -45 -28 -74 -25 -15 -45 -29 -45 -32 0 -6 5 -3 62 32 34 22
37 27 43 87 4 35 5 73 2 83 -3 11 -5 4 -6 -16z"/>
<path d="M1502 1000 c0 -14 2 -19 5 -12 2 6 2 18 0 25 -3 6 -5 1 -5 -13z"/>
<path d="M1325 910 l-40 -7 48 -2 c70 -2 84 -12 97 -77 14 -65 24 -67 14 -3
-7 41 -50 101 -71 98 -4 -1 -26 -5 -48 -9z"/>
<path d="M1048 863 c6 -2 18 -2 25 0 6 3 1 5 -13 5 -14 0 -19 -2 -12 -5z"/>
<path d="M935 846 c-62 -15 -75 -22 -75 -44 0 -14 1 -14 13 1 6 9 23 18 37 19
14 2 27 6 30 9 3 4 25 11 50 17 25 5 34 10 20 10 -14 0 -48 -5 -75 -12z"/>
<path d="M1320 830 c0 -5 5 -10 11 -10 5 0 7 5 4 10 -3 6 -8 10 -11 10 -2 0
-4 -4 -4 -10z"/>
<path d="M850 740 c0 -22 2 -40 4 -40 2 0 6 18 8 40 2 22 0 40 -4 40 -5 0 -8
-18 -8 -40z"/>
<path d="M1456 735 c8 -37 14 -45 14 -19 0 10 -5 26 -10 34 -8 11 -9 7 -4 -15z"/>
</g>
</svg>
