<?xml version="1.0" standalone="no"?>
<!DOCTYPE svg PUBLIC "-//W3C//DTD SVG 20010904//EN"
 "http://www.w3.org/TR/2001/REC-SVG-20010904/DTD/svg10.dtd">
<svg version="1.0" xmlns="http://www.w3.org/2000/svg"
 width="736.000000pt" height="736.000000pt" viewBox="0 0 736.000000 736.000000"
 preserveAspectRatio="xMidYMid meet">

<g transform="translate(0.000000,736.000000) scale(0.100000,-0.100000)"
fill="#000000" stroke="none">
<path d="M4575 6875 c-24 -8 -59 -35 -90 -69 -46 -49 -98 -86 -124 -86 -6 0
-36 -10 -68 -22 -50 -18 -76 -40 -198 -163 -116 -117 -151 -147 -205 -172 -92
-42 -123 -73 -186 -179 -59 -101 -87 -125 -169 -144 -27 -7 -60 -19 -72 -26
l-23 -14 0 -349 c0 -344 0 -348 23 -381 39 -59 68 -73 157 -78 70 -4 80 -7 80
-23 0 -14 -7 -19 -28 -19 -15 0 -129 -22 -253 -50 -123 -27 -541 -119 -929
-205 -1007 -221 -960 -210 -1007 -249 -21 -19 -47 -50 -58 -70 -11 -19 -31
-40 -46 -45 -46 -16 -98 -71 -131 -139 -31 -62 -33 -73 -32 -167 0 -78 5 -112
21 -153 47 -116 142 -201 235 -210 36 -3 61 -12 78 -27 39 -35 85 -55 130 -55
23 0 180 38 348 85 314 88 1625 453 1742 485 53 15 72 27 107 64 23 26 48 65
55 87 12 36 20 44 63 61 27 11 59 17 72 13 22 -5 23 -9 23 -113 1 -107 13
-166 43 -200 8 -9 28 -67 46 -127 30 -109 31 -113 25 -270 -5 -113 -2 -209 10
-326 19 -193 21 -375 5 -451 -6 -29 -31 -116 -55 -194 l-44 -141 -147 -12
c-262 -22 -418 -58 -448 -104 -20 -31 -60 -187 -87 -336 -20 -109 -23 -160
-23 -381 0 -228 3 -268 24 -375 61 -309 203 -628 374 -837 40 -50 47 -64 47
-103 0 -52 14 -65 100 -89 97 -26 240 -39 445 -39 390 0 579 48 545 137 -9 25
-4 38 51 124 l60 97 44 0 c56 1 93 27 122 87 25 53 69 92 138 124 52 24 109
39 312 78 150 29 217 59 292 131 73 69 115 147 148 272 33 129 38 370 10 472
-30 106 -74 180 -151 256 -124 124 -290 184 -525 191 l-125 3 -34 96 c-24 67
-42 101 -59 112 -54 36 -241 71 -474 89 l-86 6 -6 203 c-3 112 -4 234 -1 271
2 38 11 168 20 289 14 189 15 242 4 376 l-13 156 53 93 c75 129 89 176 90 291
l0 95 66 28 c175 71 291 184 378 365 30 64 42 104 72 249 4 20 10 22 63 22 68
0 117 14 149 44 51 46 52 51 52 415 l0 341 -72 81 c-122 138 -158 170 -222
199 -35 16 -80 47 -105 74 -31 32 -65 53 -110 71 -124 48 -143 63 -167 133
-28 80 -42 100 -98 143 -34 25 -52 50 -73 98 -15 34 -36 69 -47 76 -34 22 -88
26 -131 10z m130 -113 c20 -41 50 -79 92 -117 52 -47 64 -64 78 -113 20 -68
49 -102 113 -130 26 -11 72 -32 103 -45 36 -16 68 -39 89 -66 24 -30 49 -47
91 -62 60 -22 82 -41 209 -181 35 -38 57 -69 51 -72 -6 -4 -76 -16 -156 -26
-386 -52 -1310 -51 -1730 1 -130 16 -142 23 -75 42 74 22 129 71 173 154 44
84 105 145 178 177 65 28 163 112 239 204 63 77 118 113 212 142 61 19 79 30
140 90 102 100 145 101 193 2z m-1016 -867 c502 -56 1587 -41 1829 25 l32 8 0
-299 c0 -335 -2 -348 -65 -375 -51 -21 -1879 -21 -1929 0 -66 28 -66 27 -66
368 l0 307 32 -10 c17 -5 93 -16 167 -24z m1588 -758 c-8 -64 -47 -180 -82
-246 -87 -159 -251 -281 -440 -326 -146 -35 -390 -30 -538 12 l-59 16 46 39
c152 130 129 398 -44 492 -63 35 -131 42 -189 22 -24 -9 -65 -16 -92 -16 -26
0 -60 -5 -75 -10 -32 -13 -41 -6 -50 38 l-6 32 767 0 768 0 -6 -53z m-1184
-38 c50 -14 110 -69 138 -125 51 -107 15 -255 -77 -314 -26 -16 -52 -30 -56
-30 -5 0 2 19 16 43 73 127 47 291 -63 390 -23 20 -41 39 -41 42 0 8 43 5 83
-6z m-364 -19 c151 -77 233 -403 145 -577 -16 -31 -40 -65 -54 -75 -14 -10
-137 -49 -275 -87 -260 -72 -1293 -360 -1544 -430 -80 -22 -146 -39 -148 -37
-2 1 8 28 21 59 50 112 58 270 21 412 -24 96 -90 219 -146 275 -27 28 -48 50
-45 50 3 0 239 51 523 114 285 63 712 157 948 210 237 52 439 96 450 99 41 10
67 6 104 -13z m215 -11 c51 -14 128 -91 144 -145 33 -113 -1 -237 -82 -296
l-41 -30 -7 109 c-8 143 -40 245 -104 330 -13 17 -24 34 -24 37 0 10 73 7 114
-5z m-2285 -443 c72 -38 152 -164 188 -297 26 -98 23 -256 -5 -341 -45 -130
-134 -189 -218 -143 -19 10 -34 21 -34 25 0 3 20 20 44 37 32 23 53 49 77 99
32 65 34 74 34 179 0 99 -3 116 -27 167 -51 109 -126 179 -208 193 l-39 7 16
25 c38 57 114 79 172 49z m2621 -115 l85 -18 3 -44 c9 -122 -31 -190 -110
-188 -24 1 -34 4 -22 6 19 4 17 7 -18 42 -35 36 -38 43 -38 97 0 33 -5 66 -10
74 -7 11 -10 -4 -10 -49 0 -36 -4 -61 -8 -55 -4 5 -6 44 -4 87 3 76 5 79 25
72 12 -3 60 -14 107 -24z m488 -97 c-3 -94 -4 -96 -36 -125 -18 -17 -44 -29
-59 -29 -14 0 -24 2 -21 5 3 3 -9 20 -27 38 -27 27 -35 44 -41 93 l-8 59 -8
-50 c-4 -27 -6 -61 -3 -75 4 -19 3 -21 -5 -10 -5 8 -10 50 -10 93 l0 77 43 1
c23 0 62 4 87 8 98 18 92 24 88 -85z m-3232 67 c127 -58 196 -244 150 -405
-19 -65 -73 -131 -123 -153 -117 -48 -245 45 -289 212 -37 138 14 288 115 342
53 28 92 29 147 4z m2964 -87 c3 -51 11 -98 18 -106 7 -9 23 -47 36 -85 13
-38 31 -84 40 -101 35 -67 39 -220 22 -794 -9 -298 -19 -544 -21 -547 -10 -9
-355 -6 -355 4 0 6 18 95 40 198 46 216 51 329 24 501 -23 140 -14 380 20 576
14 80 26 157 26 171 0 15 7 33 17 40 32 27 53 91 53 167 l0 73 38 -3 37 -3 5
-91z m-265 -1525 c-14 -84 -25 -168 -25 -185 0 -17 -3 -46 -7 -65 -5 -28 -7
-30 -14 -14 -18 47 -9 143 27 283 21 78 39 141 41 139 2 -2 -8 -73 -22 -158z
m274 -166 l83 -6 -7 -86 c-4 -47 -12 -89 -19 -93 -6 -4 -82 -8 -169 -8 -117 0
-159 3 -162 13 -3 6 -6 48 -7 92 l-3 80 50 6 c75 9 141 10 234 2z m-404 -94
l0 -91 -85 7 c-127 9 -249 24 -305 36 -77 16 -145 40 -145 49 0 28 294 79 505
89 l30 1 0 -91z m805 70 c156 -17 300 -53 300 -74 0 -2 -30 -13 -67 -24 -75
-22 -234 -46 -385 -56 l-98 -7 0 92 0 92 83 -7 c45 -3 120 -11 167 -16z m353
-215 c166 -530 47 -1171 -321 -1719 l-67 -100 -105 -13 c-58 -7 -224 -16 -370
-20 -240 -7 -257 -8 -185 -17 44 -5 177 -10 295 -10 180 0 225 3 280 19 85 24
104 25 108 3 2 -12 -7 -22 -30 -31 -77 -32 -181 -41 -463 -41 -282 0 -386 9
-464 41 -32 13 -33 16 -27 53 5 31 2 42 -16 57 -58 52 -206 282 -263 409 -120
268 -175 529 -175 828 0 181 16 323 57 505 28 127 36 139 76 110 16 -12 15
-21 -5 -128 -18 -97 -22 -152 -22 -355 0 -225 1 -248 27 -370 37 -171 86 -315
153 -450 69 -138 172 -293 224 -338 80 -68 209 -92 470 -84 194 5 290 22 362
63 93 54 303 472 373 745 67 258 76 558 25 808 -11 57 -20 104 -18 106 17 13
44 22 50 17 3 -4 17 -43 31 -88z m-1463 32 c58 -8 156 -18 218 -22 125 -8 114
0 126 -88 13 -100 79 -74 88 34 l3 35 168 3 167 2 0 -65 c0 -99 -18 -243 -39
-310 -18 -58 -20 -60 -50 -57 -18 1 -75 22 -128 47 -109 51 -182 75 -229 75
-17 0 -85 -14 -150 -31 -112 -29 -126 -31 -238 -25 -66 3 -122 8 -124 11 -8 7
15 227 34 328 14 73 19 87 33 82 9 -2 63 -11 121 -19z m1338 -19 c20 -79 42
-231 42 -293 l0 -61 -102 -5 c-58 -3 -156 -17 -223 -33 -66 -15 -124 -28 -130
-28 -5 -1 -13 23 -16 53 -4 30 -13 89 -22 130 -8 41 -18 109 -22 151 l-7 75
154 13 c84 6 185 18 223 25 39 7 75 14 81 15 7 0 16 -18 22 -42z m399 -88
c383 -42 579 -267 559 -636 -15 -275 -101 -453 -253 -528 -31 -15 -102 -36
-158 -47 -282 -54 -361 -79 -429 -140 -26 -22 -58 -63 -72 -90 -22 -44 -67
-79 -82 -63 -3 3 27 71 66 152 l70 148 56 23 c31 12 142 42 246 67 337 78 385
126 412 418 35 367 -121 545 -491 561 l-96 4 -12 59 c-7 32 -12 61 -13 65 -1
19 72 21 197 7z m-867 -160 c15 -50 20 -86 16 -104 -11 -44 -24 -18 -41 85
-24 153 -18 158 25 19z m938 -44 c233 -55 321 -202 293 -490 -19 -190 -60
-271 -160 -313 -25 -11 -120 -37 -210 -57 -90 -20 -182 -43 -204 -51 -67 -24
-68 -22 -36 74 67 199 106 485 94 697 -3 66 -8 128 -11 138 -5 15 4 17 83 17
48 0 116 -7 151 -15z m-553 -135 c0 -22 -29 -18 -33 3 -3 14 1 18 15 15 10 -2
18 -10 18 -18z m-726 -51 c133 -37 191 -37 316 1 55 16 101 27 103 25 3 -3
-34 -23 -82 -46 -115 -55 -169 -56 -319 -6 -59 20 -120 44 -135 52 -15 9 -18
13 -7 10 11 -4 67 -20 124 -36z m-605 -4 c9 -25 -5 -45 -30 -45 -14 0 -27 7
-30 15 -10 25 4 45 30 45 13 0 26 -7 30 -15z m1244 -2 c-2 -10 -10 -18 -18
-18 -8 0 -16 8 -18 18 -2 12 3 17 18 17 15 0 20 -5 18 -17z m159 -127 c-19
-242 -115 -549 -232 -741 -100 -163 -123 -176 -46 -25 85 163 159 336 195 448
31 100 76 315 76 366 0 20 3 36 6 36 4 0 4 -38 1 -84z m-102 -93 c-15 -76 -43
-191 -61 -255 -32 -113 -101 -269 -125 -284 -9 -5 -10 -2 -4 12 30 70 148 432
176 541 18 72 35 130 38 128 2 -2 -9 -66 -24 -142z m-1315 119 c0 -13 -12 -22
-22 -16 -10 6 -1 24 13 24 5 0 9 -4 9 -8z m144 -458 c9 -8 16 -18 16 -21 0
-10 -32 -43 -41 -43 -10 0 -39 29 -39 40 0 11 29 40 40 40 5 0 16 -7 24 -16z
m154 -16 c28 -28 7 -78 -33 -78 -27 0 -45 18 -45 45 0 27 18 45 45 45 12 0 26
-5 33 -12z m-113 -128 c0 -22 -29 -18 -33 3 -3 14 1 18 15 15 10 -2 18 -10 18
-18z m58 -95 c1 -5 -6 -11 -15 -13 -11 -2 -18 3 -18 13 0 17 30 18 33 0z m805
-101 c4 -27 -26 -40 -46 -20 -21 20 -8 48 20 44 14 -2 24 -11 26 -24z m-88
-93 c0 -26 -17 -36 -35 -21 -18 15 -8 40 16 40 12 0 19 -7 19 -19z"/>
<path d="M4540 6730 c0 -5 7 -10 15 -10 8 0 15 5 15 10 0 6 -7 10 -15 10 -8 0
-15 -4 -15 -10z"/>
<path d="M4644 6725 c3 -9 6 -19 6 -21 0 -2 7 -4 16 -4 22 0 13 34 -10 38 -14
3 -17 0 -12 -13z"/>
<path d="M4720 6665 c0 -2 13 -11 29 -20 46 -23 72 -68 82 -142 5 -36 18 -81
29 -98 20 -33 26 -36 174 -104 49 -23 109 -55 133 -72 60 -40 67 -29 14 20
-47 44 -154 103 -216 120 -69 19 -97 53 -114 141 -15 74 -42 115 -91 140 -22
11 -40 18 -40 15z"/>
<path d="M4595 6598 c9 -29 11 -31 24 -23 17 10 13 23 -10 36 -19 10 -20 9
-14 -13z"/>
<path d="M4308 6594 c0 -5 -2 -15 -2 -22 -1 -7 -24 -29 -51 -50 -48 -36 -57
-48 -88 -122 -12 -28 -35 -47 -121 -98 -58 -35 -106 -65 -106 -67 0 -2 49 20
109 50 105 52 161 98 161 132 0 9 37 52 83 95 45 44 74 77 63 74 -10 -4 -25
-1 -32 5 -8 6 -15 8 -16 3z"/>
<path d="M4456 6574 c-9 -23 -8 -26 11 -22 19 4 27 38 8 38 -7 0 -16 -7 -19
-16z"/>
<path d="M4694 6525 c-7 -17 4 -37 17 -30 12 8 12 45 -1 45 -6 0 -13 -7 -16
-15z"/>
<path d="M4678 6434 c-12 -11 -10 -52 3 -59 17 -11 23 3 13 36 -5 17 -12 27
-16 23z"/>
<path d="M4775 6430 c-8 -13 3 -30 21 -30 18 0 18 14 0 29 -10 8 -16 9 -21 1z"/>
<path d="M4487 6366 c-11 -76 -8 -140 8 -186 22 -61 19 -93 -10 -120 -34 -32
-32 -44 4 -25 62 31 77 87 41 149 -15 25 -23 61 -28 133 -7 92 -8 95 -15 49z"/>
<path d="M4312 6378 c-17 -17 -15 -38 3 -38 8 0 15 4 15 9 0 5 3 16 6 25 7 19
-7 21 -24 4z"/>
<path d="M4960 6291 c0 -24 12 -32 30 -21 11 7 11 11 1 24 -18 22 -31 20 -31
-3z"/>
<path d="M4881 6278 c14 -13 59 -50 99 -83 72 -59 140 -137 140 -160 0 -21 44
-53 83 -60 48 -9 47 6 -2 26 -30 13 -40 24 -46 47 -8 38 -66 96 -176 174 -94
67 -140 94 -98 56z"/>
<path d="M4227 6221 c-20 -26 -46 -70 -58 -97 -28 -62 -39 -70 -119 -85 -53
-10 -61 -14 -40 -20 14 -4 44 -7 67 -8 51 -1 98 34 108 82 9 38 51 124 73 150
8 9 13 19 10 22 -2 2 -21 -17 -41 -44z"/>
<path d="M5054 6208 c105 -82 134 -108 154 -139 13 -19 38 -41 55 -51 42 -21
127 -34 127 -19 0 6 -5 11 -10 11 -28 0 -112 50 -166 99 -33 31 -90 71 -125
89 -48 25 -57 27 -35 10z"/>
<path d="M4760 6211 c0 -5 6 -14 14 -20 16 -13 32 2 21 19 -8 12 -35 13 -35 1z"/>
<path d="M3837 6203 c-12 -11 -7 -33 7 -33 7 0 16 9 19 20 5 19 -12 28 -26 13z"/>
<path d="M5264 6169 c-3 -6 -2 -15 4 -21 13 -13 32 -2 32 18 0 16 -26 19 -36
3z"/>
<path d="M4000 6130 c-13 -9 -13 -11 0 -19 17 -12 30 -5 30 15 0 16 -9 18 -30
4z"/>
<path d="M4632 6115 c2 -19 10 -31 21 -33 24 -5 22 21 -4 44 -21 19 -21 19
-17 -11z"/>
<path d="M4887 6134 c-12 -12 -8 -41 8 -54 13 -10 18 -11 28 -1 9 10 9 15 -4
24 -9 7 -18 18 -20 25 -2 7 -8 10 -12 6z"/>
<path d="M5312 6133 c-10 -4 -10 -8 -1 -19 16 -19 41 -18 37 3 -3 18 -16 24
-36 16z"/>
<path d="M3816 6088 c-9 -12 -16 -27 -16 -32 0 -5 -7 -18 -17 -28 -25 -28 4
-22 32 7 14 13 25 36 25 50 0 31 -4 31 -24 3z"/>
<path d="M5036 6063 c-11 -11 -6 -23 9 -23 8 0 15 4 15 9 0 13 -16 22 -24 14z"/>
<path d="M5325 6061 c-3 -5 -1 -12 5 -16 5 -3 10 1 10 9 0 18 -6 21 -15 7z"/>
<path d="M3860 6025 c0 -8 7 -15 15 -15 8 0 15 7 15 15 0 8 -7 15 -15 15 -8 0
-15 -7 -15 -15z"/>
<path d="M4743 6020 c-22 -9 -30 -30 -16 -43 7 -8 53 31 53 45 0 10 -8 9 -37
-2z"/>
<path d="M3666 6011 c-7 -11 22 -23 35 -15 5 3 7 10 4 15 -8 12 -32 12 -39 0z"/>
<path d="M4202 6008 c7 -19 38 -22 38 -4 0 10 -9 16 -21 16 -12 0 -19 -5 -17
-12z"/>
<path d="M4990 5991 c0 -24 18 -37 32 -23 8 8 7 16 -2 27 -17 21 -30 19 -30
-4z"/>
<path d="M3788 5823 c6 -2 18 -2 25 0 6 3 1 5 -13 5 -14 0 -19 -2 -12 -5z"/>
<path d="M5265 5824 c-11 -2 -200 -10 -420 -19 -385 -16 -597 -13 -940 10 -63
4 -61 3 25 -10 187 -27 583 -48 810 -42 213 6 570 43 570 59 0 8 -7 8 -45 2z"/>
<path d="M5501 5615 c-1 -239 -8 -277 -54 -305 -30 -18 -54 -20 -317 -21 -157
-1 -316 -4 -355 -8 l-70 -7 95 -8 c52 -4 217 -6 367 -4 l272 3 31 30 c48 46
52 76 42 315 l-9 215 -2 -210z"/>
<path d="M3528 5681 c-5 -68 -8 -174 -8 -236 0 -128 4 -136 86 -161 72 -21
691 -17 669 5 -3 3 -158 8 -343 11 -306 5 -340 7 -364 24 l-28 18 -2 232 c-3
220 -3 225 -10 107z"/>
<path d="M5427 5787 c-9 -23 -10 -272 -1 -316 10 -46 21 -38 26 22 7 66 -14
319 -25 294z"/>
<path d="M4845 5709 c-71 -4 -211 -5 -310 -3 -240 4 -140 -12 148 -24 218 -10
414 -1 527 22 l65 14 -150 -1 c-82 0 -208 -4 -280 -8z"/>
<path d="M5080 5640 c-36 -5 -155 -13 -265 -20 -110 -7 -202 -14 -204 -16 -2
-2 107 -4 244 -4 240 0 422 16 465 41 18 10 -147 10 -240 -1z"/>
<path d="M3770 5491 c-102 -4 -176 -8 -164 -9 107 -11 509 -22 584 -17 226 18
-90 37 -420 26z"/>
<path d="M3785 5380 l-140 -5 135 -8 c302 -18 752 -4 534 16 -75 7 -305 6
-529 -3z"/>
<path d="M4995 5351 c-111 -4 -158 -9 -136 -14 56 -12 463 -20 491 -9 24 9 23
10 -15 15 -75 11 -170 13 -340 8z"/>
<path d="M5082 5095 c-3 -51 -58 -147 -126 -220 -35 -38 -63 -72 -61 -74 10
-10 97 54 124 91 43 58 73 142 68 192 -3 30 -4 33 -5 11z"/>
<path d="M5160 5079 c-39 -142 -154 -284 -305 -373 -75 -45 -77 -47 -40 -41
148 25 306 201 350 387 16 71 12 92 -5 27z"/>
<path d="M5218 5051 c-20 -87 -59 -165 -112 -230 -91 -111 -208 -169 -451
-225 l-60 -14 57 -1 c84 -2 201 24 276 61 92 45 208 160 250 248 34 71 65 179
60 210 -2 11 -10 -11 -20 -49z"/>
<path d="M4305 5053 c17 -36 28 -82 35 -144 5 -50 11 -94 14 -96 5 -5 26 63
26 83 0 35 -44 144 -70 174 l-31 35 26 -52z"/>
<path d="M4133 5027 c19 -25 41 -63 47 -83 12 -35 9 -116 -7 -197 -6 -29 -5
-31 10 -18 10 7 24 37 32 65 27 91 -11 203 -85 256 l-32 23 35 -46z"/>
<path d="M3714 5000 c90 -100 131 -236 122 -410 -5 -111 -5 -114 10 -75 43
114 36 232 -21 350 -33 69 -116 175 -137 175 -6 0 6 -18 26 -40z"/>
<path d="M3487 4954 c75 -107 119 -242 134 -416 6 -73 12 -134 14 -136 2 -2 8
29 15 68 17 100 -2 207 -58 330 -27 60 -95 164 -114 176 -7 4 -3 -6 9 -22z"/>
<path d="M3672 4975 c2 -5 18 -40 36 -77 40 -84 52 -136 61 -268 7 -98 8 -103
20 -75 31 71 12 203 -45 315 -20 39 -83 131 -72 105z"/>
<path d="M3426 4888 c15 -29 45 -100 66 -158 52 -137 61 -150 55 -79 -4 36
-17 79 -37 119 -31 62 -99 170 -107 170 -2 0 9 -24 23 -52z"/>
<path d="M3015 4915 c-112 -21 -223 -48 -495 -120 -140 -37 -281 -74 -313 -83
-32 -8 -56 -16 -54 -18 5 -5 618 130 752 166 208 55 264 84 110 55z"/>
<path d="M3622 4905 c2 -5 18 -39 36 -75 18 -36 40 -106 51 -155 14 -69 21
-85 27 -70 19 44 8 109 -30 180 -31 59 -96 152 -84 120z"/>
<path d="M3364 4820 c3 -8 19 -60 37 -115 37 -118 49 -136 49 -74 0 28 -10 66
-29 104 -27 57 -68 117 -57 85z"/>
<path d="M1833 4594 c87 -120 124 -239 135 -431 l8 -128 13 60 c19 86 9 193
-27 293 -31 84 -102 202 -143 237 -15 13 -9 1 14 -31z"/>
<path d="M1950 4538 c0 -4 9 -22 19 -40 31 -53 58 -148 65 -228 11 -127 18
-158 27 -135 13 35 10 149 -7 206 -22 75 -102 227 -104 197z"/>
<path d="M3450 4519 c-101 -23 -655 -192 -642 -197 5 -1 139 31 298 72 272 70
417 115 439 137 12 12 8 11 -95 -12z"/>
<path d="M3365 4431 c-149 -38 -794 -236 -804 -248 -4 -3 3 -3 14 0 11 3 58
16 105 27 383 96 844 231 868 255 12 12 -42 2 -183 -34z"/>
<path d="M3305 4340 c-197 -53 -1234 -366 -1244 -376 -9 -9 20 -2 134 30 66
19 300 84 520 145 347 95 842 244 854 257 14 14 -70 -4 -264 -56z"/>
<path d="M3966 5013 c86 -80 98 -150 57 -322 -9 -37 12 -18 36 34 25 54 28
139 5 193 -18 44 -67 98 -109 119 -27 13 -26 11 11 -24z"/>
<path d="M1674 4540 c82 -72 116 -172 123 -362 3 -76 9 -138 13 -138 24 0 27
199 5 285 -22 82 -71 170 -119 211 -22 19 -43 34 -48 34 -5 0 7 -14 26 -30z"/>
<path d="M1519 4439 c62 -32 96 -84 120 -186 11 -47 22 -87 24 -90 3 -2 8 9
12 27 22 101 -69 243 -170 265 -25 6 -23 3 14 -16z"/>
<path d="M1551 4304 c37 -74 39 -146 4 -254 -7 -23 -6 -24 9 -11 69 58 59 228
-18 300 -22 21 -22 19 5 -35z"/>
<path d="M1330 4054 c0 -17 70 -94 101 -109 36 -19 92 -19 129 0 25 13 80 88
80 109 0 5 -25 -15 -56 -43 -49 -45 -61 -51 -98 -51 -46 0 -108 36 -140 82 -9
12 -16 18 -16 12z"/>
<path d="M3815 2649 c-49 -10 -94 -19 -99 -19 -5 0 -7 -3 -4 -6 6 -5 237 10
327 22 32 4 40 8 30 15 -24 15 -159 9 -254 -12z"/>
<path d="M5241 2410 c0 -8 7 -49 15 -90 9 -45 17 -168 21 -309 3 -128 9 -227
14 -219 20 35 30 191 19 291 -16 144 -68 395 -69 327z"/>
<path d="M3516 1700 c15 -181 105 -504 184 -662 60 -117 105 -183 183 -263
l68 -70 -53 75 c-82 115 -102 148 -166 276 -98 196 -153 364 -203 614 -17 88
-18 90 -13 30z"/>
<path d="M5097 1133 c-118 -238 -191 -366 -232 -409 -38 -40 -43 -42 -131 -53
-50 -6 -127 -11 -172 -11 -55 0 -82 -4 -82 -11 0 -9 39 -10 148 -5 172 8 215
16 248 46 37 36 114 155 175 275 54 105 123 279 117 297 -2 4 -34 -54 -71
-129z"/>
<path d="M3700 1226 c0 -5 25 -58 56 -119 65 -129 145 -249 189 -283 60 -45
176 -71 263 -58 46 7 46 7 -53 24 -157 27 -201 52 -284 165 -39 52 -141 220
-141 233 -1 10 -30 47 -30 38z"/>
<path d="M5037 2465 c-59 -17 -204 -35 -274 -35 -28 0 -55 -4 -58 -10 -9 -14
80 -12 207 5 119 16 184 31 193 45 8 12 -7 11 -68 -5z"/>
<path d="M5477 2360 c225 -24 411 -112 490 -231 35 -53 43 -32 9 25 -78 133
-271 218 -488 215 l-83 -2 72 -7z"/>
<path d="M5877 2149 c39 -41 79 -128 92 -195 5 -27 12 -100 16 -162 9 -132 24
-137 32 -10 10 155 -64 345 -151 389 -15 9 -13 3 11 -22z"/>
<path d="M6035 1828 c-1 -159 -3 -180 -28 -261 -15 -48 -41 -118 -57 -154 -30
-66 -30 -67 -6 -44 33 32 82 126 101 197 20 72 21 291 3 377 -12 55 -13 49
-13 -115z"/>
<path d="M5535 1204 c-68 -15 -148 -40 -202 -65 -67 -29 -88 -50 -27 -24 21 8
82 24 138 35 140 28 187 41 180 51 -5 9 -52 10 -89 3z"/>
</g>
</svg>
