<svg id="Layer_1" data-name="Layer 1" xmlns="http://www.w3.org/2000/svg" viewBox="0 0 515.32 544.8"><defs><style>.cls-1,.cls-2{fill:none;stroke:#1d1d1b;stroke-miterlimit:10;}.cls-2{stroke-width:0.75px;}</style></defs><ellipse class="cls-1" cx="257.66" cy="272.4" rx="257.16" ry="271.9"/><ellipse class="cls-1" cx="252.06" cy="269.71" rx="251.56" ry="257.37"/><path class="cls-2" d="M594.33,686.07c-41.69,2.53-119.6-41.53-119.6-41.53C450.07,630.68,416,586.3,416,586.3c-29.38-22.18-47.74-120.36-47.74-120.36-10-46.6,13.64-131.46,13.64-131.46,26.76-95.41,112.79-134.24,112.79-134.24s-15.21,58.8-37.77,81.54c0,0-43.54,73.22-45.12,78.77s-24.65,74.88-15.21,99.84c0,0,7.87,60.46,36.72,88.75,0,0,47.22,52.69,84.47,66.56,0,0,59.8,27.18,62.42,30.51s26,17.75,25.61,25,6.4-20-13-30.51S534.53,620.14,513,597.4c0,0-77.11-68.78-86-139.78,0,0-11-61.57,10.49-101,0,0,26.75-55.47,54.56-73.22,0,0-45.64,68.79-45.12,108.72,0,0-21.51,103.73,47.22,165.85,0,0,45.11,36.06,54,39.94,0,0,44.75,24.41,52,27.74,0,0,4.12-9.43-8-18.31,0,0-50.36-25-54.56-30.51,0,0-40.39-27.73-49.31-42.15,0,0-27.28-36.06-30.43-53.81,0,0-17.84-58.24-.53-107.61,0,0-15.73,61.57,10,96.52,0,0,23.09,48.81,36.2,54.91,0,0,34.1,36.61,43.54,38.83,0,0,28.86,12.76,34.1,18.31,0,0,19,15,19,19.41,0,0,12.12-6.1-1.85-28.29l-31.28-20s-57.18-34.94-69.77-59.9c0,0-35.68-52.24-29.91-108.49,0,0,7.87,63.56,27.28,84.08,0,0,40.4,53.8,54,53.8,0,0,34.1,21.64,36.72,26.07s10.12,9.43,14.77,17.75c0,0,9.5-8.32-1.85-25.51,0,0-44.4-40.49-59.09-46,0,0-41.44-36.06-42.49-46.59,0,0-8.92-22.75-7.87-27.74,0,0,61.91,67.67,67.15,68.78l49.74,42.16s3.77-12.2-16.69-34.95c0,0-10.49-12.2-12.59-12.75S556.57,473.15,555,470.37c0,0-27.28-27.73-29.9-33.83S516.7,424.33,513,411c0,0,73.45,68.23,77.12,73.78s15.64,11.64,15.64,11.64,5.87-3.88,5.35-8.32,5-7.76-5.35-20-58.66-49.92-62.33-58.79-28.33-41.05-15.21-72.67c0,0,8.92-27.73,33-20.52,0,0,15.21,2.77,23.61,19.41,0,0-16.79-11.09-35.15-2.77,0,0-19.41,8.88-13.64,37.17,0,0,6.82,25.51,26.75,39.93l9.45,10s-22-33.84-22-43.82c0,0-10.63-25.62,7.87-34.95,0,0,14.69-3.33,17.84-1.11s-15.22,1.11-18.36,17.75c0,0-3.15,18.31,13.11,33.84,0,0-13.64-43.82,7.87-41.05l6.3,2.4s16.78,20,18.88,63.24l2,15.26s6.71-39.67,6.38-57.79.72-51.77-1.73-61-14.34-26.63-22-31.43S570.56,259,572,252.38s7.69-17.75,14.69-17c0,0,9.94-5.18,19.13,31.06l2.55,11.47s-2.8-42.16,19.24-46.6c0,0,8-1.11,9.44,8.51,0,0-2.45,30.32-12.24,59.17,0,0-7.7,29.95-8,44s-.7,27.37-.7,27.37S630,341.5,637,340c0,0,8.74,2.22,7,21.08,0,0,0,20.71-8.39,33.65l-15.74,20.71s34.28-31.8,33.93-54.36V344.83s-5.25-13.31-11.9-12.94,9.1-4.44,9.1-4.44,9.44,5.18,9.44,11.46,1.75,20,1.75,20-14,46.23-24.13,56.95,17.14-8.51,17.14-8.51,17.48-19.59,17.48-33.28-2.1-30.69-6.64-37c0,0-5.25-11.83-10.5-16.64s13.3-4.8,13.3-4.8a28.21,28.21,0,0,1,15.73,21.07c2.8,15.91-1.4,37-1.4,37s-10.49,31.81-20.28,41.79-44.42,37.72-46.17,45.48-3.14,14.8-3.14,14.8l.69,13.68s2.1,9.61,15.39-1.48,30.08-24,40.57-39.94c0,0,26.58-37.72,28.33-41.05s0,21.82,0,21.82a76.39,76.39,0,0,1-29.72,41.05L637,495.7s-17.14,18.49-16.79,27.37c0,0,19.24-11.83,22.73-12.57,0,0,29.73-20,40.92-37.35,0,0,22.39-25.89,26.23-49.19v-34s6.3,32.55,5.25,38.83-3.15,41.79-12.59,51S687,508.65,659,524.18s-31.47,12.57-31.47,12.57-9.8,8.14-12.6,13.68-1.74,9.25,5.95,8.88,44.77-15.53,46.52-17.38,37.07-28.85,43.71-47,16.44-39.93,16.09-66.19-7.34-44.14-7.34-44.14l14.34,30.83a117.41,117.41,0,0,1,0,55.1C726.89,500.14,722,513.45,717.45,519S694,550.06,684.57,555.24,632.81,580,632.81,580s-18.19,12.57-18.19,18.86,44.07-12.58,44.07-12.58S710.1,556,716.4,541.19c0,0,26.58-32.91,29.73-52.88s9.44-46.6,3.85-69.89c-4.41-18.35-17.92-44.25-23.47-54.44-1.5-2.75-2.42-4.36-2.42-4.36s5.95,4.81,16.09,5.18,21.34,47.7,21.34,47.7,7,33.28,2.8,54.73-11.9,51-22.39,62.49c0,0-23.78,41.79-49.66,54,0,0-34.63,24.78-51.76,27s-19.94,18.49-19.94,18.49l30.78-9.62s56.31-19.6,59.45-23.66,37.78-22.19,47.57-49.18l17.84-53.62s8-44,6.29-64.35c0,0-7-38.83-15.39-46.22,0,0-21.33-34.39-29-41.42s-21-28.84-21-28.84l-2.45-5.92L740.18,323s30.43,29.59,39.52,48.44,19.94,52.88,20.29,74.33-3.15,70.63-20.64,91.34c0,0-5.24,22.19-45.81,57.32,0,0-38.12,27-64.36,32.91s-42.66,20-42.66,20L612.88,664" transform="translate(-348.12 -159.06)"/><path class="cls-1" d="M29.35,352.3" transform="translate(-348.12 -159.06)"/></svg>