<svg id="Layer_1" data-name="Layer 1" xmlns="http://www.w3.org/2000/svg" viewBox="0 0 515.32 544.8"><defs><style>.cls-1,.cls-2{fill:none;stroke:#1d1d1b;stroke-miterlimit:10;}.cls-2{stroke-width:0.75px;}</style></defs><ellipse class="cls-1" cx="257.66" cy="272.4" rx="257.16" ry="271.9"/><ellipse class="cls-1" cx="252.06" cy="269.71" rx="251.56" ry="257.37"/><path class="cls-2" d="M291.74,708.6c-41.7,2.53-119.61-41.53-119.61-41.53-24.66-13.87-58.76-58.25-58.76-58.25C84,586.64,65.63,488.46,65.63,488.46,55.67,441.86,79.27,357,79.27,357c26.76-95.41,112.8-134.24,112.8-134.24s-15.22,58.8-37.78,81.54c0,0-43.54,73.22-45.11,78.77S84.52,458,94,482.91c0,0,7.87,60.46,36.73,88.75,0,0,47.21,52.7,84.46,66.56,0,0,59.81,27.18,62.43,30.51s26,17.75,25.61,25,6.39-20-13-30.51-58.23-20.52-79.74-43.26c0,0-77.12-68.78-86-139.78,0,0-11-61.57,10.49-100.95,0,0,26.76-55.47,54.56-73.22,0,0-45.64,68.78-45.11,108.72,0,0-21.51,103.72,47.21,165.85,0,0,45.12,36.05,54,39.93,0,0,44.75,24.41,52,27.74,0,0,4.12-9.43-7.94-18.31,0,0-50.37-25-54.56-30.5,0,0-40.4-27.74-49.32-42.16,0,0-27.28-36.06-30.43-53.81,0,0-17.83-58.24-.52-107.6,0,0-15.74,61.57,10,96.51,0,0,23.08,48.81,36.2,54.91,0,0,34.1,36.61,43.54,38.83,0,0,28.85,12.76,34.1,18.31,0,0,19,15,19,19.41,0,0,12.13-6.1-1.84-28.29l-31.29-20s-57.18-34.94-69.77-59.9c0,0-35.67-52.24-29.9-108.49,0,0,7.87,63.56,27.28,84.08,0,0,40.39,53.81,54,53.81,0,0,34.1,21.63,36.73,26.07s10.12,9.43,14.76,17.75c0,0,9.5-8.32-1.84-25.52,0,0-44.4-40.49-59.09-46,0,0-41.45-36-42.49-46.59,0,0-8.92-22.74-7.87-27.74,0,0,61.9,67.68,67.15,68.78l49.74,42.16S307,541.71,286.5,519c0,0-10.49-12.21-12.59-12.76S254,495.67,252.4,492.9c0,0-27.28-27.74-29.91-33.84s-8.39-12.2-12.06-25.52c0,0,73.44,68.23,77.12,73.78S303.19,519,303.19,519s5.87-3.89,5.34-8.32,5.05-7.77-5.34-20-58.66-49.92-62.33-58.8-28.33-41.05-15.22-72.66c0,0,8.92-27.74,33.05-20.53,0,0,15.22,2.78,23.61,19.42,0,0-16.79-11.1-35.15-2.78,0,0-19.41,8.88-13.64,37.17,0,0,6.82,25.51,26.76,39.93l9.44,10s-22-33.84-22-43.82c0,0-10.63-25.62,7.87-35,0,0,14.68-3.32,17.83-1.11s-15.21,1.11-18.36,17.75c0,0-3.15,18.31,13.12,33.84,0,0-13.64-43.82,7.87-41.05l6.29,2.41s16.79,20,18.89,63.23l2,15.27s6.7-39.67,6.37-57.79.72-51.78-1.73-61-14.34-26.62-22-31.43S268,281.56,269.36,274.9s7.69-17.75,14.69-17c0,0,9.95-5.17,19.14,31.07l2.54,11.46s-2.79-42.16,19.24-46.59c0,0,8-1.11,9.44,8.5,0,0-2.45,30.32-12.24,59.17,0,0-7.69,29.95-8,44s-.7,27.37-.7,27.37,14-28.85,21-30.33c0,0,8.75,2.22,7,21.08,0,0,0,20.71-8.4,33.65L317.28,438s34.27-31.8,33.92-54.36V367.35S346,354,339.31,354.41,348.4,350,348.4,350s9.45,5.18,9.45,11.47,1.74,20,1.74,20-14,46.23-24.13,57,17.14-8.5,17.14-8.5,17.49-19.6,17.49-33.28-2.1-30.7-6.65-37c0,0-5.24-11.84-10.49-16.64s13.29-4.81,13.29-4.81A28.26,28.26,0,0,1,382,359.22c2.8,15.9-1.4,37-1.4,37S370.09,428,360.29,438s-44.41,37.72-46.16,45.49S311,498.26,311,498.26l.7,13.68s2.1,9.61,15.39-1.48,30.08-24,40.57-39.94c0,0,26.58-37.72,28.33-41s0,21.81,0,21.81a76.44,76.44,0,0,1-29.73,41l-31.83,25.89s-17.13,18.49-16.78,27.36c0,0,19.23-11.83,22.73-12.57,0,0,29.73-20,40.92-37.35,0,0,22.38-25.89,26.23-49.18v-34s6.29,32.54,5.25,38.82-3.15,41.79-12.6,51-15.73,28.84-43.71,44.37S325,559.27,325,559.27s-9.79,8.14-12.59,13.69-1.75,9.24,5.94,8.87,44.77-15.53,46.52-17.38,37.07-28.84,43.72-47,16.44-39.94,16.09-66.2-7.35-44.14-7.35-44.14L431.64,438a117.27,117.27,0,0,1,0,55.1c-7.34,29.58-12.24,42.9-16.79,48.44S391.42,572.59,382,577.76s-51.76,24.78-51.76,24.78S312,615.11,312,621.4s44.07-12.58,44.07-12.58,51.41-30.32,57.7-45.11c0,0,26.59-32.91,29.73-52.88s9.45-46.59,3.85-69.89c-4.41-18.34-17.92-44.25-23.47-54.44-1.49-2.75-2.41-4.36-2.41-4.36s5.94,4.81,16.09,5.18S458.92,435,458.92,435s7,33.28,2.8,54.73-11.89,51-22.38,62.5c0,0-23.79,41.78-49.67,54,0,0-34.62,24.77-51.76,27S318,651.72,318,651.72l30.78-9.61s56.31-19.6,59.46-23.67,37.77-22.19,47.56-49.18l17.84-53.62s8.05-44,6.3-64.35c0,0-7-38.82-15.39-46.22,0,0-21.34-34.39-29-41.42s-21-28.84-21-28.84l-2.44-5.92,25.53,16.64S468,375.12,477.11,394,497,446.86,497.39,468.3s-3.14,70.63-20.63,91.34c0,0-5.25,22.19-45.82,57.32,0,0-38.12,27-64.35,32.91s-42.67,20-42.67,20l-13.64,16.64" transform="translate(-45.53 -181.59)"/><path class="cls-1" d="M29.35,352.3" transform="translate(-45.53 -181.59)"/></svg>