<?xml version="1.0" standalone="no"?>
<!DOCTYPE svg PUBLIC "-//W3C//DTD SVG 20010904//EN"
 "http://www.w3.org/TR/2001/REC-SVG-20010904/DTD/svg10.dtd">
<svg version="1.0" xmlns="http://www.w3.org/2000/svg"
 width="626.000000pt" height="430.000000pt" viewBox="0 0 626.000000 430.000000"
 preserveAspectRatio="xMidYMid meet">

<g transform="translate(0.000000,430.000000) scale(0.100000,-0.100000)"
fill="#000000" stroke="none">
<path d="M3996 3629 c3 -5 14 -9 25 -9 22 0 25 -13 6 -29 -9 -7 -17 -7 -24 0
-6 6 -19 6 -37 -1 -37 -13 -56 -1 -25 16 13 7 19 13 13 14 -19 0 -48 -26 -36
-34 16 -10 15 -27 -1 -20 -7 2 -24 -4 -37 -16 -13 -11 -29 -20 -35 -20 -7 0
-16 -7 -19 -16 -4 -9 -13 -14 -21 -10 -9 3 -15 -1 -15 -11 0 -12 -3 -13 -14
-4 -12 10 -13 6 -6 -24 4 -19 4 -37 0 -40 -5 -3 -10 7 -12 22 -2 14 -9 28 -16
31 -8 2 -10 -2 -5 -14 5 -14 2 -16 -15 -12 -14 4 -20 2 -15 -5 4 -6 0 -8 -10
-4 -10 3 -17 2 -17 -4 0 -6 -5 -7 -10 -4 -6 4 -9 1 -8 -7 2 -7 -7 -14 -19 -16
-16 -2 -23 2 -23 14 0 13 -3 14 -15 4 -20 -17 -19 -24 11 -60 26 -30 27 -30
53 -13 14 9 78 46 141 81 63 36 127 73 142 83 56 40 93 18 115 -66 46 -176 78
-287 103 -366 16 -51 27 -96 24 -101 -3 -4 37 -7 88 -6 51 1 75 3 52 5 -40 4
-41 4 -64 71 -13 37 -29 80 -35 96 l-12 28 -11 -31 c-6 -17 -8 -30 -4 -30 37
6 44 -43 8 -49 -18 -4 -19 -3 -3 13 20 20 22 26 4 19 -8 -3 -20 10 -30 33 -24
56 -67 194 -69 223 -1 14 -5 30 -8 35 -4 6 -8 28 -9 50 -1 21 -6 44 -11 50 -6
7 -7 15 -3 18 3 4 1 7 -6 7 -7 0 -10 4 -7 9 4 5 0 11 -6 14 -10 3 -8 9 4 23
10 10 20 16 23 13 8 -9 37 -142 42 -199 4 -43 7 -51 14 -35 7 15 8 10 5 -17
-6 -48 3 -82 18 -69 8 7 11 -2 9 -32 -2 -32 -1 -37 6 -22 8 17 10 18 10 3 1
-10 6 -18 11 -18 13 0 16 -11 -36 167 -60 209 -66 225 -89 245 -22 18 -98 41
-89 27z m79 -40 c0 -7 -8 -15 -17 -17 -18 -3 -25 18 -11 32 10 10 28 1 28 -15z
m-165 -63 c0 -8 -4 -18 -10 -21 -5 -3 -10 3 -10 14 0 12 5 21 10 21 6 0 10 -6
10 -14z m-30 -26 c0 -5 -4 -10 -10 -10 -5 0 -10 5 -10 10 0 6 5 10 10 10 6 0
10 -4 10 -10z m-53 -32 c-3 -8 -6 -5 -6 6 -1 11 2 17 5 13 3 -3 4 -12 1 -19z
m-197 -78 c7 -13 7 -20 1 -20 -6 0 -15 9 -21 20 -7 13 -7 20 -1 20 6 0 15 -9
21 -20z m50 0 c0 -5 -2 -10 -4 -10 -3 0 -8 5 -11 10 -3 6 -1 10 4 10 6 0 11
-4 11 -10z"/>
<path d="M3855 3569 c-16 -10 -25 -19 -20 -19 6 0 24 9 40 20 17 11 26 20 20
19 -5 0 -23 -9 -40 -20z"/>
<path d="M4790 3554 c-31 -18 -81 -33 -160 -46 -63 -11 -133 -28 -155 -39 -22
-11 -31 -16 -20 -13 11 4 30 7 43 7 12 -1 22 4 22 10 0 6 3 7 6 4 4 -4 1 -14
-6 -22 -11 -13 -15 -13 -21 -3 -6 10 -9 8 -9 -6 0 -11 -5 -16 -13 -13 -8 3
-20 1 -27 -3 -11 -7 -7 -33 18 -137 18 -70 34 -140 37 -155 3 -16 9 -28 14
-28 12 0 5 83 -9 109 -6 12 -9 32 -6 44 3 12 3 16 0 9 -3 -6 -10 -9 -15 -6 -6
3 -5 12 2 21 9 10 9 17 2 21 -13 9 -23 62 -12 62 5 0 9 5 9 11 0 5 -4 7 -10 4
-6 -3 -7 1 -4 9 3 9 12 16 20 16 8 0 14 5 14 11 0 6 7 8 17 5 10 -4 14 -4 10
0 -9 9 39 34 77 39 17 2 33 4 36 6 3 1 8 1 13 0 4 0 7 7 8 17 0 13 2 12 9 -5
l9 -23 50 25 c27 14 51 25 54 25 3 0 8 -16 11 -35 4 -19 11 -35 17 -35 6 0 8
4 4 9 -3 5 -1 12 5 16 5 3 10 0 10 -7 0 -11 2 -11 9 0 6 10 13 11 34 1 31 -14
34 -24 11 -33 -19 -7 -37 2 -29 15 3 5 -1 6 -10 2 -14 -5 -11 -10 14 -25 17
-11 31 -25 31 -31 0 -6 3 -7 6 -4 4 4 2 13 -5 21 -9 10 -8 15 2 19 8 3 19 2
26 -3 10 -6 10 -12 -1 -29 -9 -15 -10 -24 -2 -29 15 -10 93 -153 105 -194 5
-18 12 -53 15 -77 3 -25 6 -49 7 -54 1 -5 -14 -15 -33 -23 l-35 -13 33 3 c25
3 32 1 32 -13 0 -14 -17 -22 -80 -36 -44 -10 -78 -20 -76 -22 2 -3 49 5 104
18 80 17 102 26 110 43 13 28 3 86 -14 86 -8 0 -14 5 -14 11 0 5 4 8 8 5 5 -3
9 25 9 62 1 87 4 101 20 95 7 -3 13 0 13 6 0 6 -16 11 -35 11 -37 0 -41 4 -83
67 -44 67 -141 162 -161 156 -3 -1 -4 19 -2 43 1 24 -1 44 -5 44 -5 0 -29 -12
-54 -26z m36 -12 c-17 -16 -18 -16 -5 5 7 12 15 20 18 17 3 -2 -3 -12 -13 -22z
m-30 -14 c4 -6 3 -8 -3 -5 -6 4 -16 0 -23 -8 -7 -8 -22 -15 -34 -14 l-21 0 21
9 c12 5 25 13 29 19 8 14 22 14 31 -1z m35 -21 c-10 -9 -11 -8 -5 6 3 10 9 15
12 12 3 -3 0 -11 -7 -18z m-211 -21 c0 -9 -40 -13 -46 -5 -3 5 6 9 20 9 14 0
26 -2 26 -4z m371 -138 c6 -16 16 -28 21 -28 6 0 8 -9 5 -20 -3 -13 0 -20 9
-20 8 0 14 -4 14 -10 0 -15 -15 -12 -37 8 -17 14 -63 99 -63 117 0 15 41 -23
51 -47z m99 -105 c0 -6 -4 -15 -10 -18 -5 -3 -10 1 -10 10 0 9 -4 13 -10 10
-5 -3 -10 -2 -10 4 0 5 9 9 20 8 11 -1 20 -7 20 -14z m-47 -34 c-4 -15 -8 -17
-14 -8 -8 14 -3 29 11 29 4 0 6 -9 3 -21z m29 -101 c-7 -7 -12 -8 -12 -2 0 6
3 14 7 17 3 4 9 5 12 2 2 -3 -1 -11 -7 -17z m25 -58 c-3 -11 -1 -20 5 -20 5 0
6 -4 3 -10 -4 -6 -11 -5 -20 3 -7 6 -9 14 -4 15 5 2 9 10 9 18 0 8 3 14 6 14
4 0 4 -9 1 -20z"/>
<path d="M338 3370 c-15 -4 -40 -18 -55 -30 -16 -13 -23 -21 -18 -19 76 29
105 43 105 50 0 5 -1 9 -2 8 -2 0 -15 -4 -30 -9z"/>
<path d="M407 3373 c18 -2 50 -2 70 0 21 2 7 4 -32 4 -38 0 -55 -2 -38 -4z"/>
<path d="M540 3361 c52 -16 108 -51 142 -89 43 -48 57 -72 75 -132 l13 -45 -6
40 c-8 55 -35 103 -85 152 -44 44 -115 84 -146 82 -12 0 -9 -3 7 -8z"/>
<path d="M459 3314 c-15 -18 -23 -244 -9 -244 20 0 168 176 157 186 -5 5 -63
-63 -101 -118 -8 -11 -20 -16 -30 -12 -24 9 -21 89 5 138 11 21 18 41 15 44
-3 3 -6 -1 -6 -8 0 -7 -3 -10 -6 -7 -4 4 -1 13 6 22 10 12 10 15 -3 15 -8 0
-21 -7 -28 -16z"/>
<path d="M186 3280 c-36 -41 -45 -60 -25 -60 5 0 7 -5 4 -10 -4 -6 -11 -8 -16
-5 -5 3 -6 -1 -3 -9 3 -9 1 -16 -5 -16 -6 0 -8 -7 -4 -17 5 -12 3 -14 -7 -8
-9 5 -11 4 -6 -3 4 -7 2 -12 -3 -12 -17 0 -13 -37 4 -44 10 -4 15 1 15 14 0
28 47 131 72 157 16 17 18 23 7 23 -10 1 -8 5 5 15 11 8 15 15 9 15 -6 0 -27
-18 -47 -40z m24 0 c0 -5 -5 -10 -11 -10 -5 0 -7 5 -4 10 3 6 8 10 11 10 2 0
4 -4 4 -10z"/>
<path d="M368 3313 c6 -2 18 -2 25 0 6 3 1 5 -13 5 -14 0 -19 -2 -12 -5z"/>
<path d="M540 3300 c0 -5 5 -10 11 -10 5 0 7 5 4 10 -3 6 -8 10 -11 10 -2 0
-4 -4 -4 -10z"/>
<path d="M280 3275 c-18 -22 -6 -43 75 -130 l74 -80 -1 40 c0 22 -4 54 -9 70
-6 23 -7 19 -3 -17 4 -40 3 -47 -10 -42 -9 3 -13 11 -9 17 3 5 2 7 -4 4 -22
-14 -106 111 -96 141 6 16 -2 15 -17 -3z m20 -45 c6 -11 8 -20 6 -20 -3 0 -10
9 -16 20 -6 11 -8 20 -6 20 3 0 10 -9 16 -20z"/>
<path d="M624 3210 c-11 -4 -51 -41 -87 -82 l-67 -73 43 -13 c57 -17 80 -11
37 10 l-34 17 29 6 c17 4 44 13 60 22 29 14 26 14 -37 -3 -20 -5 -20 -4 5 13
33 23 24 40 -10 18 -13 -9 -23 -11 -23 -5 0 5 12 17 28 27 15 10 31 23 35 30
5 8 12 11 16 8 5 -2 14 2 21 10 7 8 17 12 23 8 6 -3 7 -1 3 5 -8 14 -13 14
-42 2z"/>
<path d="M200 3179 c-7 -11 -9 -23 -7 -26 3 -2 8 5 12 16 8 26 16 26 49 0 32
-25 35 -15 4 12 -30 24 -45 24 -58 -2z"/>
<path d="M4566 3170 c8 -43 14 -51 14 -19 0 13 -5 31 -10 39 -7 11 -8 5 -4
-20z"/>
<path d="M635 3170 c-10 -11 -13 -20 -8 -20 13 0 38 29 31 35 -3 3 -13 -4 -23
-15z"/>
<path d="M4185 3170 c-3 -5 -1 -10 4 -10 6 0 11 5 11 10 0 6 -2 10 -4 10 -3 0
-8 -4 -11 -10z"/>
<path d="M180 3120 c0 -5 5 -10 11 -10 5 0 7 5 4 10 -3 6 -8 10 -11 10 -2 0
-4 -4 -4 -10z"/>
<path d="M4651 3117 c-1 -12 -5 -16 -13 -11 -7 4 -4 -2 6 -14 24 -27 28 -24
17 14 -6 16 -10 21 -10 11z"/>
<path d="M4568 3103 c-5 -18 -2 -21 20 -17 34 7 42 14 15 14 -12 0 -23 6 -25
12 -3 7 -7 3 -10 -9z"/>
<path d="M4729 3093 c-13 -16 -12 -17 4 -4 9 7 17 15 17 17 0 8 -8 3 -21 -13z"/>
<path d="M4772 3078 c-51 -29 -54 -30 -72 -13 -26 24 -26 11 0 -15 17 -17 23
-18 34 -8 7 8 32 22 55 32 22 11 41 23 41 28 0 10 4 12 -58 -24z"/>
<path d="M220 3090 c-21 -6 -18 -7 17 -8 24 0 40 4 37 9 -6 10 -19 10 -54 -1z"/>
<path d="M370 3085 c14 -17 13 -18 -2 -12 -11 4 -17 2 -15 -5 1 -6 -16 -17
-38 -25 l-40 -13 45 6 c91 11 102 14 89 30 -7 9 -22 20 -33 26 -20 11 -20 10
-6 -7z"/>
<path d="M105 3080 c-3 -5 -2 -18 3 -27 5 -10 7 -24 5 -30 -3 -7 1 -13 9 -13
10 0 10 -2 -1 -9 -12 -8 -12 -12 0 -27 17 -23 44 -31 36 -11 -3 8 -9 36 -12
61 -5 33 -11 46 -21 42 -8 -3 -11 0 -7 10 6 16 -3 19 -12 4z"/>
<path d="M773 3030 c0 -36 2 -50 4 -32 2 17 2 47 0 65 -2 17 -4 3 -4 -33z"/>
<path d="M3895 3076 c-17 -13 -18 -18 -8 -48 31 -85 65 -252 70 -343 8 -143
-8 -225 -72 -375 -48 -113 -87 -229 -83 -248 1 -4 -2 -15 -7 -25 -16 -38 2
-165 33 -230 35 -73 115 -172 157 -196 17 -9 33 -21 38 -28 15 -24 169 -123
180 -116 7 3 9 3 5 -2 -4 -4 7 -33 25 -64 32 -56 32 -57 32 -196 0 -127 -2
-145 -23 -188 -13 -26 -28 -44 -33 -41 -5 3 -40 -6 -77 -19 -37 -13 -87 -30
-112 -37 -57 -16 -110 -67 -110 -108 0 -93 163 -161 423 -178 61 -4 107 -3
107 2 0 5 -45 10 -100 10 -230 4 -420 80 -420 170 0 31 14 31 28 0 14 -32 118
-82 207 -101 39 -8 117 -15 173 -16 83 -2 102 -5 105 -18 4 -13 5 -13 6 2 1
11 9 17 26 17 17 0 25 5 24 18 0 10 -3 12 -6 5 -7 -19 -211 -17 -314 3 -90 17
-193 64 -210 97 -13 22 -4 67 13 67 6 0 8 -3 5 -7 -4 -3 1 -12 11 -19 22 -17
33 -17 26 0 -3 8 7 23 24 35 36 25 42 26 42 6 0 -8 4 -15 9 -15 20 0 41 13 41
25 0 17 30 41 60 49 24 7 24 6 -2 -9 -43 -24 -33 -28 11 -5 22 11 42 16 45 12
3 -5 15 -8 28 -6 13 1 35 3 51 3 34 1 35 14 1 30 l-27 12 32 23 c23 17 28 25
18 29 -8 3 -20 0 -26 -6 -15 -15 -14 6 2 22 10 11 9 12 -2 6 -10 -6 -11 -2 -6
16 5 13 7 45 6 71 -1 35 3 50 16 58 15 9 14 10 -7 4 l-25 -7 19 22 c15 16 16
20 4 16 -24 -9 -17 48 9 81 28 34 24 40 -15 20 l-29 -15 -18 40 c-10 22 -26
44 -34 49 -9 5 -12 12 -7 17 5 4 10 3 12 -2 3 -6 29 -9 64 -7 51 2 63 -1 82
-20 13 -13 28 -22 33 -21 6 2 3 -3 -6 -9 -15 -10 -15 -13 5 -31 11 -10 16 -16
9 -12 -19 9 -30 -50 -25 -135 2 -41 4 -91 5 -112 1 -20 5 -34 10 -31 13 8 7
-10 -9 -28 -15 -17 -14 -19 11 -25 l28 -7 -24 -13 c-13 -7 -18 -13 -11 -14 7
0 22 5 33 10 12 7 19 7 19 1 0 -15 -34 -31 -64 -31 -14 0 -26 -4 -26 -8 0 -5
20 -8 45 -8 25 1 45 5 45 9 0 4 10 2 23 -5 12 -7 27 -11 34 -10 6 1 14 -2 18
-8 3 -5 17 -7 31 -4 29 8 33 -15 6 -39 -34 -31 -96 -49 -196 -57 l-101 -8 137
2 c76 0 138 4 138 7 0 4 7 10 16 13 8 3 12 2 9 -4 -9 -14 1 -12 36 6 17 8 33
13 36 10 3 -3 14 -1 24 5 16 8 17 12 7 23 -7 8 -16 12 -20 9 -5 -2 -8 1 -8 6
0 22 45 4 48 -18 8 -51 -78 -97 -210 -113 -78 -10 -88 -13 -63 -20 17 -5 49
-9 73 -9 23 0 42 -5 42 -10 0 -5 -11 -9 -25 -9 -21 0 -25 -5 -24 -27 1 -23 2
-25 7 -8 8 24 41 32 53 13 7 -10 9 -10 9 0 0 7 10 16 23 21 16 6 24 4 29 -8 5
-13 7 -12 7 6 1 14 7 20 19 19 24 -4 28 -43 5 -50 -31 -9 -116 -27 -158 -33
-49 -6 -59 -13 -19 -13 94 1 269 63 305 108 21 28 25 89 6 112 -33 42 -126 81
-252 106 l-20 4 20 -9 c14 -7 15 -10 5 -10 -8 0 -22 4 -30 9 -8 5 -11 10 -5
10 5 0 0 7 -12 15 -66 46 -71 335 -9 430 10 15 38 38 63 53 98 57 162 104 160
115 -1 7 5 11 14 9 39 -6 158 166 184 263 16 63 20 125 8 125 -5 0 -8 24 -9
53 -1 37 -16 93 -54 192 -85 227 -92 260 -87 405 4 100 12 146 36 230 17 57
40 117 51 132 24 32 22 33 -16 13 -16 -8 -48 -17 -71 -21 -24 -3 -41 -9 -39
-13 2 -3 -12 -6 -32 -6 -125 -2 -193 -6 -188 -13 2 -4 39 -7 80 -7 61 0 75 -3
71 -14 -4 -9 1 -12 15 -8 14 3 20 0 20 -10 0 -11 7 -14 25 -11 13 3 22 1 19
-3 -3 -5 -13 -9 -22 -9 -13 0 -14 -2 -4 -9 17 -10 -6 -21 -46 -21 -20 0 -23
-3 -12 -9 8 -6 17 -8 21 -5 4 2 10 0 14 -5 3 -6 13 -7 23 -4 9 3 14 3 10 -2
-4 -4 -1 -20 7 -36 16 -30 20 -53 6 -30 -5 7 -17 11 -27 7 -22 -7 -50 -46 -34
-46 6 0 13 7 16 15 4 8 10 15 16 15 5 0 6 -5 2 -12 -5 -8 -2 -9 9 -5 10 3 18
3 18 -1 7 -38 5 -50 -8 -45 -10 4 -11 9 -3 18 8 9 5 14 -9 18 -12 3 -22 -1
-25 -10 -9 -21 -7 -25 6 -17 7 4 8 3 4 -5 -4 -6 -2 -20 6 -29 12 -15 11 -16
-4 -3 -20 15 -25 2 -7 -16 9 -9 6 -21 -11 -47 -12 -20 -26 -36 -31 -36 -6 0
-7 -5 -4 -11 5 -7 16 -2 31 12 22 21 28 19 25 -6 -1 -5 5 -2 12 8 19 23 22 22
24 -10 0 -16 -2 -21 -7 -13 -5 9 -9 9 -15 1 -5 -9 -10 -9 -21 0 -10 8 -14 8
-14 0 0 -6 5 -11 10 -11 6 0 10 -4 10 -10 0 -5 -6 -10 -13 -10 -7 0 -18 -9
-25 -20 -16 -27 -9 -25 24 5 33 31 44 32 36 3 -4 -17 -2 -20 11 -15 19 7 23
-8 5 -19 -6 -4 -16 0 -22 8 -9 12 -15 10 -34 -14 -20 -24 -21 -27 -5 -21 10 3
24 10 31 16 8 6 12 6 12 -1 0 -15 -26 -33 -35 -24 -5 4 -5 1 -1 -6 4 -7 2 -21
-5 -30 -7 -9 0 -4 15 11 23 23 30 26 42 16 8 -7 11 -15 7 -18 -4 -3 -14 -14
-22 -24 -12 -15 -11 -20 4 -37 17 -19 17 -21 -1 -42 -19 -23 -19 -23 2 -5 30
25 37 21 18 -10 -11 -19 -11 -22 -1 -10 8 9 19 17 24 17 14 0 9 -35 -7 -57
-13 -16 -12 -16 8 1 12 11 25 16 29 12 4 -4 1 -11 -6 -15 -10 -6 -10 -10 -1
-16 8 -5 7 -12 -6 -26 -9 -10 -13 -19 -8 -19 5 0 15 9 22 20 7 11 17 20 23 20
6 0 0 -15 -12 -32 l-23 -33 24 20 23 20 -12 -22 c-9 -18 -9 -23 0 -23 7 0 9
-3 6 -6 -13 -13 13 -43 31 -37 15 6 15 5 2 -9 -9 -8 -15 -32 -15 -54 0 -33 3
-39 20 -36 19 2 19 2 3 -11 -10 -8 -18 -20 -18 -27 0 -10 -3 -10 -14 -1 -12
10 -14 9 -9 -7 3 -14 11 -18 28 -14 15 2 22 9 18 18 -3 8 0 14 7 14 6 0 8 -4
5 -10 -3 -5 1 -10 9 -10 9 0 16 -5 16 -11 0 -5 -4 -8 -9 -5 -4 3 -22 0 -40 -7
-25 -9 -31 -17 -31 -41 0 -16 -8 -35 -17 -42 -11 -8 -13 -13 -6 -14 7 0 10 -7
6 -16 -5 -14 -3 -15 18 -4 32 17 39 25 14 16 -14 -5 -17 -4 -9 4 6 6 18 8 27
4 19 -7 23 -24 6 -24 -5 0 -7 -5 -3 -11 4 -7 0 -9 -14 -5 -12 4 -33 1 -49 -8
-15 -8 -22 -15 -15 -16 7 0 10 -5 6 -11 -9 -15 -24 9 -17 30 2 9 -3 5 -12 -9
l-16 -25 5 27 c4 18 1 30 -10 36 -8 5 -17 15 -18 23 -7 36 -75 181 -76 162 0
-7 8 -35 19 -62 10 -28 16 -52 13 -55 -3 -4 0 -6 6 -6 6 0 14 -15 17 -32 4
-18 12 -44 18 -58 5 -14 11 -30 12 -36 2 -6 6 -20 9 -30 4 -13 -1 -23 -13 -31
-16 -10 -20 -7 -36 25 -10 20 -19 39 -20 42 -1 3 -9 21 -17 40 -8 19 -18 43
-21 53 -4 9 -12 17 -19 17 -10 0 -10 -2 1 -9 10 -6 11 -13 2 -29 -15 -28 -14
-35 3 -29 8 3 16 0 19 -6 7 -20 0 -62 -10 -60 -6 1 -8 -10 -5 -24 3 -18 1 -24
-6 -19 -8 5 -10 1 -5 -9 4 -12 8 -13 13 -5 6 9 9 9 15 1 3 -7 15 -9 25 -6 11
4 20 -1 24 -11 9 -23 0 -30 -19 -14 -23 19 -18 3 7 -20 18 -17 20 -23 9 -29
-7 -5 -10 -14 -7 -20 7 -10 3 -12 -34 -15 -8 -1 -39 -10 -68 -20 -29 -10 -66
-16 -82 -14 -16 2 -27 1 -24 -4 3 -4 15 -8 27 -8 18 0 19 -2 7 -11 -18 -12 52
-2 90 14 28 11 50 17 50 12 0 -9 -74 -45 -91 -45 -11 0 -17 -4 -14 -10 8 -13
2 -13 -30 2 -19 9 -28 9 -37 0 -17 -17 -28 -15 -22 3 4 8 1 15 -5 15 -6 0 -11
-5 -11 -11 0 -6 -13 2 -29 17 -17 15 -27 32 -24 37 3 6 1 7 -6 3 -9 -6 -9 -11
0 -22 6 -8 9 -15 5 -15 -3 -1 -10 -2 -15 -3 -5 0 -13 -5 -18 -10 -5 -5 1 -7
14 -3 13 3 26 1 29 -4 3 -6 -9 -9 -28 -7 -19 1 -40 -2 -48 -7 -8 -5 -24 -10
-35 -10 -11 0 -26 -4 -34 -9 -11 -7 -13 -5 -8 9 6 15 3 17 -23 11 -19 -3 -29
-2 -25 4 3 6 -5 10 -19 10 -33 0 -32 5 2 36 24 22 24 24 4 14 -19 -9 -29 -8
-50 6 -34 22 -52 46 -44 59 3 5 -2 4 -12 -4 -15 -12 -19 -12 -34 2 -9 10 -11
17 -5 17 6 0 14 7 17 16 3 8 2 12 -4 9 -6 -3 -20 1 -32 9 -15 11 -25 12 -34 5
-9 -7 -14 -4 -19 10 -3 12 -11 21 -16 21 -5 0 -9 5 -9 11 0 8 4 8 14 0 10 -9
16 -8 26 4 11 13 10 14 -4 9 -9 -3 -16 -1 -16 5 0 6 -8 8 -17 4 -16 -6 -16 -5
-4 10 12 15 11 17 -8 17 -21 0 -23 6 -24 57 -1 12 -5 20 -9 17 -4 -3 -8 0 -8
5 0 6 -5 11 -12 11 -9 0 -9 -3 0 -12 15 -15 16 -38 0 -38 -6 0 -8 3 -5 6 3 4
2 14 -3 23 -10 20 -3 33 25 50 20 12 20 12 0 6 -17 -4 -24 3 -37 31 -16 34
-15 35 1 19 17 -15 19 -12 24 36 4 29 12 56 19 61 17 10 -1 9 -27 -2 -11 -5
-14 -9 -7 -9 23 -2 12 -29 -17 -41 -18 -7 -28 -17 -25 -25 3 -7 1 -16 -4 -19
-5 -3 -9 8 -10 24 0 16 6 31 14 34 12 5 13 8 2 20 -7 8 -17 11 -23 8 -5 -3 -5
1 1 9 6 8 14 32 16 55 8 56 60 173 95 209 15 16 22 26 16 21 -8 -4 -13 -2 -13
4 0 8 9 10 23 7 29 -8 57 7 32 17 -15 5 -15 9 -4 23 12 15 12 16 -3 11 -11 -5
-15 -2 -13 10 2 9 4 21 4 25 1 5 5 5 11 2 15 -9 38 17 32 37 -2 10 1 18 7 18
6 0 11 8 10 18 0 9 -3 12 -6 5 -3 -10 -7 -10 -17 0 -11 10 -8 14 16 24 20 9
28 18 25 27 -3 8 -1 17 6 20 7 2 4 5 -5 5 -10 1 -18 -3 -18 -9 0 -5 -6 -7 -14
-4 -15 6 -17 69 -3 92 5 8 3 12 -7 12 -15 0 -21 30 -19 88 1 6 -3 12 -8 12 -5
0 -9 5 -9 10 0 6 12 10 26 10 24 0 25 -2 13 -17 -13 -15 -12 -15 6 -6 13 7 38
8 75 2 30 -5 74 -10 98 -11 23 -1 42 -5 42 -8 0 -3 17 -4 38 -2 37 4 39 3 52
-40 8 -23 21 -54 28 -68 l14 -25 -5 25 c-2 14 -8 34 -12 44 -7 15 -5 17 6 11
7 -5 4 4 -9 20 -12 15 -21 29 -20 31 2 1 61 4 131 6 128 3 129 3 142 -22 14
-26 11 -45 -6 -34 -6 3 -5 -3 3 -15 7 -12 17 -21 22 -21 4 0 3 7 -4 15 -10 12
-10 15 3 15 14 0 13 5 -4 35 -18 30 -19 35 -5 35 9 0 16 -6 16 -13 0 -7 7 -22
15 -33 14 -18 14 -17 5 10 -9 26 -8 32 13 50 12 12 17 17 10 12 -35 -23 -402
-31 -493 -10 -14 3 -43 6 -65 7 -27 1 -39 6 -37 15 1 8 -2 11 -8 7 -12 -7 -79
15 -81 27 -7 33 -2 36 76 43 22 2 69 8 105 14 60 9 58 9 -36 5 -56 -3 -114 -7
-130 -9 -16 -2 -23 -2 -16 1 6 3 12 15 12 26 0 16 -3 18 -14 9 -10 -9 -15 -8
-20 4 -3 8 -1 15 4 15 6 0 10 5 10 11 0 5 -5 7 -10 4 -11 -7 -26 22 -16 32 3
3 12 0 21 -7 12 -10 15 -10 15 1 0 8 6 5 15 -7 8 -11 15 -14 15 -6 0 6 8 12
18 13 9 0 -5 7 -31 14 -59 16 -97 40 -97 62 0 14 2 14 20 -2 11 -10 23 -15 27
-12 3 4 1 7 -7 7 -10 0 -10 3 0 15 11 13 10 14 -5 8 -14 -5 -17 -3 -12 10 8
21 6 21 -18 3z m815 -120 c0 -2 -7 -7 -16 -10 -8 -3 -12 -2 -9 4 6 10 25 14
25 6z m60 -100 c0 -3 -4 -8 -10 -11 -5 -3 -10 -1 -10 4 0 6 5 11 10 11 6 0 10
-2 10 -4z m-40 -251 c-14 -17 -30 -20 -30 -5 0 6 7 10 16 10 8 0 12 5 9 10 -3
6 -3 16 2 23 5 9 9 7 11 -6 2 -10 -2 -24 -8 -32z m53 -244 c-2 -3 -9 4 -17 14
-9 12 -15 15 -20 7 -4 -7 -2 -12 3 -12 6 0 11 -4 11 -10 0 -5 -7 -10 -16 -10
-8 0 -12 5 -9 10 3 6 1 10 -5 10 -6 0 -2 10 10 22 11 12 20 27 21 32 0 6 6 -5
13 -24 7 -19 11 -37 9 -39z m72 -191 c-3 -5 -11 -10 -16 -10 -6 0 -7 5 -4 10
3 6 11 10 16 10 6 0 7 -4 4 -10z m-1019 -249 c-4 -5 0 -11 6 -14 7 -2 11 -7 8
-10 -9 -10 -33 10 -26 22 4 6 9 11 12 11 3 0 3 -4 0 -9z m1068 -6 c-4 -8 -8
-15 -10 -15 -2 0 -4 7 -4 15 0 8 4 15 10 15 5 0 7 -7 4 -15z m-1034 -39 c0 -3
-4 -8 -10 -11 -5 -3 -10 -1 -10 4 0 6 5 11 10 11 6 0 10 -2 10 -4z m980 -97
c0 -5 -4 -9 -8 -9 -5 0 -9 7 -9 15 0 8 4 12 9 9 4 -3 8 -9 8 -15z m-10 -33 c0
-5 -7 -3 -15 4 -8 7 -15 20 -15 28 0 13 3 12 15 -4 8 -10 15 -23 15 -28z
m-174 -26 c-1 -16 -4 -30 -8 -30 -10 0 -20 38 -13 50 12 19 22 10 21 -20z m64
-90 c0 -5 -5 -10 -11 -10 -5 0 -7 5 -4 10 3 6 8 10 11 10 2 0 4 -4 4 -10z
m-635 -80 c4 -6 11 -8 16 -4 13 7 41 -15 33 -27 -6 -10 -25 -1 -59 25 -11 8
-15 16 -8 16 6 0 15 -5 18 -10z m351 -125 c-11 -8 -24 -15 -30 -15 -5 0 -1 7
10 15 10 8 24 14 29 14 6 0 1 -6 -9 -14z m4 -395 c0 -5 -2 -10 -4 -10 -3 0 -8
5 -11 10 -3 6 -1 10 4 10 6 0 11 -4 11 -10z m268 -246 c-19 -19 -60 -22 -65
-4 -4 12 -3 12 5 2 8 -12 13 -12 31 -1 11 8 21 17 21 22 0 4 5 5 11 1 8 -4 7
-10 -3 -20z m55 -21 c-3 -7 -8 -13 -13 -13 -4 0 -17 -9 -30 -20 -26 -22 -40
-26 -40 -9 0 5 5 7 10 4 6 -3 10 3 10 13 0 11 7 22 15 26 8 3 15 0 15 -6 0 -6
3 -8 8 -4 7 7 8 11 11 39 1 9 4 8 10 -2 5 -8 7 -20 4 -28z m-195 -22 c3 -8 -1
-12 -9 -9 -7 2 -15 10 -17 17 -3 8 1 12 9 9 7 -2 15 -10 17 -17z m37 9 c3 -5
-1 -10 -9 -10 -9 0 -16 5 -16 10 0 6 4 10 9 10 6 0 13 -4 16 -10z"/>
<path d="M4058 3083 c7 -3 16 -2 19 1 4 3 -2 6 -13 5 -11 0 -14 -3 -6 -6z"/>
<path d="M702 3049 c-12 -19 -19 -21 -65 -15 -38 5 -49 4 -41 -4 6 -6 37 -14
68 -17 l56 -6 0 32 c0 37 -1 37 -18 10z"/>
<path d="M4831 3044 c-37 -26 -31 -32 9 -9 31 18 43 19 34 3 -5 -10 -4 -10 6
-1 12 11 6 34 -8 32 -4 0 -22 -12 -41 -25z"/>
<path d="M4532 3024 c3 -28 1 -29 -47 -35 -48 -6 -48 -6 20 -7 54 -2 66 1 57
10 -7 7 -12 20 -12 29 0 10 -5 21 -11 25 -7 4 -10 -4 -7 -22z"/>
<path d="M362 3023 c-6 -2 -9 -10 -6 -15 4 -7 2 -8 -4 -4 -14 8 -123 -29 -134
-46 -11 -18 -10 -48 2 -48 6 0 10 6 10 13 0 6 19 22 43 33 55 28 80 36 72 24
-3 -6 -2 -10 4 -10 5 0 13 5 16 10 15 24 22 7 8 -21 -8 -16 -12 -33 -9 -36 3
-4 6 -1 6 5 0 7 9 21 20 32 11 11 22 31 26 45 5 22 3 25 -17 24 -13 0 -30 -3
-37 -6z m-102 -58 c0 -2 -10 -10 -22 -16 -21 -11 -22 -11 -9 4 13 16 31 23 31
12z"/>
<path d="M428 2949 c-10 -46 -15 -85 -13 -88 3 -2 8 10 11 27 9 45 32 49 40 6
5 -25 11 -34 21 -30 8 3 12 2 9 -2 -12 -19 -24 -92 -14 -86 6 4 8 -4 6 -17 -2
-20 -10 -24 -44 -27 -92 -7 -225 76 -265 166 -12 28 -49 52 -49 31 0 -5 7 -9
16 -9 11 0 15 -6 11 -20 -3 -11 -1 -20 5 -20 6 0 8 -6 5 -14 -3 -8 2 -16 14
-19 11 -3 18 -11 17 -19 -2 -7 3 -12 10 -10 8 1 11 -2 8 -7 -10 -15 58 -61 99
-68 26 -4 33 -8 23 -15 -9 -6 -6 -7 10 -3 14 4 22 2 22 -5 0 -9 12 -10 38 -6
27 5 33 4 22 -3 -12 -8 -8 -11 17 -11 l32 0 -13 -32 c-7 -18 -13 -52 -12 -76
0 -23 -3 -44 -9 -47 -5 -3 0 -3 13 -1 25 5 46 -23 40 -52 -2 -9 7 -27 19 -39
23 -24 39 -31 27 -12 -8 14 -44 196 -44 227 0 15 7 26 20 29 11 3 20 9 20 14
0 5 6 8 13 7 6 -2 11 3 9 10 -1 8 5 11 22 6 24 -6 24 -4 -15 68 -21 40 -39 76
-39 81 0 4 33 8 73 9 48 1 58 3 29 5 -37 4 -42 7 -37 24 4 11 2 19 -4 19 -21
0 -11 16 17 27 l27 10 -30 7 c-16 5 -54 17 -84 27 l-53 20 6 -23 c3 -13 9 -34
12 -47 5 -17 4 -22 -4 -17 -7 4 -12 13 -12 19 -1 7 -6 25 -13 40 -12 27 -13
25 -29 -54z m123 -151 c20 -40 20 -42 3 -55 -10 -7 -21 -13 -24 -13 -6 0 -8
110 -3 110 2 0 12 -19 24 -42z"/>
<path d="M3075 3009 c-64 -8 -143 -48 -191 -96 -46 -48 -93 -145 -101 -212
l-6 -51 -251 -2 c-194 -2 -214 -3 -88 -5 89 -2 162 -7 162 -11 0 -5 -4 -13
-10 -20 -7 -9 -7 -9 2 -2 20 16 31 11 18 -7 -7 -10 0 -4 16 12 15 17 25 23 22
14 -5 -13 -1 -15 20 -13 15 1 30 -3 34 -9 5 -8 8 -6 8 6 0 15 3 15 20 5 11 -7
19 -17 19 -23 -1 -5 -1 -17 0 -25 1 -13 2 -13 11 0 5 8 10 11 11 5 6 -66 5
-77 -6 -61 -11 15 -13 15 -18 -4 -5 -19 8 -26 36 -21 5 1 6 -3 3 -8 -4 -5 -1
-13 5 -17 18 -11 -5 -20 -57 -23 -37 -2 -45 1 -41 12 7 17 -14 17 -35 -1 -9
-7 -72 -13 -179 -15 -128 -2 -113 -3 66 -3 127 -1 251 1 277 3 l48 5 -20 26
c-34 42 -63 156 -57 218 12 115 90 234 185 281 49 24 68 28 142 27 125 -1 190
-27 260 -106 65 -73 79 -107 87 -214 7 -104 -14 -176 -69 -239 -41 -47 -157
-112 -182 -102 -9 4 -18 -4 -26 -23 -6 -15 -21 -31 -32 -33 -13 -4 -19 -11
-15 -21 4 -9 -1 -17 -13 -21 -10 -3 -26 -18 -35 -32 l-18 -26 31 22 c17 11 43
36 58 54 15 17 31 31 37 29 17 -5 47 9 41 20 -5 7 1 9 16 5 42 -11 129 53 196
144 33 45 45 77 24 64 -17 -10 -11 12 7 26 14 12 16 12 8 0 -5 -10 -4 -12 3
-7 14 8 16 36 4 36 -10 0 -13 29 -5 50 4 10 9 5 13 -15 7 -26 8 -24 9 19 l1
48 -20 -23 c-19 -22 -20 -22 -18 -4 2 11 9 26 16 33 13 15 17 46 4 38 -5 -3
-7 8 -4 23 5 37 -36 124 -55 117 -8 -3 -11 -1 -8 4 3 6 1 10 -5 10 -6 0 -8 5
-5 10 3 6 -1 10 -9 10 -9 0 -16 5 -16 10 0 6 -7 10 -15 10 -9 0 -12 6 -9 15 4
8 1 15 -6 15 -7 0 -24 12 -37 27 -18 18 -27 23 -32 14 -6 -9 -17 -8 -47 6 -21
10 -42 22 -45 26 -6 8 -49 7 -134 -4z m391 -204 c-3 -8 0 -15 6 -15 6 0 9 -3
5 -6 -10 -11 -26 6 -20 21 3 8 7 15 10 15 3 0 3 -7 -1 -15z m-786 -355 c0 -5
-5 -10 -11 -10 -5 0 -7 5 -4 10 3 6 8 10 11 10 2 0 4 -4 4 -10z m704 -65 c-16
-14 -33 -25 -37 -25 -11 0 46 49 57 50 5 0 -4 -11 -20 -25z m-78 -60 c-25 -19
-36 -19 -36 0 0 10 10 15 28 15 26 -1 26 -1 8 -15z m-91 -14 c3 -5 1 -12 -5
-16 -5 -3 -10 1 -10 9 0 18 6 21 15 7z"/>
<path d="M4715 3010 c-3 -5 1 -10 10 -10 9 0 13 5 10 10 -3 6 -8 10 -10 10 -2
0 -7 -4 -10 -10z"/>
<path d="M4028 3003 c6 -2 18 -2 25 0 6 3 1 5 -13 5 -14 0 -19 -2 -12 -5z"/>
<path d="M4633 2993 c9 -2 23 -2 30 0 6 3 -1 5 -18 5 -16 0 -22 -2 -12 -5z"/>
<path d="M4083 2963 c9 -2 23 -2 30 0 6 3 -1 5 -18 5 -16 0 -22 -2 -12 -5z"/>
<path d="M4175 2951 c11 -4 23 -7 28 -4 4 2 10 -3 13 -12 5 -11 10 -12 18 -5
9 7 11 2 8 -20 -6 -39 10 -39 25 0 15 39 30 38 49 -2 11 -23 13 -26 9 -8 -4
14 -7 31 -7 38 -1 7 -17 12 -42 12 -23 0 -59 3 -81 5 -28 4 -34 3 -20 -4z"/>
<path d="M628 2943 c7 -3 16 -2 19 1 4 3 -2 6 -13 5 -11 0 -14 -3 -6 -6z"/>
<path d="M3095 2940 c-8 -13 5 -13 25 0 13 8 13 10 -2 10 -9 0 -20 -4 -23 -10z"/>
<path d="M752 2915 c-6 -14 -7 -25 -2 -25 9 0 25 39 18 46 -3 2 -10 -7 -16
-21z"/>
<path d="M3213 2890 c-1 -48 -43 -156 -51 -132 -7 21 -29 -10 -24 -35 8 -40
19 -35 42 20 12 28 31 71 42 94 20 42 21 94 3 100 -6 2 -11 -19 -12 -47z"/>
<path d="M3993 2923 c1 -17 4 -19 14 -11 15 12 18 22 4 14 -5 -4 -11 0 -14 6
-3 7 -4 3 -4 -9z"/>
<path d="M4840 2924 c0 -16 9 -18 28 -5 10 6 9 10 -7 14 -14 3 -21 0 -21 -9z"/>
<path d="M369 2899 c-7 -18 -15 -27 -17 -21 -4 14 -22 6 -22 -9 0 -6 5 -7 10
-4 15 9 12 -2 -7 -33 -17 -26 -17 -26 0 -13 17 14 61 101 53 108 -2 2 -9 -11
-17 -28z"/>
<path d="M2994 2919 c-3 -5 2 -9 10 -9 8 0 20 -9 26 -20 7 -14 7 -20 0 -20 -5
0 -10 4 -10 9 0 5 -7 11 -15 15 -12 4 -13 2 -2 -14 6 -11 19 -22 27 -25 17 -6
71 -115 58 -115 -5 0 -6 -6 -2 -12 5 -8 0 -7 -11 2 -10 8 -25 15 -34 16 -25 1
-51 15 -46 24 3 5 -9 12 -27 15 -40 9 -60 24 -51 38 3 6 1 7 -5 3 -7 -4 -12
-11 -12 -15 0 -8 177 -120 212 -133 10 -4 18 -4 18 0 0 10 -69 201 -80 222
-11 20 -47 33 -56 19z"/>
<path d="M256 2897 c-15 -16 -20 -17 -27 -6 -5 8 -9 9 -9 3 0 -6 9 -19 20 -29
19 -17 20 -17 30 10 14 37 9 45 -14 22z"/>
<path d="M1293 2893 c9 -2 23 -2 30 0 6 3 -1 5 -18 5 -16 0 -22 -2 -12 -5z"/>
<path d="M1363 2893 c15 -2 39 -2 55 0 15 2 2 4 -28 4 -30 0 -43 -2 -27 -4z"/>
<path d="M2934 2868 c-16 -18 -20 -25 -8 -15 11 9 23 15 26 12 3 -3 8 3 11 15
7 26 6 26 -29 -12z"/>
<path d="M4270 2879 c0 -5 5 -7 10 -4 6 3 10 8 10 11 0 2 -4 4 -10 4 -5 0 -10
-5 -10 -11z"/>
<path d="M4650 2880 c0 -5 9 -10 21 -10 11 0 17 5 14 10 -3 6 -13 10 -21 10
-8 0 -14 -4 -14 -10z"/>
<path d="M3282 2842 l-23 -37 31 33 c31 33 32 34 53 15 l22 -18 -19 23 c-26
30 -37 27 -64 -16z"/>
<path d="M587 2816 c14 -28 37 -71 51 -95 l26 -45 8 30 c5 16 6 39 3 50 -3 14
1 24 11 28 9 3 12 11 8 18 -5 8 -2 9 9 5 12 -4 17 -1 18 11 0 11 4 8 9 -8 4
-14 15 -38 24 -55 9 -16 16 -35 16 -41 0 -7 7 -14 15 -18 8 -3 15 -3 15 0 0 3
-7 12 -15 20 -8 9 -15 25 -15 38 0 12 -4 26 -9 31 -5 6 -12 20 -16 33 -6 21
-4 22 19 16 26 -6 38 10 14 19 -7 2 1 4 17 3 17 -1 36 -5 43 -9 6 -5 17 -5 24
-1 25 16 -30 23 -164 22 l-137 -1 26 -51z m119 6 c-7 -7 -46 9 -46 18 0 5 11
4 25 -2 14 -6 23 -13 21 -16z"/>
<path d="M932 2856 c13 -14 28 -12 28 5 0 5 -9 9 -20 9 -17 0 -19 -2 -8 -14z"/>
<path d="M978 2863 c7 -3 16 -2 19 1 4 3 -2 6 -13 5 -11 0 -14 -3 -6 -6z"/>
<path d="M1368 2863 c12 -2 32 -2 45 0 12 2 2 4 -23 4 -25 0 -35 -2 -22 -4z"/>
<path d="M1601 2844 c0 -11 3 -14 6 -6 3 7 2 16 -1 19 -3 4 -6 -2 -5 -13z"/>
<path d="M1789 2851 c8 -5 20 -7 28 -4 19 7 16 -2 -13 -47 -15 -22 -24 -43
-21 -47 4 -3 10 3 15 13 17 42 48 84 60 84 10 0 4 -18 -18 -56 -17 -31 -29
-61 -27 -67 2 -7 20 21 41 61 l36 72 -57 0 c-38 0 -53 -3 -44 -9z"/>
<path d="M3989 2833 c-13 -16 -12 -17 4 -4 16 13 21 21 13 21 -2 0 -10 -8 -17
-17z"/>
<path d="M277 2829 c7 -7 15 -10 18 -7 3 3 -2 9 -12 12 -14 6 -15 5 -6 -5z"/>
<path d="M397 2827 c-9 -24 -9 -23 9 -41 8 -9 23 -16 32 -15 14 0 13 2 -3 8
-11 5 -22 21 -25 37 -5 24 -7 26 -13 11z"/>
<path d="M3009 2787 c36 -39 41 -42 41 -29 0 4 -17 20 -38 36 l-37 29 34 -36z"/>
<path d="M3362 2799 c-12 -19 -11 -19 8 -9 11 6 18 15 15 21 -8 12 -8 12 -23
-12z"/>
<path d="M3235 2774 c-9 -15 -12 -23 -6 -20 11 7 35 46 28 46 -3 0 -12 -12
-22 -26z"/>
<path d="M4686 2791 c-4 -5 3 -7 14 -4 23 6 26 13 6 13 -8 0 -17 -4 -20 -9z"/>
<path d="M937 2769 c4 -13 8 -18 11 -10 2 7 -1 18 -6 23 -8 8 -9 4 -5 -13z"/>
<path d="M3314 2764 c-18 -14 -18 -15 4 -4 12 6 22 13 22 15 0 8 -5 6 -26 -11z"/>
<path d="M3357 2766 c-17 -13 -16 -14 6 -12 15 0 23 6 20 14 -6 14 -4 15 -26
-2z"/>
<path d="M701 2744 c-14 -31 -14 -61 -1 -69 6 -4 10 5 10 20 0 15 5 35 10 45
6 10 6 21 1 24 -4 3 -13 -6 -20 -20z"/>
<path d="M1831 2702 c-68 -139 -216 -379 -290 -471 -98 -122 -175 -184 -261
-212 l-66 -20 -56 21 c-91 34 -168 113 -310 322 -68 101 -144 218 -167 261
-23 42 -44 77 -47 77 -7 0 63 -136 124 -240 108 -186 202 -299 335 -405 56
-44 75 -76 84 -140 3 -25 9 -48 14 -50 4 -3 5 10 2 30 -4 23 -2 35 6 35 6 0
11 16 11 38 0 27 3 33 10 22 6 -10 10 -11 10 -2 0 6 5 12 10 12 6 0 10 -8 10
-18 0 -10 5 -23 10 -28 16 -16 22 -86 9 -95 -8 -5 -8 -12 0 -28 10 -18 9 -21
-6 -21 -15 0 -15 -2 3 -16 10 -8 15 -13 9 -11 -6 3 -9 -40 -8 -121 2 -70 5
-233 7 -362 2 -129 6 -245 9 -257 3 -13 0 -29 -9 -37 -23 -24 -17 -37 14 -30
15 4 31 10 35 14 13 11 78 -12 85 -30 12 -32 47 -70 60 -65 7 2 10 0 7 -5 -3
-6 -1 -10 5 -10 6 0 15 -12 20 -26 9 -22 15 -25 36 -20 17 5 23 3 19 -4 -8
-13 11 -13 36 0 15 8 21 7 25 -4 6 -16 29 -15 46 2 8 8 6 10 -8 6 -10 -2 -25
0 -33 5 -12 8 -13 14 -3 36 l13 27 26 -28 c17 -19 24 -22 20 -11 -4 10 -7 22
-7 26 0 14 -110 57 -204 82 -164 42 -178 70 -184 379 -4 217 11 546 29 610 6
24 41 68 110 140 113 116 190 215 273 349 57 93 180 330 174 337 -2 2 -19 -27
-37 -64z m-281 -1815 c0 -4 5 -5 10 -2 6 3 10 2 10 -4 0 -19 -36 -17 -82 6
-27 13 -48 25 -48 26 0 2 25 -2 55 -7 30 -6 55 -14 55 -19z"/>
<path d="M1578 2740 c-4 -14 -8 -34 -8 -45 1 -19 1 -19 11 -2 6 10 9 30 7 45
l-3 27 -7 -25z"/>
<path d="M2850 2736 c-9 -25 -15 -125 -6 -115 3 3 10 54 16 117 1 9 64 -1 89
-15 35 -20 40 -32 14 -34 -10 -1 0 -7 22 -14 l40 -13 -49 -1 c-27 -1 -47 -4
-44 -7 4 -3 34 -5 68 -5 43 0 60 -4 57 -12 -3 -7 -9 -11 -14 -10 -5 1 -14 -7
-21 -18 -10 -16 -5 -15 38 8 46 26 63 43 41 43 -5 0 -43 21 -85 46 -42 25 -94
48 -116 51 -36 5 -40 3 -50 -21z"/>
<path d="M4004 2735 c-18 -14 -18 -14 4 -8 12 3 22 9 22 14 0 12 -3 11 -26 -6z"/>
<path d="M4640 2742 c0 -7 5 -23 11 -34 8 -15 8 -22 0 -27 -7 -5 -3 -15 14
-31 14 -13 25 -18 25 -12 0 6 -8 16 -17 21 -13 7 -14 13 -7 18 8 6 6 18 -7 43
-11 19 -19 29 -19 22z"/>
<path d="M3191 2714 c-32 -41 -27 -48 32 -40 28 3 62 6 75 6 12 0 22 4 22 8 0
5 -27 6 -60 4 -59 -4 -72 2 -48 26 6 6 9 14 6 17 -3 3 -15 -6 -27 -21z"/>
<path d="M2870 2721 c0 -10 24 -21 43 -21 7 0 3 7 -7 15 -22 17 -36 19 -36 6z"/>
<path d="M4400 2711 c5 -11 15 -23 21 -27 6 -3 3 5 -6 20 -20 30 -30 35 -15 7z"/>
<path d="M4530 2725 c0 -2 6 -8 13 -14 10 -8 14 -7 14 2 0 8 -6 14 -14 14 -7
0 -13 -1 -13 -2z"/>
<path d="M1735 2700 c-4 -12 -5 -24 -2 -27 3 -2 8 5 12 17 4 12 5 24 2 27 -3
2 -8 -5 -12 -17z"/>
<path d="M3995 2700 c-3 -5 -1 -10 4 -10 6 0 11 5 11 10 0 6 -2 10 -4 10 -3 0
-8 -4 -11 -10z"/>
<path d="M4469 2692 c5 -9 19 -26 32 -37 19 -16 18 -13 -5 18 -30 39 -43 49
-27 19z"/>
<path d="M4020 2676 c0 -9 5 -16 10 -16 6 0 10 4 10 9 0 6 -4 13 -10 16 -5 3
-10 -1 -10 -9z"/>
<path d="M1330 2670 c8 -5 20 -10 25 -10 6 0 3 5 -5 10 -8 5 -19 10 -25 10 -5
0 -3 -5 5 -10z"/>
<path d="M694 2618 c12 -25 25 -45 30 -45 5 1 11 -4 14 -12 3 -10 0 -11 -9 -5
-11 6 -12 5 -3 -7 5 -8 45 -67 88 -131 59 -89 81 -114 90 -106 15 14 18 48 5
48 -5 0 -8 -5 -6 -11 1 -6 -4 -14 -12 -17 -8 -3 -11 0 -7 7 4 6 2 11 -4 11 -9
0 -36 53 -28 56 2 0 -4 9 -12 19 -16 20 -20 47 -7 56 5 4 -5 21 -22 38 -35 36
-36 38 -17 38 9 0 12 -6 8 -16 -5 -14 -3 -14 10 -3 16 13 35 1 24 -16 -2 -4 2
-16 11 -27 13 -19 14 -18 7 10 -9 42 -33 77 -46 69 -8 -5 -9 -1 -5 10 4 10 7
20 7 22 0 3 4 3 9 0 5 -4 7 3 4 14 -5 20 11 28 21 11 3 -5 15 -7 26 -4 11 3
17 9 14 14 -3 5 11 9 30 9 20 0 36 3 36 8 0 4 -62 7 -138 7 l-138 0 20 -47z
m76 -58 c0 -5 -5 -10 -11 -10 -5 0 -7 5 -4 10 3 6 8 10 11 10 2 0 4 -4 4 -10z"/>
<path d="M965 2660 c-3 -4 7 -10 21 -13 14 -2 23 0 21 6 -4 13 -35 18 -42 7z"/>
<path d="M4622 2665 c7 -12 -17 -36 -28 -27 -4 4 -4 2 0 -5 3 -6 -1 -13 -11
-16 -16 -4 -16 -5 -1 -6 9 0 19 3 23 9 8 13 35 1 35 -17 0 -13 -3 -13 -17 -2
-15 11 -16 11 -6 -1 10 -10 9 -16 -4 -25 -17 -13 -28 -49 -12 -39 5 3 9 12 9
20 0 8 3 14 8 12 13 -7 60 50 52 63 -5 6 -13 8 -20 4 -8 -5 -11 -4 -7 2 4 6
-1 17 -10 24 -9 8 -14 10 -11 4z"/>
<path d="M1070 2656 c0 -2 7 -7 16 -10 8 -3 12 -2 9 4 -6 10 -25 14 -25 6z"/>
<path d="M1150 2650 c0 -6 7 -10 15 -10 8 0 15 2 15 4 0 2 -7 6 -15 10 -8 3
-15 1 -15 -4z"/>
<path d="M1216 2652 c-3 -5 1 -9 9 -9 8 0 15 4 15 9 0 4 -4 8 -9 8 -6 0 -12
-4 -15 -8z"/>
<path d="M1542 2652 c-38 -11 -24 -27 19 -24 38 2 40 1 25 -13 -20 -20 -20
-29 0 -49 8 -9 11 -16 5 -16 -6 0 -11 -5 -11 -11 0 -5 5 -7 10 -4 6 3 10 1 10
-5 0 -6 -8 -14 -17 -18 -12 -5 -19 -19 -20 -42 -1 -33 1 -32 32 30 19 36 34
75 35 88 0 44 18 62 60 62 50 0 51 -8 6 -105 -41 -89 -102 -184 -184 -286 -50
-63 -69 -80 -109 -94 -26 -9 -56 -21 -65 -25 -9 -5 -46 -15 -82 -21 -36 -7
-66 -17 -66 -23 0 -6 -7 0 -16 12 -8 12 -12 26 -9 32 3 5 -11 18 -32 28 -21
10 -37 24 -35 30 3 17 -8 15 -31 -5 -19 -17 -20 -17 -8 5 11 20 10 22 -19 22
-16 0 -30 4 -30 9 0 5 -11 9 -25 9 -32 0 -68 30 -60 51 5 13 4 13 -6 4 -10
-10 -3 -22 31 -60 58 -64 78 -83 86 -83 4 0 15 -6 23 -14 26 -22 125 -55 141
-46 22 11 110 19 110 10 0 -5 -8 -11 -17 -14 -10 -3 2 -3 26 0 24 2 51 9 60
15 12 8 10 9 -9 4 -23 -5 -23 -4 -6 7 77 53 104 78 162 151 83 104 160 220
214 320 l42 77 -109 -1 c-59 -1 -118 -4 -131 -7z m74 -79 c-11 -11 -17 4 -9
23 7 18 8 18 11 1 2 -10 1 -21 -2 -24z m-460 -442 c0 -16 -4 -17 -18 -10 -10
5 -18 12 -18 15 0 3 4 3 9 -1 5 -3 12 -1 16 5 9 14 11 13 11 -9z"/>
<path d="M1370 2641 c0 -5 6 -12 13 -14 9 -4 8 -8 -3 -16 -17 -12 -10 -14 14
-5 12 5 13 9 3 25 -12 20 -27 25 -27 10z"/>
<path d="M3170 2643 c0 -3 14 -23 31 -44 29 -37 30 -41 15 -58 -9 -10 -16 -23
-16 -29 0 -19 -17 -14 -23 7 -3 13 -1 18 8 14 20 -7 12 39 -13 79 l-22 33 0
-53 c0 -33 -4 -51 -10 -47 -5 3 -10 24 -10 46 l0 41 -52 -38 c-78 -55 -83 -60
-64 -67 9 -4 15 -2 13 4 -1 6 10 20 26 32 34 26 52 13 31 -23 -10 -17 -13 -18
-9 -5 5 17 3 17 -19 -4 -32 -30 -33 -40 -3 -35 12 2 15 1 7 -2 -8 -4 -17 -10
-20 -14 -3 -5 -25 -13 -50 -19 -45 -11 -45 -11 17 -6 78 6 195 32 218 49 10 7
18 24 18 38 0 20 3 25 16 20 9 -3 4 6 -11 20 -35 32 -35 40 -2 28 35 -14 42
-12 20 5 -19 14 -19 15 6 15 45 0 130 -23 135 -37 8 -21 22 -15 16 7 -3 10 -8
19 -12 18 -28 -3 -51 4 -51 17 0 13 -16 15 -95 14 -52 -1 -95 -3 -95 -6z"/>
<path d="M2183 2633 c15 -2 37 -2 50 0 12 2 0 4 -28 4 -27 0 -38 -2 -22 -4z"/>
<path d="M901 2620 c0 -8 4 -24 9 -35 5 -13 9 -14 9 -5 0 8 -4 24 -9 35 -5 13
-9 14 -9 5z"/>
<path d="M2087 2623 c-16 -15 -5 -23 31 -22 20 1 28 4 18 6 -15 4 -16 7 -5 14
10 6 7 9 -12 9 -14 0 -29 -3 -32 -7z"/>
<path d="M2039 2611 c11 -7 11 -10 -3 -14 -15 -5 -15 -5 0 -3 24 2 30 26 7 26
-14 0 -15 -2 -4 -9z"/>
<path d="M2218 2613 c18 -2 45 -2 60 0 15 2 0 4 -33 4 -33 0 -45 -2 -27 -4z"/>
<path d="M4008 2596 c-3 -16 -1 -23 7 -19 7 2 11 13 8 24 -7 25 -10 24 -15 -5z"/>
<path d="M1280 2590 c6 -11 13 -20 16 -20 2 0 0 9 -6 20 -6 11 -13 20 -16 20
-2 0 0 -9 6 -20z"/>
<path d="M1482 2596 c-35 -6 -61 -14 -57 -17 6 -7 122 15 132 25 4 3 2 5 -3 5
-5 -1 -37 -7 -72 -13z"/>
<path d="M2850 2602 c0 -20 29 -72 40 -72 21 0 110 52 104 61 -7 12 -8 12 -34
-11 -36 -32 -75 -26 -98 15 -6 11 -12 14 -12 7z"/>
<path d="M1893 2575 c-29 -13 -54 -32 -57 -43 -9 -29 3 -72 19 -66 7 3 19 -1
26 -8 8 -7 30 -14 49 -15 19 -1 28 0 20 3 -8 3 -34 12 -57 20 -48 17 -60 38
-35 63 18 20 98 50 135 52 21 1 21 1 -3 9 -36 12 -40 11 -97 -15z"/>
<path d="M3365 2550 c10 -19 20 -29 22 -22 3 6 9 12 14 12 6 0 7 -5 3 -12 -4
-7 -3 -8 4 -4 18 11 14 26 -5 26 -9 0 -25 8 -36 18 -20 17 -20 17 -2 -18z"/>
<path d="M1140 2564 c0 -4 7 -15 16 -25 8 -9 16 -26 17 -37 0 -11 5 -18 9 -16
4 3 8 -6 8 -20 0 -14 5 -26 10 -26 6 0 10 -5 10 -10 0 -6 9 -20 20 -32 10 -12
17 -25 14 -30 -3 -4 2 -8 10 -8 22 0 40 37 23 47 -7 4 -41 43 -75 86 -34 43
-62 75 -62 71z"/>
<path d="M1548 2563 c7 -3 16 -2 19 1 4 3 -2 6 -13 5 -11 0 -14 -3 -6 -6z"/>
<path d="M927 2554 c-11 -11 -8 -26 3 -19 6 3 10 1 10 -6 0 -7 3 -10 6 -6 3 3
2 13 -3 22 -5 8 -12 12 -16 9z"/>
<path d="M4620 2535 c-7 -9 -11 -18 -8 -20 3 -3 11 1 18 10 7 9 11 18 8 20 -3
3 -11 -1 -18 -10z"/>
<path d="M1441 2524 c0 -11 3 -14 6 -6 3 7 2 16 -1 19 -3 4 -6 -2 -5 -13z"/>
<path d="M4650 2520 c-6 -11 -8 -20 -6 -20 3 0 10 9 16 20 6 11 8 20 6 20 -3
0 -10 -9 -16 -20z"/>
<path d="M2250 2513 c-36 -2 -69 -8 -74 -13 -10 -10 99 -6 134 5 17 5 21 4 15
-5 -6 -10 -4 -11 6 -4 8 5 36 9 62 10 26 1 51 5 54 8 6 6 -73 5 -197 -1z"/>
<path d="M2510 2511 c0 -4 11 -6 25 -3 14 2 25 6 25 8 0 2 -11 4 -25 4 -14 0
-25 -4 -25 -9z"/>
<path d="M2573 2513 c4 -3 21 -6 38 -5 27 1 29 -1 17 -16 -12 -16 -11 -16 7
-1 25 21 58 21 50 1 -4 -12 -2 -12 8 -4 8 7 16 9 19 6 3 -3 9 0 14 7 4 8 3 10
-4 5 -7 -4 -12 -2 -12 3 0 7 -28 11 -72 11 -39 0 -68 -3 -65 -7z"/>
<path d="M3303 2486 c31 -31 40 -35 57 -26 11 6 20 15 20 21 0 6 -7 3 -16 -5
-14 -15 -19 -14 -57 15 l-42 31 38 -36z"/>
<path d="M1870 2500 c8 -5 20 -10 25 -10 6 0 3 5 -5 10 -8 5 -19 10 -25 10 -5
0 -3 -5 5 -10z"/>
<path d="M2113 2493 c9 -2 25 -2 35 0 9 3 1 5 -18 5 -19 0 -27 -2 -17 -5z"/>
<path d="M3240 2485 c-10 -12 -10 -15 4 -15 9 0 16 7 16 15 0 8 -2 15 -4 15
-2 0 -9 -7 -16 -15z"/>
<path d="M4200 2489 c0 -5 5 -7 10 -4 6 3 10 8 10 11 0 2 -4 4 -10 4 -5 0 -10
-5 -10 -11z"/>
<path d="M931 2454 c-30 -50 -20 -53 13 -4 14 22 22 40 17 40 -5 0 -19 -16
-30 -36z"/>
<path d="M1925 2480 c19 -8 83 -14 74 -6 -2 2 -24 6 -49 9 -30 4 -38 3 -25 -3z"/>
<path d="M4320 2470 c0 -5 5 -10 10 -10 6 0 10 5 10 10 0 6 -4 10 -10 10 -5 0
-10 -4 -10 -10z"/>
<path d="M870 2454 c0 -8 5 -12 10 -9 6 4 8 11 5 16 -9 14 -15 11 -15 -7z"/>
<path d="M2060 2458 c0 -4 16 -8 35 -8 19 0 35 2 35 4 0 2 -16 6 -35 8 -19 2
-35 0 -35 -4z"/>
<path d="M2149 2447 c4 -4 37 -7 72 -5 l64 3 -72 5 c-40 3 -68 1 -64 -3z"/>
<path d="M940 2411 c-11 -23 -19 -41 -16 -41 7 0 47 72 42 77 -2 3 -14 -13
-26 -36z"/>
<path d="M1412 2429 c-7 -12 -11 -24 -8 -27 3 -3 6 0 6 6 0 7 5 12 11 12 5 0
7 -5 3 -12 -4 -6 -3 -8 4 -5 5 4 8 16 5 27 -6 24 -5 25 -21 -1z"/>
<path d="M1978 2433 c6 -2 18 -2 25 0 6 3 1 5 -13 5 -14 0 -19 -2 -12 -5z"/>
<path d="M2055 2420 c40 -9 122 -13 114 -6 -2 2 -38 6 -79 9 -56 4 -65 3 -35
-3z"/>
<path d="M6022 2416 c7 -8 15 -12 17 -11 5 6 -10 25 -20 25 -5 0 -4 -6 3 -14z"/>
<path d="M2948 2413 c12 -2 32 -2 45 0 12 2 2 4 -23 4 -25 0 -35 -2 -22 -4z"/>
<path d="M3266 2404 c-5 -14 -4 -15 9 -4 17 14 19 20 6 20 -5 0 -12 -7 -15
-16z"/>
<path d="M2203 2403 c15 -2 39 -2 55 0 15 2 2 4 -28 4 -30 0 -43 -2 -27 -4z"/>
<path d="M2780 2404 c0 -5 -100 -8 -242 -6 -133 1 -240 1 -237 -2 2 -3 47 -6
99 -7 52 -1 105 -5 116 -10 13 -4 26 -3 33 4 8 8 11 8 11 -2 0 -7 5 -9 13 -4
20 13 68 12 60 -1 -5 -8 -3 -8 8 0 8 7 40 10 76 8 57 -3 86 7 69 23 -3 4 -6 2
-6 -3z"/>
<path d="M2806 2401 c-4 -5 4 -7 16 -3 16 4 19 2 13 -8 -5 -9 -4 -11 3 -6 7 4
12 11 12 17 0 12 -37 12 -44 0z"/>
<path d="M2873 2403 c9 -2 25 -2 35 0 9 3 1 5 -18 5 -19 0 -27 -2 -17 -5z"/>
<path d="M3196 2393 c-28 -15 -29 -16 -11 -29 17 -13 21 -12 33 12 17 33 14
36 -22 17z"/>
<path d="M5976 2394 c-3 -8 -2 -12 4 -9 17 11 11 -28 -10 -62 -12 -21 -15 -33
-8 -33 6 0 2 -9 -9 -19 -12 -11 -29 -40 -38 -65 -10 -25 -22 -46 -26 -46 -5 0
0 23 12 51 11 29 18 53 16 55 -2 2 -16 -26 -30 -63 -18 -45 -23 -69 -16 -74
10 -6 4 -43 -17 -93 -5 -14 -4 -17 4 -12 16 10 171 -22 200 -40 12 -8 27 -12
32 -9 6 3 10 -2 11 -12 0 -16 1 -16 9 2 10 25 -25 69 -39 47 -6 -10 -15 -9
-44 3 -20 8 -37 21 -37 28 0 8 -3 7 -9 -2 -8 -12 -12 -12 -25 -2 -9 7 -23 11
-31 7 -9 -3 -13 -2 -10 4 3 6 0 10 -9 10 -8 0 -16 -6 -19 -12 -2 -7 -7 -10
-11 -7 -4 4 10 51 30 105 26 70 47 111 74 139 40 42 60 75 60 97 0 7 -9 -6
-20 -29 -10 -24 -24 -43 -30 -43 -6 0 -5 11 5 30 8 16 15 38 15 50 0 23 -25
27 -34 4z"/>
<path d="M1336 2393 c5 -5 12 -12 16 -18 4 -6 8 -2 8 8 0 9 -7 17 -17 17 -9 0
-12 -3 -7 -7z"/>
<path d="M1870 2392 c0 -4 5 -14 10 -22 8 -12 10 -12 10 -1 0 11 5 10 20 -4
24 -22 24 -22 160 -35 58 -5 120 -12 138 -16 19 -3 69 -5 113 -5 55 0 83 -4
93 -14 16 -17 51 -21 41 -5 -3 6 1 10 10 10 9 0 15 -6 14 -12 -4 -34 2 -40 38
-36 37 3 74 26 66 41 -2 4 0 7 6 7 10 0 9 -45 -1 -55 -3 -3 -33 -6 -67 -6 -34
-1 -60 -3 -57 -6 2 -3 59 -4 125 -4 72 1 122 -2 126 -9 3 -5 0 -7 -9 -4 -8 3
-24 0 -36 -6 -18 -10 -24 -9 -31 1 -7 11 -9 10 -9 -3 0 -20 13 -23 41 -8 16 9
19 7 20 -12 0 -15 3 -18 6 -8 3 8 11 18 18 22 7 4 11 19 9 33 -1 16 3 28 12
32 9 3 13 12 10 20 -4 9 -2 11 7 6 24 -15 50 -14 43 2 -3 8 -1 15 4 15 6 0 10
-6 10 -14 0 -12 7 -13 32 -5 17 5 34 7 36 4 3 -3 12 1 20 8 13 10 15 9 8 -7
-6 -19 -6 -19 11 -4 21 19 61 36 106 43 17 4 33 8 36 11 7 7 -31 4 -74 -6 -22
-4 -96 -11 -165 -15 -69 -3 -147 -8 -175 -11 -72 -7 -431 13 -564 31 -63 9
-136 24 -162 35 -27 10 -49 15 -49 12z m700 -102 c0 -5 -4 -10 -10 -10 -5 0
-10 5 -10 10 0 6 5 10 10 10 6 0 10 -4 10 -10z m-57 -17 c-7 -2 -19 -2 -25 0
-7 3 -2 5 12 5 14 0 19 -2 13 -5z m141 -25 c-3 -4 -9 -8 -15 -8 -5 0 -9 4 -9
8 0 5 7 9 15 9 8 0 12 -4 9 -9z m36 8 c0 -3 -4 -8 -10 -11 -5 -3 -10 -1 -10 4
0 6 5 11 10 11 6 0 10 -2 10 -4z"/>
<path d="M1296 2375 c-3 -8 -1 -15 4 -15 6 0 10 7 10 15 0 8 -2 15 -4 15 -2 0
-6 -7 -10 -15z"/>
<path d="M1520 2369 c-7 -11 -10 -23 -7 -25 2 -2 9 7 15 21 14 30 7 33 -8 4z"/>
<path d="M875 2370 c-3 -5 -1 -10 4 -10 6 0 11 5 11 10 0 6 -2 10 -4 10 -3 0
-8 -4 -11 -10z"/>
<path d="M600 2360 c0 -5 0 -12 0 -15 1 -11 -25 -33 -33 -28 -4 2 -2 -7 4 -21
7 -15 23 -28 40 -31 21 -5 29 -12 29 -29 0 -12 -5 -27 -12 -34 -6 -6 -9 -14
-6 -18 4 -3 12 5 19 18 19 34 16 108 -5 141 -18 27 -36 36 -36 17z"/>
<path d="M520 2356 c0 -2 8 -10 18 -17 15 -13 16 -12 3 4 -13 16 -21 21 -21
13z"/>
<path d="M2690 2350 c-24 -8 -23 -8 8 -9 20 -1 31 3 27 9 -3 6 -7 10 -8 9 -1
-1 -13 -5 -27 -9z"/>
<path d="M2618 2343 c6 -2 18 -2 25 0 6 3 1 5 -13 5 -14 0 -19 -2 -12 -5z"/>
<path d="M4450 2335 c0 -5 5 -17 10 -25 5 -8 10 -10 10 -5 0 6 -5 17 -10 25
-5 8 -10 11 -10 5z"/>
<path d="M4045 2310 c-10 -11 -16 -22 -14 -24 2 -2 12 7 22 20 22 29 17 32 -8
4z"/>
<path d="M2947 2304 c-4 -4 -7 -14 -7 -23 0 -11 3 -12 11 -4 6 6 10 16 7 23
-2 6 -7 8 -11 4z"/>
<path d="M2352 2280 c-16 -27 -16 -27 21 -26 24 1 31 -3 29 -15 -3 -20 19 -31
39 -19 11 7 10 10 -5 16 -14 5 -15 9 -4 15 9 6 7 9 -9 10 -13 1 -27 3 -33 4
-5 1 -14 3 -20 4 -5 0 -7 8 -4 16 9 21 1 19 -14 -5z"/>
<path d="M3930 2290 c-8 -5 -12 -11 -10 -14 3 -2 14 2 24 10 22 15 10 19 -14
4z"/>
<path d="M1928 2275 c6 -11 25 -33 44 -50 l33 -30 -35 40 c-19 22 -39 45 -44
50 -5 6 -4 1 2 -10z"/>
<path d="M2210 2280 c0 -5 5 -10 10 -10 6 0 10 5 10 10 0 6 -4 10 -10 10 -5 0
-10 -4 -10 -10z"/>
<path d="M3957 2276 c-10 -8 -14 -16 -10 -19 5 -3 14 3 21 14 14 22 13 23 -11
5z"/>
<path d="M4471 2275 c0 -11 4 -29 8 -40 5 -11 4 -28 -1 -39 -9 -16 -13 -14
-35 23 -23 39 -43 53 -43 31 0 -5 4 -10 8 -10 14 0 45 -77 37 -92 -4 -7 7 2
23 21 27 32 30 33 40 15 19 -31 14 -11 -13 52 -13 32 -24 50 -24 39z"/>
<path d="M2770 2259 c0 -10 8 -19 18 -21 12 -3 4 -11 -26 -27 -24 -12 -42 -24
-40 -27 8 -7 73 23 89 43 27 30 32 43 15 37 -9 -3 -16 -2 -16 3 0 5 -9 9 -20
9 -12 0 -20 -7 -20 -17z"/>
<path d="M2742 2261 c-10 -6 -10 -10 3 -21 13 -11 15 -9 15 9 0 24 0 24 -18
12z"/>
<path d="M440 2240 c-9 -17 -10 -25 -1 -28 6 -2 11 -10 11 -17 0 -20 52 -66
68 -60 6 2 12 1 12 -4 0 -11 67 12 83 29 10 10 6 11 -18 5 -16 -4 -38 -7 -49
-7 -27 1 -66 42 -66 69 0 13 -4 22 -9 19 -5 -4 -11 0 -13 6 -3 8 -10 3 -18
-12z"/>
<path d="M3895 2234 c-9 -15 -12 -23 -6 -20 11 7 35 46 28 46 -3 0 -12 -12
-22 -26z"/>
<path d="M602 2200 c0 -14 2 -19 5 -12 2 6 2 18 0 25 -3 6 -5 1 -5 -13z"/>
<path d="M2265 2210 c3 -5 8 -10 11 -10 2 0 4 5 4 10 0 6 -5 10 -11 10 -5 0
-7 -4 -4 -10z"/>
<path d="M2475 2204 c-13 -13 -14 -19 -4 -25 18 -11 34 1 18 13 -10 7 -8 8 6
3 11 -4 28 -7 38 -7 9 0 17 -5 17 -11 0 -8 3 -8 9 1 4 8 11 13 15 13 25 -4 46
0 42 8 -3 4 -22 7 -42 4 -27 -3 -34 0 -28 9 5 10 4 10 -6 1 -9 -8 -19 -9 -31
-3 -13 7 -22 5 -34 -6z"/>
<path d="M1130 2186 c7 -7 13 -7 20 0 6 6 3 10 -10 10 -13 0 -16 -4 -10 -10z"/>
<path d="M2010 2196 c0 -2 14 -14 30 -26 17 -12 30 -19 30 -16 0 2 -13 14 -30
26 -16 12 -30 19 -30 16z"/>
<path d="M4367 2143 c-10 -36 -20 -49 -38 -54 -22 -7 -22 -7 6 -8 17 -1 37 -6
45 -11 13 -8 12 -11 -5 -25 -18 -15 -18 -15 11 -1 17 8 34 23 38 32 5 14 4 15
-9 4 -13 -11 -19 -11 -33 3 -12 13 -13 17 -3 17 10 0 11 3 2 13 -6 8 -8 17 -4
20 7 8 14 57 8 57 -3 0 -11 -21 -18 -47z"/>
<path d="M4590 2185 c0 -5 5 -17 10 -25 5 -8 10 -10 10 -5 0 6 -5 17 -10 25
-5 8 -10 11 -10 5z"/>
<path d="M2582 2165 c-23 -12 -23 -13 8 -17 34 -5 47 4 27 19 -8 6 -20 5 -35
-2z"/>
<path d="M2645 2170 c3 -5 13 -10 21 -10 8 0 14 5 14 10 0 6 -9 10 -21 10 -11
0 -17 -4 -14 -10z"/>
<path d="M2450 2159 c0 -5 6 -9 13 -10 6 0 22 -2 34 -3 12 -1 28 1 35 6 9 5 3
8 -17 9 -16 0 -38 2 -47 4 -10 2 -18 -1 -18 -6z"/>
<path d="M4050 2169 c0 -4 7 -22 15 -40 8 -19 14 -27 14 -19 0 14 -28 72 -29
59z"/>
<path d="M4492 2137 c-16 -37 -15 -41 4 -23 8 9 14 24 11 34 -3 13 -6 11 -15
-11z"/>
<path d="M4526 2111 c0 -47 14 -89 14 -45 0 16 2 17 11 4 12 -17 4 15 -15 63
-10 27 -11 25 -10 -22z"/>
<path d="M2430 2120 c8 -5 20 -10 25 -10 6 0 3 5 -5 10 -8 5 -19 10 -25 10 -5
0 -3 -5 5 -10z"/>
<path d="M2633 2123 c4 -3 -3 -13 -15 -21 -16 -12 -23 -12 -26 -4 -6 18 -20
14 -18 -5 0 -10 -7 -19 -19 -21 -14 -2 -16 0 -7 6 9 6 1 9 -23 10 -19 1 -35
-3 -35 -9 0 -6 9 -8 21 -4 15 5 19 4 15 -4 -11 -18 23 -13 76 11 44 20 65 48
36 48 -6 0 -8 -3 -5 -7z"/>
<path d="M2675 2120 c4 -6 11 -8 16 -5 14 9 11 15 -7 15 -8 0 -12 -5 -9 -10z"/>
<path d="M4426 2115 c-3 -8 -1 -15 4 -15 6 0 10 7 10 15 0 8 -2 15 -4 15 -2 0
-6 -7 -10 -15z"/>
<path d="M2480 2110 c0 -5 7 -7 15 -4 8 4 15 8 15 10 0 2 -7 4 -15 4 -8 0 -15
-4 -15 -10z"/>
<path d="M2520 2110 c0 -5 4 -10 9 -10 6 0 13 5 16 10 3 6 -1 10 -9 10 -9 0
-16 -4 -16 -10z"/>
<path d="M4796 2112 c-3 -5 1 -9 9 -9 8 0 12 4 9 9 -3 4 -7 8 -9 8 -2 0 -6 -4
-9 -8z"/>
<path d="M5845 2097 c-5 -20 -14 -26 -44 -29 -20 -2 -50 0 -66 3 -49 11 -272
10 -395 -2 -244 -22 -346 -63 -296 -118 9 -10 16 -32 16 -49 0 -27 3 -30 25
-28 14 1 28 6 32 9 8 9 63 9 63 0 0 -3 -7 -15 -17 -25 -9 -10 -14 -20 -11 -23
2 -3 14 9 26 25 l22 29 -54 16 c-59 17 -106 48 -106 70 0 54 354 106 595 88
l110 -8 -100 -6 -100 -5 132 -2 c72 -1 134 -6 137 -10 3 -5 -2 -21 -10 -37
-13 -25 -13 -30 1 -45 8 -9 15 -21 15 -27 0 -11 -261 -30 -277 -20 -4 2 -17 1
-28 -4 -12 -6 40 -8 135 -5 191 5 213 12 173 52 -16 16 -16 21 10 92 14 42 25
78 22 80 -2 2 -7 -7 -10 -21z"/>
<path d="M2910 2094 c-14 -9 -33 -29 -42 -44 -15 -27 -19 -28 -47 -17 -25 9
-33 8 -50 -8 -12 -10 -21 -14 -21 -9 0 5 -45 9 -99 9 -66 0 -94 -3 -83 -9 14
-8 14 -10 -3 -17 -15 -6 -11 -8 17 -8 20 -1 40 -6 43 -11 4 -7 -2 -9 -19 -4
-16 4 -26 2 -26 -5 0 -6 18 -11 41 -11 26 0 38 4 33 11 -3 6 9 3 27 -7 31 -15
33 -15 20 -1 -22 27 0 20 33 -10 29 -26 29 -26 8 -2 -33 38 -27 47 10 13 18
-16 26 -20 17 -9 -32 40 -32 48 0 26 18 -13 30 -28 28 -35 -2 -6 -13 -37 -23
-70 -13 -42 -25 -61 -42 -67 -32 -12 -95 -12 -87 1 3 6 -1 10 -10 10 -9 0 -14
-4 -10 -9 3 -6 -9 -9 -27 -9 -58 2 -79 -2 -73 -12 4 -6 40 -8 91 -5 62 3 83 2
78 -7 -5 -8 -2 -9 10 -5 29 11 -44 -62 -93 -94 -32 -20 -39 -29 -25 -29 13 0
15 -3 6 -8 -16 -11 -24 -152 -10 -169 7 -8 7 -13 1 -13 -11 0 -9 -65 2 -101 4
-12 2 -24 -4 -28 -6 -4 -8 -22 -4 -44 13 -80 22 -29 25 146 l3 182 46 60 c26
33 61 73 78 90 22 20 38 51 53 100 29 97 48 132 106 193 28 28 50 52 49 52 -1
0 -13 -8 -27 -16z m-103 -96 c2 -16 -1 -17 -13 -8 -18 15 -18 27 -1 27 7 0 14
-9 14 -19z m-164 5 c-7 -2 -19 -2 -25 0 -7 3 -2 5 12 5 14 0 19 -2 13 -5z"/>
<path d="M3867 2091 c-3 -12 -1 -21 3 -21 14 0 19 15 11 29 -6 9 -10 7 -14 -8z"/>
<path d="M4809 2074 c-19 -21 -20 -24 -5 -18 13 5 17 4 12 -4 -3 -6 -1 -14 6
-18 7 -4 10 -4 6 1 -4 4 -2 15 5 23 9 13 9 14 0 8 -16 -9 -17 6 -1 22 7 7 10
12 7 12 -3 0 -16 -11 -30 -26z"/>
<path d="M4086 2055 c8 -46 11 -52 22 -39 5 5 0 25 -10 44 l-19 35 7 -40z"/>
<path d="M2226 2045 c45 -44 60 -71 89 -162 22 -70 36 -94 89 -155 65 -76 86
-118 86 -174 0 -25 4 -34 16 -34 12 0 15 7 12 30 -3 17 -1 30 4 30 5 0 8 17 6
37 -2 30 -8 38 -28 43 -16 4 -26 14 -28 28 -2 13 -10 22 -20 22 -10 0 -23 9
-30 21 -12 18 -11 19 5 11 21 -10 111 -8 121 3 4 5 -3 5 -16 2 -13 -3 -28 1
-36 9 -8 8 -20 14 -27 14 -9 0 -9 3 1 14 6 8 19 12 28 9 14 -5 15 -4 4 8 -10
11 -17 11 -31 2 -15 -10 -31 -9 -75 5 -53 16 -55 18 -65 62 -6 25 -12 68 -13
95 -3 49 -2 50 24 47 14 -2 29 1 32 6 3 5 -23 12 -58 14 -36 3 -75 13 -92 24
l-29 18 31 -29z"/>
<path d="M4550 2037 c0 -8 3 -17 7 -21 4 -4 8 -13 8 -19 0 -12 14 -22 16 -12
1 3 -1 19 -5 35 -5 30 -26 42 -26 17z"/>
<path d="M2430 2030 c0 -5 -8 -6 -17 -3 -17 6 -17 6 -1 -10 9 -9 28 -17 41
-17 14 0 30 -7 37 -15 14 -17 50 -20 50 -5 0 6 -8 10 -17 10 -10 0 -14 4 -8 8
6 4 11 13 13 21 2 10 -5 12 -25 8 -15 -3 -37 -1 -50 4 -14 5 -23 5 -23 -1z"/>
<path d="M5288 2033 c12 -2 32 -2 45 0 12 2 2 4 -23 4 -25 0 -35 -2 -22 -4z"/>
<path d="M4031 2014 c0 -11 3 -14 6 -6 3 7 2 16 -1 19 -3 4 -6 -2 -5 -13z"/>
<path d="M5228 2023 c6 -2 18 -2 25 0 6 3 1 5 -13 5 -14 0 -19 -2 -12 -5z"/>
<path d="M5765 2010 c3 -5 8 -10 11 -10 2 0 4 5 4 10 0 6 -5 10 -11 10 -5 0
-7 -4 -4 -10z"/>
<path d="M5615 2003 c-27 -7 -44 -22 -61 -55 -21 -40 -10 -35 15 7 15 25 27
35 46 35 14 0 25 5 25 10 0 6 -1 9 -2 9 -2 -1 -12 -4 -23 -6z"/>
<path d="M5680 2000 l-35 -7 38 -2 c20 0 37 -5 37 -11 0 -5 5 -10 11 -10 8 0
9 4 0 13 -6 8 -8 17 -4 20 7 8 3 7 -47 -3z"/>
<path d="M5085 1986 c-16 -12 -17 -16 -6 -30 7 -9 19 -16 25 -15 7 0 6 2 -1 6
-19 7 -16 30 5 42 9 6 12 11 6 11 -5 0 -19 -6 -29 -14z"/>
<path d="M2550 1971 c0 -5 5 -13 10 -16 6 -3 10 -2 10 4 0 5 -4 13 -10 16 -5
3 -10 2 -10 -4z"/>
<path d="M4420 1970 c0 -5 5 -10 10 -10 6 0 10 5 10 10 0 6 -4 10 -10 10 -5 0
-10 -4 -10 -10z"/>
<path d="M4320 1960 c-11 -8 -9 -9 10 -5 18 4 35 -1 55 -16 l30 -23 -24 27
c-26 29 -46 33 -71 17z"/>
<path d="M6048 1955 c-2 -3 -45 -14 -94 -24 -49 -10 -77 -19 -62 -20 35 -1
160 28 173 40 5 6 5 9 -1 9 -6 0 -13 -2 -16 -5z"/>
<path d="M4275 1940 c-3 -6 1 -7 9 -4 18 7 21 14 7 14 -6 0 -13 -4 -16 -10z"/>
<path d="M6045 1916 c-22 -12 -48 -20 -57 -18 -10 2 -18 -2 -18 -8 0 -6 -4 -8
-10 -5 -5 3 -10 0 -10 -7 0 -11 -2 -10 -9 0 -7 11 -9 11 -14 -2 -10 -24 -7
-31 9 -28 9 2 14 -6 15 -20 1 -23 1 -22 9 2 6 19 8 20 9 6 1 -14 7 -17 26 -13
17 3 24 0 22 -7 -3 -6 -10 -10 -16 -8 -6 1 -11 -2 -11 -8 0 -12 0 -12 39 1 30
11 31 12 16 29 -19 21 -1 40 18 21 9 -9 7 -10 -8 -5 -18 7 -19 6 -5 -10 10
-14 14 -39 11 -99 -3 -92 -5 -97 -32 -97 -10 0 -19 -4 -19 -9 0 -4 -23 -13
-51 -18 l-51 -11 -39 39 c-22 22 -44 39 -50 39 -7 0 0 -9 15 -21 14 -11 26
-29 26 -40 0 -15 -8 -19 -42 -21 -24 -1 -54 -3 -68 -4 -14 -1 -65 -3 -115 -4
-57 -1 -81 -5 -65 -9 14 -4 38 -6 54 -4 17 3 32 -1 37 -9 6 -9 9 -9 9 -1 0 18
43 11 61 -9 15 -16 17 -17 23 -3 3 9 2 13 -3 10 -5 -3 -12 -1 -16 5 -4 6 4 10
18 10 20 0 24 -4 20 -20 -4 -15 0 -20 16 -20 15 0 21 6 20 23 0 21 -1 21 -9 2
-8 -19 -9 -19 -9 2 -1 18 5 21 35 21 19 0 38 3 41 6 11 10 45 -15 39 -30 -3
-8 1 -14 9 -14 8 0 19 -8 24 -17 6 -10 11 -13 11 -7 0 6 -7 17 -15 24 -17 14
-20 40 -6 40 5 0 12 -8 14 -17 4 -14 5 -13 6 4 1 29 32 33 54 7 9 -12 17 -26
17 -30 0 -4 -7 1 -15 12 -14 18 -14 18 -15 -9 0 -16 4 -26 9 -22 5 3 12 1 15
-4 3 -5 -4 -11 -15 -14 -13 -4 -18 -10 -14 -17 6 -9 10 -9 16 1 5 9 10 4 15
-17 4 -16 13 -38 20 -49 8 -12 12 -50 11 -98 -1 -44 2 -81 6 -84 4 -2 7 10 7
29 -2 66 11 455 19 553 4 55 7 101 7 101 -1 1 -19 -8 -41 -20z m10 -16 c-3 -5
-1 -10 6 -10 7 0 10 -3 6 -6 -9 -9 -28 6 -22 17 4 5 8 9 11 9 3 0 2 -4 -1 -10z
m-55 -50 c0 -5 -2 -10 -4 -10 -3 0 -8 5 -11 10 -3 6 -1 10 4 10 6 0 11 -4 11
-10z"/>
<path d="M4230 1920 c-9 -6 -10 -10 -3 -10 6 0 15 5 18 10 8 12 4 12 -15 0z"/>
<path d="M3890 1910 c-9 -6 -10 -10 -3 -10 6 0 15 5 18 10 8 12 4 12 -15 0z"/>
<path d="M5218 1913 c6 -2 18 -2 25 0 6 3 1 5 -13 5 -14 0 -19 -2 -12 -5z"/>
<path d="M4796 1894 c-9 -22 -8 -24 9 -18 8 4 15 12 15 20 0 19 -16 18 -24 -2z"/>
<path d="M5293 1903 c9 -2 23 -2 30 0 6 3 -1 5 -18 5 -16 0 -22 -2 -12 -5z"/>
<path d="M5475 1900 c-3 -5 -1 -10 4 -10 6 0 11 5 11 10 0 6 -2 10 -4 10 -3 0
-8 -4 -11 -10z"/>
<path d="M5393 1893 c15 -2 37 -2 50 0 12 2 0 4 -28 4 -27 0 -38 -2 -22 -4z"/>
<path d="M4135 1870 c-10 -11 -16 -22 -14 -24 2 -2 12 7 22 20 22 29 17 32 -8
4z"/>
<path d="M5850 1870 c0 -5 -7 -7 -16 -3 -12 4 -14 0 -8 -23 9 -35 20 -43 51
-38 13 3 23 0 23 -7 0 -7 7 -17 17 -24 11 -8 13 -14 5 -19 -7 -4 -12 -2 -12 4
0 6 -4 8 -10 5 -5 -3 -10 -17 -10 -30 0 -16 7 -25 25 -29 17 -4 23 -11 18 -23
-4 -11 -3 -14 5 -9 15 9 15 44 0 86 -16 48 -37 68 -61 62 -14 -3 -18 -1 -13 7
4 6 11 9 16 6 5 -3 14 3 19 14 15 26 14 31 -5 31 -11 0 -14 -6 -10 -17 6 -17
5 -17 -8 0 -15 19 -26 22 -26 7z"/>
<path d="M4460 1866 c0 -2 8 -10 18 -17 15 -13 16 -12 3 4 -13 16 -21 21 -21
13z"/>
<path d="M4561 1854 c0 -11 3 -14 6 -6 3 7 2 16 -1 19 -3 4 -6 -2 -5 -13z"/>
<path d="M5650 1859 c0 -5 5 -7 10 -4 6 3 10 8 10 11 0 2 -4 4 -10 4 -5 0 -10
-5 -10 -11z"/>
<path d="M5774 1858 c-4 -5 -3 -12 0 -15 7 -8 36 4 36 15 0 11 -29 11 -36 0z"/>
<path d="M5466 1844 c-5 -14 -4 -15 9 -4 17 14 19 20 6 20 -5 0 -12 -7 -15
-16z"/>
<path d="M5491 1838 l-14 -23 23 20 22 20 -2 -25 c-4 -40 -1 -64 7 -56 4 4 6
22 5 41 -2 28 1 34 20 38 16 3 12 5 -12 6 -27 1 -39 -4 -49 -21z"/>
<path d="M5588 1853 c6 -2 18 -2 25 0 6 3 1 5 -13 5 -14 0 -19 -2 -12 -5z"/>
<path d="M2435 1830 c3 -5 8 -10 11 -10 2 0 4 5 4 10 0 6 -5 10 -11 10 -5 0
-7 -4 -4 -10z"/>
<path d="M4335 1830 c-3 -5 -1 -10 4 -10 6 0 11 5 11 10 0 6 -2 10 -4 10 -3 0
-8 -4 -11 -10z"/>
<path d="M4496 1817 c3 -10 9 -15 12 -12 3 3 0 11 -7 18 -10 9 -11 8 -5 -6z"/>
<path d="M4786 1817 c3 -10 9 -15 12 -12 3 3 0 11 -7 18 -10 9 -11 8 -5 -6z"/>
<path d="M4092 1794 c-7 -8 -8 -14 -3 -14 10 0 25 19 20 25 -2 1 -10 -3 -17
-11z"/>
<path d="M5272 1776 c-35 -13 -71 -31 -81 -40 -10 -9 -22 -16 -27 -15 -23 4
-75 -15 -91 -35 -18 -21 -18 -21 4 -3 12 11 26 16 32 13 5 -4 12 -2 16 4 10
17 35 11 35 -7 0 -15 4 -13 20 7 19 24 19 24 13 3 -3 -13 -9 -24 -14 -24 -5
-1 -15 -2 -21 -3 -7 0 -14 -10 -16 -20 -4 -17 -2 -17 27 3 18 13 36 19 43 15
9 -5 9 -3 -1 9 -7 9 -9 17 -3 17 5 0 9 8 8 17 -1 18 59 53 95 56 10 1 21 7 23
14 3 7 4 13 3 12 -1 0 -30 -11 -65 -23z"/>
<path d="M5370 1785 c8 -11 20 -25 25 -31 12 -12 70 -13 82 -1 4 5 -9 7 -29 6
-28 -3 -44 3 -65 21 -19 18 -23 19 -13 5z"/>
<path d="M5830 1789 c0 -5 5 -7 10 -4 6 3 10 8 10 11 0 2 -4 4 -10 4 -5 0 -10
-5 -10 -11z"/>
<path d="M5860 1792 c0 -4 4 -13 9 -20 7 -11 9 -11 14 1 3 9 -1 18 -9 21 -8 3
-14 2 -14 -2z"/>
<path d="M1192 1770 c0 -14 2 -19 5 -12 2 6 2 18 0 25 -3 6 -5 1 -5 -13z"/>
<path d="M3960 1771 c0 -6 4 -13 10 -16 6 -3 7 1 4 9 -7 18 -14 21 -14 7z"/>
<path d="M5494 1748 c-3 -4 3 -8 14 -8 11 0 26 -14 38 -35 21 -40 31 -45 59
-34 19 7 19 8 -3 8 -12 1 -26 9 -29 19 -4 9 -12 21 -20 25 -7 4 -13 14 -13 22
0 14 -38 17 -46 3z"/>
<path d="M2482 1705 c10 -23 13 -24 21 -9 6 11 5 19 -4 25 -24 15 -29 10 -17
-16z"/>
<path d="M5460 1712 c0 -7 -5 -10 -12 -6 -7 4 -8 3 -4 -5 4 -6 2 -19 -6 -28
-12 -15 -11 -15 12 -2 14 8 27 15 28 16 2 1 -1 10 -7 20 -6 11 -11 13 -11 5z"/>
<path d="M3979 1693 c-13 -16 -12 -17 4 -4 9 7 17 15 17 17 0 8 -8 3 -21 -13z"/>
<path d="M5749 1708 c-5 -19 -8 -50 -4 -46 7 7 15 48 9 48 -2 0 -4 -1 -5 -2z"/>
<path d="M4090 1691 c0 -6 4 -13 10 -16 6 -3 7 1 4 9 -7 18 -14 21 -14 7z"/>
<path d="M4550 1665 c-31 -33 -18 -44 14 -12 14 15 26 29 26 32 0 12 -18 3
-40 -20z"/>
<path d="M5785 1680 c3 -5 2 -10 -3 -10 -6 0 -13 -8 -16 -17 -6 -15 -5 -15 13
1 18 16 20 36 5 36 -3 0 -2 -4 1 -10z"/>
<path d="M4351 1654 c0 -11 3 -14 6 -6 3 7 2 16 -1 19 -3 4 -6 -2 -5 -13z"/>
<path d="M4630 1663 c0 -5 5 -14 11 -20 14 -14 -34 -48 -55 -40 -16 6 -53 -29
-43 -40 4 -3 7 0 7 8 0 10 2 11 8 2 4 -7 17 -10 30 -6 12 3 20 9 17 13 -8 14
38 20 54 7 12 -10 13 -9 7 1 -5 8 -1 19 10 28 11 9 14 13 7 10 -6 -4 -21 6
-32 20 -12 15 -21 22 -21 17z"/>
<path d="M5472 1640 c0 -19 2 -27 5 -17 2 9 2 25 0 35 -3 9 -5 1 -5 -18z"/>
<path d="M5070 1589 l0 -63 30 29 c33 31 52 27 31 -8 -8 -14 0 -9 23 13 36 34
40 35 118 37 44 1 82 4 85 6 2 3 -38 9 -89 15 -51 5 -102 12 -113 15 -11 3
-35 9 -52 13 l-33 7 0 -64z m101 -2 c-13 -13 -26 -3 -16 12 3 6 11 8 17 5 6
-4 6 -10 -1 -17z m-72 -19 c-5 -10 -11 -18 -12 -18 -2 0 -3 8 -4 18 -1 10 5
19 12 19 10 0 11 -5 4 -19z"/>
<path d="M4582 1626 c7 -8 15 -12 17 -11 5 6 -10 25 -20 25 -5 0 -4 -6 3 -14z"/>
<path d="M1200 1399 c-1 -293 -18 -366 -98 -400 -24 -11 -52 -19 -62 -19 -15
0 -18 -6 -14 -27 6 -34 19 -49 44 -56 23 -6 25 1 5 26 -19 26 -9 45 32 62 43
18 43 18 43 0 0 -19 10 -19 38 1 19 13 22 21 16 51 -4 24 -3 34 4 30 6 -5 7 6
1 32 -5 21 -6 49 -3 62 7 36 8 438 1 446 -4 3 -7 -90 -7 -208z"/>
<path d="M5470 1588 c0 -4 14 -8 30 -8 17 0 30 2 30 4 0 2 -13 6 -30 8 -16 3
-30 1 -30 -4z"/>
<path d="M5880 1570 c0 -5 5 -10 10 -10 6 0 10 5 10 10 0 6 -4 10 -10 10 -5 0
-10 -4 -10 -10z"/>
<path d="M5967 1561 c-2 -10 -1 -24 3 -30 4 -7 7 1 8 18 1 35 -3 40 -11 12z"/>
<path d="M5199 1553 c-13 -16 -12 -17 4 -4 9 7 17 15 17 17 0 8 -8 3 -21 -13z"/>
<path d="M5164 1549 c-3 -6 -2 -15 3 -20 5 -5 9 -1 9 11 0 23 -2 24 -12 9z"/>
<path d="M5219 1543 c-13 -16 -12 -17 4 -4 16 13 21 21 13 21 -2 0 -10 -8 -17
-17z"/>
<path d="M5687 1540 c3 -11 9 -20 15 -20 5 0 4 9 -2 20 -6 11 -12 20 -14 20
-2 0 -2 -9 1 -20z"/>
<path d="M5860 1523 c0 -21 -2 -53 -6 -72 -7 -33 -6 -33 13 -15 10 11 15 22
11 25 -12 8 -4 52 10 57 9 3 9 9 2 23 -17 31 -31 22 -30 -18z"/>
<path d="M4201 1537 c-8 -11 -3 -17 24 -30 21 -10 37 -12 40 -7 3 6 -3 10 -14
10 -12 0 -21 5 -21 10 0 6 6 10 13 10 8 0 7 4 -3 10 -20 13 -26 12 -39 -3z
m29 -1 c0 -3 -4 -8 -10 -11 -5 -3 -10 -1 -10 4 0 6 5 11 10 11 6 0 10 -2 10
-4z"/>
<path d="M4275 1530 c3 -5 8 -10 11 -10 2 0 4 5 4 10 0 6 -5 10 -11 10 -5 0
-7 -4 -4 -10z"/>
<path d="M4326 1532 c-2 -4 -1 -14 3 -21 6 -10 10 -9 14 3 6 16 -8 32 -17 18z"/>
<path d="M5775 1520 c3 -5 11 -10 16 -10 6 0 7 5 4 10 -3 6 -11 10 -16 10 -6
0 -7 -4 -4 -10z"/>
<path d="M4289 1504 c-8 -10 -9 -15 -2 -11 6 4 13 2 15 -5 3 -7 7 -8 11 -2 3
5 2 16 -2 22 -6 10 -11 9 -22 -4z"/>
<path d="M5070 1504 c0 -8 5 -12 10 -9 6 4 8 11 5 16 -9 14 -15 11 -15 -7z"/>
<path d="M2490 1500 c0 -5 5 -10 10 -10 6 0 10 5 10 10 0 6 -4 10 -10 10 -5 0
-10 -4 -10 -10z"/>
<path d="M5686 1495 c4 -8 10 -15 15 -15 4 0 6 7 3 15 -4 8 -10 15 -15 15 -4
0 -6 -7 -3 -15z"/>
<path d="M5902 1490 c0 -14 2 -19 5 -12 2 6 2 18 0 25 -3 6 -5 1 -5 -13z"/>
<path d="M5565 1428 c-33 -38 -81 -93 -107 -122 -27 -29 -48 -59 -48 -67 0 -8
8 0 18 16 11 17 26 36 35 44 15 12 17 11 18 -5 1 -14 3 -13 9 6 8 25 8 24 9
-5 1 -16 6 -37 12 -45 8 -11 9 -7 4 17 -4 18 -3 42 0 54 7 21 8 21 32 -7 22
-26 23 -26 9 -3 -9 14 -13 29 -9 32 3 4 1 7 -6 7 -7 0 -9 5 -5 11 4 7 18 -1
38 -20 18 -17 35 -28 39 -25 4 4 15 1 24 -7 17 -12 17 -12 2 5 -9 9 -24 19
-34 20 -10 2 -26 13 -34 26 -15 23 -15 24 3 17 17 -7 17 -6 5 9 -13 16 -11 17
16 11 l30 -6 -27 12 c-29 11 -40 34 -12 23 9 -3 28 -9 42 -12 23 -4 21 -2 -8
12 l-35 18 50 6 c47 6 48 7 11 8 -33 2 -37 4 -26 17 7 9 11 17 9 19 -2 1 -31
-28 -64 -66z"/>
<path d="M5932 1460 c0 -19 2 -27 5 -17 2 9 2 25 0 35 -3 9 -5 1 -5 -18z"/>
<path d="M5071 1097 l1 -387 29 -21 c32 -23 35 -22 85 29 29 28 110 33 100 6
-5 -13 -4 -14 7 -6 10 8 62 9 183 3 93 -4 192 -6 219 -4 28 2 87 5 132 6 44 1
79 5 76 9 -2 5 5 8 16 8 11 0 25 -9 31 -20 10 -18 7 -24 -12 -21 -5 0 -8 -6
-8 -14 0 -9 -6 -12 -15 -9 -8 4 -15 1 -15 -4 0 -6 -8 -13 -17 -15 -14 -4 -13
-5 4 -6 44 -2 125 21 149 44 l24 23 0 251 c-1 153 -5 253 -11 257 -6 3 -7 -5
-4 -23 5 -21 4 -24 -4 -13 -9 13 -11 13 -11 -2 0 -10 5 -18 10 -18 6 0 10 -7
10 -15 0 -8 -6 -15 -12 -15 -9 0 -8 -4 2 -10 9 -6 11 -13 5 -17 -5 -5 -10 -48
-10 -97 0 -78 -2 -90 -20 -100 -11 -6 -22 -14 -25 -17 -25 -29 -707 -41 -696
-12 6 15 1 16 -23 4 -19 -11 -102 4 -111 19 -3 5 -12 5 -20 0 -12 -8 -12 -10
-1 -10 7 0 11 -6 7 -15 -6 -18 5 -20 21 -4 13 13 36 2 27 -13 -4 -6 2 -6 15 1
12 7 21 8 21 2 0 -5 -6 -12 -12 -14 -8 -3 -7 -6 4 -6 9 -1 20 4 23 9 4 7 31 8
73 4 78 -8 499 -6 525 2 16 5 22 -5 18 -31 -1 -5 4 -3 11 6 12 14 15 14 32 -3
11 -10 22 -15 25 -12 3 4 0 9 -6 11 -7 3 -13 12 -13 21 0 15 2 15 10 2 7 -11
10 -11 10 -2 0 7 5 10 11 6 6 -3 15 0 20 7 6 10 9 7 10 -11 0 -23 1 -23 9 -5
5 11 9 14 9 8 1 -7 6 -13 12 -13 6 0 9 6 6 14 -4 9 0 12 12 9 15 -4 17 -8 7
-28 -7 -16 -13 -20 -18 -12 -9 14 -11 4 -8 -35 1 -23 -2 -27 -17 -21 -10 3
-22 9 -28 13 -5 4 -20 6 -33 4 -14 -3 -21 0 -17 6 4 6 -15 10 -49 10 -31 0
-56 -4 -56 -9 0 -5 6 -9 13 -8 30 1 47 -4 47 -14 0 -5 -4 -8 -9 -5 -5 3 -11
-2 -13 -12 -3 -10 -12 -19 -21 -19 -13 0 -13 3 1 26 14 21 14 24 2 17 -8 -5
-25 -18 -37 -29 -13 -11 -23 -15 -23 -9 0 6 9 16 21 22 11 7 18 14 15 18 -3 3
-16 -4 -29 -15 -12 -11 -33 -26 -46 -33 -22 -11 -23 -10 -17 6 6 17 6 17 -12
1 -15 -14 -38 -17 -113 -16 -141 1 -259 14 -271 30 -7 11 -11 11 -15 2 -6 -16
-33 -17 -33 -2 0 6 -7 8 -17 4 -14 -5 -15 -4 -6 6 10 10 16 9 29 -2 16 -12 17
-12 11 3 -5 14 4 18 56 23 76 8 138 13 197 15 l45 2 -41 10 c-32 8 -70 5 -169
-11 -70 -12 -136 -26 -146 -31 -27 -15 -42 -12 -35 6 5 14 4 15 -8 5 -8 -7
-24 -10 -36 -6 -20 6 -26 20 -12 29 4 2 6 23 4 45 -2 24 -8 38 -14 35 -6 -4
-2 5 7 19 18 29 98 83 142 98 22 7 18 7 -17 3 -25 -4 -66 -15 -92 -25 -43 -17
-47 -17 -53 -1 -13 31 -16 132 -4 153 7 13 7 19 1 15 -16 -10 -11 36 6 57 9 9
12 20 9 24 -4 3 -7 1 -7 -6 0 -7 -4 -9 -10 -6 -5 3 -10 16 -9 28 0 40 -13 222
-17 226 -2 2 -3 -170 -3 -382z m139 -101 c0 -2 -25 -20 -56 -40 -50 -33 -54
-35 -38 -12 11 14 35 32 54 40 40 17 40 17 40 12z m-90 -136 c0 -5 -5 -10 -11
-10 -5 0 -7 5 -4 10 3 6 8 10 11 10 2 0 4 -4 4 -10z m915 -111 c-5 -16 -4 -19
5 -14 9 5 11 4 6 -3 -5 -9 -13 -9 -29 -1 -12 7 -19 8 -15 4 9 -10 -9 -45 -24
-45 -6 0 -8 3 -5 7 4 3 0 14 -8 23 -14 16 -14 18 0 23 8 4 15 2 15 -4 0 -6 12
-1 26 10 33 26 37 26 29 0z m-855 -20 c-13 -12 -26 -16 -28 -10 -2 5 -11 7
-20 4 -15 -6 -15 -5 -3 10 7 10 27 17 45 17 l31 -1 -25 -20z"/>
<path d="M5690 1460 c0 -5 5 -10 11 -10 5 0 7 5 4 10 -3 6 -8 10 -11 10 -2 0
-4 -4 -4 -10z"/>
<path d="M5797 1433 c-4 -3 -7 -11 -7 -17 0 -6 5 -5 12 2 6 6 9 14 7 17 -3 3
-9 2 -12 -2z"/>
<path d="M2490 1419 c0 -5 5 -7 10 -4 6 3 10 8 10 11 0 2 -4 4 -10 4 -5 0 -10
-5 -10 -11z"/>
<path d="M5660 1419 c0 -21 37 -32 44 -13 3 8 0 11 -11 7 -8 -3 -19 0 -24 8
-7 11 -9 11 -9 -2z"/>
<path d="M5169 1403 c-13 -16 -12 -17 4 -4 16 13 21 21 13 21 -2 0 -10 -8 -17
-17z"/>
<path d="M5830 1395 c-7 -8 -9 -15 -6 -15 4 0 2 -8 -3 -18 -8 -14 -5 -18 11
-19 15 -2 17 1 8 12 -8 10 -7 17 5 28 8 9 11 18 6 21 -5 3 -14 -1 -21 -9z"/>
<path d="M5932 1379 c-1 -16 -1 -29 2 -29 7 0 13 50 7 55 -4 2 -8 -10 -9 -26z"/>
<path d="M2498 1393 c7 -3 16 -2 19 1 4 3 -2 6 -13 5 -11 0 -14 -3 -6 -6z"/>
<path d="M2491 1325 c1 -34 4 -47 6 -30 3 17 10 36 16 43 7 10 6 17 -6 30 -16
15 -17 12 -16 -43z"/>
<path d="M5667 1369 c7 -7 15 -10 18 -7 3 3 -2 9 -12 12 -14 6 -15 5 -6 -5z"/>
<path d="M5725 1336 c0 -18 3 -22 13 -14 9 8 9 14 1 24 -15 18 -14 18 -14 -10z"/>
<path d="M5109 1333 c-13 -16 -12 -17 4 -4 16 13 21 21 13 21 -2 0 -10 -8 -17
-17z"/>
<path d="M5135 1304 c-18 -16 -22 -22 -9 -15 18 9 53 42 43 41 -2 -1 -17 -12
-34 -26z"/>
<path d="M5800 1321 c0 -7 -4 -9 -10 -6 -6 4 -7 -1 -3 -11 6 -15 7 -15 15 1 6
9 7 19 4 22 -3 4 -6 1 -6 -6z"/>
<path d="M5520 1315 c0 -5 5 -17 10 -25 5 -8 10 -10 10 -5 0 6 -5 17 -10 25
-5 8 -10 11 -10 5z"/>
<path d="M5906 1295 c-9 -26 -7 -32 5 -12 6 10 9 21 6 23 -2 3 -7 -2 -11 -11z"/>
<path d="M5169 1283 c-13 -16 -12 -17 4 -4 9 7 17 15 17 17 0 8 -8 3 -21 -13z"/>
<path d="M5755 1270 c-3 -5 -1 -10 4 -10 6 0 11 5 11 10 0 6 -2 10 -4 10 -3 0
-8 -4 -11 -10z"/>
<path d="M2490 1145 c0 -63 4 -115 9 -115 5 0 7 10 3 22 -3 14 -2 19 6 14 7
-4 12 -2 12 3 0 6 -4 11 -8 11 -4 0 -9 32 -10 71 -1 45 1 68 8 64 5 -3 10 -2
10 4 0 5 -5 13 -11 17 -8 4 -7 9 2 15 11 7 10 9 -3 9 -16 0 -18 -12 -18 -115z"/>
<path d="M5472 1240 c0 -14 2 -19 5 -12 2 6 2 18 0 25 -3 6 -5 1 -5 -13z"/>
<path d="M5695 1214 l-40 -36 48 33 c26 18 47 34 47 36 0 10 -20 -2 -55 -33z"/>
<path d="M2577 1140 c-5 -104 -15 -130 -49 -130 -10 0 -16 -4 -13 -10 3 -5 21
-10 40 -10 21 0 35 -6 39 -16 10 -26 8 -27 -34 -21 -44 6 -49 1 -22 -19 22
-17 52 -17 76 1 18 14 18 16 3 33 -10 10 -14 22 -10 25 3 4 0 7 -8 7 -10 1 -9
3 4 11 18 11 24 39 7 39 -5 0 -7 -8 -4 -17 4 -14 3 -14 -7 1 -9 15 -9 21 -1
24 16 5 16 82 0 82 -8 0 -9 3 -2 10 11 11 6 90 -6 90 -4 0 -10 -45 -13 -100z"/>
<path d="M5379 1213 c-13 -16 -12 -17 4 -4 16 13 21 21 13 21 -2 0 -10 -8 -17
-17z"/>
<path d="M5448 1162 l-17 -37 19 24 c11 13 20 29 20 37 0 21 -3 17 -22 -24z"/>
<path d="M5348 1173 c-18 -21 -31 -43 -25 -43 2 0 13 14 25 30 25 33 24 41 0
13z"/>
<path d="M5792 1140 c-59 -55 -58 -68 1 -19 30 25 66 70 55 69 -2 -1 -27 -23
-56 -50z"/>
<path d="M5613 1164 c-18 -8 -33 -19 -33 -24 0 -12 55 14 65 30 7 12 9 12 -32
-6z"/>
<path d="M5534 1114 c-18 -14 -18 -14 6 -3 31 14 36 19 24 19 -6 0 -19 -7 -30
-16z"/>
<path d="M4331 1104 c0 -11 3 -14 6 -6 3 7 2 16 -1 19 -3 4 -6 -2 -5 -13z"/>
<path d="M5305 1109 c-9 -13 -11 -11 58 -48 38 -21 70 -30 95 -30 33 2 34 2 7
6 -63 8 -94 41 -42 45 12 1 -7 4 -43 7 -44 4 -64 10 -62 19 3 15 -4 16 -13 1z"/>
<path d="M5710 1080 c-8 -6 -32 -15 -53 -20 -22 -7 -35 -15 -31 -22 4 -6 9 -7
13 0 3 5 20 13 38 16 17 4 37 14 44 22 13 16 10 18 -11 4z"/>
<path d="M5588 1033 c7 -3 16 -2 19 1 4 3 -2 6 -13 5 -11 0 -14 -3 -6 -6z"/>
<path d="M5670 1036 c0 -2 7 -7 16 -10 8 -3 12 -2 9 4 -6 10 -25 14 -25 6z"/>
<path d="M5328 1023 c7 -3 16 -2 19 1 4 3 -2 6 -13 5 -11 0 -14 -3 -6 -6z"/>
<path d="M2480 999 c-7 -11 -10 -23 -7 -25 2 -2 9 7 15 21 14 30 7 33 -8 4z"/>
<path d="M2620 1005 c0 -5 5 -17 10 -25 5 -8 10 -10 10 -5 0 6 -5 17 -10 25
-5 8 -10 11 -10 5z"/>
<path d="M5115 1000 c-3 -5 -2 -10 4 -10 5 0 13 5 16 10 3 6 2 10 -4 10 -5 0
-13 -4 -16 -10z"/>
<path d="M910 945 c-105 -35 -182 -76 -199 -107 -13 -23 -13 -28 2 -51 50 -77
332 -150 564 -146 63 2 52 4 -56 10 -74 4 -141 11 -150 15 -18 8 -28 10 -53
12 -10 1 -18 7 -18 13 0 8 29 10 98 6 l97 -6 -75 14 c-41 7 -93 14 -115 14
-22 1 -71 9 -107 20 -54 14 -77 28 -115 64 -26 25 -44 49 -41 53 4 3 17 -5 30
-18 13 -13 17 -16 9 -6 -22 28 -4 34 19 7 l20 -24 -12 28 c-10 24 -9 30 8 47
10 10 31 22 47 25 22 6 27 4 27 -12 0 -27 67 -84 97 -83 4 1 -9 10 -29 21 -21
10 -43 29 -49 42 -11 19 -10 20 3 9 13 -10 15 -8 11 15 -3 20 -2 24 5 15 7
-11 10 -9 15 7 3 14 13 21 30 21 14 0 29 5 32 10 9 15 -12 12 -95 -15z"/>
<path d="M1210 950 c8 -5 22 -9 30 -9 10 0 8 3 -5 9 -27 12 -43 12 -25 0z"/>
<path d="M2398 950 c-38 -4 -71 -10 -75 -13 -3 -4 25 -4 63 -1 56 5 67 3 57
-7 -7 -7 -13 -20 -12 -28 0 -14 1 -14 6 -1 3 8 12 23 21 33 8 9 13 18 11 20
-2 1 -34 0 -71 -3z"/>
<path d="M2647 945 c4 -11 68 -13 79 -3 3 3 -15 7 -39 9 -28 3 -43 0 -40 -6z"/>
<path d="M1336 941 c-3 -5 0 -11 7 -14 8 -3 14 1 14 9 0 16 -13 19 -21 5z"/>
<path d="M2753 933 c9 -2 23 -2 30 0 6 3 -1 5 -18 5 -16 0 -22 -2 -12 -5z"/>
<path d="M1390 910 c0 -5 5 -10 11 -10 5 0 7 5 4 10 -3 6 -8 10 -11 10 -2 0
-4 -4 -4 -10z"/>
<path d="M2180 901 c-71 -27 -88 -42 -98 -83 -5 -21 -6 -36 -2 -33 4 3 11 -2
14 -11 3 -8 2 -12 -4 -9 -19 12 -10 -12 13 -33 32 -30 116 -69 162 -76 l40 -6
-45 13 c-28 8 -46 19 -48 30 -3 13 -9 16 -23 12 -11 -4 -19 -2 -19 5 0 7 -6
10 -12 8 -7 -3 -22 4 -33 15 -11 11 -14 17 -7 13 16 -10 15 6 -3 30 -23 30
-18 51 16 63 27 9 30 9 25 -6 -5 -13 -4 -14 9 -3 11 9 15 9 15 1 0 -9 5 -9 20
-1 15 8 20 8 20 -2 0 -8 5 -6 11 5 12 20 29 23 29 3 0 -21 40 -66 58 -65 14 0
13 2 -3 10 -12 6 -27 20 -34 32 -12 19 -11 23 13 44 15 13 22 23 15 23 -7 0
-21 -7 -31 -17 -10 -9 -18 -11 -18 -5 0 6 5 12 12 14 16 6 0 28 -20 28 -9 0
-41 -11 -70 -25 -59 -27 -83 -32 -64 -13 6 6 42 22 79 34 37 13 59 23 48 23
-11 0 -40 -8 -65 -18z m50 -30 c0 -18 -29 -33 -51 -26 -17 6 -19 9 -8 16 20
13 31 11 24 -3 -3 -7 0 -5 7 5 14 18 28 23 28 8z"/>
<path d="M2495 910 c3 -5 14 -10 23 -10 15 0 15 2 2 10 -20 13 -33 13 -25 0z"/>
<path d="M2378 893 c6 -2 18 -2 25 0 6 3 1 5 -13 5 -14 0 -19 -2 -12 -5z"/>
<path d="M2553 893 c9 -2 23 -2 30 0 6 3 -1 5 -18 5 -16 0 -22 -2 -12 -5z"/>
<path d="M2658 889 c-2 -6 -28 -14 -58 -19 -53 -7 -54 -8 -13 -9 23 0 44 -5
48 -11 3 -5 12 -7 20 -4 7 3 24 1 37 -6 l23 -11 -22 17 c-21 15 -34 42 -15 30
18 -11 92 -24 86 -15 -3 5 -12 9 -20 9 -8 0 -14 5 -14 11 0 6 -8 8 -19 4 -11
-3 -22 -1 -26 5 -8 13 -22 13 -27 -1z"/>
<path d="M2920 890 c8 -5 20 -10 25 -10 6 0 3 5 -5 10 -8 5 -19 10 -25 10 -5
0 -3 -5 5 -10z"/>
<path d="M1178 883 c12 -2 32 -2 45 0 12 2 2 4 -23 4 -25 0 -35 -2 -22 -4z"/>
<path d="M2965 874 c50 -46 65 -57 60 -43 -3 8 -20 23 -38 33 -18 11 -27 15
-22 10z"/>
<path d="M1689 852 c6 -11 16 -22 22 -24 9 -3 9 -10 0 -26 -13 -24 -56 -46
-72 -36 -5 3 -9 -2 -9 -10 0 -9 -6 -16 -12 -17 -14 0 20 -17 38 -18 6 -1 27
14 48 32 35 30 37 34 25 65 -6 18 -20 37 -31 43 -17 9 -18 8 -9 -9z"/>
<path d="M2825 828 c-4 -15 -15 -30 -25 -33 -10 -3 -24 -13 -31 -21 -12 -15
-10 -15 24 0 47 19 48 12 1 -12 -29 -15 -33 -20 -20 -25 11 -5 15 -3 10 4 -4
7 -1 10 7 7 8 -3 13 -11 11 -17 -1 -7 2 -10 8 -6 8 5 7 12 -2 23 -11 13 -10
15 4 9 18 -6 78 21 78 36 0 5 5 5 10 2 6 -3 10 -1 10 4 0 16 -21 13 -34 -5 -7
-9 -18 -12 -29 -8 -24 9 -21 27 3 19 15 -5 18 -3 14 8 -3 8 -1 18 5 22 18 11
12 20 -14 20 -19 0 -26 -7 -30 -27z m20 -58 c-3 -5 -11 -10 -16 -10 -6 0 -7 5
-4 10 3 6 11 10 16 10 6 0 7 -4 4 -10z"/>
<path d="M4196 846 c4 -12 17 -16 48 -14 40 1 40 1 6 5 -19 3 -41 9 -48 15 -9
8 -11 7 -6 -6z"/>
<path d="M1630 841 c0 -6 4 -13 10 -16 6 -3 7 1 4 9 -7 18 -14 21 -14 7z"/>
<path d="M4630 833 c-14 -7 -18 -13 -10 -13 17 0 47 17 40 23 -3 2 -16 -2 -30
-10z"/>
<path d="M5244 834 c-18 -14 -18 -14 6 -3 31 14 36 19 24 19 -6 0 -19 -7 -30
-16z"/>
<path d="M2720 826 c0 -3 9 -10 20 -16 11 -6 20 -8 20 -6 0 3 -9 10 -20 16
-11 6 -20 8 -20 6z"/>
<path d="M1680 810 c0 -5 5 -10 11 -10 5 0 7 5 4 10 -3 6 -8 10 -11 10 -2 0
-4 -4 -4 -10z"/>
<path d="M5597 808 c2 -5 15 -8 28 -8 13 0 26 3 28 8 3 4 -10 7 -28 7 -18 0
-31 -3 -28 -7z"/>
<path d="M1016 800 c-14 -4 -13 -7 5 -18 16 -10 19 -10 13 -1 -5 9 -1 10 17 5
13 -4 71 -9 129 -11 l105 -4 -75 10 c-41 5 -98 13 -126 17 -28 5 -59 6 -68 2z"/>
<path d="M4493 803 c9 -2 23 -2 30 0 6 3 -1 5 -18 5 -16 0 -22 -2 -12 -5z"/>
<path d="M5745 801 c-10 -17 9 -20 30 -5 18 14 18 14 -2 14 -12 0 -24 -4 -28
-9z"/>
<path d="M2904 774 c-10 -8 -13 -12 -5 -8 7 3 16 2 20 -4 4 -6 12 -7 20 -3 7
5 10 14 7 20 -10 15 -19 14 -42 -5z"/>
<path d="M3005 782 c6 -7 -25 -42 -37 -42 -5 0 -6 6 -2 13 4 7 3 9 -2 4 -5 -5
-9 -13 -9 -19 0 -16 -83 -45 -170 -59 -44 -7 -84 -16 -90 -21 -6 -6 -3 -7 8
-3 9 4 17 3 17 -3 0 -6 -12 -13 -27 -15 -24 -3 -23 -4 7 -5 46 -2 190 33 239
57 36 19 91 73 91 90 0 4 -7 8 -15 8 -8 0 -13 -3 -10 -5z"/>
<path d="M1085 760 c17 -6 68 -12 115 -15 104 -6 46 9 -70 18 -55 5 -67 4 -45
-3z"/>
<path d="M1045 740 c17 -4 41 -8 55 -8 l25 0 -25 8 c-14 4 -38 8 -55 8 l-30 0
30 -8z"/>
<path d="M2498 743 c7 -3 16 -2 19 1 4 3 -2 6 -13 5 -11 0 -14 -3 -6 -6z"/>
<path d="M2593 743 c9 -2 25 -2 35 0 9 3 1 5 -18 5 -19 0 -27 -2 -17 -5z"/>
<path d="M1193 723 c15 -2 37 -2 50 0 12 2 0 4 -28 4 -27 0 -38 -2 -22 -4z"/>
<path d="M5242 693 c-16 -11 -26 -13 -30 -6 -8 12 -52 -1 -52 -15 0 -18 146
-34 353 -39 201 -5 317 1 317 16 0 4 -100 7 -222 7 -213 0 -280 4 -327 19 -12
4 -21 2 -21 -4 0 -6 -10 -11 -22 -11 -22 0 -21 1 7 25 34 27 32 32 -3 8z"/>
<path d="M1394 688 c-4 -7 -3 -8 4 -4 7 4 12 1 12 -8 0 -8 -12 -16 -27 -19
-23 -3 -22 -4 9 -6 48 -1 68 7 68 30 0 14 -7 19 -29 19 -17 0 -33 -5 -37 -12z"/>
<path d="M2265 690 c11 -5 27 -9 35 -9 9 0 8 4 -5 9 -11 5 -27 9 -35 9 -9 0
-8 -4 5 -9z"/>
<path d="M2345 670 c17 -4 44 -8 60 -8 25 0 24 2 -10 9 -51 10 -92 10 -50 -1z"/>
<path d="M2648 663 c7 -3 16 -2 19 1 4 3 -2 6 -13 5 -11 0 -14 -3 -6 -6z"/>
<path d="M2488 623 c34 -2 88 -2 120 0 31 2 3 3 -63 3 -66 0 -92 -1 -57 -3z"/>
</g>
</svg>
