<svg id="Layer_1" data-name="Layer 1" xmlns="http://www.w3.org/2000/svg" viewBox="0 0 343.36 259.07"><defs><style>.cls-1{fill:#1d1d1b;}</style></defs><path class="cls-1" d="M200.24,491.28c.48,4.79.93,9.58,1.3,14.38l1.1,14.39c.36,4.81.62,9.61.83,14.43q.17,3.62.23,7.25c0,1.21.05,2.42,0,3.65,0,.62,0,1.22,0,1.85l-.16,1.92-2-1.53a164.16,164.16,0,0,1,24.74-8c8.38-2.15,16.86-3.8,25.38-5.19,4.27-.68,8.55-1.17,12.83-1.77,2.13-.32,4.28-.49,6.43-.7l6.44-.6c4.29-.46,8.6-.62,12.91-.85s8.61-.51,12.92-.5l12.93-.11c4.31,0,8.61.24,12.92.35s8.61.26,12.9.64l12.87,1,3.22.26c1.07.09,2.14.25,3.2.36l6.41.77c4.28.49,8.54,1,12.81,1.58q12.74,2,25.42,4.24c-8.56-.8-17.07-1.84-25.61-2.69-4.28-.3-8.55-.6-12.82-1l-6.41-.51c-1.07-.07-2.13-.18-3.2-.23l-3.21-.13c-8.56-.33-17.11-1-25.67-.88-4.28,0-8.56-.16-12.83-.14l-12.83.32c-4.27,0-8.54.34-12.8.57s-8.54.43-12.79.91l-6.38.59c-2.12.19-4.25.35-6.37.66-4.23.56-8.48,1-12.69,1.68l-6.32,1c-2.1.35-4.22.64-6.3,1.09-4.19.84-8.39,1.6-12.52,2.64a177.13,177.13,0,0,0-24.39,7.25l-2.28.9.26-2.43.19-1.68c0-.56.06-1.17.1-1.75.07-1.17.09-2.37.12-3.56,0-2.38.07-4.78,0-7.18,0-4.8-.12-9.6-.18-14.41l-.32-14.42Z" transform="translate(-125.95 -292.07)"/><path class="cls-1" d="M405.8,530.41a81.09,81.09,0,0,1-2.34-11,100,100,0,0,1-1-11.2,72.13,72.13,0,0,1,.47-11.28,37.41,37.41,0,0,1,2.89-10.88,70.08,70.08,0,0,0-1.33,11l-.11,2.76v2.77c0,1.85,0,3.7.09,5.54.08,3.7.33,7.4.57,11.1Z" transform="translate(-125.95 -292.07)"/><path class="cls-1" d="M404.59,477.19a157,157,0,0,0,16.6-6.52,144.46,144.46,0,0,0,15.72-8.3,94.1,94.1,0,0,0,14.21-10.52,55.78,55.78,0,0,0,11.14-13.48,37.39,37.39,0,0,0,5.1-16.49,42.69,42.69,0,0,0-2.61-17.19c-.46-1.39-1.06-2.74-1.62-4.1s-1.22-2.68-1.93-4l-1-1.95L459,392.75c-.73-1.29-1.56-2.51-2.36-3.76a124.47,124.47,0,0,0-10.95-14.06,109.53,109.53,0,0,1,11.75,13.5,68.45,68.45,0,0,1,8.74,15.72c.58,1.4,1,2.86,1.46,4.3s.76,2.94,1,4.44a41.35,41.35,0,0,1,.59,9.1A39,39,0,0,1,464,439.37a57,57,0,0,1-11.61,13.89,90.71,90.71,0,0,1-14.67,10.45A134.21,134.21,0,0,1,404.59,477.19Z" transform="translate(-125.95 -292.07)"/><path class="cls-1" d="M431.11,350.93c-3.79-6.94-7.71-13.67-12-20.15a140.52,140.52,0,0,0-14-18.27l-2-2.07c-.67-.68-1.37-1.32-2-2s-1.39-1.29-2.09-1.92-1.42-1.25-2.17-1.83-1.44-1.21-2.22-1.74l-2.3-1.64c-1.59-1-3.16-2-4.85-2.86a43,43,0,0,0-10.58-3.93,50,50,0,0,0-11.55-1,35.59,35.59,0,0,1,11.89-1.43,38.61,38.61,0,0,1,11.89,2.79c.93.42,1.91.75,2.81,1.25l2.72,1.43,2.6,1.62c.87.54,1.66,1.18,2.5,1.76a66.54,66.54,0,0,1,9,8.15,94.15,94.15,0,0,1,13.71,19.68A97.06,97.06,0,0,1,431.11,350.93Z" transform="translate(-125.95 -292.07)"/><path class="cls-1" d="M233.89,374.93c5.94-2.62,12-5,17.93-7.45a41.53,41.53,0,0,0,7.77-5.15c2.48-2,4.93-4.05,7.31-6.19,4.75-4.31,9.44-8.71,14-13.25s9.16-9.06,13.63-13.7l3.37-3.46,3.36-3.51a89.49,89.49,0,0,1,7.21-6.82,104,104,0,0,1,16.48-11,110.09,110.09,0,0,1,18.17-7.52A91.77,91.77,0,0,1,362.24,293,130.33,130.33,0,0,0,344,299.2a136.61,136.61,0,0,0-17.09,8.61A117.66,117.66,0,0,0,311.55,319c-1.14,1.09-2.31,2.14-3.46,3.21s-2.21,2.26-3.31,3.4l-3.31,3.54-3.37,3.53a334.26,334.26,0,0,1-28.69,26.43c-2.57,2-5.16,4-7.9,5.86a42.38,42.38,0,0,1-8.84,4.8C246.42,371.57,240.19,373.35,233.89,374.93Z" transform="translate(-125.95 -292.07)"/><path class="cls-1" d="M205.72,372.84a171.49,171.49,0,0,0-21.63.63c-7.15.74-14.34,1.82-21,4.42a32.16,32.16,0,0,0-4.74,2.35,25.46,25.46,0,0,0-4.11,3.29c-2.63,2.44-5.17,5-7.56,7.65-1.23,1.3-2.34,2.71-3.5,4.07s-2.22,2.81-3.21,4.3a74.65,74.65,0,0,0-5.53,9.15A61.62,61.62,0,0,0,128.28,429l-.22,2.65a23.72,23.72,0,0,0-.15,2.66c0,1.77-.08,3.57.11,5.31a33.8,33.8,0,0,0,2.5,10.21,53.51,53.51,0,0,0,12.1,17.37,85,85,0,0,0,17,13.07l-.23-.08c6.79.74,13.62,1.24,20.45,1.57q5.13.24,10.26.14a47.7,47.7,0,0,0,10.18-1.07,45.93,45.93,0,0,1-10.17,1.5c-3.42.18-6.86.24-10.29.2-6.87-.06-13.72-.47-20.56-1.06h-.13l-.11-.06a85.36,85.36,0,0,1-17.55-13,55.16,55.16,0,0,1-12.62-17.88,36.17,36.17,0,0,1-2.71-10.74,58.5,58.5,0,0,1,6.69-31.94,76.16,76.16,0,0,1,5.74-9.34c1-1.52,2.19-2.92,3.3-4.37s2.33-2.81,3.59-4.12a96.94,96.94,0,0,1,7.79-7.65,27.92,27.92,0,0,1,4.41-3.37,34,34,0,0,1,5-2.36,60.42,60.42,0,0,1,10.59-2.75A98.41,98.41,0,0,1,184,372.67,153.93,153.93,0,0,1,205.72,372.84Z" transform="translate(-125.95 -292.07)"/><path class="cls-1" d="M220.33,477.19c5.46-1.27,10.93-2.59,16.17-4.3a28.63,28.63,0,0,0,3.74-1.52,4.66,4.66,0,0,0,1.27-.88s.05-.05,0,0l0,0h0l0-.08a3.78,3.78,0,0,1,.17-.35c.06-.1.11-.15.16-.23a3.94,3.94,0,0,1,.3-.34,7.24,7.24,0,0,1,1-.81,35.29,35.29,0,0,1,3.88-2.1c1.29-.61,2.59-1.19,3.89-1.75,5.23-2.16,10.49-4.14,15.79-6s10.62-3.65,16-5.34l.12,0,.15,0c8.42-1.51,16.81-3,25.3-4,4.23-.56,8.48-1.07,12.77-1.43a90.23,90.23,0,0,1,13.11-.33,33.78,33.78,0,0,1,6.61,1.54q3.09.94,6.13,2c4.06,1.38,8.05,2.92,12,4.55s7.85,3.41,11.68,5.33a62.9,62.9,0,0,1,10.9,6.75,49.47,49.47,0,0,0-5.68-2.86c-1-.44-1.94-.86-2.92-1.24s-2-.79-3-1.16c-4-1.53-8-2.86-12-4.19s-8.08-2.5-12.14-3.67q-3-.87-6.1-1.63a38.4,38.4,0,0,0-5.85-1.11,85.74,85.74,0,0,0-12.35.74q-6.27.68-12.56,1.58c-8.37,1.23-16.77,2.46-25.11,3.9l.27-.06c-5.34,1.57-10.71,3.15-16,4.81s-10.67,3.27-15.9,5.12c-1.31.45-2.62.91-3.9,1.4a32.17,32.17,0,0,0-3.64,1.62,4.53,4.53,0,0,0-.66.42s-.07.06-.06,0,0,0,0,0a.23.23,0,0,0,.06-.12s0,0,0,0l0,.07-.06.13-.14.26a1.86,1.86,0,0,1-.3.38,6,6,0,0,1-2.23,1.38,28.88,28.88,0,0,1-4.19,1.26c-2.78.65-5.56,1.1-8.35,1.47S223.12,477,220.33,477.19Z" transform="translate(-125.95 -292.07)"/><path class="cls-1" d="M365.37,459.69a44.08,44.08,0,0,1,1.91-5.5c.74-1.78,1.54-3.53,2.42-5.25s1.8-3.39,2.8-5a42.61,42.61,0,0,1,3.3-4.8,40.58,40.58,0,0,1-1.91,5.5q-1.11,2.67-2.41,5.25t-2.81,5A42.61,42.61,0,0,1,365.37,459.69Z" transform="translate(-125.95 -292.07)"/><path class="cls-1" d="M333.56,449.75c1.28-5.19,2.69-10.34,4.13-15.47L342,418.9c1.46-5.12,2.89-10.24,4.17-15.39.31-1.29.6-2.58.86-3.87a24.87,24.87,0,0,0,.55-3.87,5.59,5.59,0,0,0,0-.92,1,1,0,0,0-.2-.61c-.05-.07-.29-.05-.55.11a5.34,5.34,0,0,0-.74.56,26.7,26.7,0,0,0-2.63,3,19.85,19.85,0,0,1,2.24-3.36,4.48,4.48,0,0,1,.77-.73,1.62,1.62,0,0,1,.54-.28.73.73,0,0,1,.37-.05.67.67,0,0,1,.4.12,1.69,1.69,0,0,1,.67,1.11,6.83,6.83,0,0,1,.14,1.07,39.89,39.89,0,0,1-.87,8.07c-1,5.29-2.33,10.46-3.77,15.61s-3.05,10.25-4.78,15.3S335.62,444.82,333.56,449.75Z" transform="translate(-125.95 -292.07)"/><path class="cls-1" d="M280.45,456.72a42.08,42.08,0,0,1-4.91-5.26,56.27,56.27,0,0,1-4.14-5.9,36.58,36.58,0,0,1-3.15-6.55,17.33,17.33,0,0,1-.87-3.58,6.69,6.69,0,0,1,.42-3.63,8.36,8.36,0,0,0,.54,3.42,26.29,26.29,0,0,0,1.35,3.19c1,2.08,2.2,4.11,3.42,6.12s2.47,4,3.7,6S279.29,454.61,280.45,456.72Z" transform="translate(-125.95 -292.07)"/><path class="cls-1" d="M242.76,470.93a99.87,99.87,0,0,1-10.5-7.65,111.07,111.07,0,0,1-9.57-8.84c-1.48-1.59-2.95-3.2-4.32-4.9a59.57,59.57,0,0,1-3.83-5.34,29.81,29.81,0,0,1-2.9-5.92,12.85,12.85,0,0,1-.71-6.48,14.46,14.46,0,0,0,1.62,6.11,36.68,36.68,0,0,0,3.29,5.43,96.83,96.83,0,0,0,8.3,9.72c2.94,3.11,6,6.09,9.15,9.05Z" transform="translate(-125.95 -292.07)"/></svg>