<svg id="Layer_1" data-name="Layer 1" xmlns="http://www.w3.org/2000/svg" xmlns:xlink="http://www.w3.org/1999/xlink" viewBox="0 0 361.5 361.5"><defs><style>.cls-1,.cls-3,.cls-4{stroke:#1d1d1b;stroke-miterlimit:10;stroke-width:0.5px;}.cls-1,.cls-2,.cls-3,.cls-4{opacity:0.8;}.cls-1{fill:url(#linear-gradient);}.cls-2{fill:#eacb9c;}.cls-3{fill:#9b7643;}.cls-4{fill:#ffed00;}</style><linearGradient id="linear-gradient" x1="0.25" y1="180.75" x2="361.25" y2="180.75" gradientUnits="userSpaceOnUse"><stop offset="0" stop-color="#cec893"/><stop offset="0.04" stop-color="#bcb686"/><stop offset="0.13" stop-color="#928d6a"/><stop offset="0.23" stop-color="#706c52"/><stop offset="0.32" stop-color="#555140"/><stop offset="0.42" stop-color="#423f32"/><stop offset="0.52" stop-color="#37342b"/><stop offset="0.63" stop-color="#333028"/><stop offset="0.84" stop-color="#e8b184"/><stop offset="0.89" stop-color="#c6a49b"/><stop offset="1" stop-color="#4b8c67"/></linearGradient></defs><circle class="cls-1" cx="180.75" cy="180.75" r="180.5"/><circle class="cls-2" cx="183.04" cy="180.75" r="167.99"/><polygon class="cls-3" points="268.34 186.33 268.34 239.73 244.85 239.73 244.85 263.22 116.77 263.22 116.77 239.73 97.53 239.73 97.53 124.41 116.77 124.41 116.77 109.47 140.26 109.47 140.26 85.98 202.17 85.98 202.17 71.05 244.85 71.05 244.85 85.98 225.66 85.98 225.66 109.47 213.58 109.47 159.49 109.47 159.49 124.41 140.26 124.41 140.26 147.9 116.77 147.9 116.77 224.75 140.26 224.75 140.26 239.73 225.66 239.73 225.66 224.75 244.85 224.75 244.85 201.26 225.66 201.26 225.66 186.33 159.49 186.33 159.49 147.9 182.94 147.9 182.94 162.84 244.85 162.84 244.85 186.33 268.34 186.33"/><path class="cls-4" d="M248,477.07" transform="translate(-117.25 -239.75)"/><path class="cls-3" d="M330.83,349.22v16.46H315.34V349.22" transform="translate(-117.25 -239.75)"/></svg>