<svg id="Layer_1" data-name="Layer 1" xmlns="http://www.w3.org/2000/svg" viewBox="0 0 369.1 299.26"><defs><style>.cls-1{fill:#fff;}.cls-2{fill:#c7c7c7;}.cls-3{fill:#c6c6c6;}.cls-4{fill:#fbfaf9;}.cls-5{fill:#f7f5f6;}.cls-6{fill:#fafafa;}.cls-7{fill:#eeeced;}.cls-8{fill:#f9f8f8;}.cls-9{fill:#3e3e3e;}.cls-10{fill:#f6f5f5;}.cls-11{fill:#fbfafa;}.cls-12{fill:#4e4d4d;}.cls-13{fill:#f8f7f7;}.cls-14{fill:#484747;}.cls-15{fill:#eae9ea;}.cls-16{fill:#fcfbfb;}.cls-17{fill:#4c4c4c;}.cls-18{fill:#4c4b4b;}.cls-19{fill:#333;}.cls-20{fill:#545353;}.cls-21{fill:#565555;}.cls-22{fill:#4d4c4c;}.cls-23{fill:#636363;}.cls-24{fill:#303030;}.cls-25{fill:#4a4a4a;}.cls-26{fill:#3c3c3c;}.cls-27{fill:#3b3b3b;}.cls-28{fill:#484848;}.cls-29{fill:#252425;}.cls-30{fill:#5a5a5a;}.cls-31{fill:#323232;}.cls-32{fill:#3a3a3a;}.cls-33{fill:#faf9f9;}.cls-34{fill:#515150;}.cls-35{fill:#585858;}.cls-36{fill:#444;}.cls-37{fill:#f0efef;}.cls-38{fill:#f4f3f3;}.cls-39{fill:#525151;}.cls-40{fill:#505050;}.cls-41{fill:#4a494a;}.cls-42{fill:#f7f6f6;}.cls-43{fill:#4b4a4b;}.cls-44{fill:#242424;}.cls-45{fill:#2a2a2b;}.cls-46{fill:#666;}.cls-47{fill:#606060;}.cls-48{fill:#545454;}.cls-49{fill:#595858;}.cls-50{fill:#363636;}.cls-51{fill:#faf9f8;}.cls-52{fill:#666565;}.cls-53{fill:#585757;}.cls-54{fill:#626161;}.cls-55{fill:#3c3b3b;}.cls-56{fill:#434343;}.cls-57{fill:#2e2e2e;}.cls-58{fill:#272627;}.cls-59{fill:#5a5959;}.cls-60{fill:#f2f1f1;}.cls-61{fill:#f5f4f4;}.cls-62{fill:#5b5b5b;}.cls-63{fill:#525252;}.cls-64{fill:#4f4f4f;}.cls-65{fill:#474646;}.cls-66{fill:#4d4d4d;}.cls-67{fill:#5d5d5d;}.cls-68{fill:#464546;}.cls-69{fill:#5b5a5a;}.cls-70{fill:#616060;}.cls-71{fill:#313030;}.cls-72{fill:#2c2c2c;}.cls-73{fill:#313131;}.cls-74{fill:#f1f0f1;}.cls-75{fill:#444344;}.cls-76{fill:#4b4a4a;}.cls-77{fill:#f2f0f1;}.cls-78{fill:#f8f6f6;}.cls-79{fill:#5c5b5b;}.cls-80{fill:#4e4e4e;}.cls-81{fill:#3f3e3e;}.cls-82{fill:#565656;}.cls-83{fill:#282828;}.cls-84{fill:#474747;}.cls-85{fill:#4c4c4b;}.cls-86{fill:#616161;}.cls-87{fill:#575757;}.cls-88{fill:#242324;}.cls-89{fill:#3f3f40;}.cls-90{fill:#636262;}.cls-91{fill:#4a4949;}.cls-92{fill:#f4f2f2;}.cls-93{fill:#252525;}.cls-94{fill:#5d5c5c;}.cls-95{fill:#585857;}.cls-96{fill:#515151;}.cls-97{fill:#686766;}.cls-98{fill:#474847;}.cls-99{fill:#353535;}.cls-100{fill:#646363;}.cls-101{fill:#656464;}.cls-102{fill:#676666;}.cls-103{fill:#605f5f;}.cls-104{fill:#595958;}.cls-105{fill:#393939;}.cls-106{fill:#2b2b2b;}.cls-107{fill:#575657;}.cls-108{fill:#f1f0f0;}.cls-109{fill:#5f5e5e;}.cls-110{fill:#464645;}.cls-111{fill:#595959;}.cls-112{fill:#5c5c5c;}.cls-113{fill:#383838;}.cls-114{fill:#454545;}.cls-115{fill:#4b4b4b;}.cls-116{fill:#2f2f30;}.cls-117{fill:#676767;}.cls-118{fill:#424242;}.cls-119{fill:#646464;}.cls-120{fill:#373737;}.cls-121{fill:#2d2d2d;}.cls-122{fill:#292929;}.cls-123{fill:#555454;}.cls-124{fill:#343434;}.cls-125{fill:#272727;}.cls-126{fill:#212121;}.cls-127{fill:#232223;}.cls-128{fill:#f3f2f2;}.cls-129{fill:#696868;}.cls-130{fill:#6a6969;}.cls-131{fill:#717070;}.cls-132{fill:#5d5c5b;}.cls-133{fill:#383939;}.cls-134{fill:#6c6b6b;}.cls-135{fill:#222;}.cls-136{fill:#edecec;}.cls-137{fill:#eeeded;}.cls-138{fill:#3d3d3d;}.cls-139{fill:#656565;}.cls-140{fill:#19191a;}.cls-141{fill:#504f50;}.cls-142{fill:#464646;}.cls-143{fill:#2a2a2a;}.cls-144{fill:#232323;}.cls-145{fill:#5f5f5f;}.cls-146{fill:#565556;}.cls-147{fill:#e8e7e7;}.cls-148{fill:#6b6969;}.cls-149{fill:#2d2c2c;}.cls-150{fill:#1d1d1d;}.cls-151{fill:#747373;}.cls-152{fill:#575656;}.cls-153{fill:#2f2f2f;}.cls-154{fill:#303031;}.cls-155{fill:#424141;}.cls-156{fill:#fffefe;}.cls-157{fill:#686767;}.cls-158{fill:#252526;}.cls-159{fill:#1a1a1a;}.cls-160{fill:#535252;}.cls-161{fill:#484748;}.cls-162{fill:#181818;}.cls-163{fill:#e9e7e8;}.cls-164{fill:#e0dfdf;}.cls-165{fill:#2f2e2f;}.cls-166{fill:#2d2d2e;}.cls-167{fill:#737272;}.cls-168{fill:#302f30;}.cls-169{fill:#6b6a6a;}.cls-170{fill:#6d6d6d;}.cls-171{fill:#71706f;}.cls-172{fill:#201f20;}.cls-173{fill:#f4f4f4;}.cls-174{fill:#5e5e5e;}.cls-175{fill:#535353;}.cls-176{fill:#e6e5e5;}.cls-177{fill:#494949;}.cls-178{fill:#262526;}.cls-179{fill:#404040;}.cls-180{fill:#4f4e4e;}.cls-181{fill:#3f3f3f;}.cls-182{fill:#f6f6f5;}.cls-183{fill:#f6f5f4;}.cls-184{fill:#555354;}.cls-185{fill:#525251;}.cls-186{fill:#4f4d4d;}.cls-187{fill:#5d5b5b;}.cls-188{fill:#eeedee;}.cls-189{fill:#ecebec;}.cls-190{fill:#555;}.cls-191{fill:#474546;}.cls-192{fill:#f4f4f3;}.cls-193{fill:#343334;}.cls-194{fill:#686666;}.cls-195{fill:#efeeee;}.cls-196{fill:#3c3b3c;}.cls-197{fill:#d7d5d6;}</style></defs><path class="cls-1" d="M76.37,650c0,2.33.64,4.81-1,6.92-.22-.15-.75.37-.72-.35,0-1,0-1.91,0-2.87" transform="translate(-74.67 -357.74)"/><path class="cls-2" d="M76.1,657a.64.64,0,0,1,.06-1,4.74,4.74,0,0,1,2.3-.62c.42,0,.84-.06,1.27-.08s.88-.08,1.33-.11" transform="translate(-74.67 -357.74)"/><path class="cls-3" d="M77.11,651.48c0,.71,0,1.43,0,2.14a3.89,3.89,0,0,1-1,2.63V657h-.71" transform="translate(-74.67 -357.74)"/><path class="cls-4" d="M79.68,656.14H79" transform="translate(-74.67 -357.74)"/><path class="cls-4" d="M78.25,656.19l-2.15.06.07-2.16c.92-1.28.64-2.76.64-4.16" transform="translate(-74.67 -357.74)"/><path class="cls-5" d="M153.8,382l.11,1.57a17.91,17.91,0,0,0,.68,5.35,11.58,11.58,0,0,1,.75,6.24c-.07,2.38.36,4.83-1,7-2,3-2.47,3.09-3.92.61-.07-2.24,0-4.48,0-6.72v-1.22c0-2.25-.06-4.5.07-6.74a36.24,36.24,0,0,0,.65-6.58c0-1.62,0-3.25,0-4.87a2,2,0,0,1,.75-1.62,5.53,5.53,0,0,1,.71,0,2.6,2.6,0,0,1,.53.89C153.55,377.93,152.55,380.09,153.8,382Z" transform="translate(-74.67 -357.74)"/><path class="cls-6" d="M139.87,503.83c2.75,1.39,3.21,3,1.93,6.89-1-.94.6-2.68-1.26-3.39-.3,2.49-.6,4.95-.88,7.42a6.22,6.22,0,0,0,.06,1c2.88-1.08,2.22.76,1.74,2.22-.64,1.92,2.7,2.21,1.47,4.4-.72-.16-.92-2.12-2.08-1-.74.68.08,1.35.53,1.77,1.78,1.63,1.69,4.9,4.75,5.41-.94,1.33-2.21.09-3.27.43a1.57,1.57,0,0,1-1.47-.92,9.48,9.48,0,0,1-1.76-3.64v-1.29c-2.31-5.16-1.21-10.49-.75-15.78C139.09,506.15,138.8,504.8,139.87,503.83Z" transform="translate(-74.67 -357.74)"/><path class="cls-7" d="M146.09,404.35l-.27.06-.27,0a1.8,1.8,0,0,1-.83-.89c-.59-2-.24-4.08-.35-6.13,0-.61,0-1.22,0-1.84a48.89,48.89,0,0,1,.24-6.74,25.48,25.48,0,0,0,.1-10.07,3.33,3.33,0,0,1,.53-2.93l1.45,1.38a1.81,1.81,0,0,1,.69,1c.48,3.29-.51,6.68.68,9.92a53.46,53.46,0,0,1-.22,11.24C147.48,401.1,147.49,403,146.09,404.35Z" transform="translate(-74.67 -357.74)"/><path class="cls-8" d="M181.06,425.76a4.2,4.2,0,0,1-1.95,2.18c-.8.57-1.46,1.3-2.21,1.94-1.1.56-1.88,2.21-3.5,1.05-1.46-4.28-.81-5.43,3.94-5.79,1.24-.09,1-.95,1.54-1.28C180.57,423.39,181.57,423.7,181.06,425.76Z" transform="translate(-74.67 -357.74)"/><path class="cls-9" d="M134.72,408.32q.27,5.91.53,11.82c-.41.42-.08,1.18-.67,1.52-1.08-2.11-.84-4.42-.83-6.64,0-10.46.18-20.92.28-31.37,1.8.4,1.47,1.94,1.56,3.14a36.92,36.92,0,0,1,0,6C135.11,398,135.36,403.18,134.72,408.32Z" transform="translate(-74.67 -357.74)"/><path class="cls-10" d="M340.9,494.42c-1.32-2,.5-3.11,1.21-4.56a14.32,14.32,0,0,1,4.91-6.18c.93.89-1.16,2.32.54,3.06.54,1.23-.29,2-.95,2.82l.07-.08c-1.27,1.18-2.22,2.64-3.48,3.82C342.44,493.7,342.18,495.11,340.9,494.42Z" transform="translate(-74.67 -357.74)"/><path class="cls-11" d="M154.62,438.72c1.12.86,2.24.15,3.39,0,2.18-.2,4.5-.48,5.43,2.91a37.87,37.87,0,0,0-12.95-.2c0-3,1.06-3.76,4.13-2.76a4.68,4.68,0,0,1-1,.77A3.76,3.76,0,0,0,154.62,438.72Z" transform="translate(-74.67 -357.74)"/><path class="cls-12" d="M181.06,425.76c0-1.5-1-1.74-2.18-1.9a2.44,2.44,0,0,1-1.4-1.65c-.17-.65.22-.89.75-1,3.18,1.85,3.93-1.18,5.43-2.72a1.43,1.43,0,0,1,1.15.89,1.45,1.45,0,0,1-.19,1.46c-1.09,3.16-.73,3.39,4.27,2.77a1.8,1.8,0,0,1,2.14.77c-1.7,1.59-3.78.54-5.65.68A22.15,22.15,0,0,0,181.06,425.76Z" transform="translate(-74.67 -357.74)"/><path class="cls-13" d="M417.89,511c-2.46-3.42-1-7.4-.87-10.91.17-3.72-.51-7.45.06-11.19.22-1.47-1.13-3.19.81-4.38,1.23,1.06.69,2.5.83,3.8a168.75,168.75,0,0,0-.11,21.57A1.86,1.86,0,0,1,417.89,511Z" transform="translate(-74.67 -357.74)"/><path class="cls-14" d="M286.65,511.81a91.4,91.4,0,0,0,17.89,0,1.16,1.16,0,0,1-.21,1.69,25.14,25.14,0,0,1-11.76,1.19c-2.51-1.43-5.48-.57-8.06-1.65C284.53,511.4,286.09,512.49,286.65,511.81Z" transform="translate(-74.67 -357.74)"/><path class="cls-13" d="M217.44,436a2.32,2.32,0,0,1-.62,3.66c-1,.67-1.6,2.53-3.48.93-1-.85-2.45,1.45-3.87.24,0-1.89,1.6-2.26,2.78-3a13,13,0,0,0,2.37-1.51,1.07,1.07,0,0,1,0-.47C215.55,436,216.56,434.91,217.44,436Z" transform="translate(-74.67 -357.74)"/><path class="cls-15" d="M422.32,445.77a.43.43,0,0,1,0-.41c.35-2.27,1.42-2.51,3.08-1.11,1.44,1.7,1.27,3.45.18,5.24-1,1.48-1.53,3.62-4.08,2.9a2.27,2.27,0,0,1-.07-1.66C421.94,449.12,421,447.24,422.32,445.77Z" transform="translate(-74.67 -357.74)"/><path class="cls-16" d="M439.36,511.33v4.51c1.2.2.42-1.22,1.42-1.22.11,2.54.43,5.07-1.06,7.38C437.29,519.8,437.1,516,439.36,511.33Z" transform="translate(-74.67 -357.74)"/><path class="cls-17" d="M134.72,408.32c0-7.1-.07-14.19-.14-21.28,0-1.14.39-2.39-.55-3.39v-.77c.57-1.22-.06-2.61.52-3.83l.18-1.85c1.24.07,1.29,1.08,1.55,1.94.38,5.28.05,10.57.09,15.86a3.93,3.93,0,0,1-.93,2.95v2.14a5.43,5.43,0,0,1-.05,3.56Z" transform="translate(-74.67 -357.74)"/><path class="cls-13" d="M301,548.32c-3.07,1.3-6.28.42-9.43.58a22.92,22.92,0,0,0-6.28.73h0c-3.36-1.6-7.17-1-10.61-2.13a12,12,0,0,1-1.52-.76c1-1,2.1-.29,3.17-.31a9.25,9.25,0,0,0,2.72.37c.92.18,1.84.36,2.77.46a11.58,11.58,0,0,0,4.69,0c3.83.27,7.66-.11,11.49,0C299.07,547.29,300.21,547.27,301,548.32Z" transform="translate(-74.67 -357.74)"/><path class="cls-13" d="M208.87,440.93c.76,1.79,1.93,3.58-1.12,4.55-1.4.44-1.84,2-2.45,3.26l-1.41-1.38c-.6-.82-.13-1.59.07-2.38a6,6,0,0,1,3.5-3.37l.78-.92A.46.46,0,0,1,208.87,440.93Z" transform="translate(-74.67 -357.74)"/><path class="cls-18" d="M146.86,457.32c-.32-2.39-.63-4.78-1-7.16a36.56,36.56,0,0,1,.09-9.29l.82-1.29c.63.53.06,1.37.51,2a81.76,81.76,0,0,0,.76,15.79.68.68,0,0,1-1.23,0Z" transform="translate(-74.67 -357.74)"/><path class="cls-19" d="M151.68,525.83q0-9.8,0-19.59a10.67,10.67,0,0,1-.17-3.52.57.57,0,0,1,.91-.31,181.11,181.11,0,0,1,0,25.73C150.71,527.83,151.6,526.7,151.68,525.83Z" transform="translate(-74.67 -357.74)"/><path class="cls-20" d="M229.7,442.33c0-.47-.06-.93,0-1.39.1-2.16,1.64-4.88.18-6.26-1.12-1.06-3.94-.31-6-.37a.58.58,0,0,1,.3-.9,16,16,0,0,1,1.7-.05c1.27,0,2.53,0,3.79,0,1.72,0,2.18.93,2,2.45l0,2.08c-.79,1.15.52,2.58-.51,3.7l-.27,7.9a.61.61,0,0,1-.9-.36C229.74,446.87,230.26,444.57,229.7,442.33Z" transform="translate(-74.67 -357.74)"/><path class="cls-21" d="M378.79,451.64l-1.34-.09c-.72-3.77.34-7.68-.88-11.41a1.84,1.84,0,0,1-.25-1.95.83.83,0,0,1,.84-.42c1.48.15.94,1.38,1,2.13C378.43,443.8,378.59,447.72,378.79,451.64Z" transform="translate(-74.67 -357.74)"/><path class="cls-22" d="M139.54,507.39c-1,5.26-.53,10.5.08,15.75-1.66,0-1.32-1.27-1.52-2.26-1-4.74-.11-9.46.19-14.18C139,506.34,139.23,507,139.54,507.39Z" transform="translate(-74.67 -357.74)"/><path class="cls-23" d="M157.58,413l0-20.79c.65-.2,1,.17,1.19.68l0,2.25a100.43,100.43,0,0,0,.05,15.61,5.11,5.11,0,0,1-.49,3.79C157.62,414.25,158,413.43,157.58,413Z" transform="translate(-74.67 -357.74)"/><path class="cls-13" d="M323.1,543.09a1,1,0,0,1,.3-.62c1.07.44,2.22-1.14,3.26.13,1.35,1.27,2.39-.07,3.52-.46.79-.28,1.41-.19,1.8.55s-.2,1.75-.75,1.63c-2.66-.6-5.09.74-7.66.68-.2,0-.39-.74-.59-1.14-.2-.21-.25-.39-.15-.55S323,543.09,323.1,543.09Z" transform="translate(-74.67 -357.74)"/><path class="cls-24" d="M361.69,456.6l-.78,1.43c-.5-.34-.23-1-.61-1.41.87-6.18.31-12.41.69-18.61.49-.22.81-.07.94.45-.05,4.57.16,9.12.33,13.68C361.69,453.58,362.3,455.17,361.69,456.6Z" transform="translate(-74.67 -357.74)"/><path class="cls-25" d="M322.36,508.07l-6.47,2.78c-1.07,1.28-2.52,1.41-4,1.33a2.51,2.51,0,0,1-1.76-1.27l11.3-3.63C322.17,507,322.44,507.31,322.36,508.07Z" transform="translate(-74.67 -357.74)"/><path class="cls-26" d="M231.62,435.81c-1.24-3.31-4.08-1.82-6.33-2.13-.23-.13-.31-.25-.23-.38s.15-.2.23-.2l5.52-.19c1.48-.93,3.28.31,4.75-.71a6.31,6.31,0,0,1,2.61-.56l1.94-.2c.76-.33,1,.12,1.08.76-1,2-2.83,1.49-4.48,1.56l-.71.06c-1.06,1.36-3.54-.15-4.18,2.07Z" transform="translate(-74.67 -357.74)"/><path class="cls-27" d="M139.54,507.39l-1.25-.69a97.45,97.45,0,0,0,1.24-13.95c0-.9-1-2.1.73-2.49,1,4.55.08,9.05-.39,13.57Z" transform="translate(-74.67 -357.74)"/><path class="cls-28" d="M286.67,359.2l-3.32.21c-.88,0-2,.94-2.36-.76a78.11,78.11,0,0,1,18.52-.67q.3.72-.45.9C294.93,359.14,290.79,358.54,286.67,359.2Z" transform="translate(-74.67 -357.74)"/><path class="cls-29" d="M145.23,375.79l.23,2.61a44.4,44.4,0,0,1,0,10.37l-.21,6.93c-2.05-.55-1.28-2.35-1.61-3.66,0-5,0-10-.1-15a1.64,1.64,0,0,1,1.16-1.39A2.37,2.37,0,0,0,145.23,375.79Z" transform="translate(-74.67 -357.74)"/><path class="cls-30" d="M432.89,499.76a72.9,72.9,0,0,1-1.23-11.69c.71-.91-.22-2.22.75-3.07.95,3.85.77,7.81,1.21,11.71C433,497.62,433.86,498.92,432.89,499.76Z" transform="translate(-74.67 -357.74)"/><path class="cls-13" d="M423.59,530.42c-3.11,1.41-3.82,1-3.83-2.36,0-1.41-.2-2.81-.31-4.22a.67.67,0,0,1,.85-.06c.4.84.55,1.79,1,2.61a9.83,9.83,0,0,0,2.5,3.23A.73.73,0,0,1,423.59,530.42Z" transform="translate(-74.67 -357.74)"/><path class="cls-8" d="M370.26,506.13c-1.41-1.62-1.67-3.12.33-4.52a2.41,2.41,0,0,0,1-2.07l2.16.72c.46.85-.09,1.52-.42,2.22-.93,1.07-1.1,2.61-2.23,3.55A.85.85,0,0,1,370.26,506.13Z" transform="translate(-74.67 -357.74)"/><path class="cls-31" d="M139.72,469.5q-.1,9.64-.2,19.29-.26.52-.51,0l-.18-2.68a71.41,71.41,0,0,1,0-13.24l.19-3.37A.45.45,0,0,1,139.72,469.5Z" transform="translate(-74.67 -357.74)"/><path class="cls-32" d="M397.33,460.81a9.26,9.26,0,0,1-4.2-.34l.05-.92h11.29c.68.62,1.79-.13,2.39.76-1.21.83-2.55.51-3.85.48A12.52,12.52,0,0,0,397.33,460.81Z" transform="translate(-74.67 -357.74)"/><path class="cls-33" d="M210.24,503.85c-1,1.54.47,2.47.79,3.7.27,1.07,2.06,3.6-1.54,2.92-.41-.08-.88.21-1.75.45,1.09-2.09,2.6-3.92.87-6.13-.29-.37.34-1.29,1-1.68C210.23,503,210.65,503.07,210.24,503.85Z" transform="translate(-74.67 -357.74)"/><path class="cls-13" d="M236.71,433.76l4.28-1.48a1,1,0,0,1,1.38-.14c-.22.95,1.92.25,1.11,1.54-.42.67-.46,1.49-2,1.29C239.83,434.75,238.16,434.86,236.71,433.76Z" transform="translate(-74.67 -357.74)"/><path class="cls-34" d="M420.87,385.05l.72-.71c1.11-.83,2.54.1,3.66-.67,2.16.45,4.57.16,6.4,2.14a2.3,2.3,0,0,1-3.41-.16,7.72,7.72,0,0,0-5,.21.94.94,0,0,1-1,0l.06-.25C421.9,385.3,421.22,385.57,420.87,385.05Z" transform="translate(-74.67 -357.74)"/><path class="cls-17" d="M230.28,449.45a6,6,0,0,1,.61,0l.23-.07a20.23,20.23,0,0,1,.17,5.71l1.05,5.8c-.19.35-.25.81-.76.89-1.05-.73-.14-2.33-1.31-3l-.06-4.68c-.53-1.27,0-2.68-.52-3.95v-.74C229.89,449.11,230.09,449.1,230.28,449.45Z" transform="translate(-74.67 -357.74)"/><path class="cls-35" d="M146.88,377.92l-.2-.75c.58-1.52-.49-4.91,3.23-2.88a2.84,2.84,0,0,0-1.75,3c.07,2.58,0,5.17-.1,7.75a.56.56,0,0,1-.87-.35C147,382.46,147.45,380.16,146.88,377.92Z" transform="translate(-74.67 -357.74)"/><path class="cls-36" d="M142.5,438.69c.84.51.47,1.47.78,2.17a21.17,21.17,0,0,1,0,7.19l-.19-.07a.65.65,0,0,1-1.21,0l-.24-5.73a3.42,3.42,0,0,1-.2-2C141.7,439.72,141.84,439,142.5,438.69Z" transform="translate(-74.67 -357.74)"/><path class="cls-37" d="M349,529.54l2.57-2.07c.95-.56,1.57-1.78,2.95-1.46.28.36.87,1,.81,1a8.28,8.28,0,0,1-6.33,3.28C348.5,530.06,348.5,529.8,349,529.54Z" transform="translate(-74.67 -357.74)"/><path class="cls-38" d="M207.46,441.61l-2.89,3.59c-.77.36-.82,1.85-2.13,1.38A4.33,4.33,0,0,1,207.46,441.61Z" transform="translate(-74.67 -357.74)"/><path class="cls-13" d="M428.77,530.13a.9.9,0,0,1,.29-.54,1.86,1.86,0,0,1,1.74.54l.78,1.61h0c-2.92,1.15-5.7,1.44-8-1.32l.13-.09a1.19,1.19,0,0,1,1.34-.38C426.28,530.23,427.5,530.8,428.77,530.13Z" transform="translate(-74.67 -357.74)"/><path class="cls-26" d="M178.35,421.49l-.87.72a2.49,2.49,0,0,1-1.47-2.1c-.42-.66-1-1.25-.84-2.15,0-1.48.24-2.9,1.63-3.8l.43.22a2.08,2.08,0,0,1,.7,1.23C177.34,417.62,179,419.48,178.35,421.49Z" transform="translate(-74.67 -357.74)"/><path class="cls-39" d="M387.41,445.73c1.27,4.24-.16,8.65.82,12.91-.92.58-1.41.06-1.8-.72l.3-4.22C387.53,451.09,386.3,448.31,387.41,445.73Z" transform="translate(-74.67 -357.74)"/><path class="cls-40" d="M156.8,385l-.14-2.07c-.52-2-.11-4.08-.24-6.11.27-.83-.71-2.16,1-2.45.28,3.34,1,6.66.7,10a2.37,2.37,0,0,1-.69.94A.48.48,0,0,1,156.8,385Z" transform="translate(-74.67 -357.74)"/><path class="cls-33" d="M379.47,486c-1.58-2.39-1.14-4.77,0-7.16.35-.58.64-1.77,1.17-1.5a1.57,1.57,0,0,1,.43,2.45C379.41,481.56,379.57,483.77,379.47,486Z" transform="translate(-74.67 -357.74)"/><path class="cls-41" d="M148.75,475.53l-1.14-10.35a.67.67,0,0,1,1.22,0l.69,7.17C148.84,473.32,149.79,474.67,148.75,475.53Z" transform="translate(-74.67 -357.74)"/><path class="cls-25" d="M359.41,467.31c-1.33,1.75-1.18,4.21-2.78,5.83-.53-.28-1.32-.94-1.05-1.22,2-1.93,1.55-4.85,3.05-6.94.52.08.58.55.77.9C359.4,466.36,359.4,466.84,359.41,467.31Z" transform="translate(-74.67 -357.74)"/><path class="cls-42" d="M157.48,370.74c-1.11-.09-2.29.25-3.38-.44,2.53-3.44,4.49-1.64,7,.74-1.61.06-2.62-2-3.64-.3Z" transform="translate(-74.67 -357.74)"/><path class="cls-43" d="M156.79,437.19l-6.21.23c-.83.24-1.1-.13-1-.91,2.92-1.34,5.85-1,8.79-.06C158.06,437.14,157.24,436.75,156.79,437.19Z" transform="translate(-74.67 -357.74)"/><path class="cls-44" d="M158.81,410.76a55.53,55.53,0,0,1-.05-15.61A131.12,131.12,0,0,1,158.81,410.76Z" transform="translate(-74.67 -357.74)"/><path class="cls-45" d="M386.43,457.92l1.8.72c1.25.13,2.56-.09,3.85.74-.92,2.23-5.57-1.69-4.86,2.92-.68.09-1-.09-.71-.85,0-1.1-.19-2.14-1.33-2.7a.6.6,0,0,1,.05-.92Z" transform="translate(-74.67 -357.74)"/><path class="cls-13" d="M231.29,455.13c0-1.9-.11-3.81-.17-5.71,1,.69.18,2,1.36,3.22v-6.73C232.9,449.09,234.19,452.46,231.29,455.13Z" transform="translate(-74.67 -357.74)"/><path class="cls-46" d="M410.76,405.75l0,6.52a.8.8,0,0,1-1.24,0c0-2.92-.57-5.88.54-8.73C410.87,404.11,410.22,405.11,410.76,405.75Z" transform="translate(-74.67 -357.74)"/><path class="cls-22" d="M228.81,522.54l.71.64c1.12.73,2.95.81,2.64,2.86-.21.53-.48,1-1.16.69-1.55-1.33-3.8-2-4.3-4.33A1.42,1.42,0,0,1,228.81,522.54Z" transform="translate(-74.67 -357.74)"/><path class="cls-47" d="M418.16,488.16l-.27-3.65c.25-1.73.49-3.46.73-5.19,1.09,1.6-.05,3.5.7,5.15a20.06,20.06,0,0,1-.48,6.64C417.9,490.29,418.75,489.06,418.16,488.16Z" transform="translate(-74.67 -357.74)"/><path class="cls-9" d="M364,390.56c-3.71-1.25-5.11-5-7.82-7.35,3.27,1.73,6.08,4,7.74,7.41Z" transform="translate(-74.67 -357.74)"/><path class="cls-30" d="M198.79,463c0,1.69,0,3.39,0,5.08-.55.87,0,1.91-.43,2.81a.75.75,0,0,1-.88,0c.31-3.38-.72-6.84.61-10.16C198.89,461.31,198.2,462.37,198.79,463Z" transform="translate(-74.67 -357.74)"/><path class="cls-48" d="M301,548.32l-2.9-.3a1.2,1.2,0,0,1-.09-1.16c2.24-1.07,4.67-.37,7-.74.67.29,1.72,0,1.69,1.27Z" transform="translate(-74.67 -357.74)"/><path class="cls-49" d="M361.75,452.49q0-7.25-.1-14.49c.2-.22.4-.24.6,0l.22,10.05a12.77,12.77,0,0,1,.17,3.95A.73.73,0,0,1,361.75,452.49Z" transform="translate(-74.67 -357.74)"/><path class="cls-50" d="M434.47,524.89c-.75-3.34.27-6.71-.16-10,0-.88-.93-2,.74-2.39C435.28,516.62,436.15,520.81,434.47,524.89Z" transform="translate(-74.67 -357.74)"/><path class="cls-49" d="M316.71,362l-7.3-1.57.18-.89a18.87,18.87,0,0,1,8,1.79C317.47,361.77,317,361.81,316.71,362Z" transform="translate(-74.67 -357.74)"/><path class="cls-51" d="M422.26,385.89l.74-.19c.22.16.3.33.23.49s-.14.26-.21.26c.83.79,1.43,1.85,2.66,2.17.19.05,1.74-.13.48.6-.89.53.26,1.83-.53,1.41a29.09,29.09,0,0,1-4.21-3.28A1.77,1.77,0,0,0,422.26,385.89Z" transform="translate(-74.67 -357.74)"/><path class="cls-13" d="M250.28,367.9v-.74h0c1.74-.49,1.45-4,4.29-2.86h0c.52.86,1.4.65,2.18.73a.67.67,0,0,1,0,.88,31.9,31.9,0,0,0-3.65,1.58C252.15,367.77,251.36,368.8,250.28,367.9Z" transform="translate(-74.67 -357.74)"/><path class="cls-52" d="M442.93,415c-1.34-2.82-.12-5.81-.56-8.7-.05-.32.42-.95.95-.64s.38,1,.27,1.59a9.91,9.91,0,0,0,0,4.9c0,1,.66,2.17-.75,2.78Z" transform="translate(-74.67 -357.74)"/><path class="cls-17" d="M150.42,493.81c-.06-2.41-1.34-4.7-.69-7.18.66-.92-.23-2.2.72-3,1.08,3.32.74,6.74.7,10.13l-.33.32Z" transform="translate(-74.67 -357.74)"/><path class="cls-51" d="M359,437l-.36,8.25C357,442.38,358.49,439.68,359,437Z" transform="translate(-74.67 -357.74)"/><path class="cls-51" d="M412.71,430.58c3.73.67.51,3.34,1.51,4.74-.35,0-.69.09-1,.11-.64,0-.89-.37-.58-.87C413.39,433.27,411.68,432.06,412.71,430.58Z" transform="translate(-74.67 -357.74)"/><path class="cls-28" d="M148.75,475.53c.31-1-.18-2.28.77-3.16.24,2.62.49,5.25.73,7.87-.62.69.16,1.84-.79,2.42C148.59,480.35,148.87,477.92,148.75,475.53Z" transform="translate(-74.67 -357.74)"/><path class="cls-8" d="M162.16,433.29c-2,3.11-4.13,1.16-6.81.78C157.9,433.55,159.69,432.54,162.16,433.29Z" transform="translate(-74.67 -357.74)"/><path class="cls-53" d="M299.52,358.53c0-.18,0-.37,0-.55,2.67.91,5.64-.12,8.28,1l-.06.94-8.19-.74c-.26-.13-.35-.27-.27-.41S299.44,358.53,299.52,358.53Z" transform="translate(-74.67 -357.74)"/><path class="cls-54" d="M299.52,358.53c0,.21,0,.42,0,.63l-12.87,0C290.89,357.74,295.25,359,299.52,358.53Z" transform="translate(-74.67 -357.74)"/><path class="cls-55" d="M421.75,451.11l-.11,1.08c.3.74,1.28.26,1.63.92-.32.93-2,.66-1.78,2.07-.36.64-.68,1.34-1.62.85l-1.19-.16.07.06c2.26-2.19,2-5.1,2.23-7.86C422.76,448.69,421.68,450.05,421.75,451.11Z" transform="translate(-74.67 -357.74)"/><path class="cls-56" d="M141.68,459.45l-1.22,6.69c-.85-.6-.17-1.65-.69-2.35a9.27,9.27,0,0,1,.62-4.91.47.47,0,0,1,.57-.38C141.33,458.71,141.46,459.12,141.68,459.45Z" transform="translate(-74.67 -357.74)"/><path class="cls-20" d="M256.63,501a5.61,5.61,0,0,1-4.25-4.31C254.71,497.17,256.53,498.21,256.63,501Z" transform="translate(-74.67 -357.74)"/><path class="cls-53" d="M138.82,472.87q0,6.61,0,13.23A32.22,32.22,0,0,1,138.82,472.87Z" transform="translate(-74.67 -357.74)"/><path class="cls-57" d="M334.6,538.14c.35-1.44,1.55-1.8,2.75-2.16.41-1,1.47-.91,2.24-1.3h0a.76.76,0,0,1,1-.17C339.48,537.25,337.12,537.81,334.6,538.14Z" transform="translate(-74.67 -357.74)"/><path class="cls-13" d="M231.82,435.89c0-3.47,2.68-1.6,4.18-2.07C235.79,436.91,233.34,435.44,231.82,435.89Z" transform="translate(-74.67 -357.74)"/><path class="cls-58" d="M239.09,480.13a11.1,11.1,0,0,1-3.24-6.39c2.72,1.28,2.46,4.48,4.11,6.45A.56.56,0,0,1,239.09,480.13Z" transform="translate(-74.67 -357.74)"/><path class="cls-8" d="M435.51,398.8v-6.33C437.83,394.71,437.19,396.74,435.51,398.8Z" transform="translate(-74.67 -357.74)"/><path class="cls-57" d="M387.41,445.73c-.65,2.62.46,5.39-.68,8l-.24-9.75c-.12-.71-.64-1.6.74-1.63Z" transform="translate(-74.67 -357.74)"/><path class="cls-59" d="M306.65,547.39l-1.67-.76c.1-.54.32-.91,1-.62l5.7-.61c.2.61.76,1.3-.53,1.41C309.62,546.94,308.13,547.19,306.65,547.39Z" transform="translate(-74.67 -357.74)"/><path class="cls-28" d="M269.5,508.33a15.27,15.27,0,0,1-5.74-2.93.65.65,0,0,1,.1-1,20.43,20.43,0,0,1,5.75,2.84A.75.75,0,0,1,269.5,508.33Z" transform="translate(-74.67 -357.74)"/><path class="cls-60" d="M356.6,473.67c-.26,1.54,1.74,4-1.65,4.29a2,2,0,0,0-1.19-1.42C353.6,474.47,354.71,473.68,356.6,473.67Z" transform="translate(-74.67 -357.74)"/><path class="cls-52" d="M270.92,360.69a13.92,13.92,0,0,1,5.81-1.3c.43.43,1.24,0,1.54.73-1.61.95-3.5.71-5.22,1.17C272.42,360.8,271.49,361.41,270.92,360.69Z" transform="translate(-74.67 -357.74)"/><path class="cls-61" d="M111.77,421.38c2.12-.76,4.24-1.39,6.45-.25C116.09,423.09,113.89,420.79,111.77,421.38Z" transform="translate(-74.67 -357.74)"/><path class="cls-62" d="M144.73,531.48c1.44,1.4,3.23,1,4.94.95-1.89,3-3.78,1.52-5.66,0A1,1,0,0,1,144.73,531.48Z" transform="translate(-74.67 -357.74)"/><path class="cls-13" d="M436.63,384.82c2.87,1.62,5.28,2.58,3.74,6.45C440.67,388.08,437.92,387.44,436.63,384.82Z" transform="translate(-74.67 -357.74)"/><path class="cls-63" d="M386.46,468.72c-.35,1.73-.15,3.62-1.72,5.76a15.75,15.75,0,0,1,1.05-7.31C386.45,467.5,386.1,468.26,386.46,468.72Z" transform="translate(-74.67 -357.74)"/><path class="cls-13" d="M275.25,548.91h3.46a14.55,14.55,0,0,1-8.7,1.21c1.83-1.11,3.85.32,5.25-1.21Z" transform="translate(-74.67 -357.74)"/><path class="cls-64" d="M135.5,378.9l-.76-1.7c.09-1.54-.1-3.16,1.34-4.28a1.58,1.58,0,0,1,1.19,1.07C137.38,375.87,137.45,377.75,135.5,378.9Z" transform="translate(-74.67 -357.74)"/><path class="cls-65" d="M428.83,456.58l-.28-10,.27-.7c1.46.1.78,1.06.7,1.77v5.72C429.53,454.5,430.6,455.85,428.83,456.58Z" transform="translate(-74.67 -357.74)"/><path class="cls-44" d="M353.76,476.54c1,0,.56-1.65,1.79-1.38.75,1.11-.74,1.8-.6,2.8-.68.39-.59,1.77-1.84,1.41C352.23,478.17,353.11,477.38,353.76,476.54Z" transform="translate(-74.67 -357.74)"/><path class="cls-66" d="M151.68,525.83c.28.76-.1,1.72.73,2.31-.28,1.88-.45,3.83-2.81,4.36Z" transform="translate(-74.67 -357.74)"/><path class="cls-67" d="M415.81,390.73c-.86-3.19,2.09-3.53,3.65-4.9.32.2.76.27.85.73-.89,1.05-2.38,1.45-3,2.8A2.36,2.36,0,0,1,415.81,390.73Z" transform="translate(-74.67 -357.74)"/><path class="cls-68" d="M419.32,484.47c-1.19-1.59-.13-3.48-.7-5.15l.21-4.79c1.8.7.69,2.07.72,3.18C419.48,480,419.4,482.22,419.32,484.47Z" transform="translate(-74.67 -357.74)"/><path class="cls-21" d="M203.76,491.12a9.68,9.68,0,0,1-2-5.18l.41-.28c1.27-.15,1.68.81,2.16,1.68a5.28,5.28,0,0,1,.52,2.87A1.45,1.45,0,0,1,203.76,491.12Z" transform="translate(-74.67 -357.74)"/><path class="cls-69" d="M202.44,446.58c.7-.48,1.07-1.46,2.13-1.38-.23.72-.46,1.44-.68,2.16-1.3.59-.78,2.75-2.61,3C200.54,448.71,202.09,447.82,202.44,446.58Z" transform="translate(-74.67 -357.74)"/><path class="cls-70" d="M430.8,476.73c-.91-1.89-.64-3.89-.54-5.87.41-.42.06-1.19.7-1.5a8,8,0,0,1,.51,4.48C430.84,474.71,431.66,475.92,430.8,476.73Z" transform="translate(-74.67 -357.74)"/><path class="cls-28" d="M198,471.2c.36-1-.16-2.25.78-3.11l.72,6.44c-.39.39-.1,1.07-.62,1.4-.73-.54-.57-1.44-.85-2.16S197.46,472.06,198,471.2Z" transform="translate(-74.67 -357.74)"/><path class="cls-17" d="M429.52,447.66c-.09-.65-.09-1.33-.7-1.77.09-1.77.13-3.56,1.62-4.91C429.87,443.19,430.57,445.54,429.52,447.66Z" transform="translate(-74.67 -357.74)"/><path class="cls-15" d="M200.3,418.62c-1.11-2.91.26-3.74,2.91-3.5a1,1,0,0,1-.08,1.45l.07-.08c-.74.74-1.49,1.48-2.22,2.23l.09-.08C200.8,419,200.55,419,200.3,418.62Z" transform="translate(-74.67 -357.74)"/><path class="cls-30" d="M157.37,374.34c-.79.61-.53,1.56-.74,2.35a.55.55,0,0,1-.47-.47,1.07,1.07,0,0,0-.88-1.33,1.25,1.25,0,0,1-.73-.62c0-.92-.25-2.07,1.1-2.1S157.25,373.25,157.37,374.34Z" transform="translate(-74.67 -357.74)"/><path class="cls-71" d="M260.93,504.31c-1.11-.91-2.72-1.14-3.48-2.54,1.81-.85,3,.36,4.27,1.31C262.14,503.93,261.58,504.14,260.93,504.31Z" transform="translate(-74.67 -357.74)"/><path class="cls-12" d="M407.09,459.34l5.25-1.16c.48.38,1.28,0,1.61.69a9.08,9.08,0,0,1-4.52,1.24C408.77,459.47,407.66,460.23,407.09,459.34Z" transform="translate(-74.67 -357.74)"/><path class="cls-72" d="M200.3,418.62l.77,0c-.72,1.52-2.28,2.18-3.38,3.31.26.19.33.33.2.42a.57.57,0,0,1-.34.09c-.67-.33-1.15-.76-.8-1.6C197.94,420.13,198.66,418.65,200.3,418.62Z" transform="translate(-74.67 -357.74)"/><path class="cls-73" d="M245,371.26c.29,2.57-2.27,1.92-3.33,3a1,1,0,0,1-.67-.62c.86-1.65,2.47-2,4.07-2.29Z" transform="translate(-74.67 -357.74)"/><path class="cls-62" d="M334.41,368.11c2-.23,3.2.83,4.3,2.53-2.1.13-3.61-.32-4.22-2.35Z" transform="translate(-74.67 -357.74)"/><path class="cls-74" d="M191,424.36c-1,.43-1.46-.44-2.14-.77,1.09-1.87,2.49-2.58,4.47-1.23-.05,1.53-1.83,1.1-2.36,2.08Z" transform="translate(-74.67 -357.74)"/><path class="cls-75" d="M140.22,432.3l.88,1.39a1,1,0,0,1-.82.85c-1.39-.52-3-.47-4.13-1.68.49-.88,1.3-.45,1.92-.65C138.81,431.69,139.51,432,140.22,432.3Z" transform="translate(-74.67 -357.74)"/><path class="cls-49" d="M203.13,416.57l.08-1.45,2.78-2.89c.69-.15,1.07,0,.78.81C205.84,414.51,205.06,416.13,203.13,416.57Z" transform="translate(-74.67 -357.74)"/><path class="cls-9" d="M141.91,448h.59a12.1,12.1,0,0,1,.07,5.86c-.06.77.34,1.7-.76,2.09-.45-.07-.43-.52-.64-.78Q141.53,451.61,141.91,448Z" transform="translate(-74.67 -357.74)"/><path class="cls-76" d="M152.38,502.41h-.59c-.21.35-.41.35-.61,0l-.22-4.66a6.06,6.06,0,0,1,.06-3.88l.13-.13c1.23,1.15.69,2.6.69,4,.53,1.29,0,2.72.54,4Z" transform="translate(-74.67 -357.74)"/><path class="cls-77" d="M146,440.87l-.09,9.29c-1.17-1.53-.28-3.37-.77-5C145.62,443.76,144.75,442.1,146,440.87Z" transform="translate(-74.67 -357.74)"/><path class="cls-8" d="M250.27,367.16c-1.42,1-1.89-2.07-3.38-.8a.91.91,0,0,1,.39-1.19c.66-.37,1.42-1.17,2.11-.24a8.94,8.94,0,0,1,.88,2.23Z" transform="translate(-74.67 -357.74)"/><path class="cls-64" d="M384.62,428.47c1,1.52,1,3.23,1.42,5.68-2.11-1.66-1.76-3.37-2.15-4.78C384.1,429,384.13,428.57,384.62,428.47Z" transform="translate(-74.67 -357.74)"/><path class="cls-78" d="M213.58,397.44c.39-2.05.84-3.92,3.72-4.74Z" transform="translate(-74.67 -357.74)"/><path class="cls-42" d="M363.81,519.09c1,.83,2.65,1,2.06,2.54-.17.43-.94.59-1.57.32C362.63,521.22,364.19,520,363.81,519.09Z" transform="translate(-74.67 -357.74)"/><path class="cls-69" d="M144.73,531.48l-.72.94a7.21,7.21,0,0,1-2.92-3.55c.22-.3.29-.74.75-.83l1,1Z" transform="translate(-74.67 -357.74)"/><path class="cls-79" d="M208.87,440.93a.69.69,0,0,0-.63-.24c.53-2.17,2.54-2.73,4.09-3.78a.87.87,0,0,1,.14,1.17l-3,2.73A1,1,0,0,0,208.87,440.93Z" transform="translate(-74.67 -357.74)"/><path class="cls-80" d="M263.22,362.71c1.6-.38,3.1-1.34,4.87-1.12.07,1.9-1.75.84-2.21,1.75C264.67,364.52,263.85,364,263.22,362.71Z" transform="translate(-74.67 -357.74)"/><path class="cls-24" d="M198.87,475.93c.21-.46.41-.93.62-1.4l.89,2.82a1.63,1.63,0,0,1,.19,2,.65.65,0,0,1-.95.12C198.44,478.51,197.62,477.44,198.87,475.93Z" transform="translate(-74.67 -357.74)"/><path class="cls-81" d="M340.9,494.42l1.93-1.43a1.08,1.08,0,0,1,1.32.22c-1.72,1.49-2.69,4-5.39,4.19C338.8,495.92,340.39,495.56,340.9,494.42Z" transform="translate(-74.67 -357.74)"/><path class="cls-69" d="M210.24,503.85l-.63-.74c.14-1.58-1.92-2.48-1.34-4.23C210.89,500.66,211.3,501.71,210.24,503.85Z" transform="translate(-74.67 -357.74)"/><path class="cls-30" d="M151.84,375l-.2,1.49c-.52,1.42-.1,2.9-.25,4.34a1,1,0,0,1-.46.81l-.46-.18c-.28-2.39.37-4.85-.45-7.21A1.71,1.71,0,0,1,151.84,375Z" transform="translate(-74.67 -357.74)"/><path class="cls-8" d="M205.3,450.16c-.21,1,1.44,2.3-.12,3-1,.48-1.91-.3-2-1.57Z" transform="translate(-74.67 -357.74)"/><path class="cls-82" d="M433.09,387.52c1.73.13,2.93.82,3.17,2.49,0,.15-.3.52-.41.5C434.21,390.21,433.78,388.75,433.09,387.52Z" transform="translate(-74.67 -357.74)"/><path class="cls-83" d="M360.3,456.62c.21.47.41.94.61,1.41.87,1.44-.17,2.49-.77,4.24C358.91,460,360.22,458.3,360.3,456.62Z" transform="translate(-74.67 -357.74)"/><path class="cls-13" d="M254.56,364.3c-.69-1.25-2.2-.24-3.31-1.34,1.49-.4,2.72-1.46,4,0,.61.71.3,1.26-.68,1.33Z" transform="translate(-74.67 -357.74)"/><path class="cls-84" d="M385.23,457.83c0,.31,0,.61-.05.92l-2.85-.71c-.44-.75-1.72-1-1.42-2.19l.32-.26c.43-.11.82-.1,1.06.36Z" transform="translate(-74.67 -357.74)"/><path class="cls-85" d="M428.83,456.58c.93-.91.47-2.13.69-3.19a10.32,10.32,0,0,1,.52,4.68c-.65.91.25,2.2-.72,3A9.55,9.55,0,0,1,428.83,456.58Z" transform="translate(-74.67 -357.74)"/><path class="cls-86" d="M261.54,364.94c-1-.11-1.61,1.29-2.72.7-.45-.31-1.14-.05-1.46-.65a4.12,4.12,0,0,1,4.17-1.33C262.12,364.08,262.12,364.51,261.54,364.94Z" transform="translate(-74.67 -357.74)"/><path class="cls-87" d="M330.94,367.12c-1.77-.11-3.07-1.06-5-2.71,2.48.2,3.84.8,5,1.92C331.35,366.61,331.34,366.87,330.94,367.12Z" transform="translate(-74.67 -357.74)"/><path class="cls-1" d="M157.39,420.65c-.79,1.1,3.69,4.52-1.6,3.64a2.26,2.26,0,0,1,0-2C156.34,421.8,156.27,420.65,157.39,420.65Z" transform="translate(-74.67 -357.74)"/><path class="cls-53" d="M380.91,455.85c-2.24-.67-3.43-1.86-2.17-4.3l2.06,3a.88.88,0,0,1,.08,1.42Z" transform="translate(-74.67 -357.74)"/><path class="cls-10" d="M412.2,423.7c-.41,1.43-1.72.27-2.43.84-.61-1-.26-2-.19-3.08l2.22,1.43a.58.58,0,0,1,.74.17A.49.49,0,0,1,412.2,423.7Z" transform="translate(-74.67 -357.74)"/><path class="cls-37" d="M197.41,421.78l.28.17c.33.36,1.74-.09.92,1.08-1.06,1.51-2.57,1.11-4,.66-.29-.59.09-.91.49-1.22A3.17,3.17,0,0,1,197.41,421.78Z" transform="translate(-74.67 -357.74)"/><path class="cls-73" d="M231.58,461.82l.76-.89a7.81,7.81,0,0,1,.82,4.91.59.59,0,0,1-.12,1A10.48,10.48,0,0,1,231.58,461.82Z" transform="translate(-74.67 -357.74)"/><path class="cls-70" d="M233.85,426.57c-.35,1.51-.3,3.17-1.61,4.67-1.16-1.58.4-2.75.14-4Z" transform="translate(-74.67 -357.74)"/><path class="cls-88" d="M433.08,435.16c-1.07-2.49,1.48-2.94,2.41-4.3l.08,0c.16,1.85-1.43,2.85-2.09,4.31Z" transform="translate(-74.67 -357.74)"/><path class="cls-89" d="M362.25,438H361c.13-1.79.5-3.44,2.39-4.22a.73.73,0,0,1,.7.52c.11.78-.49,1.12-1,1.54Z" transform="translate(-74.67 -357.74)"/><path class="cls-90" d="M411,415c1,1.57.73,3.46,1.29,5.14-.25.29-.31.74-.74.86a10.17,10.17,0,0,1-1.19-4.51C410.67,416,410.34,415.3,411,415Z" transform="translate(-74.67 -357.74)"/><path class="cls-79" d="M425.59,444.4c-1.28-.27-2.61-.76-3.31,1-1.41-1.07-.37-2,.43-2.4a2.22,2.22,0,0,1,3.34,1.35Z" transform="translate(-74.67 -357.74)"/><path class="cls-91" d="M420.26,465.22c.05.72.1,1.43.16,2.15-.05,2.15.64,4.31-.16,6.44l-.23-.11c-1.77-.7-.65-2-.7-3.13l.24-5.36A.43.43,0,0,1,420.26,465.22Z" transform="translate(-74.67 -357.74)"/><path class="cls-80" d="M372.41,402.92c-1-1.38-2.53-2.46-2.94-4.27a.52.52,0,0,1,.82,0l1.3.75c1.25.51,1.38,1.75,1.8,2.79C373.3,402.72,373.05,403.07,372.41,402.92Z" transform="translate(-74.67 -357.74)"/><path class="cls-92" d="M373.12,402.07l-1.53-2.7c.79-.13,1.2-1.39,2.08-.92,1.43.75-.17,1.5-.13,2.26a6.49,6.49,0,0,0,.33,1.35l-.37.35Z" transform="translate(-74.67 -357.74)"/><path class="cls-93" d="M373,502.35l.77-2.09,2-1.26c-.29,1.82-1.37,2.86-2.11,4.08C373.1,503.16,372.72,503.06,373,502.35Z" transform="translate(-74.67 -357.74)"/><path class="cls-94" d="M417.89,511l.24-.78c.7-1.14-.3-2.6.71-3.67a9.18,9.18,0,0,1,.46,4.5c-.64,1.16.33,2.63-.69,3.73Z" transform="translate(-74.67 -357.74)"/><path class="cls-73" d="M384.81,474.61a6.87,6.87,0,0,1-1.6,5.41A7.94,7.94,0,0,1,384.81,474.61Z" transform="translate(-74.67 -357.74)"/><path class="cls-35" d="M240.92,533.36c-1.25-.62-2.64-1.06-3.39-2.4a.85.85,0,0,1,.57-.59c1.22.68,3,.42,3.61,2.08A1,1,0,0,1,240.92,533.36Z" transform="translate(-74.67 -357.74)"/><path class="cls-95" d="M261.79,542.23a13.43,13.43,0,0,1,4.83,1.73c-2.27.93-3.6,0-5-.71A.69.69,0,0,1,261.79,542.23Z" transform="translate(-74.67 -357.74)"/><path class="cls-90" d="M377.16,437.77a.4.4,0,0,1-.44.21c-.25.32-.46.3-.64-.07,0-1.41-1.2-2.27-1.58-3.5a.89.89,0,0,1,.72-.78C376.53,434.7,377.79,435.79,377.16,437.77Z" transform="translate(-74.67 -357.74)"/><path class="cls-30" d="M243.18,486c-2.06-.27-2.4-2.06-3.1-3.53a.73.73,0,0,1,1.06-.14A4.66,4.66,0,0,1,243.18,486Z" transform="translate(-74.67 -357.74)"/><path class="cls-31" d="M442.18,400.12c.12.45.27.89.37,1.34.16.72,1,1.83,0,2.07-1.15.28-1.83-.69-1.5-2C441.41,401.05,440.88,399.84,442.18,400.12Z" transform="translate(-74.67 -357.74)"/><path class="cls-70" d="M442.18,400.12c-.38.47-.75.94-1.13,1.4l-1-2.88c-.48-.92-.24-1.51.8-1.74A7.14,7.14,0,0,1,442.18,400.12Z" transform="translate(-74.67 -357.74)"/><path class="cls-96" d="M435.05,512.45c-.78.63-.45,1.6-.74,2.39a6.47,6.47,0,0,1-.49-3.88c.66-.9-.21-2.16.7-3A9,9,0,0,1,435.05,512.45Z" transform="translate(-74.67 -357.74)"/><path class="cls-50" d="M410.76,405.75l-.67-2.21c.05-1.2-.09-2.45.74-3.48.24-.35.47-.34.69,0C411.27,402,411,403.85,410.76,405.75Z" transform="translate(-74.67 -357.74)"/><path class="cls-54" d="M269.5,508.33c0-.35.07-.7.11-1.05a9,9,0,0,1,4.25,1.55c-.31.59-1,.3-1.44.69A3.74,3.74,0,0,1,269.5,508.33Z" transform="translate(-74.67 -357.74)"/><path class="cls-61" d="M440.89,396.9c-1.05.22-.69,1.09-.8,1.74-1.24-1.42-1.6-.72-1.4,1.23-1.22-1.9-.38-3.08.14-4.29.88-.06,1.43.55,2.06,1Z" transform="translate(-74.67 -357.74)"/><path class="cls-97" d="M250.28,367.9c1,0,1.84-.84,2.89-.43l-.07.09c-.65,1.65-2.34,1.65-3.61,2.3-.34-.13-.73-.18-.77-.65Z" transform="translate(-74.67 -357.74)"/><path class="cls-83" d="M233,466.84l.12-1c1.61,1.35,1.66,3.24,2.18,5.73A6.64,6.64,0,0,1,233,466.84Z" transform="translate(-74.67 -357.74)"/><path class="cls-73" d="M248.72,369.21l.77.65c-1.39.76-2.74,1.65-4.45,1.41l.07.05C246.13,370.31,247,369,248.72,369.21Z" transform="translate(-74.67 -357.74)"/><path class="cls-98" d="M206.09,493.68c.44.55.88,1.11,1.31,1.67,0,.87,1.09,1.53.57,2.74-1.87-.67-2.05-2.26-2.6-3.59C205.57,494.19,205.63,493.76,206.09,493.68Z" transform="translate(-74.67 -357.74)"/><path class="cls-9" d="M144.66,375.65l-.63.82a6.74,6.74,0,0,0-2.22-.92,2.18,2.18,0,0,1-.84-.4.65.65,0,0,1,.1-.83h0c.77-.69,1.1-2.52,2.73-1.1A2.43,2.43,0,0,1,144.66,375.65Z" transform="translate(-74.67 -357.74)"/><path class="cls-66" d="M199.62,479.5l.88,0c1.71.62,1.74,2,1.6,3.5a1.66,1.66,0,0,1-1.18,1A7.63,7.63,0,0,1,199.62,479.5Z" transform="translate(-74.67 -357.74)"/><path class="cls-35" d="M431.42,484.09a10.83,10.83,0,0,1-.42-5.36c.2-.29.24-.71.67-.79a4.15,4.15,0,0,1,.51,3C431.52,481.91,432.46,483.24,431.42,484.09Z" transform="translate(-74.67 -357.74)"/><path class="cls-66" d="M251,539.12c2.84-.65,4,.3,5.52,1.55C254.38,541.23,253.24,540.05,251,539.12Z" transform="translate(-74.67 -357.74)"/><path class="cls-57" d="M386,440.12c-.07-1.9-1.16-3.72-.55-6,1.54,1.66,1.08,3.47,1.3,5.11C387,440,386.71,440.19,386,440.12Z" transform="translate(-74.67 -357.74)"/><path class="cls-99" d="M276.45,546.9l-3.33-.16-.17-.18-.22.09a.58.58,0,0,1-.53-.48c.17-.4.57-.52.9-.72l2.08.09c.79,1,2,.21,2.88.65C278,547.56,277.13,547,276.45,546.9Z" transform="translate(-74.67 -357.74)"/><path class="cls-100" d="M351.33,379.53a4.73,4.73,0,0,1-3-2.9c1.43.39,3,.58,3.31,2.63Z" transform="translate(-74.67 -357.74)"/><path class="cls-101" d="M247.44,491.71c-1.68-.25-2.41-1.45-2.87-2.92a1,1,0,0,1,.6-.54C246.52,489,247.74,489.86,247.44,491.71Z" transform="translate(-74.67 -357.74)"/><path class="cls-13" d="M272.3,546.1a2.1,2.1,0,0,1,.43.55,6.38,6.38,0,0,1-4.61.12h0l-.72-1.39a2,2,0,0,1,2-.6A6.44,6.44,0,0,1,272.3,546.1Z" transform="translate(-74.67 -357.74)"/><path class="cls-102" d="M261.79,542.23l-.13,1c-.76-.17-1.54-.32-2.29-.55s-1.64-.25-1.28-1.16,1.37-.32,2.1-.27l1.52.48A1.1,1.1,0,0,1,261.79,542.23Z" transform="translate(-74.67 -357.74)"/><path class="cls-103" d="M240.92,533.36l.79-.91,3,2c-.06.48-.49.55-.82.73A5.87,5.87,0,0,1,240.92,533.36Z" transform="translate(-74.67 -357.74)"/><path class="cls-103" d="M375.22,433.63l-.72.78-1.47-.67,0,0c-.15-.79-1.87-.7-1.19-1.78.46-.75,1.3-.1,1.86.29A16.92,16.92,0,0,1,375.22,433.63Z" transform="translate(-74.67 -357.74)"/><path class="cls-9" d="M148.19,465.19h-.58l-.24-4a6.34,6.34,0,0,1,.08-3.9h.64l.23,4A6,6,0,0,1,148.19,465.19Z" transform="translate(-74.67 -357.74)"/><path class="cls-104" d="M231,526.73l.7-.68a.89.89,0,0,1,1.42,0c.18,1,2.25.85,1.54,2.45l.11-.08C232.91,529.2,232.27,527.27,231,526.73Z" transform="translate(-74.67 -357.74)"/><path class="cls-70" d="M173.4,430.93c1.52.48,2.07-1.44,3.42-1.4a.37.37,0,0,1,.32.42C176,430.79,175.48,433.8,173.4,430.93Z" transform="translate(-74.67 -357.74)"/><path class="cls-28" d="M141.84,528l-.75.83c-.88-1.35-2.47-2.46-1.46-4.44A10.12,10.12,0,0,1,141.84,528Z" transform="translate(-74.67 -357.74)"/><path class="cls-48" d="M136.83,426.53a9.52,9.52,0,0,1,2.09,3.6c-.24.3-.32.74-.77.83A7.39,7.39,0,0,1,136,426.6.56.56,0,0,1,136.83,426.53Z" transform="translate(-74.67 -357.74)"/><path class="cls-105" d="M425.59,444.4a.3.3,0,0,0,.46-.09l1.19,2.28c-.58.91-.19,2.22-1.24,2.93-.28.35-.49.3-.65-.11C426.23,447.78,425.79,446.09,425.59,444.4Z" transform="translate(-74.67 -357.74)"/><path class="cls-77" d="M143.31,448.05l0-7.19,1.34,1.42C143,443.93,144.8,446.37,143.31,448.05Z" transform="translate(-74.67 -357.74)"/><path class="cls-58" d="M157.58,413c.24.51.49,1,.74,1.54-.11,1.42,0,2.88-.91,4.12-.21.34-.41.34-.61,0Z" transform="translate(-74.67 -357.74)"/><path class="cls-35" d="M195.31,423l-.72.74-3.59.75c-.31-1.94,1.83-1.09,2.36-2.08l1.14-.14C195.24,421.93,195.39,422.31,195.31,423Z" transform="translate(-74.67 -357.74)"/><path class="cls-8" d="M382.61,417.65a30.61,30.61,0,0,0-1.06-4C382.75,414.58,384.42,415.37,382.61,417.65Z" transform="translate(-74.67 -357.74)"/><path class="cls-106" d="M310.09,510.91l1.55.71c-1,1.55-2.43,1.71-4.05,1.28a1.86,1.86,0,0,1-1.08-1.27C307.6,510.85,308.87,511,310.09,510.91Z" transform="translate(-74.67 -357.74)"/><path class="cls-79" d="M316.47,544.49c1.1-.91,2.5-.87,3.77-1.22.31.25.78.3.92.76a8.69,8.69,0,0,1-3.84,1.17C317,545,316.56,545,316.47,544.49Z" transform="translate(-74.67 -357.74)"/><path class="cls-107" d="M325.06,363.76c-2.14.84-3.08-.22-4.13-.94C322.38,362.18,323.44,362.87,325.06,363.76Z" transform="translate(-74.67 -357.74)"/><path class="cls-108" d="M261.54,364.94v-1.28a2.16,2.16,0,0,0,1.69-1c.65,1.24,1.66.9,2.66.63C264.8,364.87,263.2,365,261.54,364.94Z" transform="translate(-74.67 -357.74)"/><path class="cls-39" d="M431.42,484.09c.33-1-.18-2.25.76-3.13.08,1.35.16,2.7.23,4-.3,1,.24,2.23-.75,3.07Z" transform="translate(-74.67 -357.74)"/><path class="cls-64" d="M381.56,484.5a6.92,6.92,0,0,1,1.53-4.19,4.17,4.17,0,0,1-.78,4.2A.47.47,0,0,1,381.56,484.5Z" transform="translate(-74.67 -357.74)"/><path class="cls-27" d="M343.93,372.85c-2.18.86-3-.77-4.19-.92a1.27,1.27,0,0,1,0-.87.86.86,0,0,1,.84-.14C341.5,371.39,342.38,371.94,343.93,372.85Z" transform="translate(-74.67 -357.74)"/><path class="cls-109" d="M351.68,379.26c2-.38,2.34,1.48,3.45,2.33-2,.57-2.72-1.06-3.8-2.06A1,1,0,0,0,351.68,379.26Z" transform="translate(-74.67 -357.74)"/><path class="cls-62" d="M244.25,430.17a4.55,4.55,0,0,1,3.93-3.13A4,4,0,0,1,244.25,430.17Z" transform="translate(-74.67 -357.74)"/><path class="cls-47" d="M142.43,433.82c1.58-.7,2.83,1.1,4.39.58-1.52,1.36-3.37.42-5,.75C141.41,434.42,141.92,434.12,142.43,433.82Z" transform="translate(-74.67 -357.74)"/><path class="cls-92" d="M373.87,402.06c2.74.24,1.84,2.32,2,3.89-.58.1-.89-.27-1.18-.66-.62-.9-1.72-1.65-1-3Z" transform="translate(-74.67 -357.74)"/><path class="cls-110" d="M164.05,437.37a7.75,7.75,0,0,1-5.33,0c.58-.84,1.63-.15,2.3-.71h2.19C163.5,436.89,163.94,436.93,164.05,437.37Z" transform="translate(-74.67 -357.74)"/><path class="cls-59" d="M346.61,489.56c-.34-1.16.75-1.84.95-2.82l1.17-.88a1.17,1.17,0,0,1,.64.75C348.89,488,348.31,489.31,346.61,489.56Z" transform="translate(-74.67 -357.74)"/><path class="cls-44" d="M150.32,431.63c-.45-2.37,1.78-2.69,2.91-3.86C153.23,429.79,151.63,430.6,150.32,431.63Z" transform="translate(-74.67 -357.74)"/><path class="cls-54" d="M242.37,432.14l-1.38.14-.88-.84c1.27-.78,2.53-1.61,4.14-1.33Z" transform="translate(-74.67 -357.74)"/><path class="cls-18" d="M432.89,499.76c.32-1-.23-2.21.73-3.05a21.21,21.21,0,0,1,0,7.11h-.48C433,502.46,433,501.11,432.89,499.76Z" transform="translate(-74.67 -357.74)"/><path class="cls-80" d="M338,498.26l-.61,1.5A2.39,2.39,0,0,1,335,501.3c-.48-.23-.88-.49-.55-1.12C335.55,499.36,336.21,497.76,338,498.26Z" transform="translate(-74.67 -357.74)"/><path class="cls-111" d="M373,502.35l.66.73c-.44,1.12-.68,2.37-1.94,2.94a.58.58,0,0,1-.87-.06C371.64,504.79,371.49,503.07,373,502.35Z" transform="translate(-74.67 -357.74)"/><path class="cls-27" d="M441.46,421.54a7.64,7.64,0,0,1-2.57,4.47,8.38,8.38,0,0,1,1.79-4.53C441,421.1,441.23,421.13,441.46,421.54Z" transform="translate(-74.67 -357.74)"/><path class="cls-112" d="M430,468.22a4.14,4.14,0,0,1-.47-3.08c.64-.91-.28-2.2.73-3a8.09,8.09,0,0,1,.49,4.56C430.33,467.09,430.72,467.91,430,468.22Z" transform="translate(-74.67 -357.74)"/><path class="cls-113" d="M430.29,462.11c-.43,1,.19,2.19-.73,3l-.24-4c.37-1-.21-2.19.72-3C430.13,459.42,430.21,460.77,430.29,462.11Z" transform="translate(-74.67 -357.74)"/><path class="cls-114" d="M418.61,514.77c.44-1.21-.31-2.63.69-3.73l.23,5.37c.12.72.71,1.63-.7,1.72C418.76,517,418.69,515.89,418.61,514.77Z" transform="translate(-74.67 -357.74)"/><path class="cls-52" d="M201.06,453.75l-1.37,3c-.66-.33-.29-1.12-.72-1.55.22-.77.43-1.53.64-2.3.14-.52.57-.83,1-.66C201.27,452.51,201,453.21,201.06,453.75Z" transform="translate(-74.67 -357.74)"/><path class="cls-115" d="M419.87,456l1.62-.85a8.12,8.12,0,0,1-.54,4.41c-.43-.09-.46-.49-.61-.79C420.18,457.88,420,457,419.87,456Z" transform="translate(-74.67 -357.74)"/><path class="cls-116" d="M249.52,422.91c.08-1.21-.11-2.47.73-3.51,1.29,1.42.51,2.85,0,4.27C249.58,423.81,249.21,423.69,249.52,422.91Z" transform="translate(-74.67 -357.74)"/><path class="cls-25" d="M238.87,418.74l2.16-.66c.28.2.69.24.79.66a15.38,15.38,0,0,1-4.46,2.35C237.4,420,238.26,419.46,238.87,418.74Z" transform="translate(-74.67 -357.74)"/><path class="cls-117" d="M418.68,455.87c.35,1.16-.54,1.38-1.29,1.71s-1.29,1-1.78,0,.54-1.1,1.09-1.31a11.67,11.67,0,0,1,2.06-.35Z" transform="translate(-74.67 -357.74)"/><path class="cls-115" d="M381.05,419.36a4.24,4.24,0,0,1-1.6-3.53.4.4,0,0,1,.68,0,4.16,4.16,0,0,1,1.49,3.55A.32.32,0,0,1,381.05,419.36Z" transform="translate(-74.67 -357.74)"/><path class="cls-53" d="M367.46,395.76a5.42,5.42,0,0,1-2.29-2.75c-.37-.71.06-.78.6-.77a7.8,7.8,0,0,1,2.27,2.88C368.33,395.77,368,395.89,367.46,395.76Z" transform="translate(-74.67 -357.74)"/><path class="cls-118" d="M366.39,432c2.19-1.32,3.36-1.39,4.81-.43C369.81,432.75,368.58,432.23,366.39,432Z" transform="translate(-74.67 -357.74)"/><path class="cls-87" d="M419.33,470.57c.32,1-.22,2.24.7,3.13a8.51,8.51,0,0,1-.48,4c-.33-1,.23-2.27-.72-3.17A7.44,7.44,0,0,1,419.33,470.57Z" transform="translate(-74.67 -357.74)"/><path class="cls-119" d="M421.75,451.11c-.47-1,.21-2.21-.77-3-.05-1.06-.68-2.46,1.34-2.3C422.07,447.54,422.63,449.4,421.75,451.11Z" transform="translate(-74.67 -357.74)"/><path class="cls-26" d="M270.92,360.69c.72.18,1.56-.11,2.13.6l-4.26.8C268.94,360.22,270.17,360.94,270.92,360.69Z" transform="translate(-74.67 -357.74)"/><path class="cls-70" d="M253.1,367.56l.07-.09c.64-1.53,2.1-1.63,3.42-2a.62.62,0,0,1,.11,1C255.55,367,254.59,368.17,253.1,367.56Z" transform="translate(-74.67 -357.74)"/><path class="cls-120" d="M330.94,367.12l0-.79c1.32.27,2.79.24,3.45,1.78l.08.18C333.07,368.62,332.1,367.58,330.94,367.12Z" transform="translate(-74.67 -357.74)"/><path class="cls-93" d="M245.17,488.25l-.6.54-1.33-.18.07.09-.21-2.8A3,3,0,0,1,245.17,488.25Z" transform="translate(-74.67 -357.74)"/><path class="cls-8" d="M408.18,393.24c.75,1,1.85,1.47,1.62,2.71,0,.1-.66.18-.95.09C407.21,395.54,408.27,394.41,408.18,393.24Z" transform="translate(-74.67 -357.74)"/><path class="cls-1" d="M364.8,448.47a2.72,2.72,0,0,1-.57,3.51C363.46,450.56,364,449.6,364.8,448.47Z" transform="translate(-74.67 -357.74)"/><path class="cls-121" d="M134.58,421.66l.67-1.52c.25,1.42.51,2.84.77,4.27a1,1,0,0,1-.72.39.78.78,0,0,1-.61-.51Z" transform="translate(-74.67 -357.74)"/><path class="cls-31" d="M252.45,496.71c-1-.41-3.35.47-2.13-2.16C251.77,494.54,252.3,495.44,252.45,496.71Z" transform="translate(-74.67 -357.74)"/><path class="cls-50" d="M434.52,508c-.38,1,.26,2.17-.7,3l-.21-3.35a3.87,3.87,0,0,1,.12-3.11C435.08,505.4,434.35,506.79,434.52,508Z" transform="translate(-74.67 -357.74)"/><path class="cls-54" d="M149.6,436.51l1,.91c-.86.59-1.35,1.75-2.61,1.72a1,1,0,0,1-.69-.44c-.18-.68.42-1,.7-1.44C148.28,436.48,149,436.54,149.6,436.51Z" transform="translate(-74.67 -357.74)"/><path class="cls-122" d="M359.4,465.88l-.77-.9c.16-1-.15-2.07,1.14-2.92C360.6,463.53,359.82,464.7,359.4,465.88Z" transform="translate(-74.67 -357.74)"/><path class="cls-123" d="M354.49,526c-.94.57-1.65,1.6-2.95,1.46.69-1.67,1.75-2.87,3.7-2.92Z" transform="translate(-74.67 -357.74)"/><path class="cls-42" d="M195.87,448.64a7.56,7.56,0,0,1,1.92,4.49C196.54,452.21,196.34,450.86,195.87,448.64Z" transform="translate(-74.67 -357.74)"/><path class="cls-18" d="M386.51,461.45l.71.85a5.61,5.61,0,0,1-.53,3.75c-.62-.34-.29-1.09-.66-1.54A4.41,4.41,0,0,1,386.51,461.45Z" transform="translate(-74.67 -357.74)"/><path class="cls-124" d="M412.2,423.7l.26-.74.43,0a8.15,8.15,0,0,1,1.62,3.47c.38.73,0,.81-.61.72C413.34,426,412.77,424.86,412.2,423.7Z" transform="translate(-74.67 -357.74)"/><path class="cls-125" d="M367.46,395.76a.54.54,0,0,0,.58-.64,7.74,7.74,0,0,1,2.25,3.5l-.82,0C368.76,397.71,367.74,397,367.46,395.76Z" transform="translate(-74.67 -357.74)"/><path class="cls-126" d="M234.77,528.43l-.1.08c.74-.35,1.3.24,1.94.4l1.49,1.46-.57.59C236.25,530.51,235.1,529.92,234.77,528.43Z" transform="translate(-74.67 -357.74)"/><path class="cls-69" d="M381.56,484.5h.75c.09,1.44-.71,2.53-1.5,3.67C380.09,486.75,380.71,485.6,381.56,484.5Z" transform="translate(-74.67 -357.74)"/><path class="cls-127" d="M276.68,511.36c-1,.19-1-.74-1.4-1.2-.18-.11-.24-.22-.2-.34s.11-.19.16-.19c1.32-.46,2.36.52,3.56.71C278.84,512.23,277.33,510.9,276.68,511.36Z" transform="translate(-74.67 -357.74)"/><path class="cls-59" d="M373.68,402.3l1.35,2.86c-.13.34-.18.76-.67.8a6.21,6.21,0,0,1-1.95-3l.71-.85A5.48,5.48,0,0,0,373.68,402.3Z" transform="translate(-74.67 -357.74)"/><path class="cls-73" d="M363.74,434.06a.32.32,0,0,0-.36-.27c.46-1.17,1.24-2,2.56-1.6.83.28-.13.89-.09,1.36C365.18,433.85,364.78,435.26,363.74,434.06Z" transform="translate(-74.67 -357.74)"/><path class="cls-128" d="M340.55,534.52l-1,.17c-.21-.63-.8-1.29.08-1.85s1.54.25,2.29.46a1.17,1.17,0,0,1-.17,1.24Z" transform="translate(-74.67 -357.74)"/><path class="cls-119" d="M121.69,427.58c-1.19-.56-2.73-.5-3.4-2l-.09-.33a5.18,5.18,0,0,1,3.59,1.24A.73.73,0,0,1,121.69,427.58Z" transform="translate(-74.67 -357.74)"/><path class="cls-129" d="M235.67,422.94c-.14,1.28,0,2.71-1.83,2.94C232.47,423.66,234.27,423.43,235.67,422.94Z" transform="translate(-74.67 -357.74)"/><path class="cls-18" d="M236,432.41c-1.64,1.18-3.46.41-5.2.5l.19-1.34c1.38-.78,2.12,1.88,3.57.66C235.1,431.89,235.59,431.82,236,432.41Z" transform="translate(-74.67 -357.74)"/><path class="cls-130" d="M326.66,542.6c-1.08-.18-2.23,1.37-3.26-.13C324.5,542.12,325.69,539.63,326.66,542.6Z" transform="translate(-74.67 -357.74)"/><path class="cls-131" d="M118.2,425.28l.09.33c-1.53.46-2.45-.57-3.54-1.24C116.19,423.78,117.38,424,118.2,425.28Z" transform="translate(-74.67 -357.74)"/><path class="cls-70" d="M380.13,415.84l-.34,0-.34,0c-1-.44-1-1.43-1.23-2.26.17-.46,0-1.07.56-1.37A4.65,4.65,0,0,1,380.13,415.84Z" transform="translate(-74.67 -357.74)"/><path class="cls-132" d="M249.52,422.91l.72.76c.16,1.65-1,2.41-2.15,3.14A7.33,7.33,0,0,1,249.52,422.91Z" transform="translate(-74.67 -357.74)"/><path class="cls-30" d="M382.52,421.25c.63,1.21,1.44,2.38,1,4.06-1.75-.51-1.4-2-1.81-3.08C382,421.89,382,421.38,382.52,421.25Z" transform="translate(-74.67 -357.74)"/><path class="cls-84" d="M222.62,388.81c.65,0,1.22.11,1,.69a1.75,1.75,0,0,1-1.1,1.05c-.32,0-.74-.6-1.12-.94C221.81,389.23,222.11,388.68,222.62,388.81Z" transform="translate(-74.67 -357.74)"/><path class="cls-64" d="M386,440.12l.75-.91a4,4,0,0,1,.48,3.11c-.25.55-.5,1.09-.74,1.63A6.81,6.81,0,0,1,386,440.12Z" transform="translate(-74.67 -357.74)"/><path class="cls-133" d="M225.22,388c-.4-.45-.93-.78-.92-1.08,0-.75.65-1,1.37-1,.43,0,1,.11.75.72A6.39,6.39,0,0,1,225.22,388Z" transform="translate(-74.67 -357.74)"/><path class="cls-134" d="M239.75,375.83a6.84,6.84,0,0,1-3.35,2c-.26-2,1.52-2.05,2.46-2.78A1,1,0,0,1,239.75,375.83Z" transform="translate(-74.67 -357.74)"/><path class="cls-135" d="M157.34,385.25l.73-.87q.08,3.19.14,6.39a.34.34,0,0,1-.59,0l-.25-1.39A8.21,8.21,0,0,1,157.34,385.25Z" transform="translate(-74.67 -357.74)"/><path class="cls-27" d="M149.46,482.66c.27-.8,0-1.79.79-2.42l.2,3.35c-.35,1,.23,2.19-.72,3Z" transform="translate(-74.67 -357.74)"/><path class="cls-105" d="M411,415c-.22.49-.43,1-.64,1.49-.26-1.4-.51-2.8-.77-4.2h1.24C410.85,413.17,410.9,414.08,411,415Z" transform="translate(-74.67 -357.74)"/><path class="cls-9" d="M184.52,419.39l-.75-.91a2.27,2.27,0,0,1-1-2.54,1.45,1.45,0,0,1,1.08-.87,2.19,2.19,0,0,0,.51.1A4.14,4.14,0,0,1,184.52,419.39Z" transform="translate(-74.67 -357.74)"/><path class="cls-136" d="M220.28,514.56c2.26-.76,3.13.1,2.76,2.39a1,1,0,0,1-.85-.11,12.92,12.92,0,0,1-1.79-1.35Z" transform="translate(-74.67 -357.74)"/><path class="cls-62" d="M378.09,493.11a3.67,3.67,0,0,1,1.58-3.1,2.55,2.55,0,0,1-.75,3.14C378.63,493.53,378.35,493.52,378.09,493.11Z" transform="translate(-74.67 -357.74)"/><path class="cls-74" d="M184.52,419.39l-.11-4.22c1.51,1.83,1.19,3.73.21,5.65Z" transform="translate(-74.67 -357.74)"/><path class="cls-19" d="M156.8,418.68c.2,0,.4,0,.61,0l0,2c-.35.57-.7,1.14-1.06,1.71a.51.51,0,0,1-.9-.1Z" transform="translate(-74.67 -357.74)"/><path class="cls-28" d="M418.83,518.13a2.19,2.19,0,0,0,.7-1.72c.77,1.23.46,2.63.65,4C418.27,520.5,418.89,519.11,418.83,518.13Z" transform="translate(-74.67 -357.74)"/><path class="cls-137" d="M223.84,518.81c.49.74,1,1.47,1.48,2.2-1.91.59-3,.33-2.18-2A.44.44,0,0,1,223.84,518.81Z" transform="translate(-74.67 -357.74)"/><path class="cls-8" d="M408.37,421.22c.56,1.42-.27,2.29-.87,3.76C407.32,423.32,407,422.15,408.37,421.22Z" transform="translate(-74.67 -357.74)"/><path class="cls-72" d="M384.62,428.47l-.73.9c-.3-1.1-.61-2.2-1.05-3.8C384.71,426.22,384.46,427.47,384.62,428.47Z" transform="translate(-74.67 -357.74)"/><path class="cls-138" d="M129.64,430.85a5.84,5.84,0,0,1-3.57-1.44.87.87,0,0,1,.69-.55l2.89,1.25c.18.17.24.34.17.5S129.7,430.85,129.64,430.85Z" transform="translate(-74.67 -357.74)"/><path class="cls-139" d="M146.74,434.46c0-2.25,1.72-2.11,3.22-2.21A3.45,3.45,0,0,1,146.74,434.46Z" transform="translate(-74.67 -357.74)"/><path class="cls-140" d="M142.43,433.82l-.65,1.33,0,.77c.3.67,0,.75-.59.63l-.87-2,.82-.85Z" transform="translate(-74.67 -357.74)"/><path class="cls-13" d="M236.92,435.4l4,.61C239.62,436.37,238.3,437.09,236.92,435.4Z" transform="translate(-74.67 -357.74)"/><path class="cls-31" d="M141.15,436.55l.59-.63c1.07.7.65,1.81.76,2.77l-.63,1.45c-.83-.53-.12-1.62-.78-2.21Z" transform="translate(-74.67 -357.74)"/><path class="cls-77" d="M148,437.26l-.34,1.56-.32.15-.31-.16c-.68-.13-1.88-.24-1.7-.87C145.69,436.62,147.09,437.58,148,437.26Z" transform="translate(-74.67 -357.74)"/><path class="cls-47" d="M432.22,437.26c.13,1.26-.52,2.07-1.56,3.08a2.77,2.77,0,0,1,.73-3.1C431.67,436.87,432,436.88,432.22,437.26Z" transform="translate(-74.67 -357.74)"/><path class="cls-137" d="M228.81,522.54l-2.11-.14-.84-1.37C227.43,520.38,228.59,520.55,228.81,522.54Z" transform="translate(-74.67 -357.74)"/><path class="cls-141" d="M430.89,528.24c1-.57,1.17-2.32,2.79-2.12a3.21,3.21,0,0,1-1.93,2.86C431,529.27,430.85,528.87,430.89,528.24Z" transform="translate(-74.67 -357.74)"/><path class="cls-142" d="M199,455.21l.72,1.55c-.09,1,0,2.05-.7,2.9-.45-.13-.5-.58-.74-.89Z" transform="translate(-74.67 -357.74)"/><path class="cls-78" d="M267.38,504.39l-3-1.67C266,502,266.83,502.85,267.38,504.39Z" transform="translate(-74.67 -357.74)"/><path class="cls-79" d="M349,529.54v.79l-.88.87c-.62.69-1.3,1-2.08.23a.81.81,0,0,1-.08-.88A3.09,3.09,0,0,1,349,529.54Z" transform="translate(-74.67 -357.74)"/><path class="cls-143" d="M420.34,458.8l.61.79c-.07,1.61-.13,3.22-.2,4.82-1.74-.62-.79-1.87-.67-2.92S420.25,459.7,420.34,458.8Z" transform="translate(-74.67 -357.74)"/><path class="cls-120" d="M397.33,460.81a5.91,5.91,0,0,1,5.68,0Z" transform="translate(-74.67 -357.74)"/><path class="cls-130" d="M260.93,504.31c.26-.41.52-.82.79-1.23a2.38,2.38,0,0,1,2.14,1.36c0,.32-.07.64-.1,1Z" transform="translate(-74.67 -357.74)"/><path class="cls-17" d="M329.55,504.64c-.87.7-1.68,1.52-3,1.2-.19-.15-.25-.3-.17-.44s.14-.21.21-.21c.31-1,1.29-1.07,2.07-1.41S329.72,503.91,329.55,504.64Z" transform="translate(-74.67 -357.74)"/><path class="cls-40" d="M136.93,373.67l-.85-.75c.37-1.18,1.38-.52,2.09-.74.49.37,1.09.65,1.16,1.38a1.65,1.65,0,0,1-.34.87C138.09,374.77,137.5,374.25,136.93,373.67Z" transform="translate(-74.67 -357.74)"/><path class="cls-144" d="M341.77,534.54l.17-1.24,1.11-.91a1,1,0,0,1,.8-.3c.45.16.78.39.59.95C343.57,533.58,342.91,534.49,341.77,534.54Z" transform="translate(-74.67 -357.74)"/><path class="cls-60" d="M139,373.36l-.81-1.18c1.65-.22,1.91,1.46,2.9,2.14,0,.24,0,.48.06.71.12.67-.23.89-.83.89C139.09,375.47,139.38,374.23,139,373.36Z" transform="translate(-74.67 -357.74)"/><path class="cls-145" d="M330.19,539.6c1-.94,2.34-1,3.56-1.4.44,1.92-1.36,1.42-2.16,2C331.15,540,330.5,540.17,330.19,539.6Z" transform="translate(-74.67 -357.74)"/><path class="cls-146" d="M322.36,508.07l-1-.79,2.5-1.1c.43.3,1.13-.06,1.43.57A3.87,3.87,0,0,1,322.36,508.07Z" transform="translate(-74.67 -357.74)"/><path class="cls-31" d="M330.19,539.6l1.4.6c-1.13.32-2.2,1.84-3.42.16Z" transform="translate(-74.67 -357.74)"/><path class="cls-102" d="M239.75,375.83l-.89-.78L241,373.6c.4,0,.66.18.67.62A3.64,3.64,0,0,1,239.75,375.83Z" transform="translate(-74.67 -357.74)"/><path class="cls-13" d="M231.16,441.59a6.2,6.2,0,0,1,.51-3.7C231.34,439.1,233.8,440.69,231.16,441.59Z" transform="translate(-74.67 -357.74)"/><path class="cls-19" d="M272.3,546.1c-1,0-2,.12-2.78-.7a.69.69,0,0,1,.1-1c.73-.12,1.52-.47,2,.51l1.5.55Z" transform="translate(-74.67 -357.74)"/><path class="cls-73" d="M316.47,544.49l.85.71c-1.41.09-2.68,1.32-4.27.55C313.9,544.4,315.28,544.69,316.47,544.49Z" transform="translate(-74.67 -357.74)"/><path class="cls-121" d="M216.06,508.11c-.35,1.11.66,1.9.7,2.92a3.14,3.14,0,0,1-2.2-2.15c-.11-1.12.31-1.32,1.2-.7Z" transform="translate(-74.67 -357.74)"/><path class="cls-147" d="M423,386.45l0-.75a5.5,5.5,0,0,1,5.24-.05C426.5,385.93,424.65,385.44,423,386.45Z" transform="translate(-74.67 -357.74)"/><path class="cls-49" d="M221.29,391.45a3.22,3.22,0,0,1-2.17,2.92C218.76,392.51,220,392,221.29,391.45Z" transform="translate(-74.67 -357.74)"/><path class="cls-64" d="M276.68,511.36l2.12-1A2.25,2.25,0,0,1,281,511C279.69,512.5,278.13,511.27,276.68,511.36Z" transform="translate(-74.67 -357.74)"/><path class="cls-63" d="M216.69,511c1.67.27,2.05,1.82,2.89,2.91C217.4,514.11,217,512.58,216.69,511Z" transform="translate(-74.67 -357.74)"/><path class="cls-64" d="M281.66,512.51a1.12,1.12,0,0,1-.72-1.56c1.27,0,2.59-.21,3.71.69a3.65,3.65,0,0,1-1.58,1.19A1.5,1.5,0,0,1,281.66,512.51Z" transform="translate(-74.67 -357.74)"/><path class="cls-10" d="M363.2,392.54c.45,1.86,0,2.5-1,3.06C361.43,394.34,362.42,393.86,363.2,392.54Z" transform="translate(-74.67 -357.74)"/><path class="cls-148" d="M411.67,396.53c.19-1.12.26-2.33,1.78-2.82.49,1.23-.29,2-.81,2.83A.6.6,0,0,1,411.67,396.53Z" transform="translate(-74.67 -357.74)"/><path class="cls-140" d="M378.78,412.2c-.19.46-.37.92-.56,1.37a7.47,7.47,0,0,1-1.46-3.71C378.45,410.05,378,411.63,378.78,412.2Z" transform="translate(-74.67 -357.74)"/><path class="cls-138" d="M179.6,412.24c1,.26,2.19-.64,2.86.72a.59.59,0,0,1,0,.93,2.62,2.62,0,0,1-2.62.18,1.23,1.23,0,0,1-.6-.85A1.26,1.26,0,0,1,179.6,412.24Z" transform="translate(-74.67 -357.74)"/><path class="cls-99" d="M411.67,396.53h1c-.37,1.18-.74,2.36-1.12,3.53h-.69C410.58,398.75,411.32,397.69,411.67,396.53Z" transform="translate(-74.67 -357.74)"/><path class="cls-149" d="M154.55,374.27l.73.62c-1.73-.08-1.25,1.32-1.49,2.24-1.34.32-.72-1-1.14-1.4a.61.61,0,0,1-.1-.67Z" transform="translate(-74.67 -357.74)"/><path class="cls-31" d="M210.65,406.84c-.06-1.92.67-2.47,1.59-3.7C212.58,405,211.69,405.6,210.65,406.84Z" transform="translate(-74.67 -357.74)"/><path class="cls-54" d="M281,358.65c.59.84,1.58.47,2.36.76a5.19,5.19,0,0,1-3.15.49c-.43-.43-1.24,0-1.55-.73A2.54,2.54,0,0,1,281,358.65Z" transform="translate(-74.67 -357.74)"/><path class="cls-113" d="M139.77,463.79c.74.63.47,1.56.69,2.35l-.21,2.59c-1.7-.32-.75-1.47-.73-2.33Z" transform="translate(-74.67 -357.74)"/><path class="cls-144" d="M374.36,406l.67-.8.8.79c-.2.73,1.26,1.67.21,2C374.82,408.33,374.8,406.77,374.36,406Z" transform="translate(-74.67 -357.74)"/><path class="cls-126" d="M213.42,507.36c-.64-.65-1.52-1.16-1.22-2.47,1.15.15,1.25,1.15,1.65,1.86C213.92,507.11,213.78,507.32,213.42,507.36Z" transform="translate(-74.67 -357.74)"/><path class="cls-150" d="M349.37,486.61l-.64-.75,1.64-2a.43.43,0,0,1,.75,0C351,485.1,349.82,485.61,349.37,486.61Z" transform="translate(-74.67 -357.74)"/><path class="cls-151" d="M109.71,423.52h-2.14c1.12-1.73,2.41-1.19,3.7-.66C110.94,423.54,110.18,423.18,109.71,423.52Z" transform="translate(-74.67 -357.74)"/><path class="cls-80" d="M195.31,423l-.81-.73a2.17,2.17,0,0,1,2.25-1.36l.66.92Z" transform="translate(-74.67 -357.74)"/><path class="cls-120" d="M407.09,459.34c.77.28,1.75-.08,2.34.77l-2.57.2c-.82-.18-1.77,0-2.39-.76Z" transform="translate(-74.67 -357.74)"/><path class="cls-152" d="M217.44,436c-.93-.21-2,1.12-2.83-.18a4.48,4.48,0,0,1,2.87-1.27c.3.22.74.27.85.73Z" transform="translate(-74.67 -357.74)"/><path class="cls-58" d="M220.4,515.49c1.18.07,1.92.54,1.74,1.88l.06-.11C220.89,517.39,220.58,516.51,220.4,515.49Z" transform="translate(-74.67 -357.74)"/><path class="cls-150" d="M153.19,427.28a5.15,5.15,0,0,1,1.42-2.88.4.4,0,0,1,.68,0C155,425.66,154.85,427,153.19,427.28Z" transform="translate(-74.67 -357.74)"/><path class="cls-99" d="M201,418.72c0-1.48,1.09-1.88,2.22-2.23C202.82,417.59,202.49,418.76,201,418.72Z" transform="translate(-74.67 -357.74)"/><path class="cls-57" d="M218.33,435.26l-.85-.73,2.83-.7c.31.2.74.25.87.68A4.8,4.8,0,0,1,218.33,435.26Z" transform="translate(-74.67 -357.74)"/><path class="cls-153" d="M357.52,522.27a2.2,2.2,0,0,1,1.42-1.85c.51-.09.87,0,.56.61A1.83,1.83,0,0,1,357.52,522.27Z" transform="translate(-74.67 -357.74)"/><path class="cls-23" d="M236.34,377.87c-1,1.16-1.45,2.16-3.21,1.85C233.73,378.36,234.47,377.77,236.34,377.87Z" transform="translate(-74.67 -357.74)"/><path class="cls-154" d="M269.54,544.67l0,.73-2.12,0-.6-1.15,2-.18A1,1,0,0,1,269.54,544.67Z" transform="translate(-74.67 -357.74)"/><path class="cls-120" d="M443.61,412.19a5.42,5.42,0,0,1,0-4.9C443.6,408.93,443.61,410.56,443.61,412.19Z" transform="translate(-74.67 -357.74)"/><path class="cls-61" d="M418.2,445.09c.18-1.24-.23-2.37.72-2.5.77-.11,1.15.69.51,1.47A12.69,12.69,0,0,1,418.2,445.09Z" transform="translate(-74.67 -357.74)"/><path class="cls-57" d="M168.9,434.42l3.52-1.83c-.63,1.78-1.82,1.92-2.8,2.37A.87.87,0,0,1,168.9,434.42Z" transform="translate(-74.67 -357.74)"/><path class="cls-50" d="M249.55,493.81c-1.55.11-1.89-1-2.18-2.18C248.86,491.59,249.48,492.43,249.55,493.81Z" transform="translate(-74.67 -357.74)"/><path class="cls-17" d="M229.74,383c-.05-1.85,1.65-1.92,2.61-2.74a2.56,2.56,0,0,1-2.69,2.65Z" transform="translate(-74.67 -357.74)"/><path class="cls-155" d="M378.09,493.11l.83,0a5.88,5.88,0,0,1-2.14,3.8C376.36,495.12,377.44,494.18,378.09,493.11Z" transform="translate(-74.67 -357.74)"/><path class="cls-73" d="M131.73,431.3c1.5-1,2.4.54,3.58.89a2.94,2.94,0,0,1-3.56-1Z" transform="translate(-74.67 -357.74)"/><path class="cls-65" d="M138.15,431c.25-.28.51-.55.77-.83l1.3,2.17a1.85,1.85,0,0,1-2.15-.09Z" transform="translate(-74.67 -357.74)"/><path class="cls-156" d="M140.93,458.54a2.57,2.57,0,0,0-.54.34c0-1.27-1.11-2.36-.63-3.74.91.07.49,1.22,1.17,1.46A1.17,1.17,0,0,1,140.93,458.54Z" transform="translate(-74.67 -357.74)"/><path class="cls-121" d="M229.66,382.94c-.1,1-.61,1.62-2,2.08.33-1.4.49-2.37,2-2Z" transform="translate(-74.67 -357.74)"/><path class="cls-153" d="M177.14,430a.37.37,0,0,0-.32-.42c.3-1.2,1.51-1.09,2.29-1.59C178.55,428.7,178.52,430,177.14,430Z" transform="translate(-74.67 -357.74)"/><path class="cls-1" d="M314.63,543.55c-1.05.35-1.95.51-2.12-.67,0-.26.32-.83.43-.82C313.79,542.18,313.31,543.78,314.63,543.55Z" transform="translate(-74.67 -357.74)"/><path class="cls-125" d="M442.86,415a3.84,3.84,0,0,1-.63,3.7c-.19.34-.37.34-.56,0,0-1.36,0-2.7,1.26-3.63Z" transform="translate(-74.67 -357.74)"/><path class="cls-44" d="M431.67,477.94l-.67.79c-.06-.67-.13-1.33-.2-2,.48-.9-.14-2.06.67-2.89C431.54,475.21,431.61,476.57,431.67,477.94Z" transform="translate(-74.67 -357.74)"/><path class="cls-50" d="M355.17,524.62c0-1.4.9-1.92,2.12-2.13C357.21,523.84,356.37,524.41,355.17,524.62Z" transform="translate(-74.67 -357.74)"/><path class="cls-61" d="M179.6,412.24a1.44,1.44,0,0,0-.08.46,2.76,2.76,0,0,1-2.79,1.9c0-.14,0-.29.07-.44C176.58,411.84,178.25,412.27,179.6,412.24Z" transform="translate(-74.67 -357.74)"/><path class="cls-83" d="M275.24,509.63a3.15,3.15,0,0,1,0,.53,3.69,3.69,0,0,1-2.86-.64c.27-.67.94-.49,1.44-.69C274.41,508.94,275.08,508.85,275.24,509.63Z" transform="translate(-74.67 -357.74)"/><path class="cls-1" d="M362.24,452.14c.08-1.37.15-2.73.23-4.1a5.26,5.26,0,0,1,.07,5C362,452.87,361.93,452.58,362.24,452.14Z" transform="translate(-74.67 -357.74)"/><path class="cls-1" d="M321.65,540.33c-.32,2.22-1.17,2.2-2.61.47l2.61-.47Z" transform="translate(-74.67 -357.74)"/><path class="cls-157" d="M121.69,427.58l.1-1.06a4.84,4.84,0,0,1,2.94,1.4c0,.45-.45.5-.75.67Z" transform="translate(-74.67 -357.74)"/><path class="cls-1" d="M266.82,542.28c-.82.19-1.64.5-2-.55a.89.89,0,0,1,.43-.78C266.23,540.76,266.45,541.59,266.82,542.28Z" transform="translate(-74.67 -357.74)"/><path class="cls-158" d="M243.89,535.22l.82-.73a3.3,3.3,0,0,1,2.37,1.91C245.54,536.71,244.8,535.74,243.89,535.22Z" transform="translate(-74.67 -357.74)"/><path class="cls-42" d="M130.22,426c-1,.7-2.15.56-3.45.35C127.93,425.28,129.11,426.22,130.22,426Z" transform="translate(-74.67 -357.74)"/><path class="cls-136" d="M346,531.2c.69.73,1.38,0,2.08,0,.85,2.93-1.15,1.24-2.08,1.29C345.48,532.06,345.52,531.63,346,531.2Z" transform="translate(-74.67 -357.74)"/><path class="cls-103" d="M329.55,504.64l-.85-.86a3.65,3.65,0,0,1,2.29-1.29,1.16,1.16,0,0,1,.93.67.63.63,0,0,1-.23.69Z" transform="translate(-74.67 -357.74)"/><path class="cls-42" d="M150.54,370.28c-.19-1.21,0-1.95,1.08-2,.3,0,.6.3.9.47Z" transform="translate(-74.67 -357.74)"/><path class="cls-121" d="M147,438.81a1,1,0,0,0,.63,0,.32.32,0,0,0,.33.32c-.21.8-.43,1.6-.64,2.4-.66-.53-.37-1.3-.51-2Z" transform="translate(-74.67 -357.74)"/><path class="cls-100" d="M212.47,438.08l-.14-1.17c.55-1,1.52-.46,2.29-.64C214.63,437.74,213.36,437.68,212.47,438.08Z" transform="translate(-74.67 -357.74)"/><path class="cls-121" d="M164.05,437.37l-.84-.7,3.52-.92q.33.24.21.48t-.21.24A3.14,3.14,0,0,1,164.05,437.37Z" transform="translate(-74.67 -357.74)"/><path class="cls-159" d="M432.22,437.26l-.83,0c.38-.84.11-2.21,1.69-2.08a1.33,1.33,0,0,0,.4,0Z" transform="translate(-74.67 -357.74)"/><path class="cls-1" d="M365.2,435.13c.95.87.88,1.71.1,2.73-1.14-1.06.14-1.87-.11-2.71Z" transform="translate(-74.67 -357.74)"/><path class="cls-160" d="M166.73,436.47v-.72c.46-.87,1.34-1.05,2.17-1.33l.72.54C168.66,435.46,168,436.55,166.73,436.47Z" transform="translate(-74.67 -357.74)"/><path class="cls-1" d="M363.74,434.06l2.11-.51c-.21.53-.43,1.06-.65,1.58v0l-2.07.7C363.33,435.25,363.54,434.66,363.74,434.06Z" transform="translate(-74.67 -357.74)"/><path class="cls-10" d="M338.16,490.52c0-1.36.31-2,1.59-2.31A3.25,3.25,0,0,1,338.16,490.52Z" transform="translate(-74.67 -357.74)"/><path class="cls-161" d="M139,488.79h.51l.74,1.47c-.82.66-.52,1.65-.73,2.49A6.82,6.82,0,0,1,139,488.79Z" transform="translate(-74.67 -357.74)"/><path class="cls-1" d="M373,433.74c-.76,1.93-1.66.42-3,.34,1.26-1,2.13-.09,2.95-.36Z" transform="translate(-74.67 -357.74)"/><path class="cls-82" d="M334.47,500.18l.63.76c.46,1.63-.84,1.48-1.74,1.73a1.28,1.28,0,0,1-1-1A3.39,3.39,0,0,1,334.47,500.18Z" transform="translate(-74.67 -357.74)"/><path class="cls-113" d="M131.73,431.3l0-.09a1.65,1.65,0,0,1-2.11-.36v-.74C130.61,430,131.43,430.21,131.73,431.3Z" transform="translate(-74.67 -357.74)"/><path class="cls-73" d="M124,428.59l.75-.67,2,.94-.69.55Z" transform="translate(-74.67 -357.74)"/><path class="cls-52" d="M413.9,427.19l.61-.72c.45.76,2.06,1.5.63,2.37C414.31,429.34,414.23,427.85,413.9,427.19Z" transform="translate(-74.67 -357.74)"/><path class="cls-77" d="M141.09,437.93l.78,2.21-.2,2.15C140.58,441,141.16,439.4,141.09,437.93Z" transform="translate(-74.67 -357.74)"/><path class="cls-162" d="M325.32,506.75l-1.43-.57,2.74-1c0,.22,0,.44,0,.65A1.33,1.33,0,0,1,325.32,506.75Z" transform="translate(-74.67 -357.74)"/><path class="cls-123" d="M412.89,423l-.22,0-.21-.07-.66-.07-.29-1.91.74-.86C412.54,421.07,413.11,422,412.89,423Z" transform="translate(-74.67 -357.74)"/><path class="cls-163" d="M362.24,452.14l.3.89c-.41,1.16.26,2.58-.85,3.57l.06-4.11A5.48,5.48,0,0,1,362.24,452.14Z" transform="translate(-74.67 -357.74)"/><path class="cls-96" d="M370.86,506l.87.06c-.38,1.17-.34,2.79-2.37,2.13l.9-2A4.5,4.5,0,0,1,370.86,506Z" transform="translate(-74.67 -357.74)"/><path class="cls-164" d="M380.88,455.93l-.08-1.42c.54-.11,1.05-.7,1.62-.17s0,1.08-.13,1.61Z" transform="translate(-74.67 -357.74)"/><path class="cls-83" d="M213.42,507.36l.42-.61,1.92,1.43a1.07,1.07,0,0,0-1.2.7A1.94,1.94,0,0,1,213.42,507.36Z" transform="translate(-74.67 -357.74)"/><path class="cls-83" d="M140.93,458.54V456.6l.24-1.41.64.78-.13,3.48Z" transform="translate(-74.67 -357.74)"/><path class="cls-118" d="M382.52,421.25l-.82,1c-.26-.94-1.06-1.77-.65-2.87a1.37,1.37,0,0,0,.57,0C382.64,419.66,382.32,420.59,382.52,421.25Z" transform="translate(-74.67 -357.74)"/><path class="cls-53" d="M367.28,511c.43-.86.72-2.33,1.93-1.68.81.42-.2,1.26-.75,1.76A.73.73,0,0,1,367.28,511Z" transform="translate(-74.67 -357.74)"/><path class="cls-113" d="M441.67,418.67h.56a4,4,0,0,1-.77,2.87l-.78-.06A4.62,4.62,0,0,1,441.67,418.67Z" transform="translate(-74.67 -357.74)"/><path class="cls-31" d="M367.28,511l1.18.08c-.59.74-.93,1.71-1.9,2.11l.12-2Z" transform="translate(-74.67 -357.74)"/><path class="cls-135" d="M306.51,511.63l.86.74c-.78,1-1.61,1.7-2.82.59V511.8Z" transform="translate(-74.67 -357.74)"/><path class="cls-73" d="M182.42,413.76l0-.8a2,2,0,0,1,1.44,2.11l-.57.74C182.26,415.47,181.79,414.86,182.42,413.76Z" transform="translate(-74.67 -357.74)"/><path class="cls-165" d="M198.25,458.77l.74.89c-.06,1.11-.13,2.23-.2,3.35-.78-.58-.38-1.54-.72-2.26Z" transform="translate(-74.67 -357.74)"/><path class="cls-32" d="M222.2,517.26l-.06.11.9-.42c.26.62.53,1.24.8,1.86l-.7.15C222.65,518.49,221.52,518.38,222.2,517.26Z" transform="translate(-74.67 -357.74)"/><path class="cls-19" d="M361.6,518.86c-.6-1.35.17-1.83,1.31-2.08A1.78,1.78,0,0,1,361.6,518.86Z" transform="translate(-74.67 -357.74)"/><path class="cls-166" d="M161,436.68l-2.3.71-1.93-.2,1.6-.74Z" transform="translate(-74.67 -357.74)"/><path class="cls-167" d="M359.5,521l-.56-.61c.28-1.3,1.27-1.52,2.38-1.58C360.78,519.63,360.87,520.94,359.5,521Z" transform="translate(-74.67 -357.74)"/><path class="cls-145" d="M420.08,461.49c.47.92-.14,2.08.67,2.92.19.49,0,.72-.49.81h-.34l-.35,0A5.9,5.9,0,0,1,420.08,461.49Z" transform="translate(-74.67 -357.74)"/><path class="cls-168" d="M386,464.51l.66,1.54c-.08.89-.16,1.78-.23,2.67l-.67-1.55Z" transform="translate(-74.67 -357.74)"/><path class="cls-169" d="M213.36,402.05c-.06-1.15.22-1.83,1.07-2.1.17-.05.7.36.67.46A1.85,1.85,0,0,1,213.36,402.05Z" transform="translate(-74.67 -357.74)"/><path class="cls-52" d="M430.89,528.24l.86.74c-.32.38-.64.76-.95,1.15-.68.15-1.4.41-1.74-.54Z" transform="translate(-74.67 -357.74)"/><path class="cls-93" d="M430,468.22l.75-1.55.18,2.69c-.24.5-.47,1-.7,1.5C430.18,470,430.11,469.1,430,468.22Z" transform="translate(-74.67 -357.74)"/><path class="cls-170" d="M440.89,396.59c-1.06.44-1.5-.42-2.06-1,.08-.43.06-1.13.59-1.06C440.55,394.65,440.47,395.84,440.89,396.59Z" transform="translate(-74.67 -357.74)"/><path class="cls-54" d="M346,531.2v1.29l-1.57.55-.61-.55c-.57-1.29.78-1,1.22-1.51.21-.32.38-.73.88-.43C346,530.76,346,531,346,531.2Z" transform="translate(-74.67 -357.74)"/><path class="cls-171" d="M438.59,393.63c-1.16-.43-1.73-1-1.62-2.1,0-.14.41-.38.52-.34A2,2,0,0,1,438.59,393.63Z" transform="translate(-74.67 -357.74)"/><path class="cls-27" d="M365.77,392.24l-.6.77c-.81-.62-1.74-1.17-1.21-2.45l-.08.07C364.75,390.89,365.59,391.18,365.77,392.24Z" transform="translate(-74.67 -357.74)"/><path class="cls-61" d="M198,471.2l0,2.57c-.55-.88-1.82-1.62-.56-2.86Z" transform="translate(-74.67 -357.74)"/><path class="cls-13" d="M269.54,544.67l-.76-.62c1.44-1.41,2.12-.24,2.82.85Z" transform="translate(-74.67 -357.74)"/><path class="cls-31" d="M345.24,375c-.61-.38-2-.61-1.44-1.39.65-.93,1.46.2,2.1.73C346.1,375,346,375.29,345.24,375Z" transform="translate(-74.67 -357.74)"/><path class="cls-60" d="M143.8,373.22c-1.19-.33-2,.4-2.73,1.1C141.44,372.61,141.93,371.21,143.8,373.22Z" transform="translate(-74.67 -357.74)"/><path class="cls-172" d="M351.12,483.87l-.75,0a2.57,2.57,0,0,1,2-2.37C352.26,482.42,352.12,483.37,351.12,483.87Z" transform="translate(-74.67 -357.74)"/><path class="cls-115" d="M241.14,482.31l-1.06.14c-.66-.63-1.32-1.26-1-2.32l.87.06Z" transform="translate(-74.67 -357.74)"/><path class="cls-44" d="M200.92,484l.74-.86a1.33,1.33,0,0,1,1.13.86c.28,1-.44,1.51-1.11,2l.07,0C201,485.48,201,484.71,200.92,484Z" transform="translate(-74.67 -357.74)"/><path class="cls-31" d="M316.71,362l.85-.67c1,.12,2.14,0,2.71,1.26C318.91,363.23,317.9,362,316.71,362Z" transform="translate(-74.67 -357.74)"/><path class="cls-47" d="M109.71,423.52l1.56-.66,1.86.13C112,424.42,110.78,423.51,109.71,423.52Z" transform="translate(-74.67 -357.74)"/><path class="cls-1" d="M376.08,437.91l.64.07-.15,2.16C375.74,439.54,374.55,439,376.08,437.91Z" transform="translate(-74.67 -357.74)"/><path class="cls-48" d="M139.52,466.4c.28.77-.12,1.74.73,2.33.13.47-.1.69-.53.77H139A4,4,0,0,1,139.52,466.4Z" transform="translate(-74.67 -357.74)"/><path class="cls-79" d="M206.77,413l-.78-.81c.49-.67.74-2.24,1.81-1.34C208.62,411.58,207.31,412.38,206.77,413Z" transform="translate(-74.67 -357.74)"/><path class="cls-1" d="M134.69,424.29a1.24,1.24,0,0,0,.5.17c.81.59.69,1.3.27,2.05C133.35,426.41,134.34,425.24,134.69,424.29Z" transform="translate(-74.67 -357.74)"/><path class="cls-61" d="M179.49,410.44a2.35,2.35,0,0,1,2.45,0A2.07,2.07,0,0,1,179.49,410.44Z" transform="translate(-74.67 -357.74)"/><path class="cls-42" d="M405.83,456.88a2.08,2.08,0,0,1-2.25.15C404.44,456.34,405.17,456.74,405.83,456.88Z" transform="translate(-74.67 -357.74)"/><path class="cls-38" d="M139,531.57c1.09.36,1,1.09,1.25,1.87C138.88,533.14,139,532.4,139,531.57Z" transform="translate(-74.67 -357.74)"/><path class="cls-106" d="M135.46,426.51l-.27-2.05.83,0a3.19,3.19,0,0,1,.81,2.13l-.85.06A2.36,2.36,0,0,0,135.46,426.51Z" transform="translate(-74.67 -357.74)"/><path class="cls-62" d="M420,523.91h-.28l-.27-.07c-.29-.87.47-1.38.72-2.07a1.93,1.93,0,0,1,.67,2.11Q420.44,524.49,420,523.91Z" transform="translate(-74.67 -357.74)"/><path class="cls-173" d="M431.58,531.74a3.42,3.42,0,0,1,2.28,1c-1.33.92-1.74-.19-2.28-1Z" transform="translate(-74.67 -357.74)"/><path class="cls-8" d="M175.17,418c.23.74,1.26,1.16.84,2.15h-.69C175.56,419.37,173.23,418.82,175.17,418Z" transform="translate(-74.67 -357.74)"/><path class="cls-174" d="M157.62,390.73a.83.83,0,0,1,.6,0c1.13.45.63,1.35.57,2.13l-1.19-.68Z" transform="translate(-74.67 -357.74)"/><path class="cls-175" d="M148.19,465.19c0-1.3.09-2.6.13-3.9a7.27,7.27,0,0,1,.51,3.91h-.64Z" transform="translate(-74.67 -357.74)"/><path class="cls-176" d="M415.81,390.73l1.51-1.37c.14.52.64,1,.05,1.56S416.32,390.91,415.81,390.73Z" transform="translate(-74.67 -357.74)"/><path class="cls-177" d="M420.31,386.56l-.85-.73,1.41-.78,1.45.59Z" transform="translate(-74.67 -357.74)"/><path class="cls-61" d="M363.64,386.83c-.51-.34-.42-.68-.2-.94a1.62,1.62,0,0,1,.81-.58c.44-.08.57.28.33.61A8.93,8.93,0,0,1,363.64,386.83Z" transform="translate(-74.67 -357.74)"/><path class="cls-13" d="M234.24,437.88a2.35,2.35,0,0,1,0,2.44A2,2,0,0,1,234.24,437.88Z" transform="translate(-74.67 -357.74)"/><path class="cls-159" d="M332.32,501.66l.76.76a1.07,1.07,0,0,1-1.27.81l-.82-.74Z" transform="translate(-74.67 -357.74)"/><path class="cls-178" d="M203.76,491.12l.77-.86c.51,0,.57.46.72.82l.05,1.3a.58.58,0,0,1-.87.07Z" transform="translate(-74.67 -357.74)"/><path class="cls-147" d="M425.25,383.67a8.08,8.08,0,0,1-3.66.67C422.64,383.18,424,383.59,425.25,383.67Z" transform="translate(-74.67 -357.74)"/><path class="cls-121" d="M436.69,428.7c.36-.94.66-1.92,2-2.22a2.43,2.43,0,0,1-1.15,2.31Q437.05,429.31,436.69,428.7Z" transform="translate(-74.67 -357.74)"/><path class="cls-1" d="M272.52,542.12a2.31,2.31,0,0,1-2.45,0A2.09,2.09,0,0,1,272.52,542.12Z" transform="translate(-74.67 -357.74)"/><path class="cls-48" d="M152.38,501.68c-1.06-1.21-.48-2.65-.54-4A6.92,6.92,0,0,1,152.38,501.68Z" transform="translate(-74.67 -357.74)"/><path class="cls-72" d="M436.69,428.7l.84.09c-.39.92-.58,2-1.95,2l-.09,0C435.38,429.85,436.08,429.3,436.69,428.7Z" transform="translate(-74.67 -357.74)"/><path class="cls-8" d="M175.32,420.11l-.3,1.6c-.26-.14-.68-.22-.76-.43-.39-1,.41-1,1.06-1.17Z" transform="translate(-74.67 -357.74)"/><path class="cls-175" d="M321.16,544l-.92-.76a3.27,3.27,0,0,1,2.86-.18l-.12.77Z" transform="translate(-74.67 -357.74)"/><path class="cls-44" d="M283.12,512.36l1.53-.72,2,.17c-.59.78-1.54.4-2.28.71A.88.88,0,0,1,283.12,512.36Z" transform="translate(-74.67 -357.74)"/><path class="cls-125" d="M204.43,492.45l.87-.07a1.31,1.31,0,0,1,.79,1.3l-.72.82Z" transform="translate(-74.67 -357.74)"/><path class="cls-179" d="M225.29,433.1v.58l-1.64.08a1.63,1.63,0,0,1-2.05-.11A5.83,5.83,0,0,1,225.29,433.1Z" transform="translate(-74.67 -357.74)"/><path class="cls-180" d="M134.56,379.05c-.05,1.29.51,2.67-.52,3.83A7.94,7.94,0,0,1,134.56,379.05Z" transform="translate(-74.67 -357.74)"/><path class="cls-61" d="M196.28,477.41a1.74,1.74,0,0,1,.12,2.19C195.73,478.89,196.18,478.14,196.28,477.41Z" transform="translate(-74.67 -357.74)"/><path class="cls-83" d="M221.6,433.65l2.05.11a1,1,0,0,1,.19.55l-2.66.2-.87-.68Z" transform="translate(-74.67 -357.74)"/><path class="cls-35" d="M345.24,375l.66-.66c.76.37,2.2.68,1.41,1.69C346.68,376.86,345.81,375.69,345.24,375Z" transform="translate(-74.67 -357.74)"/><path class="cls-120" d="M278.65,359.17l1.55.73-1.93.22-1.54-.73Z" transform="translate(-74.67 -357.74)"/><path class="cls-13" d="M268.12,546.77c.07.47.68,1.09-.25,1.32-.24.06-.79-.21-.82-.4-.16-.82.52-.83,1.07-.92Z" transform="translate(-74.67 -357.74)"/><path class="cls-67" d="M433.73,504.5l-.12,3.11a6.76,6.76,0,0,1-.49-3.79h.48A1.32,1.32,0,0,1,433.73,504.5Z" transform="translate(-74.67 -357.74)"/><path class="cls-38" d="M157.48,370.74c.71.09,1.39.24,1.31,1.18,0,.16-.28.44-.37.42-.87-.19-.85-.93-.94-1.6Z" transform="translate(-74.67 -357.74)"/><path class="cls-73" d="M155.29,424.39l-.34,0h-.34a3.18,3.18,0,0,1,.82-2.14l.9.1-.54,1.93A2.11,2.11,0,0,0,155.29,424.39Z" transform="translate(-74.67 -357.74)"/><path class="cls-49" d="M256.7,366.46l-.11-1c0-.16.09-.32.14-.47a1.23,1.23,0,0,0,.63,0,1.58,1.58,0,0,1,1.46.65Z" transform="translate(-74.67 -357.74)"/><path class="cls-13" d="M275.26,548.91H272c1.44-1,2.35-.87,3.21,0Z" transform="translate(-74.67 -357.74)"/><path class="cls-181" d="M414,458.87l-1.61-.69c.93-.45,1.86-1.22,2.73.08Z" transform="translate(-74.67 -357.74)"/><path class="cls-13" d="M285.25,549.63c-.82.94-1.78.85-3,.42,1-.77,2-.26,3-.42Z" transform="translate(-74.67 -357.74)"/><path class="cls-1" d="M304.55,513l2.82-.59c1.51.25,2.87-.37,4.27-.75l4.25-.77c.25,1.46-.4,2.78-.6,4.16a2,2,0,0,1-3.12,1.57c-1.91-2-3.18-.76-4.67.29-.28.2-.77.51-.92.41-4.12-2.84-8.15.64-12.21.13a21.42,21.42,0,0,1-2.7-.7,2.52,2.52,0,0,1,.72-2.87C296.45,513.65,300.53,513.76,304.55,513Z" transform="translate(-74.67 -357.74)"/><path class="cls-1" d="M205.25,491.08l-.72-.82c-.27-.94-.53-1.88-.8-2.82a4.65,4.65,0,0,0-1.47-3.57l-.6-.77a8,8,0,0,0-1.16-3.64l-.12-2.11c4.6-1.5,7.19.32,5.82,4.72C205.25,485.14,207.72,488.35,205.25,491.08Z" transform="translate(-74.67 -357.74)"/><path class="cls-1" d="M305.94,546l-1,.62c-2.3.24-4.71-.38-6.89.85-2.9.78-5.85.15-8.77.34-1.3-.57-3,.12-4.07-1.14.53-2.19,2.23-2.57,3.6-1.43,1.68,1.4,2.77,1.45,4.54.26,1.51-1,3.53,0,5.12.2C301,546.1,303.57,544.4,305.94,546Z" transform="translate(-74.67 -357.74)"/><path class="cls-8" d="M292.39,513.84a4.83,4.83,0,0,1-.72,2.87,8.38,8.38,0,0,1-1.34-.14c-.21-3.39-2.67-2.41-4.52-2.26a40.64,40.64,0,0,0-4.84,1h0c.45-1,.18-1.44-1-1.46s-2.59.52-3.6-1c1.84-.16,3.69,1.1,5.3-.31l1.46-.15,1.25.16C286.91,513.8,289.82,512.78,292.39,513.84Z" transform="translate(-74.67 -357.74)"/><path class="cls-1" d="M331.81,503.23l1.27-.81a2.42,2.42,0,0,0,2-1.48l2.29-1.18c.18,1.86.41,3.63-1.6,4.89-1.75,1.09-2.85,0-4.1-.8A2.2,2.2,0,0,0,331.81,503.23Z" transform="translate(-74.67 -357.74)"/><path class="cls-51" d="M243.24,488.61l.61,1.63a2.22,2.22,0,0,1-2.14.71c-.18-3.64-4.48-5-5.09-9.64l6.69,7.38Z" transform="translate(-74.67 -357.74)"/><path class="cls-38" d="M233.12,526.06H231.7c0-1.52-1.67-1.75-2.18-2.87C232.08,522.44,234,522.5,233.12,526.06Z" transform="translate(-74.67 -357.74)"/><path class="cls-8" d="M241.71,491c.51-.84,1.36-.69,2.14-.71,1,.83,1.7,2.24.48,2.83S242.46,491.88,241.71,491Z" transform="translate(-74.67 -357.74)"/><path class="cls-82" d="M285.25,546.68l3.74.69c-.83.94-2.06.1-3,.68a7.85,7.85,0,0,1-4.54-.44c.57-.88,1.63-.17,2.3-.72Z" transform="translate(-74.67 -357.74)"/><path class="cls-18" d="M344.15,493.21l-1.32-.22c1.13-1.34,1.9-3.07,3.85-3.51C346.62,491.26,345.35,492.21,344.15,493.21Z" transform="translate(-74.67 -357.74)"/><path class="cls-179" d="M230.28,449.45h-.6c0-2.37,0-4.74,0-7.11C230.86,444.62,230,447.08,230.28,449.45Z" transform="translate(-74.67 -357.74)"/><path class="cls-8" d="M281,515.28c-2,1.37-3.56-.49-5.36-.53,1.87-.54,3.59.14,5.35.53Z" transform="translate(-74.67 -357.74)"/><path class="cls-128" d="M345.05,531l-1.22,1.51-.78-.1c.05-.55-1.59-.58-.45-1.48C343.44,530.25,344.27,529.53,345.05,531Z" transform="translate(-74.67 -357.74)"/><path class="cls-182" d="M326.93,507.89l3.95-2.08C329.82,507.72,328.91,508.34,326.93,507.89Z" transform="translate(-74.67 -357.74)"/><path class="cls-51" d="M236.05,488.68l-.73-4.71C236.63,485.38,236.93,486.45,236.05,488.68Z" transform="translate(-74.67 -357.74)"/><path class="cls-13" d="M210.91,446.11c-.62-1.75.14-2.26.81-3.12C212.13,444.28,211.69,445,210.91,446.11Z" transform="translate(-74.67 -357.74)"/><path class="cls-99" d="M283.78,546.89l-2.3.72-2.62-.22c0-1.37.86-.9,1.58-.72Z" transform="translate(-74.67 -357.74)"/><path class="cls-8" d="M368.63,501.47a2.18,2.18,0,0,1,0-.81c.16-.41.36-.93.93-.74.16.05.29.54.25.8a8.35,8.35,0,0,1-.43,1.34Z" transform="translate(-74.67 -357.74)"/><path class="cls-82" d="M280.44,546.67l-1.58.72a2.85,2.85,0,0,1-2.41-.49l1.61-.71A3.1,3.1,0,0,1,280.44,546.67Z" transform="translate(-74.67 -357.74)"/><path class="cls-128" d="M339.59,534.68a3.41,3.41,0,0,1-2.24,1.3C336.75,533.21,338.84,535.11,339.59,534.68Z" transform="translate(-74.67 -357.74)"/><path class="cls-82" d="M229.69,450.18c1,1.2.46,2.62.52,3.95A7,7,0,0,1,229.69,450.18Z" transform="translate(-74.67 -357.74)"/><path class="cls-83" d="M418.84,506.54c-.6,1.15.22,2.58-.71,3.67a200.24,200.24,0,0,1,0-22c.23,1,.46,2,.68,2.95Z" transform="translate(-74.67 -357.74)"/><path class="cls-79" d="M424.82,530.41l-1.1-.08c-1-1.12-2.43-2-2.72-3.65.15-.31.2-.71.65-.76,1.31,1.68,2.56,3.45,4.91,3.78C426.47,531.14,425.52,530.48,424.82,530.41Z" transform="translate(-74.67 -357.74)"/><path class="cls-112" d="M425.35,449.41a.75.75,0,0,1,.65.11,4.73,4.73,0,0,1-2.73,3.59c-.67-.08-1.45,0-1.63-.92C423.72,452.4,424,450.24,425.35,449.41Z" transform="translate(-74.67 -357.74)"/><path class="cls-183" d="M420.26,473.81l.16-6.44C420.72,469.53,422.33,471.71,420.26,473.81Z" transform="translate(-74.67 -357.74)"/><path class="cls-174" d="M424.82,530.41a2.2,2.2,0,0,0,1.74-.71c.86-.5,1.45.43,2.21.44C427.56,531.78,426.19,531.12,424.82,530.41Z" transform="translate(-74.67 -357.74)"/><path class="cls-178" d="M421.65,525.92l-.65.76c-.34-.93-.67-1.85-1-2.77l.84,0Z" transform="translate(-74.67 -357.74)"/><path class="cls-100" d="M142.57,453.88c0-1.95,0-3.91-.07-5.86a2.59,2.59,0,0,0,.62,0A13.41,13.41,0,0,1,142.57,453.88Z" transform="translate(-74.67 -357.74)"/><path class="cls-175" d="M147.45,457.32c0,1.3,0,2.6-.08,3.9a8.12,8.12,0,0,1-.51-3.9Z" transform="translate(-74.67 -357.74)"/><path class="cls-21" d="M151.18,502.39h.61l-.15,3.84A7.66,7.66,0,0,1,151.18,502.39Z" transform="translate(-74.67 -357.74)"/><path class="cls-6" d="M143.63,513.47c.28,1.21.54,1.92-.13,2.6A2.53,2.53,0,0,1,143.63,513.47Z" transform="translate(-74.67 -357.74)"/><path class="cls-48" d="M151,493.85l-.06,3.87a7.27,7.27,0,0,1-.54-3.91Z" transform="translate(-74.67 -357.74)"/><path class="cls-8" d="M139.45,386.06c-.21,1.59-1,3.05-1,4.69-.17,3.61.08,7.25-1.05,10.76l-2-3.56" transform="translate(-74.67 -357.74)"/><path class="cls-8" d="M136.93,373.67c.81-.14,1.3.44,1.86.84" transform="translate(-74.67 -357.74)"/><path class="cls-9" d="M137.42,401.51c-.74-3.83,0-7.63.24-11.44a1.56,1.56,0,0,1,1.79,1.07c.22,3.31-.65,6.61-.17,9.94a1.48,1.48,0,0,1-1.09,1.18Z" transform="translate(-74.67 -357.74)"/><path class="cls-26" d="M147.53,385.17l.53-.1.27,2.13c.47,2.39.09,4.8.21,7.2-.08,1.53.22,3.09-.26,4.6l-.29,3.14c-1.52-.39-.67-1.42-.6-2.25,0-3.88,0-7.77,0-11.65C147.16,387.2,146.84,386.16,147.53,385.17Z" transform="translate(-74.67 -357.74)"/><path class="cls-146" d="M154,402.25l.75-7.22c.56-.66-.19-1.78.81-2.28.95.25.94.86.59,1.59-.34,2.66.66,5.56-1.39,7.91C154.49,402.6,154.24,402.58,154,402.25Z" transform="translate(-74.67 -357.74)"/><path class="cls-39" d="M150.47,381.48h.58a16,16,0,0,1,.08,6.82q-.1,3.38-.2,6.75c-1.89-1.15-.49-3-.94-4.45.13-2.32-.26-4.66.23-7Z" transform="translate(-74.67 -357.74)"/><path class="cls-184" d="M150.19,390.49c.45,1.48-.39,3.17.74,4.55l0,.77c-.89,2,.87,4.57-1.19,6.39l0-11.28A.5.5,0,0,1,150.19,390.49Z" transform="translate(-74.67 -357.74)"/><path class="cls-185" d="M152.65,375.73l1.14,1.4V382C151.32,380.28,153,377.82,152.65,375.73Z" transform="translate(-74.67 -357.74)"/><path class="cls-186" d="M143.91,405.08c-.7-2.39-.08-4.76.12-7.13a.54.54,0,0,1,.88.22c.17,1.8,0,3.62.14,5.42l.5.8C145.29,405.28,144.64,405.28,143.91,405.08Z" transform="translate(-74.67 -357.74)"/><path class="cls-187" d="M149.72,402.2c1.55-1.91-.29-4.46,1.19-6.39l0,7.18c-.39.47,0,1.25-.7,1.6-.36.06-.53-.08-.49-.45Z" transform="translate(-74.67 -357.74)"/><path class="cls-22" d="M155.5,392.64c-.24.8,0,1.76-.76,2.39-.24-2.14-.49-4.29-.74-6.43a1.47,1.47,0,0,1,.65-.74l.8,1.48C155.7,390.44,156.29,391.53,155.5,392.64Z" transform="translate(-74.67 -357.74)"/><path class="cls-72" d="M138.19,402.26l.58-.74a6.36,6.36,0,0,1,2.28.7,2.67,2.67,0,0,1,.81.52.78.78,0,0,1,0,.89l-.84.8C139.67,404.28,138.06,404.42,138.19,402.26Z" transform="translate(-74.67 -357.74)"/><path class="cls-121" d="M150.32,404.41l.61-1.42c1.59,2.12,2.12-.15,3.06-.74h.76l-.88,2C152.74,405.69,151.57,406.22,150.32,404.41Z" transform="translate(-74.67 -357.74)"/><path class="cls-121" d="M154.65,387.86l-.65.74c.06-1.69-1.67-3.34-.09-5.05C155,384.84,154.45,386.42,154.65,387.86Z" transform="translate(-74.67 -357.74)"/><path class="cls-5" d="M150.32,404.41c1.25,1.87,2.38.19,3.55-.12-.51,2.59-2.85,1.56-4.27,1.8-.89.15,0-1.25.14-1.95A2.8,2.8,0,0,1,150.32,404.41Z" transform="translate(-74.67 -357.74)"/><path class="cls-188" d="M155.5,392.64l-.05-3.3c1.23,1.53,1.93,3.13.69,5Z" transform="translate(-74.67 -357.74)"/><path class="cls-189" d="M148.3,394l0-6.84c1.16,2.38.56,4.88.47,7.35A.59.59,0,0,1,148.3,394Z" transform="translate(-74.67 -357.74)"/><path class="cls-189" d="M150.19,390.49a2.07,2.07,0,0,1-.5.43c0-2.44-.65-4.94.53-7.29Z" transform="translate(-74.67 -357.74)"/><path class="cls-190" d="M147.39,399.89c.24.74-.09,1.64.6,2.25-.32,1-.41,2.22-1.9,2.21C146.52,402.87,147,401.38,147.39,399.89Z" transform="translate(-74.67 -357.74)"/><path class="cls-188" d="M156.16,376.22a1.41,1.41,0,0,1,.47.47l0,6.21C155.5,380.75,156.16,378.46,156.16,376.22Z" transform="translate(-74.67 -357.74)"/><path class="cls-191" d="M148.3,394a3.44,3.44,0,0,0,.5.51c-.18,1.48-.35,3-.52,4.44C148.28,397.34,148.29,395.69,148.3,394Z" transform="translate(-74.67 -357.74)"/><path class="cls-188" d="M157.34,385.25l0,4.09c-1.1-1.34-.55-2.89-.57-4.37A3.45,3.45,0,0,0,157.34,385.25Z" transform="translate(-74.67 -357.74)"/><path class="cls-8" d="M135.41,403.65l.05-3.56A2.61,2.61,0,0,1,135.41,403.65Z" transform="translate(-74.67 -357.74)"/><path class="cls-192" d="M146.54,407.33c-.6.19-1,.18-.86-.28a1.15,1.15,0,0,1,.71-.61c.23-.08.54.07.82.11Z" transform="translate(-74.67 -357.74)"/><path class="cls-193" d="M241.82,418.74l-.79-.66a5.86,5.86,0,0,1,5.54-.22Z" transform="translate(-74.67 -357.74)"/><path class="cls-13" d="M236,432.41l-1.44-.18c1.15-.51,2.15-1.92,3.6-.59Z" transform="translate(-74.67 -357.74)"/><path class="cls-1" d="M238.12,414.38c.75.05,1.78.21,1.69.94-.16,1.4-.77.65-1.19,0C238.44,415,238.29,414.71,238.12,414.38Z" transform="translate(-74.67 -357.74)"/><path class="cls-30" d="M151.13,388.29l-.08-6.82,0,0c.18-.3.37-.29.54,0A17.94,17.94,0,0,1,151.13,388.29Z" transform="translate(-74.67 -357.74)"/><path class="cls-9" d="M151.63,381.45h-.54c.21-1.64-.48-3.38.55-4.93C151.64,378.16,151.64,379.8,151.63,381.45Z" transform="translate(-74.67 -357.74)"/><path class="cls-80" d="M147.53,385.17c-.06,1-.11,2-.16,3.07-.89-3.41-.64-6.87-.49-10.32C148.1,380.25,147.15,382.76,147.53,385.17Z" transform="translate(-74.67 -357.74)"/><path class="cls-66" d="M145.42,388.77a55.27,55.27,0,0,1,0-10.37A24.5,24.5,0,0,1,145.42,388.77Z" transform="translate(-74.67 -357.74)"/><path class="cls-194" d="M144.63,397.89l-.6.06a14,14,0,0,1,.49-5.87c.59,1.14-.28,2.55.69,3.62v1.54A1.08,1.08,0,0,1,144.63,397.89Z" transform="translate(-74.67 -357.74)"/><path class="cls-49" d="M144.63,397.89l.59-.65c-.06,2.12-.11,4.23-.17,6.35C144.16,401.75,144.84,399.79,144.63,397.89Z" transform="translate(-74.67 -357.74)"/><path class="cls-1" d="M154.62,438.72c-.16,1.44-1,1.6-2.25,1.21.47-1,1.37-1.09,2.25-1.21Z" transform="translate(-74.67 -357.74)"/><path class="cls-195" d="M182.42,413.76l.91,2.05c.15.89.29,1.78.44,2.67a5.91,5.91,0,0,0-.42.93c-1,4.37-1.33,4.49-5,2.08-1-2-2-4.05-.78-6.34.4-.88.78-1.79,2-1.56Z" transform="translate(-74.67 -357.74)"/><path class="cls-106" d="M286,548.05l3-.68,9.1.11a.57.57,0,0,0,0,.54A55.08,55.08,0,0,1,286,548.05Z" transform="translate(-74.67 -357.74)"/><path class="cls-124" d="M179.6,413.59l-2,1.56-.84-.55a5.18,5.18,0,0,1,2.79-1.9Z" transform="translate(-74.67 -357.74)"/><path class="cls-1" d="M202.26,483.87c1.39.81,2.76,1.63,1.47,3.57-.68-.49-.46-2.25-2-1.46C202.07,485.33,202.56,484.71,202.26,483.87Z" transform="translate(-74.67 -357.74)"/><path class="cls-196" d="M142,375.1l-.28,5.38c0,.4-.24.56-.64.46-1.46-1.62-.66-3.52-.66-5.32l.74-.59Z" transform="translate(-74.67 -357.74)"/><path class="cls-153" d="M140.39,375.62c1,1.68,0,3.67.81,5.38.41,1.37.12,2.78.2,4.16-.43,1.17,1,2.87-1,3.59-1.13-.92-.71-2.21-.79-3.38s-.51-2.3-.06-3.46c0-2.49.38-5-.74-7.4.07-.38.13-.77.19-1.15Z" transform="translate(-74.67 -357.74)"/><path class="cls-24" d="M138.79,390.76l-1.13-.69c-.19-1.65.83-2.9,1.4-4.3a.55.55,0,0,1,.87.31C139.85,387.71,140.43,389.51,138.79,390.76Z" transform="translate(-74.67 -357.74)"/><path class="cls-196" d="M139.62,385.77h-.56c-1.06-1.43.16-2.59.47-3.86l.69,3.4A1.3,1.3,0,0,1,139.62,385.77Z" transform="translate(-74.67 -357.74)"/><path class="cls-91" d="M140.52,388.6c.85-1.14.17-2.55.66-3.75a.65.65,0,0,1,.5.53l-.09,6.89c-.4.69.56,2.2-1.23,2.06C139.35,392.39,139.15,390.47,140.52,388.6Z" transform="translate(-74.67 -357.74)"/><path class="cls-143" d="M141,394.48l.61-2.21.29.66c.27,3.34.62,6.69-.19,10l-.76-.05A8.86,8.86,0,0,1,141,394.48Z" transform="translate(-74.67 -357.74)"/><path class="cls-195" d="M141.69,402.94l.19-10a19.65,19.65,0,0,1,0,10.7Z" transform="translate(-74.67 -357.74)"/><path class="cls-195" d="M141.68,385.38l-.5-.53c0-1.28,0-2.57,0-3.85" transform="translate(-74.67 -357.74)"/><path class="cls-197" d="M141,394.48q0,4.22,0,8.41c-1.32.49-1.64-.61-2.16-1.37-1.16-3.59-.17-7.17,0-10.76l.83-5,.6-.46.3,3.29A17.11,17.11,0,0,0,141,394.48Z" transform="translate(-74.67 -357.74)"/></svg>