<svg id="Layer_1" data-name="Layer 1" xmlns="http://www.w3.org/2000/svg" viewBox="0 0 302.25 304.57"><defs><style>.cls-1{fill:#383838;}.cls-2{fill:#393939;}.cls-3{fill:#373737;}.cls-4{fill:#3b3b3b;}.cls-5{fill:#3a3a3a;}.cls-6{fill:#020202;}.cls-7{fill:#010101;}.cls-8{fill:#3d3d3d;}.cls-9{fill:#353535;}.cls-10{fill:#333;}.cls-11{fill:#3c3c3c;}.cls-12{fill:#272727;}.cls-13{fill:#343434;}.cls-14{fill:#1b1b1b;}.cls-15{fill:#030303;}.cls-16{fill:#1e1e1e;}.cls-17{fill:#292929;}.cls-18{fill:#404040;}.cls-19{fill:#414141;}.cls-20{fill:#0c0c0c;}.cls-21{fill:#242424;}.cls-22{fill:#040404;}.cls-23{fill:#444;}.cls-24{fill:#060606;}.cls-25{fill:#323232;}.cls-26{fill:#181818;}.cls-27{fill:#111;}.cls-28{fill:#121212;}.cls-29{fill:#0a0a0a;}.cls-30{fill:#f2f2f2;}.cls-31{fill:#050505;}.cls-32{fill:#313131;}.cls-33{fill:#2e2e2e;}.cls-34{fill:#232323;}.cls-35{fill:#282828;}.cls-36{fill:#2f2f2f;}.cls-37{fill:#252525;}.cls-38{fill:#1d1d1d;}.cls-39{fill:#090909;}.cls-40{fill:#fefefe;}.cls-41{fill:#fdfdfd;}.cls-42{fill:#fcfcfc;}.cls-43{fill:#fbfbfb;}.cls-44{fill:#f9f9f9;}.cls-45{fill:#f8f8f8;}.cls-46{fill:#363636;}.cls-47{fill:#ededed;}.cls-48{fill:#3e3e3e;}.cls-49{fill:#3f3f3f;}.cls-50{fill:#bebebe;}.cls-51{fill:#424242;}.cls-52{fill:#0d0d0d;}.cls-53{fill:#434343;}.cls-54{fill:#bfbfbf;}.cls-55{fill:#202020;}.cls-56{fill:#141414;}.cls-57{fill:#2a2a2a;}.cls-58{fill:#191919;}.cls-59{fill:#303030;}.cls-60{fill:#2b2b2b;}.cls-61{fill:#1c1c1c;}.cls-62{fill:#2c2c2c;}.cls-63{fill:#4b4b4b;}.cls-64{fill:#212121;}.cls-65{fill:#262626;}.cls-66{fill:#0e0e0e;}.cls-67{fill:#070707;}.cls-68{fill:#d6d6d6;}.cls-69{fill:#eaeaea;}.cls-70{fill:#1a1a1a;}.cls-71{fill:#222;}.cls-72{fill:#080808;}.cls-73{fill:#0b0b0b;}.cls-74{fill:#0f0f0f;}.cls-75{fill:#959595;}.cls-76{fill:#cacaca;}.cls-77{fill:#ebebeb;}.cls-78{fill:#464646;}.cls-79{fill:#161616;}</style></defs><path class="cls-1" d="M271.88,309.84a79.65,79.65,0,0,1,.64-16.55c1.79,1.83-.26,3.92.64,5.36.12-.61-.09-1.73,0-2.83a15.33,15.33,0,0,0,.22-6.36c-.47-1,.06-2.13-.61-3.06a14.76,14.76,0,0,1,.64-5.72,7.71,7.71,0,0,0,.93.36,2.72,2.72,0,0,0-.07-1.55c-.31-.67-.09-1.48-.58-2.11.23-2.24.67-4.62-2.82-4.54a4.44,4.44,0,0,0-.89-.73,35.59,35.59,0,0,0-9,.13c-1.17.39-2.48-.22-3.6.5-3.13-.79-3.58-3.39-3.37-5.86s1.29-4.57,4.3-4.69a22.64,22.64,0,0,0,2.58.65c4.57.13,9.14.21,13.7,0,.62-.23,1.32-.34,1.62-1.05.21-2.38,3.46-3.94,1.85-6.82-.77-1-2-.31-2.91-.77-5.2-.53-10.42-.14-15.62-.27a7.38,7.38,0,0,1-1.25.8c-1.87-.48-3.86-.82-3.65-3.48a14.39,14.39,0,0,0,0-4.49c.1-1.73,1.32-2.25,2.74-2.55,1.35.59,2.85,0,4.21.6,6.94.25,13.89.16,20.83,0a3.1,3.1,0,0,0,1.91-.93c3-3.54,5.66-7.45,10.8-8.07,1.76.22,3.57-.18,5.3.44,1.54-.62,3,2.24,4.61.06l1.85-1.07c1.48.9,2.89,3.22,4.58.23a2.47,2.47,0,0,1,1.55-.88c1.78.24,3.5.86,5.32.93a1.28,1.28,0,0,1,.74.92,1.77,1.77,0,0,1-.84,1.54c-1.07.4-2.27-.21-3.82.7,1.54-.86,2.74-.25,3.79-.71a7.13,7.13,0,0,1,2.4-1.53,10.21,10.21,0,0,0,1.59-.45,3.12,3.12,0,0,0,4-.44,6.74,6.74,0,0,1,5.85-1.57,20.4,20.4,0,0,1,6.57,1c2.33-1.48,2.43,2.33,4.36,1.84.43.41,1.05.57,1.43,1.05.86,2.67,4.55,2.37,5.34,5.11a3.37,3.37,0,0,1,.13,1.22c-1.25,3.31-3.81,6-4.58,9.54a3.33,3.33,0,0,1-1.11,1.41,4.77,4.77,0,0,0-.82.86c-.55,8,.11,16-.3,23.94a9.53,9.53,0,0,1-.56,3.9c-1.2,1.93-1.27,4.18-1.82,5.64-.09-1.17,1.18-2.72,1.11-4.55a9.55,9.55,0,0,1,1.2-1.49,1.32,1.32,0,0,1,1.16.38c-1.29,6.82,1.68,13.82-.82,20.2a3.27,3.27,0,0,1,1-2.53c.49-.72.68-1.75,1.85-1.75a2.66,2.66,0,0,1,1.4,2.15c1.57,9.39,4.34,18.47,7,27.59.18,1.42-.79,3.1.92,4.2a2.4,2.4,0,0,1,.54,1c.05,1.45,1.27,2.25,1.91,3.38a4.09,4.09,0,0,1,.2,2.42c-.84,1.51-1.63,3.14-3.35.73-1.52-2.13-3.34-4-4.71-6.26a2.66,2.66,0,0,1-.51-1.95c0-.07-.49,0-.57.34-.28,1.17,1.27,1.16,1.39,2.09a8.48,8.48,0,0,1,.29,2.13c.2,1.27.72,2.93-.57,3.59-1.66.84-2.28-1.19-3.35-2-1.87-2.45-4-4.78-3.48-8.25,1.7-2.68-1.35-3.29-2.16-4.88-2.36-7.17-5.05-14.26-5.3-21.94a11.4,11.4,0,0,1,1-2.77c.12-.25.51-.54.15-.89a.76.76,0,0,1-.94.54c-1.54-1.09-1.28-2.65-1.1-4.19A36.75,36.75,0,0,1,336,293c.05-.15.56-.61,0-.58-.29,0-.62.46-1.07.27-1.46-1.53-1.27-3.26-.64-5.05a2.32,2.32,0,0,1,.9-.86c1.12-3.47.17-7,.2-10.49.08-7.32.43-14.65-.18-21.95a6.93,6.93,0,0,1-.61-1.14c-.63-2.86,2-5.41.78-8.31-1-1.13-2.52-.67-3.76-1.05-1.94-.35-2.79.76-3.23,2.41-1.68,2.42-1.49,5.77-3.84,7.85-1.05-.33-1.33.09-1,1.08.2,6.92-.47,13.84.41,20.72.8,2.3-.16,4.56-.35,6,0,0-.13-.8.89-1.19,2.6,1.79,1.56,4.36,1.48,6.74a69.55,69.55,0,0,0-1.28,8.16c-.33-.4,0-.9.37-1.39,1.91.33,1.66,1.8,1.67,3.14a19.44,19.44,0,0,1-1.07,3.81c.43,0-1.39,1.15.25.48.21-.09.4-.27.75-.13,2.12,3,1.84,6.55,2.38,9.85,2.16,13.29,7.14,25.55,13,37.51.72,1.46,1.79,2.81,1.44,4.6-.09,1.25-4,1-1.14,3.7,1.39,1.32-2.36,5.23-5.85,6.08-4.59-6.11-7.43-13.11-10.35-20.07-.36-.75-.38-1.72-1.37-2a1.22,1.22,0,0,0-.69.59c.92,9.18-.75,18.37.42,27.5.37.12.7.26,1.05.41a2,2,0,0,1,.83.84c1.16,7.32,4.53,13.87,7.23,20.64-.16,2.09,1.73,1.19,2.56,1.53,3.85,1.58,5.3,5.25,3.37,9.19a2.58,2.58,0,0,1-3.16-1.4c-.21-.28.54-.87-.24-.91-.12,0-.43.65-.9.74-3.42-.45-6.82-.88-10.26-1.14-7.95-.59-12.68,4.59-11,13.23.95,1.2.72,3.49,3.63,2.73,1.35-.36,2.62,1.6,2.39,3.52-.74,1.85-2.8,3-2.65,5.31-.14,1.17.89,1.36,1.58,1.83,2.78,2.63,5.17,2.16,7.29-.86,1.35-1.93,3.26-3.37,4.68-5.22.56-1.21-.37-1.43-1.17-1.72a3.21,3.21,0,0,1-1.48-.91c-.1-2.67,3-4.49,2-7.41,4-.92,5.85,1.85,7.86,4.4a3.4,3.4,0,0,0,2.44,2.25c3.35-.31,6.06-4.84,4.63-7.81-.49-1-1.62-1.72-1.64-3a18.9,18.9,0,0,1,1.39-3.27c1.35-3.17,2.42-3.28,4.57-.64a.9.9,0,0,1,.12.42,1.93,1.93,0,0,1,0,.34.6.6,0,0,0,.32-.76c.74-1,1.21-2.23,2.42-2.8,1-1.06,1.3-2-.51-2.5-3.19-7.07-6.56-14.05-9.55-21.2,2.34-2.43,4.7-4.64,3.07-8.75-.72-1.81,1.38-2.59,3.19-2.59,1.5,1.56,3.05,3.09,2.69,5.54-.52.73-1.94.33-1.9.42.71,1.57-.11,3.72,1.73,4.82.76.46,1.75.22,2.53.7a1.32,1.32,0,0,1,.44,1.09,2.7,2.7,0,0,1-2.47,1.33,6,6,0,0,1,3.31,1.1c1.09.48.85,2.53,2.62,2.23a23.65,23.65,0,0,1,5.12,13.46,12.7,12.7,0,0,0-.06,6.45c.12,3.11-1.07,5.85-2.37,8.57-2.78,5.81-6.23,11.25-9.27,16.85,6.36,2.35,9.93-1.36,13.07-6,4.22,0,8.07,2.37,12.36,2,1.26,1.29-.47,2.88.45,4.19a14.09,14.09,0,0,0,2.52.7c1.77.54-.34-1,.53-1,1.58-1.58,3.58-1.14,5.46-1.23,1.55-.36,3.3,1.2,4.72-.49,2.1-2.1,5.14.92,7.22-1.32,1.82,2,4-.67,5.89.44,1.08.32,2.18.57,3.25.92,1.55.49-.15-.75.41-.84,1.23-1.47,2.55-.88,3.89-.2,2.08,2.74,5,.48,7.47,1.28-.9-1.08-3-.18-3.37-2.06-.15-2.9-1.79-6,1.22-8.47,2.81.17,4,2.23,5.21,4.35.7,1.48.29,3.53,2.23,4.34.57-.21.37-.69.35-1.11a1.77,1.77,0,0,1,.2-1,2.15,2.15,0,0,1,2.08-.58c.77-.28,1.68,1.49,2.36-.17,2.93-1.2,2.81-2.91,1.37-5.44-1.85-3.22-4.67-5.67-6.54-8.83-.88-3.61,2.39-3.89,4.24-5.32,1.64-.56,2.56,1.48,4.15,1.13,3.38,2.71,6.51,5.74,8.19,9.75,1.35,3.2,3.43,4.52,6.71,4.4,1.85,1.43,2.09,2.78-.19,4-.16.09-.39.16-.43.4,4.76-2.71,3.05,1.89,4,3.52a6,6,0,0,1-1.07,3.19c-5.21,3-11,3.65-16.8,4.51a7.63,7.63,0,0,1-2.9-.84c-.29-.13-.59-.49-1-.18a.78.78,0,0,1,.57,1c-2.15,2.07-4.93,1.64-7.53,2a9.54,9.54,0,0,1-3.22-1.1c0,.21-1.28-1.2-.27.22a.77.77,0,0,1,.22.71c-.85,1.3-2.11,1.21-3.4,1.06-1.52-.3-2.84-1.18-4.36-1.49,0,.77.65.16.93.38a1.38,1.38,0,0,1,.57.62c-.59,1.65-1.92,1.49-3.24,1.35a7.23,7.23,0,0,1-1.74-.74c-.92-.2-1.66-1.42-2.76-.49a1.05,1.05,0,0,1,.32,1.4c-1.2,1.19-2.65,1-4.12.8-1.14-.31-2.3-.56-3.42-.94-.1,0-.64-.85-.6.1,0,.17.25.41.13.76-1.38,1.59-3.12,1.29-4.87.94a5.11,5.11,0,0,1-1.13-.54c-1.27-.78-2.57-1.47-4.11-.89.9.23,1.37.68.93,1.64-1.78,1.47-3.81,1.09-5.83.82l-6.36-1.5c-.94-.29-.56.9-.39.32,0-.05.13,0,.3-.05.77-.15,1.43-.12,1.69.81-1.86,2.4-4.33,1.57-6.69,1.27a5.34,5.34,0,0,1-1.27-.56c-2.61-1.48-5.46-.93-8.23-.94a3.82,3.82,0,0,1-.82.15c-.35,0-.28,0,.21.05,1,0,2.42-.59,2.14,1.4-3.61,2.11-7.44,1.23-11.23.82a10.48,10.48,0,0,1-2.19-.89c-3.36-1-6.8-.41-10.2-.51-10.85-.31-21.71.52-32.55-.45-.09,0-.24,0-.25.1a1.41,1.41,0,0,0,0,.47,1.54,1.54,0,0,1-.85,1.07c-3.41.81-6.79,1.25-10.08-.42-.76-1.17,0-1.53,1-1.79a2.06,2.06,0,0,1,.75-.05c-.1-.05-.19-.11-.33-.17-2.53.25-5.11-.17-7.5.91a9.2,9.2,0,0,1-1.86.79c-2.29.36-4.62.89-6.65-.83-.4-1.24.5-1.41,1.34-1.59a2.83,2.83,0,0,1,.71,0l-.32-.16a17.72,17.72,0,0,0-6,.74c-.79.32-1.56.65-2.37.89-1.51.28-3,.45-4.19-.82-.37-.91.35-1.26.84-1.69-2.74.25-5.16-1.23-7.79-1.23-1.53,0-3.25-.58-4.56.83a4,4,0,0,1-1.56,1.06c-1.51.34-3,.49-4.13-.89-.67-.23,1-1.21-.19-1a9.22,9.22,0,0,1-3.47,0,11.45,11.45,0,0,0-6.2,0c-1.11.1-2.19.1-2.82-1.07-.13-.76.74-.78,1-1.26a21.59,21.59,0,0,1-4,1.52,11.6,11.6,0,0,1-7.6-1.68c.17-1-.25-1.11-1.19-1-1.6.22-3.23-.38-4.85,0-2.66,0-5.29-.12-7.55-1.8-.48-1.4.49-1.68,1.32-2-1.42-.67-1.57,1.09-2.44,1.62a5.08,5.08,0,0,1-5.32-1.45c-.61-.94.26-2.52-1.68-3-1.3-.32-2.68-1.42-1.29-3.23a1.69,1.69,0,0,1,1.15-.32c.45,0,.66.55,1.15.43a9.45,9.45,0,0,0-.91-1c-1.14-1.22-4.24-.49-3.79-3,.4-2.2,3.3-.62,4.59-1.95,2.48,1.16,4.24.15,5.83-1.78,1-1.22,2.07-2.54,3.91-2.61a4.51,4.51,0,0,1,1.84,1.65c2.24,1.38.27,4.82,3,6,4.66.93,9.34,1.78,14,2.45,1.29.19,2.77-.05,3.26,1.68a1.16,1.16,0,0,1-1.84.35c1.43,1.08,2.42-.57,3.64-.77,3.12,1.15,6.65-.43,9.66,1.43,0,2.79,1.46.84,2.36.72a3.88,3.88,0,0,1,1.13-.19,7.32,7.32,0,0,1,3.23.61,3.55,3.55,0,0,0,2,.64c2.32-2.33,4.94-1.49,7.56-.74,3.17.93,6.65-.11,9.7,1.5.69.24-.06,1.3.54,1.31s.78-.69.67-1.32c-2.47-5.83-6.94-10.42-9.73-16.09-1.9-3.87-2.67-7.48-1.5-11.62a120.77,120.77,0,0,1,7.35-18.3c4.12-8.8,7.1-18.06,11-27,2.32-1.19,2-3.22,1.62-5.25.61-4.86.91-9.77,2.9-14.34.51-.12,1.11-.39,1.09.55.51-.53,0-1-.15-1.4-.32-1.09-.63-2.18-.91-3.28-.28-2.26-.76-4.54.73-6.59,1.12.21,1.64-.21,1.39-1.4a23.93,23.93,0,0,0,.32-5c.34-3.79,1-7.61-1.52-11-.22-4-1.81-8.09,1.26-11.7,1.82.51.32,2.31,1.26,3.24.11.52.81-.31.28,0-1.25-3.08-1.09-6.44-1.95-9.61-.21-2.2-.89-4.49,1.22-6.23,1.66.64,1,1.81.8,2.94.88-2.43-.69-4.56-.87-6.84a23.67,23.67,0,0,1-.46-3,3.55,3.55,0,0,0-.59-1.53c-1.12-.89-2.17-.23-3.23.11a7.32,7.32,0,0,0-1.93,1.17c-.83.73-1.4,1.76-2.5,2.15-1,1.06.37,1.94.25,2.93.16,1.25.2,2.46-1,3.29.52-.33-.7.56-.44,0,.06-.13-.42-.32-.41-.29a37,37,0,0,0,1.08,5.29c.28,2.15.63,4.3-.61,6.29-.8.91-1.62-.13-2.42,0-.71,3-.72,5.81,1.14,8.41a10.07,10.07,0,0,1,1.06,2.64c.13,4.82,1.43,9.72-.94,14.36-2.42.24-1.57-1.63-1.8-2.73.18,3.49-.19,7,.81,10.32a10.64,10.64,0,0,1,.78,1.8c.31,1.57.55,3.13-.93,4.31-.81.19-1-.39-1.13-1a2.23,2.23,0,0,0,.18,1.22,20.38,20.38,0,0,1,.95,3.44c.09,1.07.06,2.08-1.05,2.67-1.63-1.28-.64.74-1.13.91-1.45,2,.27,3.9.34,5.85-1.36,7.09-4,13.74-6.76,20.36-4.47,10.9-10,21.36-13.31,32.73-.53.55-1.48.43-1.88,1.19a20,20,0,0,0-.06,7.12,2.3,2.3,0,0,1,1.51.11,5.57,5.57,0,0,1,1.49,5.16,2.56,2.56,0,0,1-1.23,1.4c-.92-.15-2-.58-1.57,1.16-.5,1.43-1,2.84-2.87,2.94-2-.3-3.4-2.19-5.57-2-3.47-2.19-8-1.92-11.2-4.61.12-.91,1.09-.65,1.57-1.07-2.07,1-4.63.38-6.41,2.14-2.26,1.25-4.37,3.06-7.26,1.91-1.25-1-2.33-2.12-1.54-3.95,2.69-1.26,5.93-1.53,7.73-4.36,1.65-1.86,4.33-.64,6.13-2.05a10.71,10.71,0,0,1,1.76-.5c2.61-1.21,5.45.16,8.08-.73,1.32-1.51.59-3.24.56-4.89,1.19-1.95-.85-1.33-1.47-1.83a10.85,10.85,0,0,1-1-.6c-1.54-.8-3.25-.45-4.86-.73-.59-.11-.89.07-.29.07.06,0,.12.26.19.4a1.17,1.17,0,0,1-.7.9,2.93,2.93,0,0,1-3.51-2,8.17,8.17,0,0,1,.87-2.53c.32-.51-.77-.49-.22-.27.17.07,0,.48-.14.78a2.22,2.22,0,0,1-1.31,1.15,9.27,9.27,0,0,1-5.2-9.41,9.47,9.47,0,0,1,6.82-8.15c3.4-1,7-1.3,10.29,1.21,1.69,1.3,3.66,3.77,6.15,1s2.29-5.08-.39-8.17a8.38,8.38,0,0,1-1-1.47c-.73-1.8-1.6-3.09-3.47-1-3.24-.07-6.28-1.29-9.49-1.56-1.62-.6-1.31-2.35-2.07-3.47a2.82,2.82,0,0,1-.1-1.19,1.64,1.64,0,0,1,.72-.95,3.1,3.1,0,0,1,.85-.15c.69,0,.67,0,.77-.75.3-2.05,2.09-.82,3.06-1.38a1.6,1.6,0,0,1,.49-.93c6.59.45,12.17,3.6,17.85,6.85,4.81-9.39,7.28-19.47,9.91-29.5a2.77,2.77,0,0,0,.85-.75c.41-.86.85-1.71.09-2.6-.38-.6-.11-1.42-.64-2a33.11,33.11,0,0,1,.67-9.26,1.62,1.62,0,0,1,.66,1.88,3,3,0,0,0,0,1.26c.09-.42-.06-.86.12-1.27.22-3.53,1-7,.14-10.58A4.15,4.15,0,0,0,271.88,309.84Z" transform="translate(-182.69 -233.29)"/><path class="cls-1" d="M449.42,423.45c-.44-4.14-2.72-3.51-5.5-1.53.36-2.6,4.91-2.57,2.76-5.8.05-2,1.72-1.83,2.9-2.05,3.2-.59,5.8-2.37,8.31-4.19,3.38-2.44,3.15-4.09-.34-6.34-5.7-3.67-12.33-4.29-18.67-5.87-1.73-.43-3.51-.68-5.27-1-2.37-.46-4.12.12-4.93,2.58a3.21,3.21,0,0,1-.8,1c-2.4.94-2.5-1.47-3.64-2.51.65,5-3.36,4.13-6.08,4.89-4.75-.94-9.36-2.75-14.32-2.25-.39.06-.78.12-1.16.2a6,6,0,0,0-.6,5.85c.31.19.61.41.9.62.86.9,2.36,1.24,2.46,2.8a3.58,3.58,0,0,1-2.14,1.27c-.4.58.54,1.77-.25,1.8-3.63.14-1.11,3.15-2.2,4.42-1.09.73-2.63.57-3.41,2-2.36,4.2-5.56,2.91-8.8,1.25a4.38,4.38,0,0,1,1.46-4.59c1.92-.49,1.71-1.65.94-3a9.82,9.82,0,0,1,1.5-6.62c.15-1.05,1.78,1.5,1.5-.62a65.57,65.57,0,0,0,.17-7,1.46,1.46,0,0,1-1.36.55,2.42,2.42,0,0,1-1-2.61c.55-1.76.55-3.42-.88-4.83-1.37-2.88-2.74-5.75-2.74-9,.58-2.11-.6-3.51-2-4.82-2-2.29-2.92-5.17-4.45-7.72-6.66-12.93-14.8-25.09-20.16-38.68-1.42-3.59-3.26-7.12-3.07-11.17.17-.86,1.36-.84,1.51-1.73-.52.15-1,.56-1.59.39-1.72-1.62-1.86-3.73-1.87-5.88a9.39,9.39,0,0,1,1-2.94c-.26-.12.85-.59-.12-.48-.12,0-.32.36-.69.28-1.1-.62-1.12-1.63-1-2.7.23-1.74,1.05-3.31,1.23-4.67.54-.85.53.08.14-.38-.07-.08-.27,0-.28.26,0,.66-.2,1.12-.94,1.16-1.45-.87-1.29-2.24-1.16-3.62a60.89,60.89,0,0,0,1.47-7.55c-.8.72.44,2.42-1,3.09-2.53-1.57-1.69-3.92-1.46-6.14.26-1,.64-2,1-2.95.95-10.43.25-20.88.35-31.3-.19-1.13.12-2.29-.18-3.42,0-2,.14-3.94,1.78-5.4,2.64,0,3.83-2.41,5.81-3.51,1.06.48,1.56,2.19,3.19,1.46a10,10,0,0,1,3.8.35,6.3,6.3,0,0,0,1.5.2c35.07,0,70.14.11,105.19-.06,1.49-.59,3.18,0,4.64-.76a3.52,3.52,0,0,1,3.45,2.72c-.61,1.66-.07,3.39-.35,5.07a2.19,2.19,0,0,1-1.73,1.2c-1.75.15-.12.68-.14,1a3,3,0,0,1-3.06.65A13,13,0,0,0,476,254q-53.66-.12-107.28,0a9.85,9.85,0,0,0-3.11.81l-.26.22-.32-.11a7.43,7.43,0,0,0-.07,7.13l-.23.07-.07-.22c1,1.13,2.53.41,3.71,1,33.62.21,67.23,0,100.85.09,3.15,0,6.29,0,9.44.1a11,11,0,0,0,2.28-.87c4.35,2.75,5.13,6.75,1.94,9.91a15.86,15.86,0,0,1-6.65-.06c-36.32-.16-72.64,0-108.92-.08-.13.29-.82-.66-.63.24.06.26.69.44.91.83-2.47.17-3.6,1.22-3.39,4,.36,4.63.31,9.28.43,13.92a4.51,4.51,0,0,0-.67.89,7.84,7.84,0,0,0,0,3.73,9.36,9.36,0,0,1,.86-.4c.22,1.61.43,3.21.64,4.81-.7,1.21-.24,2.52-.35,3.78,0,.15-.09.35.09.47a1,1,0,0,1,.56-1q1.68,8.3,3.38,16.59c-.68,1.17.62,2,.48,3.16-.21,1.72.47-.29.62.11,2.57,8.37,7.33,15.76,10.71,23.78,1.26,3,3.56,5.8,5.1,8.92,1.81,3.64,4.34-.12,6.55.1a2.45,2.45,0,0,1,.84,1.62c-.44,2.08.75,3.42,2.11,4.7.38,2-2.47,3-1.73,5.18,1,2.91,2.28,5.42,6,5.21,2.34,1.61,4.7,3.15,7.71,1.61,3.28.64,5.21,2.55,5.6,5.92a16.8,16.8,0,0,0-.05,7c-.13,2,.34,3.79,2.21,4.92.91,1.86,2.29,1,3.58.6,4.41-4.82,3.91-10.29,2.19-15.93-.83-2.73-2.77-4.94-3.53-7.7,0-.93.64-1.59.95-2.49-1-.37-1.73.68-2.66.58-1.4-.15-2.57-.61-2.87-2.2a2,2,0,0,1,1.23-1.7c-.67-.57,2.28.87.48-1-1.65-1.74,1.1-3.12,2.32-4.44,5.73,3.44,10.18,8,12.45,14.42-.61,1.73.24,3.09,1.09,4.47-.48,6.88,4,9.9,9.65,10.07,4.49.14,8.44,1.56,12.51,2.67,7.49,2,15,4.41,19.66,11.41-.54,1.26.51,2.12.79,3.18A3.1,3.1,0,0,1,473,405c-.25,1.5-.07,3-.18,4.52.06,1-.9,2,0,3.07,0,.15,0,.38-.06.43-8.75,5.83-8.91,15.66-11.43,24.4-.49,1.69-1.14,3.33-1.72,5-4.17,2.67-5.63,2.24-8.77-2.57a10.61,10.61,0,0,1,.62-6.9c.92-2.27,1.73-4.7.46-7.17C451.14,424.89,450.14,424.32,449.42,423.45Z" transform="translate(-182.69 -233.29)"/><path class="cls-1" d="M381,527.5c-8,3.94-16.77,5.6-25.38,7.65a3.07,3.07,0,0,0-1.37-.87,2.86,2.86,0,0,0-1.2,0c.14.48.79.5.91,1a3.87,3.87,0,0,1-2.89.69,12.33,12.33,0,0,0-4.81-.23c.35-.41,1-.13,1.58.57a6.44,6.44,0,0,1-4,.6,4.08,4.08,0,0,0-1.12-.66c-9.24-.2-18.47-1.26-27.71-.1a7.72,7.72,0,0,0-1.76.79,8.21,8.21,0,0,1-4.68-.72c.29-.55,1-.45,1.39-.81-1.24.64-2.69-.19-3.9.59-12.07-1.47-23.42-5.3-34.42-10.32-1-1.92-2.6-2.33-4.54-2.07l0,0c-2.33-3.41-2.12-5.47.86-7.54.93-.65,1.86-1.45,3.14-.27,1,.92.93-1.2,1.86-1a102.14,102.14,0,0,1,19,7.47,6.57,6.57,0,0,0,4.79,1.25c5.08.28,10.17.45,14.8,2.95-.14.91-.67,1.09-1.47.82.49.43,1,.17,1.48,0a23,23,0,0,1,2.79-1.09c1.74-.31,3.46-.53,5,.63.63.46-.14,1.39.62,1.81,6.21-.39,12.4.23,18.57-.37.37-.2.74-.41,1.09-.64a7.75,7.75,0,0,1,2.27-1,2,2,0,0,1,1.14.23,2.08,2.08,0,0,1,.4,1c1.31.75,2.07-.33,3-.93a6.79,6.79,0,0,1,.82-.88c2.91-.6,5.65-2.18,8.78-1.65,2.07,0,4.25.8,6-1a37.14,37.14,0,0,1,16.12-5.39c1.65.59,3.07.43,4-1.29a7.18,7.18,0,0,1,4.05-2.67A8.92,8.92,0,0,1,390,516c1.34,2-1.31,2.26-1.58,3.57.22,3.47-2.25,2.8-3.81,2-2.91-1.44-2.31,2.72-4.33,2.34.13.32.35,0,.53.08C383.31,525,381.26,526.32,381,527.5Z" transform="translate(-182.69 -233.29)"/><path class="cls-2" d="M207.78,415.36c-.32,3.08-2.92.6-5.09,2,3.93.23,5.66,2.36,7.5,4.56-2,1.37-2.85-.8-4.22-1.22a6.55,6.55,0,0,0-.6-.58c.2.19.41.38.6.58-1.11,2.11,1,2.74,1.94,2.94,2.56.55.87,1.73.69,2.71-3,.61-3.67,2.07-2.89,5.24A102.68,102.68,0,0,0,213,452.13c1.35,2.76,3,5.52,2.82,8.81-.44,1.36-1.28,2.54-1.46,4.05-.36,3-2.05,4-4.9,2.66-1.07.13-1.5-.52-2-1.39-6.75-12.68-12-25.88-14-40.21a4.43,4.43,0,0,0,.31-2.44,1.71,1.71,0,0,0-.12-1,.89.89,0,0,1-.47,1c-1.1-4-4.68-6.08-7.33-8.82-1.64-1.7-2.77-3.34-2.67-5.71,4-2,5.05-1.39,6,3.76,2.22-1.26,3.45-4.38,6.68-3.54C199.94,411.16,204.32,412.35,207.78,415.36Z" transform="translate(-182.69 -233.29)"/><path class="cls-3" d="M450.72,439.45c2.52,2.26,4.88,5,8.82,3a3,3,0,0,1-.93,2.69,3.34,3.34,0,0,0-1.12,3.55c-3,8-5.94,15.93-11.37,22.65-1.11.58-1.68,2-3.13,2-.7.34-1.53-2.59-2.21.18s-1.8,5.61-2.06,8.58c-2.64,5-6.65,8.84-10.69,12.66a4,4,0,0,1-4.9-.72c-.64-.61-1.42-1.69-.38-2.21,3.49-1.75,1.62-4.18,1.07-6.47,1.55-4.69,5.28-8,8.2-11.64,7.39-9.19,11.27-20,16-30.5C448.62,441.74,448.67,439.88,450.72,439.45Z" transform="translate(-182.69 -233.29)"/><path class="cls-1" d="M196,409.89c-3.48-.28-4.4,3.25-6.94,4.52-1.1-2.56-.58-7.1-5.79-5.34-2-5.95,2-10.58,6.33-13.79a35.19,35.19,0,0,1,4.71-2.49,8.42,8.42,0,0,0,4.47-1.06c.25-1.73,1.83-1.8,3-2.11,2.61-.69,5.3-1.11,7.95-1.64,1.33,1,3.13.6,4.51,1.47a4.2,4.2,0,0,1,2,1.53c.49,2.76-3.31,3.72-2.75,6.53-3.44,2.5-7.75,2.7-11.53,4.36S195.47,405.41,196,409.89Z" transform="translate(-182.69 -233.29)"/><path class="cls-2" d="M424.21,485.62c3.52,3.89,3.17,5.93-1.3,6.95,1.32,1.77,3.19,2,5.12,2.17-3.42,5.89-9.15,9.38-14.2,13.57a12.47,12.47,0,0,1-6.45,0c-2-.58-3.91-2.2-3-5a24.11,24.11,0,0,1,10.25-8.19c.6.1.9,1.08,1.06,1,1.11-.6.32-1.8.68-2.68A15.41,15.41,0,0,1,424.21,485.62Z" transform="translate(-182.69 -233.29)"/><path class="cls-3" d="M405.11,503.34c.33,2.49.6,4.74,4.3,3.63,1.24-.36,2.94.85,4.42,1.34-2.8,2.84-6.34,4.7-9.52,7-2.35-1.11-2.77.77-3.46,2.23l-5.54,3.1c-.86-.82-1.87-.5-2.85-.39-.83,0-1.65-.13-2.48-.2a15.37,15.37,0,0,1-3.69-1.1c.47-1.88,3.51-.34,3.6-2.7-.68-1-2.52-1.19-1.87-3,4.08-4.2,9.57-6.39,14.16-9.87A2.49,2.49,0,0,1,405.11,503.34Z" transform="translate(-182.69 -233.29)"/><path class="cls-3" d="M446.8,339.06c-4.54,4.52-9,9.08-13.63,13.54-1.64,1.6-3.71,2.26-5.55.38a3.77,3.77,0,0,1,.25-5.92c4.67-3.91,8.95-8.21,13.26-12.49,1.92,1.06,5.16-.8,6,2.7A5,5,0,0,1,446.8,339.06Z" transform="translate(-182.69 -233.29)"/><path class="cls-2" d="M215.89,391a1.85,1.85,0,0,1-1.8-.91c-1.3-.62-2.81-1-3-2.82l2-1.85c.52.19.48.64.51,1.06a9.57,9.57,0,0,1,.35-1.27,8.5,8.5,0,0,0,0-4,4,4,0,0,0-.61-1c.29-2.77.61-5.53,3.08-7.39a1.93,1.93,0,0,1,1.12-.32,8.33,8.33,0,0,0,4.58.83,2.06,2.06,0,0,1,1.68,1.83,35.13,35.13,0,0,0-.08,18.54c-2.19,4.16-3.95,4.48-7.33,2.45C213.42,394.32,216.38,392.61,215.89,391Z" transform="translate(-182.69 -233.29)"/><path class="cls-1" d="M272.69,515.37c-.95.83.43,2.5-.9,2.94-.52.18-2.6.32-1.48-1.89.31-.62-1.16-.1-1.58.23-2.33,1.9-3.14,4.2-1.56,7-4.64-2.51-9.68-4.38-13.41-8.34-1.33-2.08,1.08-2.62,1.6-3.93.94-1.36.78-3.61,3.11-3.85C264.28,508.2,268.47,511.81,272.69,515.37Z" transform="translate(-182.69 -233.29)"/><path class="cls-4" d="M232,497.57c-3.77-3.7-8.17-6.8-10.89-11.49.19-2.56,1.26-4.12,3.9-2.55,1.77,1.07,2.74,0,4-.75a1.63,1.63,0,0,1,1.68.29c1.21.51,1,3,3.05,2.28,3.5,1.73,5.67,4.74,7.7,7.89a4,4,0,0,1,.36,1.22,4.66,4.66,0,0,1-.17,1.29,4,4,0,0,1-1.53,2,2.55,2.55,0,0,1-2.93-.55,3.07,3.07,0,0,1-.67-1.48c-.06-.36,0-.54-.09-.48a.92.92,0,0,0-.22.77,1.3,1.3,0,0,1-.72.7c-.82.18-1.72-.07-2.48.43A3.13,3.13,0,0,1,232,497.57Z" transform="translate(-182.69 -233.29)"/><path class="cls-4" d="M398.18,338.68a3.85,3.85,0,0,1-1-4.48c1.36-3.77,2.84-7.51,4.21-11.28.89-2.44,2.7-3.19,5-2.47,2.44.78,3.06,2.8,2.23,5.06-1.54,4.14-2.58,8.48-4.87,12.33C402,338.86,400.23,339.69,398.18,338.68Z" transform="translate(-182.69 -233.29)"/><path class="cls-2" d="M417,357.65c-1.53,2.28-.92,5.63-3.66,7.3a23.17,23.17,0,0,1-9.93-2.9c.3-2-1.4-.73-2-1.24.24.39.65.72.33,1.26a2.79,2.79,0,0,1-3.53.45c-1.32-1.64-.95-2.85.71-3.57-1.92-.58-4.21-.29-6.24-1.35v-1.79a9.41,9.41,0,0,1,5.45-1.7,3.82,3.82,0,0,0,1,.64,41,41,0,0,0,7.18,0,8.68,8.68,0,0,0,1.65-.64C411.36,354.11,414,356.18,417,357.65Z" transform="translate(-182.69 -233.29)"/><path class="cls-2" d="M233.05,322.34c2-.75,3.48-.58,4.26,1.85,1.49,4.62,3.18,9.18,4.78,13.76a1.9,1.9,0,0,1-.87,2.29c-.53,4-3.34,1.94-5.34,2-2.56-4.15-3.62-8.83-4.8-13.46a6.32,6.32,0,0,0,.72-5.17C232,322.94,232.61,322.74,233.05,322.34Z" transform="translate(-182.69 -233.29)"/><path class="cls-5" d="M458.18,368.32c-3.19,3.17-7.56,3.32-11.51,4.54-1.69-.78-3.69.44-5.3-.81-2.12-2.83-.9-4.95,1.83-6,3.46-1.31,7.14-2.05,10.72-3C457.17,363.32,458.42,365.23,458.18,368.32Z" transform="translate(-182.69 -233.29)"/><path class="cls-6" d="M367.56,273c-.46-.73-2,.41-2-1.16a6.13,6.13,0,0,1,3.09-.32H473.76a7.43,7.43,0,0,1,3.53.34l5.56.21c-1,1.18-2.47,1.05-3.77,1.05Q423.33,273.09,367.56,273Z" transform="translate(-182.69 -233.29)"/><path class="cls-7" d="M367.42,263c-1.05-.11-2.17,0-2.79-1.17l110.91.1c1.79,0,3.58.14,5.37.21L480,263c-2.3,1.19-4.72.34-7.07.34q-50.32.1-100.65,0C370.68,263.35,369,263.67,367.42,263Z" transform="translate(-182.69 -233.29)"/><path d="M477.29,253.81l1.81.9c-15,.06-30,.17-45,.17q-34.24,0-68.48-.11c.38-.77,1.12-.83,1.84-1a6.4,6.4,0,0,1,3.1-.34H474.19A6.67,6.67,0,0,1,477.29,253.81Z" transform="translate(-182.69 -233.29)"/><path class="cls-7" d="M369.22,245a6.77,6.77,0,0,0-.87-.19c-.13-.76,0-1.22.94-.88l109-.07c.89,0,1.79.14,2.68.22-.95,1.33-2.45.59-3.65.95a8.11,8.11,0,0,1-3.56.32h-101C371.58,245.33,370.36,245.56,369.22,245Z" transform="translate(-182.69 -233.29)"/><path class="cls-4" d="M369.29,243.91l-.94.88c-.89,1.2-1.88-.18-2.8.11-1.75.66-1.91-1.05-2.72-1.81-1.42,1.85-1.87,5.2-5.53,3.57-1-.87-1.22-2.18-1.71-3.33-.58-3.15-3.14-3.9-5.67-4.7-1.19-.37-2.71.22-3.52-1.23.85-2.06,3-1.94,4.59-2.85a15.74,15.74,0,0,1,7.47.38l0-.17c.88,1.43,3.58.44,3.75,2.82a3.37,3.37,0,0,1-3.24,1.38c-.36-.14-.55-.51-.88-.71.12.2.38.25.5.46,1.11.23,2.36,2,3.24-.3,2.53-.84,3.14,1.86,4.81,2.6C368.06,241.46,368.17,243.15,369.29,243.91Z" transform="translate(-182.69 -233.29)"/><path class="cls-2" d="M202.36,362.14c2.69-1.06,3.45,1.21,4.68,2.68-1.28.92-1.61,3-3.6,3a6.61,6.61,0,0,1-4.83-.28c-1.39-.47-2.78-.91-4.15-1.42-2.56-.95-4.86-2.45-3.57-5.52,1.12-2.68,4-2,6.29-1.83.9.05,1.76.93,2.64,1.44C199.87,362,200.76,362.52,202.36,362.14Z" transform="translate(-182.69 -233.29)"/><path class="cls-5" d="M212,350.52l-2.66-2.73c-.85-1.14.38-3.94-2.66-3.34-2.24-2.57-.17-4.15,1.55-5.38s3,.27,4.49,1.37c2.83,2,4,5.33,6.64,7.42,1,.8,2.39,1.84.24,3-.25,3.1-1.73,3.52-4.15,1.9-.67-.9-.75-2.41-2.38-2.34A6.35,6.35,0,0,1,212,350.52Z" transform="translate(-182.69 -233.29)"/><path class="cls-8" d="M218.53,482c-2.63-1.23-3.7-3.6-4.51-6.16-.19-4.12,3.22-6,5.43-8.55,4.27,2.76,6.59,6.86,7.93,11.62-1.6,2.56-3.29,2.87-4.9.07-.62-1-1.13-2-2.54-2.08C221.2,481.54,221.2,481.54,218.53,482Z" transform="translate(-182.69 -233.29)"/><path class="cls-5" d="M247.44,510.93c-2.15-1.1-4.82-1.57-5.42-4.53-.55-.59-1-1.64-.45-2,2.12-1.38,1.81-4,3.18-5.72a3.56,3.56,0,0,1,1.9-.3,11.47,11.47,0,0,1,8.24,6.75c.33,2.79-2.86,1.22-3.5,2.83a2.13,2.13,0,0,1-.71.81A21.11,21.11,0,0,0,247.44,510.93Z" transform="translate(-182.69 -233.29)"/><path class="cls-3" d="M219.59,467.35c-1.08,3.34-4.09,5.43-5.57,8.53-2.55-2.17-4.44-4.71-4.59-8.23,2.39-.22,4.33-1,4.18-3.87-.08-1.42,1.22-1.86,1.58-2.91C219,461.44,219.27,464.41,219.59,467.35Z" transform="translate(-182.69 -233.29)"/><path class="cls-9" d="M218.53,482c2.38-.24,1.52-1.57.92-2.78s-2.36-2.79-.44-3.62c1.18-.52,3.79.49,4.15,2.21.68,3.22,2.09,2.06,3.71,1.11,2.64-.16,3.15,1.35,2.76,3.55-1.36,2-2.13,5.22-5.51,1.71-1.17-1.21-2.23.77-3,1.86C219.85,485,218.38,484,218.53,482Z" transform="translate(-182.69 -233.29)"/><path class="cls-4" d="M392.6,519.89c1.42-1.52,2.48-1.79,2.71.78a6.22,6.22,0,0,1-4.22,2c-.93.64-2.47.27-2.92,1.73A24.27,24.27,0,0,1,381,527.5c1.56-3.55-2.69-2.14-3.39-3.84.65,0,1.62-1.59,2.15-1.88,1.78-1,3.52-2.95,5.86-.81.36.34,1.78.85,2-.41.09-.42-.89-1-1.38-1.58h4.5C390.67,520.74,392.17,519.24,392.6,519.89Z" transform="translate(-182.69 -233.29)"/><path class="cls-9" d="M244.74,499.14c2,3.53-2.93,4.43-2.72,7.26a9.55,9.55,0,0,1-6.21-4.55c.55-2.4,2.81-3.14,4.41-4.5a1.85,1.85,0,0,1,.93-1.8A3.56,3.56,0,0,1,244.74,499.14Z" transform="translate(-182.69 -233.29)"/><path class="cls-10" d="M221.3,373.81c-1.71,1.78-2.7.57-3.62-.89.17-2.95,3.19-4.53,3.54-7.39l1.76-1.67c1.66-1.07,3,.37,4.45.63a2,2,0,0,1,.77.91c.39,1.5-.24,2.83-.71,4.2a4.25,4.25,0,0,1-1.56,1.94,4,4,0,0,1-1.75.45c-.89,0-1.77,0-2.18,1A4.53,4.53,0,0,1,221.3,373.81Z" transform="translate(-182.69 -233.29)"/><path class="cls-11" d="M226.78,369.49c.28-1.56.55-3.12.83-4.68.21-.21.43-.4.65-.59a4.56,4.56,0,0,0-.65.59c-1.89,1.34-3-1.25-4.63-.95,1.22-2.77,3.72-3.8,6.35-4.65a3.66,3.66,0,0,1,2.26,1.15c.84,1.23,1.45,2.66,3.34,1.59,1.23,2.59-1.31,3.48-2.26,5.09C231,368.52,229.49,370.47,226.78,369.49Z" transform="translate(-182.69 -233.29)"/><path class="cls-8" d="M438.72,482.08c-2.77-3.22.85-5.72,1.16-8.6.09-.79.82-2.25,1.15-3.56,1.91.49.57,2.69,2.06,3.09a5.82,5.82,0,0,1,0,3.62C441.8,478.58,441.34,481.19,438.72,482.08Z" transform="translate(-182.69 -233.29)"/><path class="cls-11" d="M240.22,497.35c-.59,2.36-2.93,3-4.41,4.5-1.2-1.49-3.9-1.65-3.79-4.28l.11-1.14c1.21-1.26,2.4.89,3.6,0h0a1.23,1.23,0,0,1,1.81,0C238.17,497.5,239.24,497.31,240.22,497.35Z" transform="translate(-182.69 -233.29)"/><path class="cls-12" d="M337.87,537.18a67,67,0,0,1-19.38,0c.64-1,1.78-1,2.72-1.36a30.15,30.15,0,0,1,13.85.34C336.1,536.18,337.19,536.14,337.87,537.18Z" transform="translate(-182.69 -233.29)"/><path class="cls-6" d="M261.05,245c-1.21-.26-2.6.27-3.61-.84,9-.75,18-.13,26.95-.29l-.92,1.07A144.66,144.66,0,0,1,261.05,245Z" transform="translate(-182.69 -233.29)"/><path class="cls-11" d="M242.92,357.59c-.08,2.08-2.35,0-2.79,1.58l2.94.51c-1.87.41-3.63,1.45-5.54.62-2.17.91-3.55.55-3.5-2.15,1.05-.82,2.06-1.74,3.57-1.3C239.29,357.7,241.25,356.55,242.92,357.59Z" transform="translate(-182.69 -233.29)"/><path class="cls-10" d="M234,358.15c.59,1.66,2,1.91,3.5,2.15v.9c-.67,1-1.37,1.92-2.71.91-3.37,1.94-3.88-1.52-5.49-2.9C230.79,358.38,232.12,357,234,358.15Z" transform="translate(-182.69 -233.29)"/><path class="cls-2" d="M221.22,365.53c1.48,3.73-2.23,5-3.54,7.39l-1.25-.13C216.55,369.4,217.68,366.67,221.22,365.53Z" transform="translate(-182.69 -233.29)"/><path class="cls-9" d="M361.93,237.66c-.8-1.41-2.94-1.2-3.5-2.9,4.17.19,7.07,2.05,8.18,6.25-2.48,1-2.64-2.47-4.64-2.4a.57.57,0,0,1-.26-.62C361.78,237.77,361.85,237.66,361.93,237.66Z" transform="translate(-182.69 -233.29)"/><path class="cls-13" d="M247.44,510.93c.1-2.36,1.63-2.86,3.61-2.77,1.88,1.84,3.1,3.77.9,6.19C249.81,514.05,249.35,511.54,247.44,510.93Z" transform="translate(-182.69 -233.29)"/><path class="cls-6" d="M258.31,254.69l.85-.82a72.86,72.86,0,0,1,16.17-.06c1,.15,2.14,0,2.76,1.12Z" transform="translate(-182.69 -233.29)"/><path class="cls-4" d="M312.35,235.84c-.79,1-1.06,3.07-2.66,2.58-1.19-.37-3.23-.94-2.74-3.18l2.72-1.1C310.54,234.75,311.92,234.54,312.35,235.84Z" transform="translate(-182.69 -233.29)"/><path class="cls-14" d="M215.88,351.37c1.68,3.15,2.72,1.49,3.72-.5,2.24,2.34.11,3-1.51,3.45-3.17.78-5-1-6.09-3.8l.34-.1C213.92,349.25,214.84,350.52,215.88,351.37Z" transform="translate(-182.69 -233.29)"/><path class="cls-15" d="M276.24,261.75l-.91,1.27a65.11,65.11,0,0,1-15.22,0l-1.77-.8Z" transform="translate(-182.69 -233.29)"/><path class="cls-11" d="M252,514.35c.84-2.22-.47-4.14-.9-6.19h0c3.62-1.53,3.21,3,5.41,3.6-.37,1.58-2.74,1.64-2.7,3.54Z" transform="translate(-182.69 -233.29)"/><path class="cls-16" d="M272.79,286.4c1,.69.79,1.81.94,2.8a13.16,13.16,0,0,1,0,6.05c-.11,1.83-.23,3.67-.35,5.5l-.46,0-.41-7.43Z" transform="translate(-182.69 -233.29)"/><path class="cls-15" d="M272.78,321.48l-.4,2.76c-.36-2.3-.54-3.5-.73-4.71.08-3.23.15-6.46.23-9.69a5.77,5.77,0,0,0,.72,0C274.12,313.68,273,317.59,272.78,321.48Z" transform="translate(-182.69 -233.29)"/><path class="cls-6" d="M270.88,272c0,.29,0,.57,0,.86-4.5.21-9,.66-13.48-.1,1-1.21,2.42-.54,3.62-.88A24.75,24.75,0,0,1,270.88,272Z" transform="translate(-182.69 -233.29)"/><path class="cls-17" d="M312.35,235.84l-2.68-1.7c3.11-.7,6.23-1.54,9.08.75l-.55.47a8,8,0,0,1-4.89-.32Z" transform="translate(-182.69 -233.29)"/><path class="cls-3" d="M206.68,344.45l1.41-2.57c0,2.17,3,3.62,1.25,5.91A6.7,6.7,0,0,1,206.68,344.45Z" transform="translate(-182.69 -233.29)"/><path class="cls-12" d="M350.23,235l-3.61,2.72c-.87,1.66-1.79,1.25-2.71,0l-.89-.94,7.22-2.6c.31.17.41.35.3.52S350.33,235,350.23,235Z" transform="translate(-182.69 -233.29)"/><path class="cls-18" d="M232.11,323.39c2.17,2.28,1.89,4.09-1,5.41a1.71,1.71,0,0,1-.73-1.87C231.54,326.05,229.42,323.52,232.11,323.39Z" transform="translate(-182.69 -233.29)"/><path class="cls-13" d="M400.85,517.57c0-1.51-.83-3.46,1-4.22,1.15-.48,1.86,1,2.44,2C403.44,516.52,402.09,517,400.85,517.57Z" transform="translate(-182.69 -233.29)"/><path class="cls-19" d="M446.59,336.82c-1.09-.44-1.78-1.93-3.45-.73-1.27.92-1.58-.65-2-1.52,1.86-2.27,3.75-.16,5.63,0A1.62,1.62,0,0,1,446.59,336.82Z" transform="translate(-182.69 -233.29)"/><path class="cls-20" d="M350.23,235c0-.26,0-.52,0-.78,2.8-.4,5.69-1.77,8.22.74Z" transform="translate(-182.69 -233.29)"/><path class="cls-12" d="M235.88,342.26c1.4-1.68,4.54,1.25,5.34-2,1.6,1.12.65,2.22-.35,2.71C239.19,343.78,237.27,344.38,235.88,342.26Z" transform="translate(-182.69 -233.29)"/><path class="cls-11" d="M443.1,476.63a3,3,0,0,1,0-3.62,4.78,4.78,0,0,1,3-1.71A10.46,10.46,0,0,1,443.1,476.63Z" transform="translate(-182.69 -233.29)"/><path class="cls-21" d="M300.83,236.37c-1.92.21-3.92,1.22-5.64-.56,1.87-.79,3.72-1.4,5.41.36Z" transform="translate(-182.69 -233.29)"/><path class="cls-22" d="M407.87,354.15l-.87.79c-3,.53-6,.84-9-.17a1.84,1.84,0,0,0,0-.66A28.41,28.41,0,0,1,407.87,354.15Z" transform="translate(-182.69 -233.29)"/><path class="cls-19" d="M354,535.27a3.93,3.93,0,0,1-3.33-1.91c2,.64,4.44-2.09,5,1.79Z" transform="translate(-182.69 -233.29)"/><path class="cls-23" d="M203.29,367.53c1.59-.43,1.71-2.91,3.75-2.71,1.17,3.38-1.41,3.59-3.53,4.18A1,1,0,0,1,203.29,367.53Z" transform="translate(-182.69 -233.29)"/><path class="cls-22" d="M337.87,537.18l-2.48-.21c-.54-.57-.38-1.19.31-1.19,2.74,0,5.53-.77,8.2.46a3.64,3.64,0,0,0,0,.66Z" transform="translate(-182.69 -233.29)"/><path class="cls-24" d="M458.18,368.32c-.65-2.38-1.67-4.46-4.26-5.29C458.27,362.44,459.16,364.63,458.18,368.32Z" transform="translate(-182.69 -233.29)"/><path class="cls-1" d="M267.14,523.6c2.59-1.69,3.87-.49,4.54,2.07C270.05,525.23,268.31,525,267.14,523.6Z" transform="translate(-182.69 -233.29)"/><path class="cls-19" d="M202.36,362.14c-1.2,1.52-2.57.74-3.48-.11-1.09-1,.28-1.35.94-1.79Z" transform="translate(-182.69 -233.29)"/><path class="cls-25" d="M203.29,367.53c.07.49.15,1,.22,1.47-2.16,1.34-3.42-.44-4.9-1.43C200.17,367.91,201.72,366.76,203.29,367.53Z" transform="translate(-182.69 -233.29)"/><path class="cls-6" d="M320.88,537l-2.39.15-5.2-.2.9-.89C318.75,535.33,319.6,535.45,320.88,537Z" transform="translate(-182.69 -233.29)"/><path class="cls-26" d="M232.11,323.39c-1.54.7-.13,2.88-1.76,3.54-.12-2.13-2-5.29,2.7-4.59Z" transform="translate(-182.69 -233.29)"/><path class="cls-12" d="M398.18,338.68l5.56-.84C402.26,340.54,400.39,340.74,398.18,338.68Z" transform="translate(-182.69 -233.29)"/><path class="cls-18" d="M211.11,387.23l3,2.82c-1.78,0-3.5-.21-4.43-2.07Z" transform="translate(-182.69 -233.29)"/><path class="cls-27" d="M254.7,246.72c1.32,1.51,1.14,3,0,4.49A4.17,4.17,0,0,1,254.7,246.72Z" transform="translate(-182.69 -233.29)"/><path class="cls-28" d="M364.93,262c-1.76-2.4-2-4.78.07-7.13C365,257.25,365,259.63,364.93,262Z" transform="translate(-182.69 -233.29)"/><path class="cls-24" d="M214.16,385.51l-.58,1.09-.51-1.22c.1-1.73.19-3.47.28-5.2a.8.8,0,0,0,.55,0A6,6,0,0,1,214.16,385.51Z" transform="translate(-182.69 -233.29)"/><path class="cls-14" d="M363.67,290.9h.93l.22,4.22c-.44,1,.09,2.3-1.11,3A14.55,14.55,0,0,1,363.67,290.9Z" transform="translate(-182.69 -233.29)"/><path class="cls-29" d="M441.37,372.05c1.76.31,3.74-.77,5.3.81C444.79,373.3,442.83,374.31,441.37,372.05Z" transform="translate(-182.69 -233.29)"/><path class="cls-30" d="M423.24,359c.25-2.23,1.18-2.74,2.46-2.68.23,0,.69.67.62.9C425.89,358.66,424.31,357.86,423.24,359Z" transform="translate(-182.69 -233.29)"/><path class="cls-31" d="M338.66,235c-2.2-.26-4.59.74-6.57-1h0a7.84,7.84,0,0,1,4.79,0C337.73,233.85,338.42,234,338.66,235Z" transform="translate(-182.69 -233.29)"/><path class="cls-32" d="M198.73,391.73c-1.44.58-2.31,3.57-4.47,1.06C195.55,391.62,197.12,391.6,198.73,391.73Z" transform="translate(-182.69 -233.29)"/><path class="cls-33" d="M482.16,254.06c-.4-.14-1.14-.39-1.13-.41.43-1.46,1.75-1.43,2.92-1.66l.41.08A2.25,2.25,0,0,1,482.16,254.06Z" transform="translate(-182.69 -233.29)"/><path class="cls-34" d="M274.54,283.66c-1.18-.7-.75-2-1.11-3,.1-1.1.19-2.2.28-3.3l.92,1.91A6.21,6.21,0,0,1,274.54,283.66Z" transform="translate(-182.69 -233.29)"/><path class="cls-21" d="M430.49,376.54c-2-1.1-2.47-2.56-1.09-4.47C429.9,373.53,430.82,374.88,430.49,376.54Z" transform="translate(-182.69 -233.29)"/><path class="cls-35" d="M370.24,323a9.63,9.63,0,0,1-.7,1.18c-.16-1.48-1.86-2.86-.4-4.45Z" transform="translate(-182.69 -233.29)"/><path class="cls-9" d="M472.75,412.59c-2.36-.29-1.22-1.61-.8-2.72a1.35,1.35,0,0,1,.82-.49,1.19,1.19,0,0,1,.82.48A3.71,3.71,0,0,1,472.75,412.59Z" transform="translate(-182.69 -233.29)"/><path class="cls-25" d="M388.17,524.42c-.51-.22-1.92-.08-.54-1.11a4.46,4.46,0,0,1,3.46-.62C390.46,523.85,389.31,524.13,388.17,524.42Z" transform="translate(-182.69 -233.29)"/><path class="cls-35" d="M347.86,536.3l-2-.43c1.78-.47,3.57-1.32,5.27.09Z" transform="translate(-182.69 -233.29)"/><path class="cls-29" d="M473.59,409.86l-.31,0-.32,0a6.56,6.56,0,0,1-.13-5.38l.07,0c.25-.45.51-.46.79,0A10.3,10.3,0,0,1,473.59,409.86Z" transform="translate(-182.69 -233.29)"/><path class="cls-24" d="M242.92,357.59c-1.77-.27-3.71.65-5.32-.74l5.32-.09A2.32,2.32,0,0,1,242.92,357.59Z" transform="translate(-182.69 -233.29)"/><path class="cls-31" d="M484.36,252.07l-.42-.08c-.2-1.76-.81-3.57.44-5.21A6.31,6.31,0,0,1,484.36,252.07Z" transform="translate(-182.69 -233.29)"/><path class="cls-29" d="M300.83,236.37l-.23-.2c1.54-1.2,3,1,4.5.14C303.71,239,302.25,236.62,300.83,236.37Z" transform="translate(-182.69 -233.29)"/><path class="cls-36" d="M457.49,448.65c-1.68-1.83-.56-2.78,1.12-3.55A6,6,0,0,1,457.49,448.65Z" transform="translate(-182.69 -233.29)"/><path class="cls-6" d="M271,328.79l.91,1.75a3.31,3.31,0,0,1-.12,3.62l-1.09-.05Z" transform="translate(-182.69 -233.29)"/><path class="cls-37" d="M365.76,303.15a4,4,0,0,1-.29.84c-.2.34-.67.79-.74.06-.12-1.41-.6-2.95.73-4.13Z" transform="translate(-182.69 -233.29)"/><path class="cls-12" d="M473.69,404.49h-.39l-.4,0c-.19-1.28-2.41-2.24-.59-3.83A5.31,5.31,0,0,1,473.69,404.49Z" transform="translate(-182.69 -233.29)"/><path class="cls-38" d="M446.59,336.82c.05-.76.11-1.53.17-2.29,1.73,1.5,1.64,3,0,4.53Z" transform="translate(-182.69 -233.29)"/><path class="cls-39" d="M193.22,423.6a2.83,2.83,0,0,1,.35-.81c.62-.62.6.09.62.38.06,1,.28,2.1-.69,2.88Z" transform="translate(-182.69 -233.29)"/><path class="cls-1" d="M336.89,234a8.86,8.86,0,0,1-4.79,0C333.69,232.85,335.29,233.3,336.89,234Z" transform="translate(-182.69 -233.29)"/><path class="cls-12" d="M322.26,236l-.93.86c-1.13.35-1.91-.27-2.66-1h0c-.3-.18-.41-.37-.31-.56s.18-.3.28-.3l.11-.13A4,4,0,0,1,322.26,236Z" transform="translate(-182.69 -233.29)"/><path class="cls-24" d="M306.1,536c.83-1.08,2-.78,3.1-.75.54,0,.64.32.18.65a3.29,3.29,0,0,1-.77.32Z" transform="translate(-182.69 -233.29)"/><path class="cls-40" d="M229.63,482.51c-.55-1.47-.79-3.19-2.76-3.55-1.54-4.43-5-7.67-7.28-11.61-1.69-2-1.82-5.08-4.4-6.48-1-5.29-4.1-9.77-6.09-14.68-2.67-6.58-4-13.45-5.85-20.76l5.35.93a11.34,11.34,0,0,0,5.48,1.52.5.5,0,0,1,.84.08,18.7,18.7,0,0,0,8.16,1.81c1.77.17,3.59.06,5.19,1a27.23,27.23,0,0,0,8.38,1.55c.88-.45,1.73-.66,2.51.18a3.54,3.54,0,0,0,2.89.73c2.16-.89,4.17.27,6.25.45,1.08.35,2.41-.47,3.33.69a9.85,9.85,0,0,0,4.86.64,4.52,4.52,0,0,1,2.69-.61,18.53,18.53,0,0,0,4.87.38c1.64.26,3.47-.14,4.73,1.39a11,11,0,0,0,4.85.59c2-.24,4.1-1.66,6,.3a22.37,22.37,0,0,0,7.51.66c2.34-.85,4.67-1.62,6.9.26a40,40,0,0,0,11.14.62c1.16-.88,2.53-.79,3.87-.79h36.78a9.08,9.08,0,0,1,4.36.82,46.14,46.14,0,0,0,12.08-.62c2.24-1.79,4.55-1.35,6.88-.24a21,21,0,0,0,7.36-.77c1.42-.92,2.88-.63,4.34-.16a15.73,15.73,0,0,0,6.5-.72c1.09-1.21,2.25-1,3.43-.17a11.32,11.32,0,0,0,5.61-.72c1.08-.94,2.23-.65,3.4-.19a9,9,0,0,0,4.74-.69c1-1.26,2.19-.72,3.35-.29a6.2,6.2,0,0,0,3.85-.63c.75-.89,1.61-.62,2.48-.22a5.87,5.87,0,0,0,3.8-.71c.76-.84,1.63-.59,2.5-.21a29.47,29.47,0,0,0,8.37-1.55c.7-.9,1.57-.57,2.43-.32a80.66,80.66,0,0,0,17.27-4.14c.95-1.13,1.88-2.3,3.52-1,2.17-.16,2.18,1,1.73,2.65-1.06,3.83-2.07,7.68-3.11,11.51-3.9,9.49-7.59,19.08-13.1,27.8-3.37,5.34-6.68,10.73-11.41,15.06-.92.83-1.35,2.2-2,3.31l-7.33,8c-.32.87-.63,1.75-1.78,1.78a48.92,48.92,0,0,0-10,8c-6.1,2.7-11.12,7.2-17,10.24-.29.67-1.15.43-1.53,1l-3.88,2.66a6.46,6.46,0,0,1-3.7,1.58c-6.13.6-11.63,3.07-17.06,5.75a37.66,37.66,0,0,1-5.4.72c-3.2-.44-5.94,1.63-9,1.65-1.38,1.43-2.88,1.25-4.43.33l-.95,0c-2.06.41-4,1.36-6.09,1.59-4,.11-8.05.07-12.08,0-1.44,0-3,.36-4.15-1a12.77,12.77,0,0,0-5.65-.67,2,2,0,0,1-2.54-.16c-4.45-.92-8.91-1.85-13.36-2.75-.75-.15-1.5-.09-1.53,1-1.29-1.69-3.51-.85-5.05-1.87-6-3.52-12.74-5.1-19-8-4.94-2.07-8.91-6.09-14.31-7.25-1.31-.79-2.8-1.32-3.72-2.65a21.58,21.58,0,0,0-7.81-6.41,5.53,5.53,0,0,1-2.62-2.3c0-2.14-2-2.15-3.21-3-2.87-2.55-4.76-6-8-8.27a6.49,6.49,0,0,1-2.69-1.94A.92.92,0,0,0,229.63,482.51Z" transform="translate(-182.69 -233.29)"/><path class="cls-41" d="M364.61,420.69c-2.52,7.41-8.46,8-14.94,7.44a3.13,3.13,0,0,1-.81-.34c4.39-9,11.25-16.73,13-27a12.48,12.48,0,0,1,0-6.22c-.55-5.05-2.82-9.46-5.17-13.84-.93-.47-1.17-1.5-1.83-2.19a2.41,2.41,0,0,1-.66-2.17,1.5,1.5,0,0,0-.32-.77c-1.77-1.73-3.26-3.6-2.93-6.31-.88-1.8-1.77-3.59-2.65-5.39-3.05-2.63-4.42-6.15-5.32-9.93-4.31-9.65-9-19.12-12-29.34-2.24-7.62-3.11-15.48-5-23.16-1-1-.58-2.2-.29-3.35a7.4,7.4,0,0,0-.53-4c-1.27-1.9-.62-3.91-.35-5.9l-.62-7.44c-1.85-8.33-.88-16.76-.88-25.15a2.17,2.17,0,0,1,.89-1.5c1.18-2.66,1.32-5.79,3.54-8a3.24,3.24,0,0,1,3.84-2.56c1.66.22,3.41-.45,5,.46,1.33,3.36-.89,6.05-1.71,9a2.81,2.81,0,0,1,.61,2.25c-.35,7.14-.64,14.29.2,21.42-.18,3.53.83,7.13-.73,10.56a11.74,11.74,0,0,0,.65,5.66c1,1,.67,2.2.22,3.35a7.31,7.31,0,0,0,.7,4.75c.91.75.65,1.6.21,2.47a91.93,91.93,0,0,0,5.46,22.58c.67,1.46,2.17,2.63,1.56,4.53a19.28,19.28,0,0,0,3.6,8.06c3.51,5.81,6.49,11.91,9.85,17.81C361,364.39,365.32,372,368.93,380c.42,1.07.79,2.16,1.31,3.2,5,11.67,3.33,22.84-2.52,33.69A9.14,9.14,0,0,1,364.61,420.69Z" transform="translate(-182.69 -233.29)"/><path class="cls-40" d="M300.67,377.5c2.24-4.9,2.14-10.33,3.49-15.43-.4-.87-.68-1.72.22-2.47a5.64,5.64,0,0,0,.63-3.86,63.28,63.28,0,0,1,0-13.41,5.62,5.62,0,0,0-.64-3.83c-.9-.77-.67-1.63-.21-2.5a10.44,10.44,0,0,0-.66-4.82c-1.63-1.23-.89-3-1-4.59.14-4.64-.3-9.29.25-13.93a29.88,29.88,0,0,0,0-7.38c-.52-2.52-.19-5.06-.28-7.59,0-12.84,0-25.68,0-38.52,0-1.72-.55-3.63,1-5.07,1.33-4.65,3.24-8.87,8.07-10.94.85-1.1,2-.93,3.18-.8a2,2,0,0,1,1.09.8c1.76,3.16-.33,5.88-1,8.74-.4,1.6-2.07,2.82-1.41,4.74.67,3.26.15,6.55.32,9.83-.15,2.49.72,4.92.46,7.42,0,4.22,0,8.43,0,12.65.06,9.46,0,18.91,0,28.37a50.42,50.42,0,0,0,.36,6.73c0,1.59,0,3.17,0,4.76s-.65,3.41,0,5.13c.06,1.18.37,2.38-.28,3.51a3.79,3.79,0,0,0,.7,2.91c1,1.06.64,2.22.23,3.38l0,.95c.84,4.5,2.26,9,0,13.52l0,.95c.35,1.16.7,2.32-.24,3.38a3.73,3.73,0,0,0-.62,2.93c.28.87.59,1.74-.27,2.47-2.64,13.53-7.13,26.57-10.62,39.87a3.91,3.91,0,0,1,.26,2.54c-.7,2.53-.2,5.12-.38,7.68l0,.64c0,4.36,2.86,7.65,4.73,11.71-3.31,0-6.23-.1-9.13,0-2,.09-2.47-1.31-3.15-2.62a26.92,26.92,0,0,1-2.54-19.13c2.33-9.64,5-19.21,7.48-28.81Z" transform="translate(-182.69 -233.29)"/><path class="cls-41" d="M286.14,353.07a389.13,389.13,0,0,1-16.3,39.67c-4.29,9.18-1.58,16.55,3.79,23.9C276,419.9,279,422.81,279.9,427a1.8,1.8,0,0,1-2.56-.05c-3.34-1.45-7.15-.26-10.45-1.88a22,22,0,0,1-7.59-12.5L257.53,407a7.05,7.05,0,0,1-.08-7.78c4.46-16.31,13.59-30.79,18.44-46.95.73-2.42,1.39-4.86,2.08-7.29-.63-1.27.21-2.53,0-3.81a3.85,3.85,0,0,1,1.17-2.26,3.69,3.69,0,0,0,.65-3c-.34-1.15-.78-2.3.28-3.33a7.61,7.61,0,0,0,.62-4.79c-.9-2.95-1.62-5.9.26-8.77,1-5.16.83-10.36.64-15.57-.71-3.25-2.4-6.53.24-9.7a22.65,22.65,0,0,0,.69-7.42c-.39-1.45-.82-2.9.24-4.26a6.16,6.16,0,0,0,.66-3.86c-.39-.86-.69-1.72.24-2.45.41-1.36,1-2.54,2.55-2.91,2.41-.67,4.84-1.83,7.18.19l.09,3.42c.45,1.43.86,2.86-.22,4.21a18.08,18.08,0,0,0-.66,6.62c.43,2.05.83,4.1-.21,6.09-1,4.23-.74,8.51-.63,12.79a3.79,3.79,0,0,1,.73,2.32c-.36,4.58,1.06,9.3-1,13.76a22.36,22.36,0,0,0-.69,7.42c.42,1.17.73,2.32-.21,3.4-1,5.11-2.5,10.14-2.62,15.4C287.2,349.94,287.67,351.9,286.14,353.07Z" transform="translate(-182.69 -233.29)"/><path class="cls-41" d="M356.52,243.15c1.67.86.76,2.29.78,3.51-.58,1.8-1.17,3.6-1.75,5.4.12,10.12.07,20.25.09,30.37a19.46,19.46,0,0,1-.81,6.61,16.62,16.62,0,0,0,.65,6.61c1,1.35.67,2.78.25,4.22a7.24,7.24,0,0,0,.59,4c1.16,1,.68,2.11.28,3.22a3.78,3.78,0,0,0,.71,2.91c.9.74.59,1.6.26,2.47.26,2.22.44,4.46,1.63,6.45a.53.53,0,0,1,.29.52c0,.21-.07.31-.13.31,1.73,9.53,6,18,10.52,26.46,4.3,8,8.55,16,12.83,24-.14,1.07.7,2,.61,3-.14,1.54-1.24,2.42-2.26,1.07-2.26-3-3.3-.23-4.77.69-2.69-.74-3.67-3.37-4.31-5.32-2.38-7.33-6.8-13.58-10.05-20.44-1.37-3-3-5.93-4.4-8.93l-.28-2.51a3.57,3.57,0,0,1-1.42-2.78l-.33-.82c-1.6-.72-1.21-2.36-1.67-3.6a236.46,236.46,0,0,1-7.95-30.89c-1.19-.81-1.16-2.1-1.33-3.31a19.33,19.33,0,0,0-.6-5.14,19.93,19.93,0,0,1,.2-5.56c-1-8.51-.45-17.05-.61-25.58a13.06,13.06,0,0,1,1.1-6.14c.09-4,2.53-6.85,4.73-9.82,1.54-2.08,3.6-2.41,5.95-1.82A4.43,4.43,0,0,1,356.52,243.15Z" transform="translate(-182.69 -233.29)"/><path class="cls-2" d="M362.7,348.58l13.67,26.15c2.07,1.34,2.5,3.63,3.26,5.71a80,80,0,0,1,3.75,17,25.22,25.22,0,0,0,.07,9.68c-.22,5.41-2.89,10-5.22,14.62a1.51,1.51,0,0,1-1.88.81c-4.31,2-8-.13-11.74-1.82,1.24-2.68,2.42-5.39,3.72-8,4.29-8.73,5-17.64,1.56-26.81a25.1,25.1,0,0,1-.74-3c-.3-.81.55-2.15-1.1-2.31l-11.94-23.67a22,22,0,0,0,2-6.71C358.39,346.74,360.17,346.3,362.7,348.58Z" transform="translate(-182.69 -233.29)"/><path class="cls-41" d="M226.78,369.49c2.37.09,3.64-1.82,5.34-2.94a19.62,19.62,0,0,1,3.83-2.38,2.75,2.75,0,0,1,2.48.55,29.59,29.59,0,0,1,10.82,1.82c1.63-1,2.6,0,3.54,1.14a4.57,4.57,0,0,0,.31.83c1,1.65,4.25,1.66,3.88,3.82-.46,2.71-2.06,5.22-3.13,7.83-.47,1.15-1.06,1.15-2,.54-1.65-1-3.48-1.77-5.08-2.85-4.83-3.24-10.3-2.82-13.5,1.14-3.47,4.29-2.54,9.84,2.35,14.13a.79.79,0,0,1,.83.64,4.4,4.4,0,0,0,3.87,1.56,6.14,6.14,0,0,1,6.25.1c.85.42,3.26-.75,1.95,1.9a11.48,11.48,0,0,1-.13,6.26c-1.16,1.94-2.69.69-3.93.3a5,5,0,0,0-4.66.5c-1.91-1.25-3.83-.55-5.75-.05-6,.29-9.65-3-10.88-9.78a25.26,25.26,0,0,1,0-19.73,5.65,5.65,0,0,1,2.63-3.7Z" transform="translate(-182.69 -233.29)"/><path class="cls-41" d="M352.77,398.86c-1,.72-.28,3-2.46,2.63-1.82-.51-2.88-2-4.07-3.27-3.5-3.72-8.06-5.32-12.81-6.57-3.68-5.24-5.2-11.44-7.68-17.22-.65-1.52.81-2.76.08-4.13-1.14-1.35-1.19-3-1.2-4.63,0-6.23-.1-12.46.05-18.68,0-1.74-.69-4.06,2.07-4.69q4.58,10.59,10.15,20.7a22,22,0,0,1,6.1,11.76c3.14,7.31,7.34,14.14,9.83,21.75A1.43,1.43,0,0,1,352.77,398.86Z" transform="translate(-182.69 -233.29)"/><path class="cls-41" d="M376.35,422.51a43.76,43.76,0,0,0,6.27-15.35,29.29,29.29,0,0,1-.05-9.84,104.19,104.19,0,0,0-6.2-22.59c.25-1.87,1.18-3.73,2.89-4,2-.34,1.07,2.89,2.85,3.4,1.52-1.11-1.26-2.86.6-3.91l4,7.35c1.71,1,1.64,2.86,2,4.49q1.56,4.92,3.11,9.84a4.47,4.47,0,0,1,1,4.41,4.29,4.29,0,0,0,.59,3,5.64,5.64,0,0,1,0,6.81l-1.69,7.42c1,1.35.22,2.09-.95,2.67-1.34,1.2-1.55,2.89-2,4.49a3.25,3.25,0,0,1-.27,2.29c-.6,1.22-1.13,2.51-2.54,3.06-2.07.29-4.23-.08-6.2.86-1.4,1-2.85.74-4.3.14C374.67,425.3,376.7,424.14,376.35,422.51Z" transform="translate(-182.69 -233.29)"/><path class="cls-41" d="M427.82,398.8c.33-3.23,1.85-4.12,5.13-3.37,8.07,1.84,16.43,2.65,24,6.41,2,1,4.87,1.64,5,4.51.15,3.22-2.72,4.35-5,5.74-3.17,2-6.81,2.8-10.27,4-3.9,1.6-5.95.2-7.36-3.72-1.55-4.33-5.09-7.4-8.24-10.65C430,400.72,428.61,400.12,427.82,398.8Z" transform="translate(-182.69 -233.29)"/><path class="cls-42" d="M344,405.38c3.39,3.31,2.87,10.07-.9,12.84-1.73,1.28-1.78-1-2.81-1.11a7,7,0,0,1-2.69-2.69,11.93,11.93,0,0,0-7.23-4.65,1.07,1.07,0,0,1-1,.54,12.28,12.28,0,0,0-6.85-.23,10.14,10.14,0,0,0-3.75,1.36,37.29,37.29,0,0,1-5.51,2.07c-3.23-6.36,1.58-15.06,8.39-15.49a33.49,33.49,0,0,1,14.12,1.78c.34-.17.55-.08.65.29.68,1.09,1.84,1.36,3,1.69C342.19,401.38,343.82,402.46,344,405.38Z" transform="translate(-182.69 -233.29)"/><path class="cls-42" d="M402.68,399.11c5.58-.65,10.76,1.05,15.95,2.71a17.6,17.6,0,0,1,5.49,3.68c1.88,3.15,4.84,5.43,6.66,8.68,2.88,5.15,3,5.07-2.3,6.41-.72.85-1.59.55-2.45.31l-1.95.56c-2.37.69-2.58-1.44-3.49-2.67a16.18,16.18,0,0,0-4.5-4.53c-2.91-.93-5.35-3-8.52-3.28a2.93,2.93,0,0,1-2.16-1.22c-1.28-.53-3.32-.19-3-2.6C401.29,404.44,401,401.74,402.68,399.11Z" transform="translate(-182.69 -233.29)"/><path class="cls-41" d="M196,409.89c-2-3.55-.91-5.75,2.66-7.61,4.65-2.42,9.67-3.61,14.57-5.23,2-1.1,3.1.06,4.07,1.53a45.43,45.43,0,0,0,4.17,5.3,5.48,5.48,0,0,1,1.13,2.26,2.86,2.86,0,0,1-1.42,2.56c-1.17.63-2,1.9-3.56,1.81-1.06,1-2.5,1.78-3.11,3-1.64,3.24-3.94,3.1-6.68,1.86C203.77,413.67,199.54,412.48,196,409.89Z" transform="translate(-182.69 -233.29)"/><path class="cls-43" d="M254.55,424.08a1.06,1.06,0,0,0-.81.29c-.88.52-1.74.81-2.52-.17l-10.12-1.59a1.11,1.11,0,0,1-1.66-.16c-4.85-.88-9.63-2.41-14.59-2.23-1.61.06-1.85-2.09-3.4-1.36-.36-3.22,1.48-4.61,4.3-5.18,2.48.31,4.22-1.58,6.41-2.14,1.65-.71,3.26-1.87,5.15-.6,4.17.84,8.3,1.78,11.79,4.42,2.41.63,3.15,2.86,4.42,4.58.57,1,1.4,1.92,1.56,3.14A1.32,1.32,0,0,1,254.55,424.08Z" transform="translate(-182.69 -233.29)"/><path class="cls-44" d="M283.41,407.94l-1,3.39c-5-4.24-6.36-7.85-4.09-13.36,4.31-10.5,8.94-20.87,13.43-31.3.83-.29,1.22.2,1.5.86L287.2,391c.84,2-.45,3.74-.48,5.63a7.15,7.15,0,0,1-.35,1.11,19.25,19.25,0,0,1-1.76,5,2.53,2.53,0,0,0-1,2.71C284,406.3,284.24,407.16,283.41,407.94Z" transform="translate(-182.69 -233.29)"/><path class="cls-1" d="M362.7,348.58c-2.57-1.72-4.31-.22-3.69,2,.92,3.36-.88,4.68-2.9,6.27-3.11-6-6.88-11.64-8.72-18.22l2.6,2c-.08-1.94-.48-3.84.24-5.61h0c3,.77,4.06,3.44,5.4,5.77.36.63.53,1.05,1.18.52a4.42,4.42,0,0,0,.72-1.08C360.71,342.13,361.13,345.71,362.7,348.58Z" transform="translate(-182.69 -233.29)"/><path class="cls-5" d="M343,374.76A70.1,70.1,0,0,1,336.9,363c2.34-.24,2.4-2.87,4.25-4,2.2-1.33-.5-2.78-1.63-4.24L343,354q2.67,5,5.32,9.93c-1.3,1.12-2.76,1.74-1.54,4.26C348.38,371.53,346.61,373.91,343,374.76Z" transform="translate(-182.69 -233.29)"/><path class="cls-45" d="M328.59,417l1.6.17c.6.92,2.62.8,1.93,2.65-1.75,2-3.51,4-5.24,6.05-3.81,4.46-4.52,4.48-8.35.24-.59-.55-1.48-.9-1.26-2-2.46-3.18,1.51-3.63,2.3-5.43a9.31,9.31,0,0,1,3.81-3.14,5.06,5.06,0,0,1,3.15-.05A6,6,0,0,1,328.59,417Z" transform="translate(-182.69 -233.29)"/><path class="cls-4" d="M407.9,410c3.21.51,6.24,1.38,8.19,4.3.12,2.5-1.93,5.16.53,7.5l-1.47.75a1.19,1.19,0,0,1-1.11.31,53.84,53.84,0,0,1-7.19-4.37c-.9-.85-1.82-1.51-3-.39-1,.69-2,1.59-3.37.81a1.42,1.42,0,0,1,.2-1.75c.17-2-2.09-2.88-2.06-4.79a3.45,3.45,0,0,0,4-1.59C404.3,409.76,406.26,411,407.9,410Z" transform="translate(-182.69 -233.29)"/><path class="cls-46" d="M328.59,417l-1.88-.75a2.4,2.4,0,0,0-3.48.22c-1.08,1-2,2.14-3.66,2.25-.71-1.61-.47-4.17-3.69-1.69-1.45,1.11-1-2.74-2.59-3.52,1-2.28,3.56-1.9,5.18-3.11,1.43.61,2.61-.75,4-.51a14.56,14.56,0,0,1,7.33-.06l.28-.21.31.15C333.65,413.14,329.94,414.78,328.59,417Z" transform="translate(-182.69 -233.29)"/><path class="cls-11" d="M221.23,404.62c-2.55-.87-3.53-3.21-4.82-5.24-.78-1.21-1.2-2.88-3.23-2.33-1.06-2.91,2-4,2.71-6.09,2.15.94-1.57,2.59.79,4.25,2.87,2,4.42.49,6.45-.66,2,2,2.58,5,4.85,6.79a9.67,9.67,0,0,0,5.81,2c1.24.4,2.77-.14,3.73,1.14-1.2,2.41-3.81.54-5.4,1.78-2.68,2.92-4.91,1.57-6.44-1.05a49,49,0,0,0-3.73-4.88C222.27,402.32,223,403.93,221.23,404.62Z" transform="translate(-182.69 -233.29)"/><path class="cls-8" d="M344,405.38c-.79-2.15-3-2.44-4.6-3.6,1.34-5.4-1.68-7.79-6.27-9.12a.37.37,0,0,1-.19-.32,6.54,6.54,0,0,1,.48-.69c6.12-1.3,10,2.85,14,6.16a8.33,8.33,0,0,1,2.85,3.68l1.77,3.65c-2.27-.47-2.36-2.15-3.16-3.15-.53-.66-1-1.69-2-1.41s-.9,1.24-.8,2.19C346.24,404.2,345,404.71,344,405.38Z" transform="translate(-182.69 -233.29)"/><path class="cls-30" d="M406.93,417.58c2.44,1.59,5.3,2.56,7.2,4.93-.17,2.48-2,1.81-3.49,1.88a2.85,2.85,0,0,0-3.83-.24c-1.05,1-2.2.65-3.35.25-2-1-4.72,2.38-6.33-1,0-2.49.85-4.28,3.58-4.64l2.74-1.47C404.74,415.92,405.84,416.72,406.93,417.58Z" transform="translate(-182.69 -233.29)"/><path class="cls-11" d="M314,331.82a8.82,8.82,0,0,1-.54-4.92c.63-1.8.18-3.66.32-5.49v-47.3c.18-1.62-.44-3.31.44-4.87,1.47,1.34.86,3.1.87,4.67,0,13.28.27,26.56-.12,39.82-.12,4.16,2.77,7.52,2,11.67-.29,1.61.07,3.35-1.8,4.24C313.88,329.91,315.16,331.53,314,331.82Z" transform="translate(-182.69 -233.29)"/><path class="cls-4" d="M254.55,424.08a.65.65,0,0,1,.22-.68,11.24,11.24,0,0,1,.68-1.65c1.95-2.4.45-6,2.8-8.25l1.05-.95,7.59,12.5c-.84-.86-3.45,2.77-3.21-1.3-2-.48-1.68,4.2-4.51,2.37.19-1.88-1.39-.25-1.81-.91C256.68,424.19,254.94,425.81,254.55,424.08Z" transform="translate(-182.69 -233.29)"/><path class="cls-47" d="M287.13,262c.26-5,3.35-8.78,5.56-12.94a1.34,1.34,0,0,1,1.89-.58c.7.32.49,1,.39,1.56-.17,1-.36,2-.55,3,.92,2.67,1.54,5.33-.22,7.92l-.77,1.06C291.32,263.2,289.21,263.43,287.13,262Z" transform="translate(-182.69 -233.29)"/><path class="cls-11" d="M345,291.51a10.85,10.85,0,0,1,.63,4.82c-.94,1.65.22,3.59-.75,5.23-1.36,1.82-.73,3.9-1.15,5.93.56-8-2.21-16,.08-24-1.21-1.69-.58-3.73-1-5.56.48-5.21.22-10.42.2-15.63.08-2.44-.4-4.93.77-7.25l.91-1.13.09,32.47c-.76,2.63-.21,5.29-.34,7.24A2.07,2.07,0,0,1,345,291.51Z" transform="translate(-182.69 -233.29)"/><path class="cls-9" d="M221.23,404.62c1.34-2-1.44-3.82-.11-6.18,1.84,1.78,3.95,2.92,4.95,5.67.92,2.52,3.38,3.22,6.05,2.18-2,2.72-4.07,5.43-8.11,3.6l-.36-.49a2.39,2.39,0,0,0-1.62-3Z" transform="translate(-182.69 -233.29)"/><path class="cls-4" d="M400.71,418.74l-3.58,4.64c-1.68,2.18-3.42,3.89-5.8.76-.17.36-.35.72-.53,1.08-2.07.35-2-1.24-2.3-2.53-.66-.78-.41-1.44.28-2,1.54-1.39,3.08.43,4.87.09s2.39-.3,2.7-1.93c.54-2.84,2.45-2.25,4.34-1.7C400.7,417.66,400.7,418.2,400.71,418.74Z" transform="translate(-182.69 -233.29)"/><path class="cls-48" d="M302.4,305.29c-1.43-1.35-.83-3.1-.83-4.68-.05-13.76,0-27.53-.05-41.29,0-2.76.47-5.55-.81-8.35,1.73.19,1.57,1.24,1.74,2.07,1,5,.34,10.08.4,15.12.11,9.69,0,19.38,0,29.07,0,2.45.06,4.91-.05,7.37Z" transform="translate(-182.69 -233.29)"/><path class="cls-46" d="M356.52,243.15l-.9-.14c-2.13-2.39-4.19-.26-6.29.1-1.14-2.46-6.08-1.09-5.42-5.38a2.47,2.47,0,0,0,2.71,0C352.31,236.94,355,238.43,356.52,243.15Z" transform="translate(-182.69 -233.29)"/><path class="cls-19" d="M305.25,437.89c-.15,0-.33,0-.44-.09a5,5,0,0,1-.48-.54,4.4,4.4,0,0,1,1.14-.31q20.91,0,41.82,0a6.33,6.33,0,0,1,2,.76c-1,.89-2.28.52-3.44.52q-18.78,0-37.56,0A5.63,5.63,0,0,1,305.25,437.89Z" transform="translate(-182.69 -233.29)"/><path class="cls-9" d="M424.12,405.5a8.17,8.17,0,0,1-5.49-3.68c2,.45,2.94-2.45,5.46-1.2a15.9,15.9,0,0,0-.92-1.58c-.78-1-2.19-2.21-.31-3.2,1.73-.91,2.79.3,3.05,2,.17,1.14.46,2,1.77,2.11.25.16.35.34.3.53s-.12.31-.2.31C427.17,402.85,423.45,402.46,424.12,405.5Z" transform="translate(-182.69 -233.29)"/><path class="cls-7" d="M302.52,298.06q0-22.51-.07-45c.35.35.7.7,1,1.06l-.24,44C303,298.49,302.75,298.5,302.52,298.06Z" transform="translate(-182.69 -233.29)"/><path class="cls-7" d="M305.25,437.89l44.06-.15.88.92c-15,.41-30,.46-45,0A2.39,2.39,0,0,1,305.25,437.89Z" transform="translate(-182.69 -233.29)"/><path class="cls-9" d="M225.75,413.68c-.92,2.15-4,2.49-4.3,5.18-3.39-1-.31-4.89-2.86-6.24-.4-1.77.78-2.58,2-3.36a3.23,3.23,0,0,1,3.38.62h0C223.59,411.62,225,412.49,225.75,413.68Z" transform="translate(-182.69 -233.29)"/><path class="cls-49" d="M335.85,253c1.46.63,1,1.74,1,3,.16,10.39-.89,20.79.49,31.19.35,2.62-1-.27-1.56.11-1-4.42.11-9-.86-13.4,0-3.92,0-7.85,0-11.77C335,259.05,334.46,255.92,335.85,253Z" transform="translate(-182.69 -233.29)"/><path class="cls-11" d="M342.11,284.57l0-29.33c0-.13.08-.36.15-.36a5,5,0,0,1,.77,0c.81,2.4.2,4.88.39,7.32v15.72c-.19,1.89.43,3.84-.41,5.68l-.93.95Z" transform="translate(-182.69 -233.29)"/><path class="cls-48" d="M324.09,370.19c-2.07-2.32-1.48-5.59-1.32-7.88.48-7.1.34-14.16.2-21.23a1,1,0,0,1,.39-.74c.16-.1.49.11.75.18,1.69,2.53.51,5.37.87,8V356C324.58,360.74,325.89,365.56,324.09,370.19Z" transform="translate(-182.69 -233.29)"/><path class="cls-50" d="M326.75,342.3c-1.66,2.79-.52,5.81-.64,8.72-.25,6.42-.21,12.85-.28,19.28a1.77,1.77,0,0,0-.64-.12c-1.43-4.64-.27-9.4-.64-14.09,0-2.47,0-4.95,0-7.43.16-2.71-.35-5.45.29-8.14C327.12,339.35,326.47,341.32,326.75,342.3Z" transform="translate(-182.69 -233.29)"/><path class="cls-7" d="M324.24,254.11q0,13.32,0,26.65c-.21.95-.41,1.91-.62,2.87l-.52,0v-7.2a136.94,136.94,0,0,1,.05-22.46C323.66,253,323.9,253.87,324.24,254.11Z" transform="translate(-182.69 -233.29)"/><path class="cls-8" d="M263.71,435.91a10.13,10.13,0,0,1-4.71-.66c.08-1.3-1.48-.13-1.63-1.09-.68-1.49-.13-1.47,1.32-1.58,4.51-.34,8.59,2,13,1.81.07,0,.21.2.22.32a1.22,1.22,0,0,1-.14.42C269.2,436.29,266.34,434.93,263.71,435.91Z" transform="translate(-182.69 -233.29)"/><path class="cls-4" d="M351,369.32c1.29,2,2.73,3.85,2.93,6.31-4.36.41-5.55-.9-5.38-5.3C348.61,367.69,350.19,369.72,351,369.32Z" transform="translate(-182.69 -233.29)"/><path class="cls-8" d="M302.43,334.16c-.49-.72-1.5-1.54-1.39-2.14,1.22-6.45-.58-13.11,1.39-19.49l.4.7c.11,4.57,0,9.15.05,13.72C302.66,329.35,303.35,331.81,302.43,334.16Z" transform="translate(-182.69 -233.29)"/><path class="cls-49" d="M410.64,424.39l3.49-1.88h1c.5.94,1.62.69,2.28,1.18s1.72-1.23,2.08.14c.29,1.12-.88,2.51-1.55,2.37C415.51,425.68,412.47,427.31,410.64,424.39Z" transform="translate(-182.69 -233.29)"/><path class="cls-51" d="M323.14,253.94q0,11.24,0,22.46A61.88,61.88,0,0,1,323.14,253.94Z" transform="translate(-182.69 -233.29)"/><path class="cls-51" d="M261.05,245l22.42-.06A63,63,0,0,1,261.05,245Z" transform="translate(-182.69 -233.29)"/><path class="cls-48" d="M280.73,301.69a8.77,8.77,0,0,1,0-10.82A24.54,24.54,0,0,1,280.73,301.69Z" transform="translate(-182.69 -233.29)"/><path class="cls-48" d="M275.33,253.81l-16.17.06c-.08-.62-1.09-1.63-.77-1.53C264,254.13,269.84,251.78,275.33,253.81Z" transform="translate(-182.69 -233.29)"/><path class="cls-8" d="M255.58,422.49l-.81.91c-.34-1.09-2-1.25-1.84-2.71.42-1.16-.5-2.64.85-3.58,1.95.15,1.49-2.09,2.68-2.71C258,417.3,256.61,419.87,255.58,422.49Z" transform="translate(-182.69 -233.29)"/><path class="cls-7" d="M291.5,322.26l.24-14.19c2.49,2.31.73,5.28,1.22,7.9-.15,1.83.35,3.7-.34,5.49l-.48,1.94Z" transform="translate(-182.69 -233.29)"/><path class="cls-13" d="M255.58,422.49c.17-2.71,1.33-5.31.88-8.09,0-1.57.8-1.38,1.79-.9C257.45,416.53,258.92,420.22,255.58,422.49Z" transform="translate(-182.69 -233.29)"/><path class="cls-18" d="M260.11,263l15.22,0A28.9,28.9,0,0,1,260.11,263Z" transform="translate(-182.69 -233.29)"/><path class="cls-13" d="M253.78,417.11c-.15,1.23.38,2.61-.85,3.58-1.27-1.78-2.55-3.55-3.83-5.33C251.62,413.38,252.2,416.59,253.78,417.11Z" transform="translate(-182.69 -233.29)"/><path class="cls-9" d="M388.5,422.69l2.3,2.53c.18.77.91,1.83-.9,1.4-1.29-.3-2.62-.42-3.93-.61C386.4,424.59,386.71,423.07,388.5,422.69Z" transform="translate(-182.69 -233.29)"/><path class="cls-52" d="M325,355.79l.17,14.39h-1.1q0-7.2,0-14.39C324.43,355.4,324.72,355.38,325,355.79Z" transform="translate(-182.69 -233.29)"/><path class="cls-49" d="M272.78,321.48l-.18-11.66C275.65,313.66,273.53,317.58,272.78,321.48Z" transform="translate(-182.69 -233.29)"/><path class="cls-51" d="M279.84,326.93c-1.77-4.3-.41-8.79-.81-13.17,0-.08.18-.17.28-.25l.63.9A35.82,35.82,0,0,1,279.84,326.93Z" transform="translate(-182.69 -233.29)"/><path class="cls-6" d="M335.72,273.82l.06,13.45h-.4l-.39,0-.2-10.46C334.76,275.69,333.49,274.2,335.72,273.82Z" transform="translate(-182.69 -233.29)"/><path class="cls-19" d="M292.64,316.13c-.62-2.65.81-5.53-.9-8.06,0-.63,0-1.26,0-1.89,1-.43,1.7-.35,1.68,1,0,3,0,5.94,0,8.92Q293,316.73,292.64,316.13Z" transform="translate(-182.69 -233.29)"/><path class="cls-4" d="M349.33,243.11c2.06-2.4,4.13-4.06,6.29-.1l-6.25,1.11Z" transform="translate(-182.69 -233.29)"/><path class="cls-7" d="M279.84,326.93q0-6.26.1-12.52c1.29,1.33.21,3.18,1,4.62q-.12,4.39-.26,8.77Z" transform="translate(-182.69 -233.29)"/><path class="cls-31" d="M305,342.33a56.75,56.75,0,0,1,0,13.41A25.12,25.12,0,0,1,305,342.33Z" transform="translate(-182.69 -233.29)"/><path class="cls-53" d="M315.21,355.8l0-13.52.9,2c.65,3.84,1.6,7.67,0,11.51Z" transform="translate(-182.69 -233.29)"/><path class="cls-54" d="M321.34,389.16c-.58,1.43-2.11,1.36-3.2,2.32.26-4.22.26-4.22,2.43-4.16C321.26,387.75,321.89,388.2,321.34,389.16Z" transform="translate(-182.69 -233.29)"/><path class="cls-55" d="M369.15,437.8l-6.88.24-4.86-.44c.77-1.13,1.94-.49,2.86-.8a25.85,25.85,0,0,1,8.86,0Z" transform="translate(-182.69 -233.29)"/><path class="cls-6" d="M280.73,301.69q0-5.42,0-10.82c1.12.68.47,2,1.06,2.89l-.24,9.7Z" transform="translate(-182.69 -233.29)"/><path class="cls-33" d="M420.59,418.79l3.49,2.67.08.22c-.72,1.23,1.69,1.38.89,2.64C420.7,424.79,420.91,421.57,420.59,418.79Z" transform="translate(-182.69 -233.29)"/><path class="cls-1" d="M350.23,335.06c-.8-.93-2.59.22-2.48-.2a33.37,33.37,0,0,1,2.41-5.33c1.62,2.28-.48,3.87.07,5.53Z" transform="translate(-182.69 -233.29)"/><path class="cls-3" d="M235.86,365.14a7.07,7.07,0,0,1-3.74,1.41c0-2,3-2.2,2.7-4.44l2.71-.91v.9C238.25,363.82,236,363.9,235.86,365.14Z" transform="translate(-182.69 -233.29)"/><path class="cls-18" d="M256.49,408c-1.62.71-1.4-1.1-1.29-1.33,1.26-2.42-1-5.38,1.2-7.6A18.24,18.24,0,0,1,256.49,408Z" transform="translate(-182.69 -233.29)"/><path class="cls-56" d="M294,438l-6.9-.26.95-.91a23.47,23.47,0,0,1,8.88,0c.27.23,1.48.25.5.76S295.2,437.92,294,438Z" transform="translate(-182.69 -233.29)"/><path class="cls-14" d="M316.08,355.77V344.26c1.07.61.73,1.71.92,2.63.37,3,.74,6-.2,8.91Q316.44,355.77,316.08,355.77Z" transform="translate(-182.69 -233.29)"/><path class="cls-57" d="M303.24,407.57c.06-.72.13-1.44.2-2.17a14.42,14.42,0,0,1-.15,10.86h0A22.54,22.54,0,0,1,303.24,407.57Z" transform="translate(-182.69 -233.29)"/><path class="cls-4" d="M315.83,243.16l-.43.08L315,243a1,1,0,0,1,0-1.69c.71-1.19,1.95-2.68,3-1.24S317,242.37,315.83,243.16Z" transform="translate(-182.69 -233.29)"/><path class="cls-29" d="M237.31,410.94c-1.75-.05-3.35,1.18-5.15.6,1.74-3.51,4.8-.52,7.14-1.22Z" transform="translate(-182.69 -233.29)"/><path class="cls-3" d="M343.79,330.59c-1.23-1.27-1.39-2.9-1.56-4.53C346.21,329,346.21,329,343.79,330.59Z" transform="translate(-182.69 -233.29)"/><path class="cls-19" d="M270.88,272l-9.85-.11C264.32,271,267.62,269.92,270.88,272Z" transform="translate(-182.69 -233.29)"/><path class="cls-6" d="M292.39,293.39l.21-6.09c1.78,3.19.24,6.57.39,9.87Z" transform="translate(-182.69 -233.29)"/><path class="cls-58" d="M279.63,437.1l-6-.3,1.86-.88a15.49,15.49,0,0,1,7.07.06c.28.22,1.48.25.5.76S280.79,437,279.63,437.1Z" transform="translate(-182.69 -233.29)"/><path class="cls-18" d="M321.34,389.16l-.77-1.84c1.06-1.2,2.16-2.33,4.13-1.93C324.26,387.33,322.78,388.23,321.34,389.16Z" transform="translate(-182.69 -233.29)"/><path class="cls-16" d="M237.52,404.51c-1.3-.18-2.83.39-3.73-1.14,2.09-.23,4.42-1.91,6,1Z" transform="translate(-182.69 -233.29)"/><path class="cls-59" d="M313.37,266.54q0-4.95,0-9.9c1.68,3.19.37,6.62.77,9.91C313.89,267,313.63,266.93,313.37,266.54Z" transform="translate(-182.69 -233.29)"/><path class="cls-15" d="M256.49,408l-.09-8.93c.44-.75.73-.21,1.05.11q0,3.9.08,7.78Z" transform="translate(-182.69 -233.29)"/><path class="cls-33" d="M248.35,434.13c-2.23.68-4.21-.48-6.3-.86a5.31,5.31,0,0,1,6.3,0c.32.18.42.37.32.55S248.46,434.13,248.35,434.13Z" transform="translate(-182.69 -233.29)"/><path class="cls-60" d="M284.61,402.72a5.52,5.52,0,0,1,1.55-5.63,5.36,5.36,0,0,1,0,4.69Z" transform="translate(-182.69 -233.29)"/><path class="cls-22" d="M335.85,253l-.12,9c-2.62-2.21-.9-5-.94-7.5l.12-1.45Z" transform="translate(-182.69 -233.29)"/><path class="cls-32" d="M278.78,341.33,278,345c-.29-1.8-3.46-3.62,0-5.4C278.56,340,278.18,340.89,278.78,341.33Z" transform="translate(-182.69 -233.29)"/><path class="cls-4" d="M354.21,376.4a2.26,2.26,0,0,1,1.37,2,1.5,1.5,0,0,1-.88.88c-1.17-.12-2.69-.34-2.84-1.5S353.24,376.58,354.21,376.4Z" transform="translate(-182.69 -233.29)"/><path class="cls-19" d="M252.79,367.68c-1.45.45-2.23-1.18-3.54-1.14.22-.72-.46-2.12,1-1.94A2.71,2.71,0,0,1,252.79,367.68Z" transform="translate(-182.69 -233.29)"/><path class="cls-18" d="M295.34,253.93c.88,2.71,1.73,5.42-.18,8.07C294.68,259.3,294.38,256.6,295.34,253.93Z" transform="translate(-182.69 -233.29)"/><path class="cls-15" d="M295.34,253.93l-.18,8.07-1-1q.12-4,.22-7.92Z" transform="translate(-182.69 -233.29)"/><path class="cls-49" d="M292.52,263c-1.9,2.81-4.21.17-6.29.46,0-.12,0-.31.13-.34a5.72,5.72,0,0,1,.83-.26A6.72,6.72,0,0,1,292.52,263Z" transform="translate(-182.69 -233.29)"/><path class="cls-10" d="M310.87,410.05c1.24,3.2-.6,5-.64,7.1C309,414.84,310.59,412.94,310.87,410.05Z" transform="translate(-182.69 -233.29)"/><path class="cls-61" d="M293.26,280.68l.22-4.21c1.73,2.6.62,5.36.29,8.1Z" transform="translate(-182.69 -233.29)"/><path class="cls-51" d="M316.8,355.8q.09-4.46.2-8.91C318.13,349.89,318.4,352.86,316.8,355.8Z" transform="translate(-182.69 -233.29)"/><path class="cls-51" d="M369.13,436.84l-8.86,0A10.78,10.78,0,0,1,369.13,436.84Z" transform="translate(-182.69 -233.29)"/><path class="cls-62" d="M324.85,288.2c.12,2,.23,3.93.35,5.9l-.45,2C324.32,293.46,323.36,290.8,324.85,288.2Z" transform="translate(-182.69 -233.29)"/><path class="cls-19" d="M297,436.86h-8.88A10.45,10.45,0,0,1,297,436.86Z" transform="translate(-182.69 -233.29)"/><path class="cls-6" d="M324.84,340.52l.16,8.06c-.29.43-.57.4-.83,0l-.06-8A3,3,0,0,1,324.84,340.52Z" transform="translate(-182.69 -233.29)"/><path class="cls-17" d="M220.44,409.87c-.62.91-1.23,1.83-1.85,2.75a2.52,2.52,0,0,1-1-2.11,4.88,4.88,0,0,1,2.81-2.27A1.05,1.05,0,0,1,220.44,409.87Z" transform="translate(-182.69 -233.29)"/><path class="cls-63" d="M452.1,425.29c-1.13.48-2.16,1.31-3.52,1l.84-2.86C450.8,423.35,452,423.46,452.1,425.29Z" transform="translate(-182.69 -233.29)"/><path class="cls-15" d="M380.85,436.87l-4.34.16-2.85-.58C376.09,436.47,378.6,435.15,380.85,436.87Z" transform="translate(-182.69 -233.29)"/><path class="cls-18" d="M236.41,393.76c-.27-.22-.55-.43-.83-.64l2.19-4.22A4.81,4.81,0,0,1,236.41,393.76Z" transform="translate(-182.69 -233.29)"/><path class="cls-11" d="M342.11,284.57c.24,2.25-.71,4.25-1.38,7a7.72,7.72,0,0,1,1.38-7Z" transform="translate(-182.69 -233.29)"/><path class="cls-64" d="M263.71,435.91c2.57-1.64,5.4-.49,8.1-.78-.74,1.1-2,.7-3,1.08Z" transform="translate(-182.69 -233.29)"/><path class="cls-3" d="M286.14,353.07c.28-1.67.21-3.47,1.84-4.59C288.2,350.34,289.4,352.59,286.14,353.07Z" transform="translate(-182.69 -233.29)"/><path class="cls-65" d="M313.37,266.54h.78c0,.9,0,1.79,0,2.69,0,1.51,0,3-.05,4.53-.26.38-.51.4-.75,0Z" transform="translate(-182.69 -233.29)"/><path class="cls-4" d="M318.64,235c0,.29,0,.58,0,.86-2,1.23-3.72.33-5.37-.84Z" transform="translate(-182.69 -233.29)"/><path class="cls-15" d="M375.47,427l4.3-.14,2,.65C379.6,427.61,377.38,428.7,375.47,427Z" transform="translate(-182.69 -233.29)"/><path class="cls-53" d="M240.44,394.7c2-2,4-1.23,6.11-.15A10.6,10.6,0,0,1,240.44,394.7Z" transform="translate(-182.69 -233.29)"/><path class="cls-66" d="M228.27,430.81a11.63,11.63,0,0,1-5.19-1c1.9-1.2,3.66.22,5.5.28a1.84,1.84,0,0,1-.05.41A2.11,2.11,0,0,1,228.27,430.81Z" transform="translate(-182.69 -233.29)"/><path class="cls-18" d="M384.59,435.17c2.05-1.72,4.13-1.26,6.21-.05A9.84,9.84,0,0,1,384.59,435.17Z" transform="translate(-182.69 -233.29)"/><path class="cls-18" d="M282.56,436l-7.07-.06A6.94,6.94,0,0,1,282.56,436Z" transform="translate(-182.69 -233.29)"/><path class="cls-37" d="M331.17,243.94c-1.76-.26-2.22,1.51-3.39,2.17-.24-2.77.84-3.87,3.6-2.83.21.23.24.4.12.52A.46.46,0,0,1,331.17,243.94Z" transform="translate(-182.69 -233.29)"/><path class="cls-1" d="M353.83,330.56a5.3,5.3,0,0,1,1.67,3.6C352.21,334.23,352.86,332.47,353.83,330.56Z" transform="translate(-182.69 -233.29)"/><path class="cls-24" d="M343.08,262q0-3.56,0-7.11a.78.78,0,0,1,.67.17l-.09,6.92Z" transform="translate(-182.69 -233.29)"/><path class="cls-29" d="M286.06,396.47c-.61-2,.68-3.67,1.14-5.48a1.93,1.93,0,0,1,.83,1.78c.38,1.38-.31,2.53-.8,3.73A.92.92,0,0,1,286.06,396.47Z" transform="translate(-182.69 -233.29)"/><path class="cls-55" d="M303.22,305.3c0,2.4,0,4.81,0,7.21-.26.41-.52.41-.76,0l0,0,0-7.24.13,0C302.75,304.91,303,304.89,303.22,305.3Z" transform="translate(-182.69 -233.29)"/><path d="M293.39,273.05l-7.18-.19c.35-.84,1.12-.87,1.85-1,1.48-.47,3-.85,4.44,0Z" transform="translate(-182.69 -233.29)"/><path class="cls-57" d="M314,331.82c.08-.82.17-1.63.24-2.45,0-.44.16-.78.64-.48.18.12.2.49.29.75-.34,1.79.73,3.82-.9,5.4Z" transform="translate(-182.69 -233.29)"/><path class="cls-65" d="M302.43,334.16q0-3.6,0-7.22c.28-.4.55-.4.83,0,.07,1.42.15,2.83.22,4.24C303.18,332.19,303.57,333.45,302.43,334.16Z" transform="translate(-182.69 -233.29)"/><path class="cls-11" d="M235.86,365.14c-.41-1.54,1-2.07,1.67-3,2.36.16.59,1.75.9,2.62Z" transform="translate(-182.69 -233.29)"/><path class="cls-67" d="M427.78,400.81a6,6,0,0,0-.09-.84c0-.39.09-.78.13-1.17a6.19,6.19,0,0,1,3.26,2.95C429.52,403.06,429.09,400.39,427.78,400.81Z" transform="translate(-182.69 -233.29)"/><path class="cls-8" d="M336.45,400.09a.63.63,0,0,1-.65-.29c.17-1-1-1.82.12-3.7C336.59,397.73,338.4,398.31,336.45,400.09Z" transform="translate(-182.69 -233.29)"/><path class="cls-53" d="M273.74,295.25q0-3,0-6.05A5.67,5.67,0,0,1,273.74,295.25Z" transform="translate(-182.69 -233.29)"/><path class="cls-22" d="M248.35,403.58l.13-6.26C249.59,399.43,249.79,401.52,248.35,403.58Z" transform="translate(-182.69 -233.29)"/><path class="cls-6" d="M384.59,435.17l6.21-.05a2.49,2.49,0,0,1,0,.86l-3.43.17C386.51,435.6,385.26,436.2,384.59,435.17Z" transform="translate(-182.69 -233.29)"/><path class="cls-50" d="M292.58,363.93l1-3.54c.83-.17,1.28,0,.95,1-.09,1.28.06,2.62-.9,3.69C293,365,292.86,364.36,292.58,363.93Z" transform="translate(-182.69 -233.29)"/><path class="cls-53" d="M300.68,377.45c-3.83.8-.7-2-1.69-2.73a2.78,2.78,0,0,1,1.68,2.78Z" transform="translate(-182.69 -233.29)"/><path class="cls-22" d="M251.22,424.2l2.52.17c-.73,1.75-2,2.11-3.32.87C249.3,424.17,251.14,424.72,251.22,424.2Z" transform="translate(-182.69 -233.29)"/><path class="cls-15" d="M292.52,263l-5.33-.14-.06-.92,6.3.06C293.12,262.36,292.82,262.7,292.52,263Z" transform="translate(-182.69 -233.29)"/><path class="cls-53" d="M292.5,271.86l-4.44,0C289.54,271.48,291,268.78,292.5,271.86Z" transform="translate(-182.69 -233.29)"/><path class="cls-24" d="M282.76,282.08l-.24,4.26c-1.41-1.54-.83-3.41-.6-5.08C282,280.73,282.38,281.87,282.76,282.08Z" transform="translate(-182.69 -233.29)"/><path class="cls-15" d="M361.87,394.6a18,18,0,0,1,0,6.22A5.84,5.84,0,0,1,361.87,394.6Z" transform="translate(-182.69 -233.29)"/><path d="M240.44,394.7l6.11-.15a3.62,3.62,0,0,1,0,.87,15.48,15.48,0,0,1-6.25-.1A4.34,4.34,0,0,0,240.44,394.7Z" transform="translate(-182.69 -233.29)"/><path class="cls-18" d="M271.77,334.16l.12-3.62c.5-.15,1.28-.64,1.46,0C273.78,332.05,272.87,333.19,271.77,334.16Z" transform="translate(-182.69 -233.29)"/><path class="cls-53" d="M287.08,396.29a6.22,6.22,0,0,1,.95-3.52c1.85,1.94.11,3.15-.91,4.5-.28-.21-.37-.43-.29-.65S287,396.29,287.08,396.29Z" transform="translate(-182.69 -233.29)"/><path class="cls-60" d="M317.27,424.15l1.26,2c-1-.22-2.52.62-2.88-.95C315.46,424.3,316.66,424.41,317.27,424.15Z" transform="translate(-182.69 -233.29)"/><path class="cls-19" d="M214.92,428l-.43.1-.41-.18c-.22-3,1.4-2.05,3.26-1.29Z" transform="translate(-182.69 -233.29)"/><path class="cls-12" d="M248.35,434.13v-.82c1.27,0,2.53,0,3.8,0,.25,0,1-.12.59.58-.19.29-.73.34-1.11.49Z" transform="translate(-182.69 -233.29)"/><path class="cls-22" d="M407.88,434.09l-3.35.29-2-1a5.37,5.37,0,0,1,4.47,0Z" transform="translate(-182.69 -233.29)"/><path class="cls-22" d="M399.79,435.07l-3.4.19a3.34,3.34,0,0,1-.76-.36c-.43-.35-.33-.68.22-.63C397.19,434.38,398.71,433.68,399.79,435.07Z" transform="translate(-182.69 -233.29)"/><path class="cls-36" d="M332.12,419.82c-.58-.93-2-1.23-1.93-2.65C331.57,417.52,333.93,417.16,332.12,419.82Z" transform="translate(-182.69 -233.29)"/><path class="cls-68" d="M292.58,363.93l1,1.13-.33,2.47-1.5-.86Z" transform="translate(-182.69 -233.29)"/><path class="cls-51" d="M287.08,396.29l0,1c-.22,1.52.59,3.25-.91,4.51,0-1.56,0-3.13,0-4.69,0-.21-.07-.41-.1-.62Z" transform="translate(-182.69 -233.29)"/><path class="cls-19" d="M303.28,339.56c-.91-.12-1.71-.38-1.59-1.53.09-.91.82-1,1.54-1.15A1.89,1.89,0,0,1,303.28,339.56Z" transform="translate(-182.69 -233.29)"/><path class="cls-52" d="M278.78,341.33c-1.68,0-.93-1-.77-1.78.2-.61-.22-1.41.57-1.83l.56,1.16Z" transform="translate(-182.69 -233.29)"/><path class="cls-4" d="M319.24,237.58c-2.2,1.24-3.58,1.17-6.16.34Z" transform="translate(-182.69 -233.29)"/><path class="cls-23" d="M292.64,316.13h.78c-.27,1.77.7,3.74-.8,5.33C292.63,319.69,292.64,317.91,292.64,316.13Z" transform="translate(-182.69 -233.29)"/><path class="cls-53" d="M315.06,241.31c0,.32,0,.64,0,1a5.4,5.4,0,0,1-4.5-.13C311.64,239.67,313.59,241.78,315.06,241.31Z" transform="translate(-182.69 -233.29)"/><path class="cls-48" d="M425.05,424.32c-.12-.94-3.45-.79-.89-2.64C425.19,422.31,426.67,422.79,425.05,424.32Z" transform="translate(-182.69 -233.29)"/><path class="cls-67" d="M280.07,332.59l-.28,3.33c-1.25-1.14-.68-2.62-.72-4,0-.65.38-.49.65-.12A4.35,4.35,0,0,1,280.07,332.59Z" transform="translate(-182.69 -233.29)"/><path class="cls-69" d="M331.17,243.94a3.63,3.63,0,0,0,.21-.66c1.78.05,3.69-.89,5.24.73Z" transform="translate(-182.69 -233.29)"/><path class="cls-15" d="M290.6,333.08l.21-3.4c1.27,1.05.64,2.49.78,3.77,0,.21-.18.44-.27.66Z" transform="translate(-182.69 -233.29)"/><path class="cls-70" d="M343,283.62l0-5.38.58,0,.15,5.32A1.8,1.8,0,0,1,343,283.62Z" transform="translate(-182.69 -233.29)"/><path class="cls-31" d="M335.86,296.26c-.07-1.11-.15-2.23-.22-3.35a3.91,3.91,0,0,1,.37-.77c.25-.36.69-.6.67.09C336.63,293.61,337.19,295.14,335.86,296.26Z" transform="translate(-182.69 -233.29)"/><path class="cls-24" d="M283.41,407.94l.21-2.51c1.32,1.38.81,3,.49,5.08C283.78,409.3,283.6,408.62,283.41,407.94Z" transform="translate(-182.69 -233.29)"/><path class="cls-31" d="M315,360.13l.24-3.38a3.45,3.45,0,0,1,.66,3.69C315.25,362.17,315.35,360,315,360.13Z" transform="translate(-182.69 -233.29)"/><path class="cls-71" d="M337.61,414.42c1.66.13,2.07,1.52,2.69,2.69C338.34,417.28,337.4,416.42,337.61,414.42Z" transform="translate(-182.69 -233.29)"/><path class="cls-31" d="M403.46,424.4l3.35-.25c.19.39,1.42.63.79.82C406.3,425.38,404.68,425.7,403.46,424.4Z" transform="translate(-182.69 -233.29)"/><path class="cls-72" d="M325.73,298.15c.1,1.12.19,2.24.29,3.35-.38.24-.63,1.45-.81.88C324.78,301,324.55,299.43,325.73,298.15Z" transform="translate(-182.69 -233.29)"/><path class="cls-19" d="M407,433.29l-4.47,0C404,431.71,405.5,432.2,407,433.29Z" transform="translate(-182.69 -233.29)"/><path class="cls-39" d="M344.87,301.56c.21-1.75-.77-3.67.75-5.23.09,1.12.17,2.23.26,3.34Z" transform="translate(-182.69 -233.29)"/><path class="cls-67" d="M414.21,433.24l-2.48.22-2.41-.73C411.26,432.48,412.84,431.86,414.21,433.24Z" transform="translate(-182.69 -233.29)"/><path class="cls-1" d="M355.83,335a4.65,4.65,0,0,1,1.42,2.78C355.69,337.39,354.84,336.66,355.83,335Z" transform="translate(-182.69 -233.29)"/><path class="cls-29" d="M239.16,432.54l-2.51-.18c.8-1.13,2-.87,3.07-.8.49,0,.69.3.22.67A3.34,3.34,0,0,1,239.16,432.54Z" transform="translate(-182.69 -233.29)"/><path class="cls-4" d="M318.67,235.89l2.66,1c-.65,1-1.7.79-2.66.84Z" transform="translate(-182.69 -233.29)"/><path class="cls-29" d="M310.54,242.14l4.5.13c0,.24,0,.48,0,.73l-3.48.16Z" transform="translate(-182.69 -233.29)"/><path class="cls-72" d="M283.66,275.77l-.24,2.45c-1-.69-.79-1.74-.77-2.71,0-.27.27-.55.42-.82Z" transform="translate(-182.69 -233.29)"/><path class="cls-51" d="M274.54,283.66l.09-4.38A3.11,3.11,0,0,1,274.54,283.66Z" transform="translate(-182.69 -233.29)"/><path class="cls-73" d="M336.77,303.48l-.21-2.47.6-1.07c.13.15.39.3.39.45C337.56,301.48,337.94,302.68,336.77,303.48Z" transform="translate(-182.69 -233.29)"/><path class="cls-15" d="M257.37,434.16l2.71.45-1.08.64-2.51-.2Z" transform="translate(-182.69 -233.29)"/><path class="cls-74" d="M426,420.9l2.45-.31a2.58,2.58,0,0,1,.83.33c.59.56,0,.63-.36.65C427.91,421.64,426.84,421.78,426,420.9Z" transform="translate(-182.69 -233.29)"/><path class="cls-62" d="M354.7,379.23l.88-.88,1.12,2.41C354.72,382,355.52,379.54,354.7,379.23Z" transform="translate(-182.69 -233.29)"/><path class="cls-73" d="M239.44,422.45l1.66.16c-1.07,1.27-2.38.62-3.66.34Z" transform="translate(-182.69 -233.29)"/><path class="cls-27" d="M314.06,365.53l.27-2.47c.93.81.76,1.9.71,2.94,0,.33-.08,1-.66.37A2.34,2.34,0,0,1,314.06,365.53Z" transform="translate(-182.69 -233.29)"/><path class="cls-75" d="M294.51,361.37l-.95-1a2.63,2.63,0,0,1,1.33-2.2A2.42,2.42,0,0,1,294.51,361.37Z" transform="translate(-182.69 -233.29)"/><path class="cls-31" d="M327.57,397H325l0-.35,2.56-.21Z" transform="translate(-182.69 -233.29)"/><path class="cls-36" d="M257.36,425.21c.91-.27,1.65-1.17,2.75-.68l-.94,1.59A1.86,1.86,0,0,1,257.36,425.21Z" transform="translate(-182.69 -233.29)"/><path class="cls-67" d="M304.38,359.6l-.22,2.47c-1.11-.82-.78-2-.75-3.08,0-.16.25-.3.38-.45Z" transform="translate(-182.69 -233.29)"/><path class="cls-24" d="M352.77,398.86l.06-2.35c1.81-.53.82.94.93,1.46S354.15,399.77,352.77,398.86Z" transform="translate(-182.69 -233.29)"/><path class="cls-36" d="M336.3,416c-.31.47-.53,1.11-.78,1.13-.92.05-.54-.76-.59-1.23s.09-1,.69-.82C335.91,415.18,336.07,415.69,336.3,416Z" transform="translate(-182.69 -233.29)"/><path class="cls-6" d="M277.34,426.93l2.56.05c-.74,1.28-2,.83-3.07.89-.45,0-.76-.18-.27-.6A2.63,2.63,0,0,1,277.34,426.93Z" transform="translate(-182.69 -233.29)"/><path class="cls-15" d="M315.15,341.33c-.07-1.13-.15-2.25-.23-3.38C316.62,339,316.2,340.13,315.15,341.33Z" transform="translate(-182.69 -233.29)"/><path class="cls-52" d="M431.31,430.45l-2.43.32-1.08-.56c.27-.16.52-.45.8-.47C429.57,429.66,430.58,429.57,431.31,430.45Z" transform="translate(-182.69 -233.29)"/><path class="cls-22" d="M303.28,339.56c0-.9,0-1.79,0-2.68l.92-.88.21,2.5C303.8,338.65,304.61,340.2,303.28,339.56Z" transform="translate(-182.69 -233.29)"/><path class="cls-67" d="M420.51,432.32l-2.5.21a3.31,3.31,0,0,1-.77-.33c-.46-.34-.32-.62.19-.62C418.51,431.57,419.69,431.22,420.51,432.32Z" transform="translate(-182.69 -233.29)"/><path class="cls-42" d="M403.2,361.37c3.44.95,7.1,1.34,10.09,3.58l2.69,1.83a2,2,0,0,1,1.84,1.65c4,5.13,6.26,10.91,5.25,17.39-.46,2.9-.4,6.65-4.33,7.87a3.73,3.73,0,0,1-3.25-1.15c-2.79-.7-5.13-1.67-3.2-5.25a17.87,17.87,0,0,1,0-7.1c-.62-2.93-2.25-4.89-5.29-5.5-.53.55-1,.13-1.43-.12a7.55,7.55,0,0,0-1.87-1.12c-1.27-.45-2.63-.27-3.92-.55-2.94,1.3-4.73.45-5.73-2.67-.8-2.51-3.85-5.09.85-6.88.29-.11.38-.76.56-1.15a1.89,1.89,0,0,1,2.52-.06,6.64,6.64,0,0,0,3.83-.78C402.29,360.64,402.74,360.63,403.2,361.37Z" transform="translate(-182.69 -233.29)"/><path class="cls-18" d="M367.42,263,480,263c-.42.84-1,1.56-2,1.49-20.47-1.46-41-.35-61.44-.6-14.81-.19-29.64,0-44.45-.07C370.54,263.8,368.79,264.4,367.42,263Z" transform="translate(-182.69 -233.29)"/><path class="cls-19" d="M477.29,271.86l-111.71,0c.1-.63.31-1.13,1.07-1.13q53,.17,106,.36C474.17,271.08,475.92,270.48,477.29,271.86Z" transform="translate(-182.69 -233.29)"/><path class="cls-49" d="M477.29,253.81H367.41c1.23-1.29,2.83-.78,4.27-.79q50.67,0,101.34,0C474.46,253,476.06,252.53,477.29,253.81Z" transform="translate(-182.69 -233.29)"/><path class="cls-51" d="M369.22,245l108.06,0c-1.24,1.28-2.83.77-4.27.77q-49.77,0-99.53,0C372,245.78,370.44,246.29,369.22,245Z" transform="translate(-182.69 -233.29)"/><path class="cls-15" d="M354.83,289c-.79-11.06-.39-22.14-.37-33.21,0-1.32,0-2.73,1.09-3.77,1.19.54.07,1.26.14,1.89a307.51,307.51,0,0,1,0,33.26Z" transform="translate(-182.69 -233.29)"/><path class="cls-3" d="M398,362.14c-.82.88-1.67.51-2.52.06-2.86-.35-4.24-1.62-2.89-4.6,3.11-1.75,5.53.53,8.5,1.4C399.22,359.45,397.59,359.89,398,362.14Z" transform="translate(-182.69 -233.29)"/><path class="cls-49" d="M355.73,287.21q0-16.63,0-33.26c1.23,1.05.83,2.49.83,3.79q0,12.83,0,25.66C356.52,284.71,356.93,286.14,355.73,287.21Z" transform="translate(-182.69 -233.29)"/><path class="cls-4" d="M406.21,373.86l.82.83c-3.32,3.08-5.3.76-7.22-1.79a4.22,4.22,0,0,1,4.68-.08c-.61.84-1.59.33-2.4.65-.54.07.41.9.06.41A3.84,3.84,0,0,1,406.21,373.86Z" transform="translate(-182.69 -233.29)"/><path class="cls-49" d="M363.56,285c.12.89.24,1.78-1.44,2.78-.51-4.67-.69-8.91.64-13.16C364.09,278,362.64,281.63,363.56,285Z" transform="translate(-182.69 -233.29)"/><path class="cls-1" d="M417.82,368.43,416,366.78c.08-.13.12-.32.23-.38,1.21-.58,2.32-2.91,3.56-1.5C421.34,366.67,419,367.5,417.82,368.43Z" transform="translate(-182.69 -233.29)"/><path class="cls-7" d="M363.56,285c-1.68-3.35-.15-7-.8-10.38,0-.14,0-.33.14-.41a2.29,2.29,0,0,1,.55-.24C363.49,277.69,363.52,281.36,363.56,285Z" transform="translate(-182.69 -233.29)"/><path class="cls-56" d="M393.38,406.08v-6.81l1-2a22,22,0,0,1,.12,8.92l-.44,1.1Z" transform="translate(-182.69 -233.29)"/><path class="cls-76" d="M402.09,378.94c.53,1.11,1.26,1.92,1.16,2.62a1.77,1.77,0,0,1-2,1.37c-.73-.1-1.56-.39-1.07-1.37A21.79,21.79,0,0,1,402.09,378.94Z" transform="translate(-182.69 -233.29)"/><path class="cls-19" d="M394.53,406.19l-.12-8.92C396.09,400.22,395.58,403.2,394.53,406.19Z" transform="translate(-182.69 -233.29)"/><path class="cls-49" d="M401.59,407.19c-1.62-2.72-1.18-5.41.08-8.1A16.34,16.34,0,0,1,401.59,407.19Z" transform="translate(-182.69 -233.29)"/><path class="cls-55" d="M355.73,299.87c-.08-1.41-.16-2.82-.25-4.22.16-1.29.31-2.58.46-3.87C356.36,294.51,357.39,297.26,355.73,299.87Z" transform="translate(-182.69 -233.29)"/><path class="cls-6" d="M401.59,407.19q0-4.05.08-8.1l1,0c-.07,2.68-.15,5.37-.23,8.05l-.43,0Z" transform="translate(-182.69 -233.29)"/><path class="cls-18" d="M390.74,416.17l.95-2.67c1.43.13,2.1.82,1.51,2.24S391.66,416.62,390.74,416.17Z" transform="translate(-182.69 -233.29)"/><path class="cls-6" d="M412.32,380.19a12.44,12.44,0,0,1,0,7.1A7.27,7.27,0,0,1,412.32,380.19Z" transform="translate(-182.69 -233.29)"/><path class="cls-1" d="M388.73,382.05c-.67-1.5-1.35-3-2-4.49C389.07,378.29,389.82,379.76,388.73,382.05Z" transform="translate(-182.69 -233.29)"/><path class="cls-53" d="M363.67,290.9q0,3.6,0,7.18A7.12,7.12,0,0,1,363.67,290.9Z" transform="translate(-182.69 -233.29)"/><path class="cls-51" d="M362.83,243.09l2.72,1.81c-.32.68-.79,1.53-1.55,1.23C362.66,245.62,362.87,244.25,362.83,243.09Z" transform="translate(-182.69 -233.29)"/><path class="cls-33" d="M407.67,397.59a6.22,6.22,0,0,1-5,0Z" transform="translate(-182.69 -233.29)"/><path class="cls-19" d="M359.36,319.75a5,5,0,0,1-.21-.54.77.77,0,0,1,.05-.29l1.2-2.17C360,317.76,363.06,320.29,359.36,319.75Z" transform="translate(-182.69 -233.29)"/><path class="cls-35" d="M356.6,307.09l-.28-3.22.61-2.72C357.58,303.63,358,305.41,356.6,307.09Z" transform="translate(-182.69 -233.29)"/><path class="cls-73" d="M392.79,396.3c-.06-1.53-1.38-2.78-1-4.41C394.47,392.86,393.7,394.56,392.79,396.3Z" transform="translate(-182.69 -233.29)"/><path class="cls-37" d="M415.49,392.54a5.47,5.47,0,0,1,3.25,1.15C417.2,394.59,416,394.63,415.49,392.54Z" transform="translate(-182.69 -233.29)"/><path class="cls-18" d="M472.83,404.48c0,1.8.09,3.59.13,5.38h-1C472.22,408.07,471.22,406.06,472.83,404.48Z" transform="translate(-182.69 -233.29)"/><path class="cls-22" d="M407.9,410c-1.56,1.52-3.49.52-5.24.78l2.75-1Z" transform="translate(-182.69 -233.29)"/><path class="cls-67" d="M357.57,312.47c-.09-.82-.18-1.64-.26-2.47a2.3,2.3,0,0,1,.36-.81c.63-.62.61.11.62.39C358.31,310.6,358.62,311.72,357.57,312.47Z" transform="translate(-182.69 -233.29)"/><path class="cls-11" d="M320.88,537c-2-1.76-4.49-.39-6.69-.94a32.59,32.59,0,0,1,17.66-1.36c4,.82,8.41-1.41,12,1.56-2.83.25-5.8-1-8.51.73C330.55,536,325.72,535.43,320.88,537Z" transform="translate(-182.69 -233.29)"/><path class="cls-7" d="M319.78,527.85l16.75,0c1.21-.29,2.44-.79,3.53.32a1.44,1.44,0,0,1,.25.7,111.21,111.21,0,0,1-23.43-.11Z" transform="translate(-182.69 -233.29)"/><path class="cls-49" d="M316.88,528.78l23.43.11c-6.06,2-12.3.49-18.44.86C320.21,529.85,318.25,530.52,316.88,528.78Z" transform="translate(-182.69 -233.29)"/><path class="cls-4" d="M379,518.78c.36-2.56,2.25-1.56,3.7-1.58C382.19,519.44,381.38,521,379,518.78Z" transform="translate(-182.69 -233.29)"/><path class="cls-4" d="M386.57,514.54a1.26,1.26,0,0,1,1.53-1c.53.94,1.95,1.29,1.79,2.7C388.33,516.57,387.35,515.75,386.57,514.54Z" transform="translate(-182.69 -233.29)"/><path class="cls-34" d="M356.53,525.25c1.67-1.19,3.52-1.11,5.4-.72C360.31,526.15,358.45,526,356.53,525.25Z" transform="translate(-182.69 -233.29)"/><path class="cls-49" d="M347.53,528c-1.19,1.36-3.1.77-4.5,1.63-.31.18-1.3.35-.81-.71a3.38,3.38,0,0,1,5.31-.92Z" transform="translate(-182.69 -233.29)"/><path class="cls-55" d="M291.65,523.38c1.85.17,4.17-1,5,1.86C295.11,524.37,293,525,291.65,523.38Z" transform="translate(-182.69 -233.29)"/><path class="cls-72" d="M311.59,527l2.54.16c-1.34,1.39-2.95.73-5.19.58Z" transform="translate(-182.69 -233.29)"/><path class="cls-49" d="M340.06,528.19l-3.53-.32a15.2,15.2,0,0,1,5.57-.62Z" transform="translate(-182.69 -233.29)"/><path class="cls-15" d="M347.53,528l-4.49-.11a5.12,5.12,0,0,0,0-.68l4.43-.33C347.49,527.27,347.51,527.64,347.53,528Z" transform="translate(-182.69 -233.29)"/><path class="cls-1" d="M206,420.71c-.84-.11-1.78-.09-2-1.18,0-.12.33-.46.53-.47,1.18-.1,1.38.74,1.49,1.65Z" transform="translate(-182.69 -233.29)"/><path class="cls-19" d="M415.1,495.38l1.78-1.78c1.52,1.6-.13,2.82-.56,4.17a1.49,1.49,0,0,1-1.09,0C414.25,497,415,496.18,415.1,495.38Z" transform="translate(-182.69 -233.29)"/><path class="cls-25" d="M392.6,519.89c-1.05.31-1.86,1.36-3.14,1.08-.26-1.18,1.17-1.15,1.33-2A1.87,1.87,0,0,1,392.6,519.89Z" transform="translate(-182.69 -233.29)"/><path class="cls-32" d="M225.77,371.12a5.45,5.45,0,0,1-2.63,3.7,1.89,1.89,0,0,0-1.84-1v-.87c.69-.94,1.89-1.09,2.72-1.82Z" transform="translate(-182.69 -233.29)"/><path class="cls-19" d="M214.16,385.51c-.09-1.78-.17-3.57-.26-5.35C215,381.89,216.64,383.6,214.16,385.51Z" transform="translate(-182.69 -233.29)"/><path class="cls-13" d="M254.66,505.47c2-.25,3.33.57,3.72,2.65-2.11.44-1.07,2.54-1.92,3.65-.59-.61-2.58,1.9-2.26-1.17.14-1.37-1.74-2-3.15-2.43C250.22,504.55,254.4,507.62,254.66,505.47Z" transform="translate(-182.69 -233.29)"/><path class="cls-9" d="M244.79,496.35l2.06,2.71-2.11.08-3.59-3.59c0-.33,0-.65,0-1C243.11,493.64,244,494.86,244.79,496.35Z" transform="translate(-182.69 -233.29)"/><path class="cls-77" d="M244.79,496.35c-1.28-.46-2.08-1.89-3.63-1.78a3.05,3.05,0,0,0-.14-.78C243,493.62,245.77,492.2,244.79,496.35Z" transform="translate(-182.69 -233.29)"/><path class="cls-9" d="M237.53,496.45h-1.81c-.31-.77-.62-1.54-1-2.51C236.68,493.62,236.81,495.4,237.53,496.45Z" transform="translate(-182.69 -233.29)"/><path class="cls-9" d="M235.73,496.44c-1.21,1.63-2.4-.31-3.6,0C233.34,494.8,234.53,496,235.73,496.44Z" transform="translate(-182.69 -233.29)"/><path class="cls-57" d="M230.38,483.58c1.48-.15,2.19.74,2.69,1.94C231.16,486.27,230.91,484.73,230.38,483.58Z" transform="translate(-182.69 -233.29)"/><path class="cls-49" d="M398,354.77l9,.17C404,356.19,401,356.46,398,354.77Z" transform="translate(-182.69 -233.29)"/><path class="cls-67" d="M403.2,361.37h-1.36l-1-.64c1.1-.8,2.3-.32,3.46-.26Z" transform="translate(-182.69 -233.29)"/><path class="cls-10" d="M361.93,237.66c0,.31,0,.63,0,1a5.41,5.41,0,0,1-1.79,3.51,4.85,4.85,0,0,0-1.84-3.53h0Z" transform="translate(-182.69 -233.29)"/><path class="cls-10" d="M358.34,238.59l-2-.4c.55-.39,1.13-1.14,1.65-1.1,1.33.08.3,1,.31,1.5Z" transform="translate(-182.69 -233.29)"/><path class="cls-78" d="M215.88,351.37l-3.54-.95c.1-.69.08-1.64,1.06-1.49C214.71,349.13,215.86,349.74,215.88,351.37Z" transform="translate(-182.69 -233.29)"/><path class="cls-48" d="M224,371.12a2.8,2.8,0,0,1-2.72,1.82C220.89,370.36,222.5,370.81,224,371.12Z" transform="translate(-182.69 -233.29)"/><path class="cls-25" d="M227.61,364.81c.23-1.36.47-2.76,2.4-2.2.33.09.81.67.76.95-.34,2.09-2.07.9-3.16,1.25Z" transform="translate(-182.69 -233.29)"/><path class="cls-74" d="M334.79,254.47c.7,2.45-.67,5.17.94,7.5,0,3.95,0,7.9,0,11.84-1,.78-.62,2-.93,3A121.47,121.47,0,0,1,334.79,254.47Z" transform="translate(-182.69 -233.29)"/><path class="cls-46" d="M368.05,380.54c.3-.58.71-.89,1.16-.18s1.17,1.69-.06,2.49A2.58,2.58,0,0,1,368.05,380.54Z" transform="translate(-182.69 -233.29)"/><path class="cls-79" d="M314.1,286.39q0,18,0,36c-.25.41-.51.43-.77,0V286.38C313.62,286,313.86,286,314.1,286.39Z" transform="translate(-182.69 -233.29)"/><path class="cls-35" d="M303.27,326.94h-.83q0-7.21,0-14.43h.77Z" transform="translate(-182.69 -233.29)"/><path class="cls-61" d="M314.1,286.39h-.73V273.76c.25,0,.5,0,.75,0Q314.11,280.07,314.1,286.39Z" transform="translate(-182.69 -233.29)"/><path class="cls-1" d="M303.24,407.57q0,4.35.05,8.7A11.54,11.54,0,0,1,303.24,407.57Z" transform="translate(-182.69 -233.29)"/><path class="cls-28" d="M303.22,305.3h-.7v-7.25a5.88,5.88,0,0,0,.73,0Z" transform="translate(-182.69 -233.29)"/><path class="cls-35" d="M313.37,322.43h.77c-.14,1.51.54,3.15-.73,4.48C313.4,325.41,313.38,323.92,313.37,322.43Z" transform="translate(-182.69 -233.29)"/><path class="cls-70" d="M345,291.51l-.54,2.95c-.36-2.73-1.37-5.46.28-8C344.81,288.11,344.9,289.81,345,291.51Z" transform="translate(-182.69 -233.29)"/><path class="cls-15" d="M382.57,397.32a25.45,25.45,0,0,1,.05,9.84A13.18,13.18,0,0,1,382.57,397.32Z" transform="translate(-182.69 -233.29)"/><path class="cls-49" d="M367.33,366.78a9.21,9.21,0,0,1-.24,2.29c-1.11.13-.49-.84-.59-1.34a3.15,3.15,0,0,1,.25-1.16Z" transform="translate(-182.69 -233.29)"/><path class="cls-74" d="M373.11,399.16V396A2.86,2.86,0,0,1,373.11,399.16Z" transform="translate(-182.69 -233.29)"/><path class="cls-39" d="M329.79,409.83l-7.45.9a1.07,1.07,0,0,1-.06-1.7C324.89,408.37,327.46,407.93,329.79,409.83Z" transform="translate(-182.69 -233.29)"/><path class="cls-65" d="M322.28,409l.06,1.7c-1.26-.43-2.71,1.34-3.87-.33A5.79,5.79,0,0,1,322.28,409Z" transform="translate(-182.69 -233.29)"/><path class="cls-8" d="M220.44,409.87l-.06-1.63,1.65-1.89c4.5-1,2.62,1.63,2,3.53Z" transform="translate(-182.69 -233.29)"/><path class="cls-39" d="M323.23,416.47c1.08-1.39,2.21-1.87,3.48-.22Z" transform="translate(-182.69 -233.29)"/><path class="cls-22" d="M406.93,417.58l-3.48-.31C404.89,414.28,405.91,415.88,406.93,417.58Z" transform="translate(-182.69 -233.29)"/><path class="cls-13" d="M343,401.41c-1.08-1-2.26-1.89-1.08-3.34.44-.54,1.11-.35,1.61,0C345.43,399.35,342.56,400.17,343,401.41Z" transform="translate(-182.69 -233.29)"/><path class="cls-74" d="M343.65,278.2a3.77,3.77,0,0,1-.58,0q0-8.12,0-16.23a3.5,3.5,0,0,0,.56,0Q343.64,270.09,343.65,278.2Z" transform="translate(-182.69 -233.29)"/><path class="cls-74" d="M324.17,348.55l.83,0a22.08,22.08,0,0,1,0,7.21h-.89C324.15,353.38,324.16,351,324.17,348.55Z" transform="translate(-182.69 -233.29)"/><path class="cls-52" d="M406.21,373.86h-4.47l-.05-.5,2.8-.54C405.23,372.89,406.17,372.62,406.21,373.86Z" transform="translate(-182.69 -233.29)"/></svg>