<svg id="Layer_1" data-name="Layer 1" xmlns="http://www.w3.org/2000/svg" viewBox="0 0 554.76 212.85"><defs><style>.cls-1,.cls-2{fill:#1d1d1b;}.cls-2,.cls-3,.cls-4,.cls-5,.cls-6{stroke:#1d1d1b;stroke-miterlimit:10;}.cls-3,.cls-6{fill:#fff;}.cls-3,.cls-4{stroke-width:0.75px;}.cls-4,.cls-5{fill:none;}.cls-6{stroke-width:2px;}</style></defs><path class="cls-1" d="M74.3,403s-2.38,6.83,0,11.3S83.22,419,83.22,419h11s24.68-6.24,25.87-8,0-5.94,0-5.94,5.36-5.36,9.52,0,0,3,0,3l11.6.6,2.38,2.23,2.08-4.61s-7.44-4.46-6.55-13.39l-.29-20.81,5-42.82,3.27-26.77h2.68s-1.78,16.06,0,16.95,2.38,11,5.95,15.17,10.11,18.14,12.49,22.6,6.24,8,8.32,16.36,0,13.38,0,13.38l3.57.59s30.93-75.83,32.12-81.78S222.09,395,220.9,397s-.29,6.84-7.43,10.11S253,408.34,253,408.34s-10.41-5.95-12.49-16.36-11.6-117.46-11.6-117.46,2.68-8.33,7.44-10.11-34.5,0-34.5,0,6.84,4.16,4.76,16.65-17.55,45.5-17.55,45.5l-7.73,18.14s-1.19-14.57-3-16.95-19-34.5-20.22-34.5-5.36-12.49-3.27-21.41c0,0,5.65-12.78,11-12.78S136.15,257,136.15,257l-11.3,2.38s-34.49,2.38-47,32.71l-.9,3v10.41s1.79,10.11,10.11,10.11,9.82-.3,9.82-.3,13.38-5.06,16.06-18.44c0,0-9.22,5.95-12.49-.59l-.3-8s14.27-24.39,36-24.68l15.17-.3s-5.06,16.65-25.58,19.63c0,0,3.87,5,4.76,5s0,17.84,0,17.84L126.93,338l-4.76,36.43-.89,4.46S115,409.82,97.79,412.2H86.19s-.59-2.67,1.19-2.67L88,406S87.68,397,74.3,403Z" transform="translate(-10.58 -244.63)"/><path class="cls-2" d="M253,392.28s7.73-4.76,8.33-11.9,0-86.53,0-86.53-1.49-11-8.33-11.6,66.61,0,66.61,0-6.84,18.44-8.33,18.44.6-8.33-7.13-7.73H278.3v29.73s6.24-8.62,11-8.92,7.14-.29,7.14-.29a29.79,29.79,0,0,0,11.3,4.75H314s5.35-3.56,5.65-4.46-3.87,16.66-14.27,16.06H300.9s-9.37-5.35-14.5-5.35h-4.24l-3.86,2.38.29,53.82,26.47-.3s16.35-5.65,16.95-14-3.87,25.87-3.87,25.87-.29,3.57-1.78,2.08A12.56,12.56,0,0,0,312.2,392Z" transform="translate(-10.58 -244.63)"/><path class="cls-2" d="M328.25,391.68h30s-8.33-2.08-8.18-12.34l.15-73.45s36,5.21,38.51,85.79H402.9V296.82s-.6-12.42,8.62-14.83H380.89s8,2.79,8.18,13.79l.29,33.75S376.88,280.09,328.25,282A24.28,24.28,0,0,1,336.58,295l-.3,85.94S335.39,388.86,328.25,391.68Z" transform="translate(-10.58 -244.63)"/><path class="cls-2" d="M417,281.93h34.19s-7.73,2.11-8.4,14-.29,72.56-.29,72.56S446.16,382,453.75,382h9.66s17.52-5.59,13.38-12.49c-.44-.74-1.19-75.53-1.19-75.53s-1.19-11.19-7.73-12.07,31.37,0,31.37,0-8,3.29-8.47,11.18,1.49,69.13,1.49,69.13,3.27,5.65,4.61,5.36-9.82,25.42-30.49,26.17-14.57,0-14.57,0-25.72-2.38-32-25.13c0,0,3-3.27,3.42-5.65s1.93-68.25,1.93-68.25S424,281.33,417,281.93Z" transform="translate(-10.58 -244.63)"/><rect class="cls-3" x="0.38" y="198.2" width="16.65" height="14.27"/><rect class="cls-4" x="539.51" y="198.2" width="14.87" height="14.27"/><path class="cls-5" d="M13.63,442.83" transform="translate(-10.58 -244.63)"/><line class="cls-6" x1="17.03" y1="205.34" x2="539.51" y2="205.34"/><path class="cls-4" d="M264.62,245.67s-5.8,1.05-5.21,5.06,4.76,6.24,4.76,6.24l5.06-5.65Z" transform="translate(-10.58 -244.63)"/><path class="cls-4" d="M276.07,246.42V257s0-5.5.74-5.27a40.55,40.55,0,0,0,5.2,0l1.79-3.5-2.08-2.53h-5.65" transform="translate(-10.58 -244.63)"/><polyline class="cls-4" points="285.95 1.05 280.01 1.05 280.01 6.15 280.01 11.26 285.95 11.26"/><path class="cls-4" d="M296.53,250.78" transform="translate(-10.58 -244.63)"/><line class="cls-4" x1="280.01" y1="6.15" x2="285.48" y2="6.15"/><polyline class="cls-4" points="292.99 12.35 292.99 1.05 301.39 11.26 301.39 1.05"/><polyline class="cls-4" points="323.47 1.05 317.67 1.05 317.67 6.4 317.67 11.75 323.47 11.75"/><line class="cls-4" x1="323.47" y1="6.15" x2="317.67" y2="6.4"/><polyline class="cls-4" points="330.21 1.44 334.77 12 339.38 1.44"/><polyline class="cls-4" points="374.12 1.05 377.69 6.28 377.69 12 377.69 6.28 382.46 1.5"/><path class="cls-4" d="M399.53,246.07v10.56h6.24s3.07-4.17,2.78-5.28-1.39-4.78-3.37-5.28A20.31,20.31,0,0,0,399.53,246.07Z" transform="translate(-10.58 -244.63)"/><path class="cls-4" d="M413.82,256.63l2-3.08h4.91l2.45,3.08-2.45-3.08v-3.86s-1.79-3.35-2.23-3.27" transform="translate(-10.58 -244.63)"/><path class="cls-4" d="M415.83,253.55v-4.08s1.93-3.05,2.31-3.05h.37" transform="translate(-10.58 -244.63)"/><path class="cls-4" d="M451.65,440.85l2.43-6.25H460l3,6.25-3-6.25v-7.87s-2.15-6.8-2.69-6.65" transform="translate(-10.58 -244.63)"/><path class="cls-4" d="M454.08,434.6v-8.32s2.33-6.21,2.78-6.2h.45" transform="translate(-10.58 -244.63)"/><path class="cls-4" d="M482.36,440.85l2.42-6.25h5.93l3,6.25-3-6.25v-7.87s-2.16-6.8-2.69-6.65" transform="translate(-10.58 -244.63)"/><path class="cls-4" d="M484.78,434.6v-8.32s2.34-6.21,2.79-6.2H488" transform="translate(-10.58 -244.63)"/><polyline class="cls-4" points="422.35 12 422.35 5.36 426.59 1.22 422.35 5.36 418.13 1.13"/><polyline class="cls-4" points="352.76 11.75 346.22 11.75 346.22 6.4 352.76 6.4 346.22 6.4 346.22 1.22 352.76 1.22"/><polyline class="cls-4" points="515.17 197 507.27 197 507.27 186.11 515.17 186.11 507.27 186.11 507.27 175.58 515.17 175.58"/><path class="cls-4" d="M370.38,251.52h6.1s.79.7.74,1,1.09,3.42.89,3.82" transform="translate(-10.58 -244.63)"/><path class="cls-4" d="M376.48,251.52a18.91,18.91,0,0,0,1.66-3.32c0-.49-.22-2.58-2-2.53l-5.8.18v11.07" transform="translate(-10.58 -244.63)"/><path class="cls-4" d="M468.56,430.92h7.37a5.18,5.18,0,0,1,.89,2.12c-.06.7,1.32,6.95,1.08,7.76" transform="translate(-10.58 -244.63)"/><path class="cls-4" d="M475.93,430.92s2-5.75,2-6.76-.27-5.24-2.36-5.14l-7,.36v22.53" transform="translate(-10.58 -244.63)"/><polyline class="cls-4" points="397.6 161.03 397.6 196.02 411.56 196.02"/><polyline class="cls-4" points="410.66 189.77 403.12 189.77 403.12 164.96 410.66 164.96"/><path class="cls-5" d="M413.7,425.93" transform="translate(-10.58 -244.63)"/><line class="cls-4" x1="403.33" y1="181.3" x2="408.35" y2="181.3"/><polyline class="cls-4" points="431.16 169.5 422.36 169.5 422.36 196.12 436.96 196.12 436.96 181.9 429.66 181.9 429.66 188.46 432.41 188.05"/><polyline class="cls-4" points="496.56 169.4 487.76 169.4 487.76 196.02 502.37 196.02 502.37 181.8 495.06 181.8 495.06 188.36 497.81 187.95"/></svg>